M48
;DRILL file {KiCad (2015-09-03 BZR 6154)-product} date 2015 September 07, Monday 13:01:00
;FORMAT={-:-/ absolute / inch / decimal}
FMAT,2
INCH,TZ
T1C0.016
T2C0.032
T3C0.039
T4C0.040
T5C0.045
T6C0.060
T7C0.118
%
G90
G05
M72
T1
X6.582Y-3.633
X6.644Y-3.969
X6.6711Y-3.6591
X6.674Y-3.85
X6.824Y-3.797
X6.861Y-3.796
X6.988Y-4.197
X7.0031Y-3.9826
X7.0072Y-3.633
X7.0304Y-4.0099
X7.06Y-4.265
X7.0992Y-3.6695
X7.2038Y-4.1833
X7.2422Y-4.2378
X7.4396Y-3.633
X7.53Y-3.668
X7.748Y-4.405
X7.748Y-4.462
X8.333Y-3.113
T2
X6.1875Y-4.175
X6.1875Y-4.475
X6.3875Y-4.175
X6.3875Y-4.475
T3
X7.512Y-3.801
X7.9017Y-4.6237
X7.985Y-3.864
X8.055Y-4.625
X8.239Y-3.72
X8.239Y-4.001
T4
X6.21Y-3.31
X6.31Y-3.31
X6.41Y-3.31
X6.538Y-3.905
X6.538Y-4.005
X6.538Y-4.105
X6.538Y-4.205
X6.538Y-4.305
X7.92Y-4.
X7.92Y-4.1
X7.92Y-4.2
T5
X6.65Y-3.43
X6.75Y-3.43
X6.85Y-3.43
X7.09Y-3.43
X7.19Y-3.43
X7.29Y-3.43
X7.53Y-3.43
X7.63Y-3.43
X7.73Y-3.43
X8.32Y-4.19
X8.32Y-4.29
X8.32Y-4.39
T6
X6.29Y-3.8325
X6.29Y-4.0325
X6.66Y-3.04
X6.86Y-3.04
X7.08Y-3.04
X7.28Y-3.04
X7.5Y-3.04
X7.7Y-3.04
X7.92Y-3.04
X8.12Y-3.04
T7
X6.2Y-2.97
X6.2Y-4.65
X8.318Y-2.96
X8.318Y-4.646
T4
X7.97Y-3.53G85X7.97Y-3.47
G05
X8.15Y-3.3G85X8.09Y-3.3
G05
X8.21Y-3.53G85X8.21Y-3.47
G05
T0
M30
