G04 #@! TF.FileFunction,Soldermask,Bot*
%FSLAX46Y46*%
G04 Gerber Fmt 4.6, Leading zero omitted, Abs format (unit mm)*
G04 Created by KiCad (PCBNEW (2015-09-03 BZR 6154)-product) date 2015 September 07, Monday 13:00:52*
%MOMM*%
G01*
G04 APERTURE LIST*
%ADD10C,0.100000*%
%ADD11C,5.200600*%
%ADD12R,5.200600X5.200600*%
%ADD13R,2.940000X2.940000*%
%ADD14C,2.940000*%
%ADD15R,2.432000X2.127200*%
%ADD16O,2.432000X2.127200*%
%ADD17R,2.127200X2.432000*%
%ADD18O,2.127200X2.432000*%
%ADD19O,2.432000X2.940000*%
%ADD20C,1.797000*%
%ADD21C,3.399740*%
%ADD22O,2.940000X2.432000*%
%ADD23C,1.000000*%
%ADD24C,1.800000*%
%ADD25C,1.600000*%
G04 APERTURE END LIST*
D10*
D11*
X208534000Y-88900000D03*
D12*
X202438000Y-88900000D03*
D11*
X206248000Y-83820000D03*
D13*
X159766000Y-97345500D03*
D14*
X159766000Y-102425500D03*
D13*
X206248000Y-77216000D03*
D14*
X201168000Y-77216000D03*
D15*
X166065200Y-99187000D03*
D16*
X166065200Y-101727000D03*
X166065200Y-104267000D03*
X166065200Y-106807000D03*
X166065200Y-109347000D03*
D15*
X201168000Y-101600000D03*
D16*
X201168000Y-104140000D03*
X201168000Y-106680000D03*
D17*
X157734000Y-84074000D03*
D18*
X160274000Y-84074000D03*
X162814000Y-84074000D03*
D13*
X195580000Y-77216000D03*
D14*
X190500000Y-77216000D03*
D13*
X184912000Y-77216000D03*
D14*
X179832000Y-77216000D03*
D13*
X174244000Y-77216000D03*
D14*
X169164000Y-77216000D03*
D19*
X193802000Y-87122000D03*
X196342000Y-87122000D03*
X191262000Y-87122000D03*
X182626000Y-87122000D03*
X185166000Y-87122000D03*
X180086000Y-87122000D03*
X171450000Y-87122000D03*
X173990000Y-87122000D03*
X168910000Y-87122000D03*
D20*
X162242500Y-113665000D03*
X157162500Y-113665000D03*
X162242500Y-106045000D03*
X157162500Y-106045000D03*
D21*
X211277200Y-118008400D03*
X157480000Y-75438000D03*
X157480000Y-118110000D03*
X211277200Y-75184000D03*
D22*
X211328000Y-108966000D03*
X211328000Y-106426000D03*
X211328000Y-111506000D03*
D23*
X183951880Y-107640120D03*
X182976520Y-106255919D03*
X178572160Y-101851559D03*
X177878641Y-101158040D03*
X169519600Y-97790000D03*
X191262000Y-93167200D03*
X169444924Y-92940000D03*
X180319516Y-93206000D03*
X173329600Y-96443800D03*
X174269400Y-96418400D03*
D24*
X204597000Y-117475000D03*
X200703180Y-117441980D03*
X209270600Y-94488000D03*
X209270600Y-101625400D03*
D23*
X188966420Y-92278200D03*
X177983136Y-92278200D03*
X167182800Y-92278200D03*
X168757600Y-100812600D03*
D25*
X190804800Y-96545400D03*
X202819000Y-98145600D03*
D23*
X211658200Y-79070200D03*
X177495200Y-106603800D03*
X179324000Y-108331000D03*
X196799200Y-113334800D03*
X196799200Y-111887000D03*
M02*
