G04 #@! TF.FileFunction,Paste,Top*
%FSLAX46Y46*%
G04 Gerber Fmt 4.6, Leading zero omitted, Abs format (unit mm)*
G04 Created by KiCad (PCBNEW (2015-09-03 BZR 6154)-product) date 2015 September 07, Monday 13:00:52*
%MOMM*%
G01*
G04 APERTURE LIST*
%ADD10C,0.100000*%
%ADD11R,1.198880X3.395980*%
%ADD12R,0.800000X0.750000*%
%ADD13R,0.750000X0.800000*%
%ADD14R,3.395980X1.198880*%
%ADD15R,0.797560X0.797560*%
%ADD16R,0.500000X0.900000*%
%ADD17R,0.900000X0.500000*%
%ADD18O,1.100000X2.400000*%
%ADD19R,2.400000X1.100000*%
%ADD20O,2.400000X1.100000*%
%ADD21R,1.060000X0.650000*%
%ADD22R,2.032000X3.657600*%
%ADD23R,2.032000X1.016000*%
%ADD24R,0.450000X0.590000*%
G04 APERTURE END LIST*
D10*
D11*
X202438000Y-117441980D03*
X202438000Y-110794800D03*
D12*
X210933600Y-94437200D03*
X212433600Y-94437200D03*
X195555300Y-96304100D03*
X194055300Y-96304100D03*
D13*
X192214500Y-93206000D03*
X192214500Y-91706000D03*
X181356000Y-93206000D03*
X181356000Y-91706000D03*
X168402000Y-92940000D03*
X168402000Y-91440000D03*
X190246000Y-93206000D03*
X190246000Y-91706000D03*
X179324000Y-93206000D03*
X179324000Y-91706000D03*
X170434000Y-92952000D03*
X170434000Y-91452000D03*
D12*
X192556000Y-82550000D03*
X194056000Y-82550000D03*
X181864000Y-82550000D03*
X183364000Y-82550000D03*
X170700000Y-82550000D03*
X172200000Y-82550000D03*
D14*
X163669980Y-90170000D03*
X157022800Y-90170000D03*
D15*
X194056000Y-98336100D03*
X195554600Y-98336100D03*
D16*
X169785600Y-100838000D03*
X171285600Y-100838000D03*
X169746800Y-99009200D03*
X171246800Y-99009200D03*
X169747500Y-104686100D03*
X171247500Y-104686100D03*
X169747500Y-110528100D03*
X171247500Y-110528100D03*
X169747500Y-112560100D03*
X171247500Y-112560100D03*
X164710680Y-114498120D03*
X166210680Y-114498120D03*
X195555300Y-106464100D03*
X194055300Y-106464100D03*
X194055300Y-112560100D03*
X195555300Y-112560100D03*
X195543300Y-100368100D03*
X194043300Y-100368100D03*
X195555300Y-102400100D03*
X194055300Y-102400100D03*
X195567300Y-108496100D03*
X194067300Y-108496100D03*
D17*
X203962000Y-104152000D03*
X203962000Y-105652000D03*
X198602600Y-91858400D03*
X198602600Y-93358400D03*
X187604400Y-91807600D03*
X187604400Y-93307600D03*
X176504600Y-91680600D03*
X176504600Y-93180600D03*
D18*
X187600500Y-96769899D03*
X185600500Y-96769899D03*
X183600500Y-96769899D03*
X181600500Y-96769899D03*
X179600500Y-96769899D03*
X177600500Y-96769899D03*
D19*
X190590500Y-112519899D03*
D20*
X190590500Y-110519899D03*
X190590500Y-108519899D03*
X190590500Y-106519899D03*
X190590500Y-104519899D03*
X190590500Y-102519899D03*
X190590500Y-100519899D03*
X190590500Y-98519899D03*
X174590500Y-98519899D03*
X174590500Y-100519899D03*
X174590500Y-102519899D03*
X174590500Y-104519899D03*
X174590500Y-106519899D03*
X174590500Y-108519899D03*
X174590500Y-110519899D03*
X174590500Y-112519899D03*
D21*
X194396000Y-91569500D03*
X194396000Y-92519500D03*
X194396000Y-93469500D03*
X196596000Y-93469500D03*
X196596000Y-91569500D03*
X183474000Y-91506000D03*
X183474000Y-92456000D03*
X183474000Y-93406000D03*
X185674000Y-93406000D03*
X185674000Y-91506000D03*
X172466000Y-91440000D03*
X172466000Y-92390000D03*
X172466000Y-93340000D03*
X174666000Y-93340000D03*
X174666000Y-91440000D03*
D22*
X205206600Y-99364800D03*
D23*
X211810600Y-99364800D03*
X211810600Y-97078800D03*
X211810600Y-101650800D03*
D16*
X169734800Y-106553000D03*
X171234800Y-106553000D03*
X169785600Y-102717600D03*
X171285600Y-102717600D03*
D24*
X211658200Y-82030200D03*
X211658200Y-79920200D03*
D17*
X198526400Y-101612000D03*
X198526400Y-103112000D03*
X198501000Y-105168000D03*
X198501000Y-106668000D03*
M02*
