G04 #@! TF.FileFunction,Copper,L1,Top,Signal*
%FSLAX46Y46*%
G04 Gerber Fmt 4.6, Leading zero omitted, Abs format (unit mm)*
G04 Created by KiCad (PCBNEW (2015-09-03 BZR 6154)-product) date 2015 September 07, Monday 13:00:52*
%MOMM*%
G01*
G04 APERTURE LIST*
%ADD10C,0.100000*%
%ADD11R,1.198880X3.395980*%
%ADD12R,0.800000X0.750000*%
%ADD13R,0.750000X0.800000*%
%ADD14R,3.395980X1.198880*%
%ADD15C,4.800600*%
%ADD16R,4.800600X4.800600*%
%ADD17R,0.797560X0.797560*%
%ADD18R,2.540000X2.540000*%
%ADD19C,2.540000*%
%ADD20R,2.032000X1.727200*%
%ADD21O,2.032000X1.727200*%
%ADD22R,1.727200X2.032000*%
%ADD23O,1.727200X2.032000*%
%ADD24O,2.032000X2.540000*%
%ADD25R,0.500000X0.900000*%
%ADD26R,0.900000X0.500000*%
%ADD27C,1.397000*%
%ADD28O,1.100000X2.400000*%
%ADD29R,2.400000X1.100000*%
%ADD30O,2.400000X1.100000*%
%ADD31R,1.060000X0.650000*%
%ADD32C,2.999740*%
%ADD33R,2.032000X3.657600*%
%ADD34R,2.032000X1.016000*%
%ADD35O,2.540000X2.032000*%
%ADD36R,0.450000X0.590000*%
%ADD37C,0.600000*%
%ADD38C,1.400000*%
%ADD39C,1.200000*%
%ADD40C,0.250000*%
%ADD41C,0.254000*%
%ADD42C,1.000000*%
%ADD43C,2.000000*%
%ADD44C,3.000000*%
%ADD45C,0.500000*%
%ADD46C,3.500000*%
G04 APERTURE END LIST*
D10*
D11*
X202438000Y-117441980D03*
X202438000Y-110794800D03*
D12*
X210933600Y-94437200D03*
X212433600Y-94437200D03*
X195555300Y-96304100D03*
X194055300Y-96304100D03*
D13*
X192214500Y-93206000D03*
X192214500Y-91706000D03*
X181356000Y-93206000D03*
X181356000Y-91706000D03*
X168402000Y-92940000D03*
X168402000Y-91440000D03*
X190246000Y-93206000D03*
X190246000Y-91706000D03*
X179324000Y-93206000D03*
X179324000Y-91706000D03*
X170434000Y-92952000D03*
X170434000Y-91452000D03*
D12*
X192556000Y-82550000D03*
X194056000Y-82550000D03*
X181864000Y-82550000D03*
X183364000Y-82550000D03*
X170700000Y-82550000D03*
X172200000Y-82550000D03*
D14*
X163669980Y-90170000D03*
X157022800Y-90170000D03*
D15*
X208534000Y-88900000D03*
D16*
X202438000Y-88900000D03*
D15*
X206248000Y-83820000D03*
D17*
X194056000Y-98336100D03*
X195554600Y-98336100D03*
D18*
X159766000Y-97345500D03*
D19*
X159766000Y-102425500D03*
D18*
X206248000Y-77216000D03*
D19*
X201168000Y-77216000D03*
D20*
X166065200Y-99187000D03*
D21*
X166065200Y-101727000D03*
X166065200Y-104267000D03*
X166065200Y-106807000D03*
X166065200Y-109347000D03*
D20*
X201168000Y-101600000D03*
D21*
X201168000Y-104140000D03*
X201168000Y-106680000D03*
D22*
X157734000Y-84074000D03*
D23*
X160274000Y-84074000D03*
X162814000Y-84074000D03*
D18*
X195580000Y-77216000D03*
D19*
X190500000Y-77216000D03*
D18*
X184912000Y-77216000D03*
D19*
X179832000Y-77216000D03*
D18*
X174244000Y-77216000D03*
D19*
X169164000Y-77216000D03*
D24*
X193802000Y-87122000D03*
X196342000Y-87122000D03*
X191262000Y-87122000D03*
X182626000Y-87122000D03*
X185166000Y-87122000D03*
X180086000Y-87122000D03*
X171450000Y-87122000D03*
X173990000Y-87122000D03*
X168910000Y-87122000D03*
D25*
X169785600Y-100838000D03*
X171285600Y-100838000D03*
X169746800Y-99009200D03*
X171246800Y-99009200D03*
X169747500Y-104686100D03*
X171247500Y-104686100D03*
X169747500Y-110528100D03*
X171247500Y-110528100D03*
X169747500Y-112560100D03*
X171247500Y-112560100D03*
X164710680Y-114498120D03*
X166210680Y-114498120D03*
X195555300Y-106464100D03*
X194055300Y-106464100D03*
X194055300Y-112560100D03*
X195555300Y-112560100D03*
X195543300Y-100368100D03*
X194043300Y-100368100D03*
X195555300Y-102400100D03*
X194055300Y-102400100D03*
X195567300Y-108496100D03*
X194067300Y-108496100D03*
D26*
X203962000Y-104152000D03*
X203962000Y-105652000D03*
X198602600Y-91858400D03*
X198602600Y-93358400D03*
X187604400Y-91807600D03*
X187604400Y-93307600D03*
X176504600Y-91680600D03*
X176504600Y-93180600D03*
D27*
X162242500Y-113665000D03*
X157162500Y-113665000D03*
X162242500Y-106045000D03*
X157162500Y-106045000D03*
D28*
X187600500Y-96769899D03*
X185600500Y-96769899D03*
X183600500Y-96769899D03*
X181600500Y-96769899D03*
X179600500Y-96769899D03*
X177600500Y-96769899D03*
D29*
X190590500Y-112519899D03*
D30*
X190590500Y-110519899D03*
X190590500Y-108519899D03*
X190590500Y-106519899D03*
X190590500Y-104519899D03*
X190590500Y-102519899D03*
X190590500Y-100519899D03*
X190590500Y-98519899D03*
X174590500Y-98519899D03*
X174590500Y-100519899D03*
X174590500Y-102519899D03*
X174590500Y-104519899D03*
X174590500Y-106519899D03*
X174590500Y-108519899D03*
X174590500Y-110519899D03*
X174590500Y-112519899D03*
D31*
X194396000Y-91569500D03*
X194396000Y-92519500D03*
X194396000Y-93469500D03*
X196596000Y-93469500D03*
X196596000Y-91569500D03*
X183474000Y-91506000D03*
X183474000Y-92456000D03*
X183474000Y-93406000D03*
X185674000Y-93406000D03*
X185674000Y-91506000D03*
X172466000Y-91440000D03*
X172466000Y-92390000D03*
X172466000Y-93340000D03*
X174666000Y-93340000D03*
X174666000Y-91440000D03*
D32*
X211277200Y-118008400D03*
X157480000Y-75438000D03*
X157480000Y-118110000D03*
X211277200Y-75184000D03*
D33*
X205206600Y-99364800D03*
D34*
X211810600Y-99364800D03*
X211810600Y-97078800D03*
X211810600Y-101650800D03*
D35*
X211328000Y-108966000D03*
X211328000Y-106426000D03*
X211328000Y-111506000D03*
D25*
X169734800Y-106553000D03*
X171234800Y-106553000D03*
X169785600Y-102717600D03*
X171285600Y-102717600D03*
D36*
X211658200Y-82030200D03*
X211658200Y-79920200D03*
D26*
X198526400Y-101612000D03*
X198526400Y-103112000D03*
X198501000Y-105168000D03*
X198501000Y-106668000D03*
D37*
X183951880Y-107640120D03*
X182976520Y-106255919D03*
X178572160Y-101851559D03*
X177878641Y-101158040D03*
X169519600Y-97790000D03*
X191262000Y-93167200D03*
X169444924Y-92940000D03*
X180319516Y-93206000D03*
X173329600Y-96443800D03*
X174269400Y-96418400D03*
D38*
X204597000Y-117475000D03*
X200703180Y-117441980D03*
X209270600Y-94488000D03*
X209270600Y-101625400D03*
D37*
X188966420Y-92278200D03*
X177983136Y-92278200D03*
X167182800Y-92278200D03*
X168757600Y-100812600D03*
D39*
X190804800Y-96545400D03*
X202819000Y-98145600D03*
D37*
X211658200Y-79070200D03*
X177495200Y-106603800D03*
X179324000Y-108331000D03*
X196799200Y-113334800D03*
X196799200Y-111887000D03*
D40*
X177878641Y-101158040D02*
X178572160Y-101851559D01*
X174590500Y-98519899D02*
X175240500Y-98519899D01*
X175240500Y-98519899D02*
X177878641Y-101158040D01*
D41*
X169746800Y-98017200D02*
X169519600Y-97790000D01*
X169746800Y-99009200D02*
X169746800Y-98017200D01*
X198501000Y-106668000D02*
X201156000Y-106668000D01*
X201156000Y-106668000D02*
X201168000Y-106680000D01*
X192214500Y-93206000D02*
X192843500Y-93206000D01*
X192843500Y-93206000D02*
X193530000Y-92519500D01*
X193530000Y-92519500D02*
X194396000Y-92519500D01*
D42*
X191262000Y-93167200D02*
X192175700Y-93167200D01*
X192175700Y-93167200D02*
X192214500Y-93206000D01*
X190246000Y-93206000D02*
X191223200Y-93206000D01*
X191223200Y-93206000D02*
X191262000Y-93167200D01*
X169444924Y-92940000D02*
X170422000Y-92940000D01*
X170422000Y-92940000D02*
X170434000Y-92952000D01*
X168402000Y-92940000D02*
X169444924Y-92940000D01*
X180319516Y-93206000D02*
X181356000Y-93206000D01*
X179324000Y-93206000D02*
X180319516Y-93206000D01*
D41*
X172466000Y-92390000D02*
X173294000Y-92390000D01*
D42*
X173329600Y-96443800D02*
X174244000Y-96443800D01*
X174244000Y-96443800D02*
X174269400Y-96418400D01*
X174523400Y-96902799D02*
X174523400Y-96672400D01*
X174523400Y-96672400D02*
X174269400Y-96418400D01*
X174590500Y-98519899D02*
X174590500Y-96969899D01*
X174590500Y-96969899D02*
X174523400Y-96902799D01*
D43*
X163669980Y-90170000D02*
X163669980Y-84929980D01*
X163669980Y-84929980D02*
X162814000Y-84074000D01*
D40*
X183474000Y-92456000D02*
X185299000Y-92456000D01*
X185299000Y-92456000D02*
X185674000Y-92831000D01*
X185674000Y-92831000D02*
X185674000Y-93406000D01*
X182295800Y-92891200D02*
X182295800Y-92854200D01*
X182295800Y-92854200D02*
X182694000Y-92456000D01*
X182694000Y-92456000D02*
X183474000Y-92456000D01*
X181356000Y-93206000D02*
X181981000Y-93206000D01*
X181981000Y-93206000D02*
X182295800Y-92891200D01*
X172466000Y-92390000D02*
X174291000Y-92390000D01*
X174291000Y-92390000D02*
X174666000Y-92765000D01*
X174666000Y-92765000D02*
X174666000Y-93340000D01*
X172466000Y-92390000D02*
X171686000Y-92390000D01*
X171686000Y-92390000D02*
X171124000Y-92952000D01*
X171124000Y-92952000D02*
X170434000Y-92952000D01*
D42*
X203715620Y-117441980D02*
X203748640Y-117475000D01*
X203748640Y-117475000D02*
X204597000Y-117475000D01*
X202438000Y-117441980D02*
X203715620Y-117441980D01*
X202438000Y-117441980D02*
X200703180Y-117441980D01*
X210933600Y-94437200D02*
X209321400Y-94437200D01*
X209321400Y-94437200D02*
X209270600Y-94488000D01*
X211810600Y-101650800D02*
X209296000Y-101650800D01*
X209296000Y-101650800D02*
X209270600Y-101625400D01*
D41*
X196596000Y-93469500D02*
X196596000Y-92890500D01*
X196596000Y-92890500D02*
X196225000Y-92519500D01*
X196225000Y-92519500D02*
X194396000Y-92519500D01*
X201168000Y-101600000D02*
X198538400Y-101600000D01*
X198538400Y-101600000D02*
X198526400Y-101612000D01*
D44*
X202438000Y-86969600D02*
X201168000Y-85699600D01*
X201168000Y-85699600D02*
X201168000Y-77216000D01*
X202438000Y-88900000D02*
X202438000Y-86969600D01*
D42*
X172200000Y-82550000D02*
X172200000Y-79260000D01*
X172200000Y-79260000D02*
X174244000Y-77216000D01*
X194056000Y-82550000D02*
X194056000Y-81175000D01*
X194056000Y-81175000D02*
X195580000Y-79651000D01*
X195580000Y-79651000D02*
X195580000Y-77216000D01*
X184912000Y-77216000D02*
X184912000Y-81002000D01*
X184912000Y-81002000D02*
X183364000Y-82550000D01*
X168402000Y-91440000D02*
X170422000Y-91440000D01*
X170422000Y-91440000D02*
X170434000Y-91452000D01*
X179324000Y-91706000D02*
X181356000Y-91706000D01*
D41*
X181356000Y-91706000D02*
X183274000Y-91706000D01*
X183274000Y-91706000D02*
X183474000Y-91506000D01*
X192214500Y-91706000D02*
X194259500Y-91706000D01*
X194259500Y-91706000D02*
X194396000Y-91569500D01*
X190246000Y-91706000D02*
X192214500Y-91706000D01*
D42*
X190246000Y-91706000D02*
X189538620Y-91706000D01*
X189538620Y-91706000D02*
X188966420Y-92278200D01*
X179324000Y-91706000D02*
X178555336Y-91706000D01*
X178555336Y-91706000D02*
X177983136Y-92278200D01*
X168402000Y-91440000D02*
X167538400Y-91440000D01*
X167538400Y-91440000D02*
X167182800Y-91795600D01*
X167182800Y-91795600D02*
X167182800Y-92278200D01*
X212064600Y-92693200D02*
X211173613Y-92693200D01*
D41*
X211658200Y-92208613D02*
X211173613Y-92693200D01*
D42*
X211173613Y-92693200D02*
X202830900Y-92693200D01*
D41*
X211658200Y-82030200D02*
X211658200Y-92208613D01*
D43*
X157022800Y-90170000D02*
X157022800Y-84785200D01*
X157022800Y-84785200D02*
X157734000Y-84074000D01*
D42*
X202438000Y-95631000D02*
X202438000Y-94980480D01*
X202438000Y-94980480D02*
X202438000Y-91463744D01*
D45*
X200949280Y-96469200D02*
X202438000Y-94980480D01*
D40*
X179324000Y-91706000D02*
X183274000Y-91706000D01*
X168402000Y-91440000D02*
X172466000Y-91440000D01*
D42*
X202438000Y-92300300D02*
X202438000Y-91463744D01*
X202438000Y-91463744D02*
X202438000Y-88900000D01*
X201168000Y-96901000D02*
X202438000Y-95631000D01*
X201168000Y-101600000D02*
X201168000Y-96901000D01*
X202830900Y-92693200D02*
X202438000Y-92300300D01*
X212433600Y-94437200D02*
X212433600Y-93062200D01*
X212433600Y-93062200D02*
X212064600Y-92693200D01*
X212445600Y-96443800D02*
X212433600Y-96431800D01*
X212433600Y-96431800D02*
X212433600Y-94437200D01*
X211810600Y-97078800D02*
X212445600Y-96443800D01*
X211328000Y-111506000D02*
X212344000Y-111506000D01*
X212344000Y-111506000D02*
X213766400Y-110083600D01*
X213766400Y-110083600D02*
X213766400Y-97764600D01*
X213766400Y-97764600D02*
X213080600Y-97078800D01*
X213080600Y-97078800D02*
X211810600Y-97078800D01*
D41*
X194396000Y-91569500D02*
X190382500Y-91569500D01*
X190382500Y-91569500D02*
X190246000Y-91706000D01*
D43*
X164465246Y-74358254D02*
X174233650Y-74358254D01*
X174233650Y-74358254D02*
X184355227Y-74358254D01*
X174244000Y-77216000D02*
X174244000Y-74368604D01*
X174244000Y-74368604D02*
X174233650Y-74358254D01*
X184355227Y-74358254D02*
X191297856Y-74358254D01*
X184912000Y-77216000D02*
X184912000Y-74915027D01*
X184912000Y-74915027D02*
X184355227Y-74358254D01*
X191310802Y-74371200D02*
X192735200Y-74371200D01*
X192735200Y-74371200D02*
X195580000Y-77216000D01*
X191297856Y-74358254D02*
X191310802Y-74371200D01*
X158210000Y-80613500D02*
X164465246Y-74358254D01*
X158178500Y-80613500D02*
X158210000Y-80613500D01*
X157734000Y-84074000D02*
X157734000Y-81058000D01*
X157734000Y-81058000D02*
X158178500Y-80613500D01*
D46*
X201168000Y-77216000D02*
X195580000Y-77216000D01*
D41*
X168757600Y-100812600D02*
X169760200Y-100812600D01*
X169760200Y-100812600D02*
X169785600Y-100838000D01*
D42*
X190804800Y-96545400D02*
X190804800Y-98305599D01*
X190804800Y-98305599D02*
X190590500Y-98519899D01*
X202819000Y-98993200D02*
X202819000Y-98145600D01*
X205206600Y-99364800D02*
X203190600Y-99364800D01*
X203190600Y-99364800D02*
X202819000Y-98993200D01*
D40*
X169734800Y-106553000D02*
X169734800Y-106541000D01*
X169734800Y-106541000D02*
X170510200Y-105765600D01*
X170510200Y-105765600D02*
X170510200Y-101062600D01*
X170510200Y-101062600D02*
X170285600Y-100838000D01*
X170285600Y-100838000D02*
X169785600Y-100838000D01*
D42*
X206772000Y-108721400D02*
X204698600Y-110794800D01*
X204698600Y-110794800D02*
X202438000Y-110794800D01*
X206772000Y-108712000D02*
X206772000Y-108721400D01*
X211328000Y-106426000D02*
X209058000Y-106426000D01*
X209058000Y-106426000D02*
X206772000Y-108712000D01*
D40*
X195555300Y-112560100D02*
X198753424Y-112560100D01*
D42*
X202438000Y-110794800D02*
X200838560Y-110794800D01*
X200838560Y-110794800D02*
X199073260Y-112560100D01*
X199073260Y-112560100D02*
X198753424Y-112560100D01*
X205206600Y-99364800D02*
X205206600Y-100304600D01*
X205206600Y-100304600D02*
X211328000Y-106426000D01*
X211810600Y-99364800D02*
X205206600Y-99364800D01*
D40*
X211328000Y-106426000D02*
X211074000Y-106426000D01*
X211074000Y-106426000D02*
X205206600Y-100558600D01*
X205206600Y-100558600D02*
X205206600Y-99364800D01*
X195555300Y-112560100D02*
X195555300Y-108508100D01*
X195555300Y-108508100D02*
X195567300Y-108496100D01*
D41*
X194056000Y-97361026D02*
X196370226Y-97361026D01*
X196675390Y-102054010D02*
X196329300Y-102400100D01*
X196370226Y-97361026D02*
X196675390Y-97666190D01*
X196675390Y-97666190D02*
X196675390Y-102054010D01*
X196329300Y-102400100D02*
X195555300Y-102400100D01*
X194056000Y-97361026D02*
X194056000Y-96304800D01*
X194056000Y-98336100D02*
X194056000Y-97361026D01*
X194056000Y-96304800D02*
X194055300Y-96304100D01*
X194056000Y-98336100D02*
X190774299Y-98336100D01*
X190774299Y-98336100D02*
X190590500Y-98519899D01*
D42*
X192556000Y-82550000D02*
X192556000Y-79272000D01*
X192556000Y-79272000D02*
X190500000Y-77216000D01*
X193802000Y-87122000D02*
X193802000Y-84852000D01*
X193802000Y-84852000D02*
X192556000Y-83606000D01*
X192556000Y-83606000D02*
X192556000Y-82550000D01*
X182626000Y-87122000D02*
X182626000Y-84287541D01*
X182626000Y-84287541D02*
X181864000Y-83525541D01*
X181864000Y-83525541D02*
X181864000Y-82550000D01*
X181864000Y-82550000D02*
X181864000Y-79248000D01*
X181864000Y-79248000D02*
X179832000Y-77216000D01*
X170700000Y-82550000D02*
X170700000Y-78752000D01*
X170700000Y-78752000D02*
X169164000Y-77216000D01*
X171450000Y-87122000D02*
X171450000Y-84852000D01*
X171450000Y-84852000D02*
X170700000Y-84102000D01*
X170700000Y-84102000D02*
X170700000Y-82550000D01*
D41*
X195543300Y-100368100D02*
X195543300Y-98347400D01*
X195543300Y-98347400D02*
X195554600Y-98336100D01*
D40*
X163712840Y-114995960D02*
X158493460Y-114995960D01*
X158493460Y-114995960D02*
X157162500Y-113665000D01*
X164710680Y-114498120D02*
X164210680Y-114498120D01*
X164210680Y-114498120D02*
X163712840Y-114995960D01*
X157124400Y-105019072D02*
X157124400Y-101507100D01*
X157124400Y-101507100D02*
X159766000Y-98865500D01*
X159766000Y-98865500D02*
X159766000Y-97345500D01*
X157162500Y-106045000D02*
X157162500Y-105057172D01*
X157162500Y-105057172D02*
X157124400Y-105019072D01*
X157162500Y-113665000D02*
X157860999Y-112966501D01*
X157860999Y-112966501D02*
X157860999Y-106743499D01*
X157860999Y-106743499D02*
X157162500Y-106045000D01*
D41*
X211658200Y-79920200D02*
X211658200Y-79070200D01*
X211658200Y-79070200D02*
X211658200Y-79857600D01*
D40*
X169747500Y-104686100D02*
X166484300Y-104686100D01*
X166484300Y-104686100D02*
X166065200Y-104267000D01*
X169747500Y-112560100D02*
X164934900Y-112560100D01*
X164934900Y-112560100D02*
X164134800Y-111760000D01*
X164134800Y-108585000D02*
X164134800Y-111760000D01*
X166065200Y-106807000D02*
X165912800Y-106807000D01*
X165912800Y-106807000D02*
X164134800Y-108585000D01*
X166065200Y-109347000D02*
X167331200Y-109347000D01*
X167331200Y-109347000D02*
X168512300Y-110528100D01*
X168512300Y-110528100D02*
X169747500Y-110528100D01*
D41*
X201168000Y-104140000D02*
X203950000Y-104140000D01*
X203950000Y-104140000D02*
X203962000Y-104152000D01*
X198602600Y-91858400D02*
X196884900Y-91858400D01*
X196884900Y-91858400D02*
X196596000Y-91569500D01*
X195961000Y-89763600D02*
X196596000Y-90398600D01*
X196596000Y-90398600D02*
X196596000Y-91569500D01*
X192379600Y-89763600D02*
X195961000Y-89763600D01*
X191262000Y-88646000D02*
X192379600Y-89763600D01*
X191262000Y-87122000D02*
X191262000Y-88646000D01*
D40*
X185674000Y-91506000D02*
X187302800Y-91506000D01*
X187302800Y-91506000D02*
X187604400Y-91807600D01*
D42*
X180086000Y-87122000D02*
X180086000Y-88646000D01*
X180086000Y-88646000D02*
X181102000Y-89662000D01*
X181102000Y-89662000D02*
X185166000Y-89662000D01*
X185166000Y-89662000D02*
X185674000Y-90170000D01*
X185674000Y-90170000D02*
X185674000Y-91506000D01*
D40*
X170332400Y-90068400D02*
X168910000Y-88646000D01*
X168910000Y-88646000D02*
X168910000Y-87122000D01*
X173869400Y-90068400D02*
X170332400Y-90068400D01*
X174666000Y-91440000D02*
X174666000Y-90865000D01*
X174666000Y-90865000D02*
X173869400Y-90068400D01*
X176504600Y-91680600D02*
X174906600Y-91680600D01*
X174906600Y-91680600D02*
X174666000Y-91440000D01*
X175387000Y-95250000D02*
X176504600Y-94132400D01*
X176504600Y-94132400D02*
X176504600Y-93180600D01*
X172466000Y-95250000D02*
X175387000Y-95250000D01*
X171246800Y-96469200D02*
X172466000Y-95250000D01*
X172466000Y-95250000D02*
X172466000Y-93340000D01*
X171246800Y-99009200D02*
X171246800Y-96469200D01*
X172593000Y-99972399D02*
X172593000Y-99855400D01*
X172593000Y-99855400D02*
X171746800Y-99009200D01*
X171746800Y-99009200D02*
X171246800Y-99009200D01*
X174590500Y-100519899D02*
X173140500Y-100519899D01*
X173140500Y-100519899D02*
X172593000Y-99972399D01*
X174590500Y-104519899D02*
X171413701Y-104519899D01*
X171413701Y-104519899D02*
X171247500Y-104686100D01*
X171247500Y-110528100D02*
X174582299Y-110528100D01*
X174582299Y-110528100D02*
X174590500Y-110519899D01*
X171247500Y-112560100D02*
X174550299Y-112560100D01*
X174550299Y-112560100D02*
X174590500Y-112519899D01*
X168376600Y-114096800D02*
X167975280Y-114498120D01*
X167975280Y-114498120D02*
X166210680Y-114498120D01*
X175742600Y-114096800D02*
X168376600Y-114096800D01*
X177368200Y-112471200D02*
X175742600Y-114096800D01*
X177368200Y-109118400D02*
X177368200Y-112471200D01*
X183966701Y-102519899D02*
X177368200Y-109118400D01*
X190590500Y-102519899D02*
X183966701Y-102519899D01*
D41*
X190590500Y-102519899D02*
X193935501Y-102519899D01*
X193935501Y-102519899D02*
X194055300Y-102400100D01*
D40*
X190590500Y-112519899D02*
X194015099Y-112519899D01*
X194015099Y-112519899D02*
X194055300Y-112560100D01*
X187680600Y-112039400D02*
X188161099Y-112519899D01*
X188161099Y-112519899D02*
X190590500Y-112519899D01*
X187680600Y-106324400D02*
X187680600Y-112039400D01*
X188493400Y-105511600D02*
X187680600Y-106324400D01*
X195302800Y-105511600D02*
X188493400Y-105511600D01*
X195555300Y-106464100D02*
X195555300Y-105764100D01*
X195555300Y-105764100D02*
X195302800Y-105511600D01*
X190590500Y-106519899D02*
X193999501Y-106519899D01*
X193999501Y-106519899D02*
X194055300Y-106464100D01*
D41*
X190590500Y-100519899D02*
X193891501Y-100519899D01*
X193891501Y-100519899D02*
X194043300Y-100368100D01*
D40*
X194067300Y-108496100D02*
X190614299Y-108496100D01*
X190614299Y-108496100D02*
X190590500Y-108519899D01*
D41*
X177495200Y-106603800D02*
X174674401Y-106603800D01*
X174674401Y-106603800D02*
X174590500Y-106519899D01*
X184627799Y-113634799D02*
X179324000Y-108331000D01*
X196799200Y-113334800D02*
X196499201Y-113634799D01*
X196499201Y-113634799D02*
X184627799Y-113634799D01*
X198882000Y-108610400D02*
X196799200Y-110693200D01*
X196799200Y-110693200D02*
X196799200Y-111887000D01*
X201726800Y-108610400D02*
X198882000Y-108610400D01*
X202819000Y-107518200D02*
X201726800Y-108610400D01*
X202819000Y-107299000D02*
X202819000Y-107518200D01*
X203962000Y-105652000D02*
X203962000Y-106156000D01*
X203962000Y-106156000D02*
X202819000Y-107299000D01*
D40*
X171234800Y-106553000D02*
X174557399Y-106553000D01*
X174557399Y-106553000D02*
X174590500Y-106519899D01*
D41*
X190590500Y-104519899D02*
X196216101Y-104519899D01*
X196216101Y-104519899D02*
X197129400Y-103606600D01*
X198374000Y-94056200D02*
X198408800Y-94056200D01*
X198408800Y-94056200D02*
X198602600Y-93862400D01*
X198602600Y-93862400D02*
X198602600Y-93358400D01*
X197129400Y-95300800D02*
X198374000Y-94056200D01*
X197129400Y-103606600D02*
X196303900Y-104432100D01*
X197129400Y-95300800D02*
X197129400Y-103606600D01*
X196646800Y-94818200D02*
X197129400Y-95300800D01*
X195165700Y-94818200D02*
X196646800Y-94818200D01*
X194396000Y-93469500D02*
X194396000Y-94048500D01*
X194396000Y-94048500D02*
X195165700Y-94818200D01*
D40*
X184581800Y-100634800D02*
X176696701Y-108519899D01*
X176696701Y-108519899D02*
X174590500Y-108519899D01*
X184581800Y-94549669D02*
X184581800Y-100634800D01*
X184770469Y-94361000D02*
X187051000Y-94361000D01*
X183743600Y-94361000D02*
X184770469Y-94361000D01*
X184770469Y-94361000D02*
X184581800Y-94549669D01*
X183474000Y-93406000D02*
X183474000Y-94091400D01*
X183474000Y-94091400D02*
X183743600Y-94361000D01*
X187051000Y-94361000D02*
X187604400Y-93807600D01*
X187604400Y-93807600D02*
X187604400Y-93307600D01*
D41*
X194792600Y-109905800D02*
X194178501Y-110519899D01*
X194178501Y-110519899D02*
X190590500Y-110519899D01*
X194792600Y-107696000D02*
X194792600Y-109905800D01*
X194970400Y-107518200D02*
X194792600Y-107696000D01*
X196443600Y-107518200D02*
X194970400Y-107518200D01*
X196850000Y-107111800D02*
X196443600Y-107518200D01*
X196850000Y-105435400D02*
X196850000Y-107111800D01*
X197926747Y-104358653D02*
X196850000Y-105435400D01*
X198526400Y-104358653D02*
X198526400Y-105142600D01*
X198526400Y-103112000D02*
X198526400Y-104358653D01*
X198526400Y-104358653D02*
X197926747Y-104358653D01*
X198526400Y-105142600D02*
X198501000Y-105168000D01*
D40*
X160274000Y-85340000D02*
X160274000Y-84074000D01*
X168132599Y-97515051D02*
X160274000Y-89656452D01*
X168132599Y-101564599D02*
X168132599Y-97515051D01*
X169285600Y-102717600D02*
X168132599Y-101564599D01*
X169785600Y-102717600D02*
X169285600Y-102717600D01*
X160274000Y-89656452D02*
X160274000Y-85340000D01*
X171285600Y-102717600D02*
X171285600Y-100838000D01*
X174590500Y-102519899D02*
X171483301Y-102519899D01*
X171483301Y-102519899D02*
X171285600Y-102717600D01*
D41*
G36*
X209869246Y-107593433D02*
X210043781Y-107710054D01*
X209816764Y-107888370D01*
X209500074Y-108451523D01*
X209468025Y-108583056D01*
X209587164Y-108839000D01*
X211201000Y-108839000D01*
X211201000Y-108819000D01*
X211455000Y-108819000D01*
X211455000Y-108839000D01*
X211475000Y-108839000D01*
X211475000Y-109093000D01*
X211455000Y-109093000D01*
X211455000Y-109113000D01*
X211201000Y-109113000D01*
X211201000Y-109093000D01*
X209587164Y-109093000D01*
X209468025Y-109348944D01*
X209500074Y-109480477D01*
X209816764Y-110043630D01*
X210043781Y-110221946D01*
X209869246Y-110338567D01*
X209511354Y-110874190D01*
X209385679Y-111506000D01*
X209511354Y-112137810D01*
X209869246Y-112673433D01*
X210404869Y-113031325D01*
X211036679Y-113157000D01*
X211619321Y-113157000D01*
X212251131Y-113031325D01*
X212786754Y-112673433D01*
X212936976Y-112448609D01*
X213146566Y-112308566D01*
X213790000Y-111665132D01*
X213790000Y-118899264D01*
X213220978Y-118894222D01*
X213411699Y-118434915D01*
X213412440Y-117585611D01*
X213088110Y-116800673D01*
X212488086Y-116199600D01*
X211703715Y-115873901D01*
X210854411Y-115873160D01*
X210069473Y-116197490D01*
X209468400Y-116797514D01*
X209142701Y-117581885D01*
X209141960Y-118431189D01*
X209318996Y-118859649D01*
X203672440Y-118809618D01*
X203672440Y-117727730D01*
X203513690Y-117568980D01*
X202565000Y-117568980D01*
X202565000Y-117588980D01*
X202311000Y-117588980D01*
X202311000Y-117568980D01*
X201362310Y-117568980D01*
X201203560Y-117727730D01*
X201203560Y-118787743D01*
X197648843Y-118756247D01*
X197552731Y-115617681D01*
X201203560Y-115617681D01*
X201203560Y-117156230D01*
X201362310Y-117314980D01*
X202311000Y-117314980D01*
X202311000Y-115267740D01*
X202565000Y-115267740D01*
X202565000Y-117314980D01*
X203513690Y-117314980D01*
X203672440Y-117156230D01*
X203672440Y-115617681D01*
X203575767Y-115384292D01*
X203397139Y-115205663D01*
X203163750Y-115108990D01*
X202723750Y-115108990D01*
X202565000Y-115267740D01*
X202311000Y-115267740D01*
X202152250Y-115108990D01*
X201712250Y-115108990D01*
X201478861Y-115205663D01*
X201300233Y-115384292D01*
X201203560Y-115617681D01*
X197552731Y-115617681D01*
X197505260Y-114067513D01*
X197493747Y-114018432D01*
X197470187Y-113986121D01*
X197591392Y-113865127D01*
X197734038Y-113521599D01*
X197734214Y-113320100D01*
X197922416Y-113320100D01*
X197950858Y-113362666D01*
X198319078Y-113608703D01*
X198753424Y-113695100D01*
X199073260Y-113695100D01*
X199507606Y-113608703D01*
X199875826Y-113362666D01*
X201191120Y-112047372D01*
X201191120Y-112492790D01*
X201235398Y-112728107D01*
X201374470Y-112944231D01*
X201586670Y-113089221D01*
X201838560Y-113140230D01*
X203037440Y-113140230D01*
X203272757Y-113095952D01*
X203488881Y-112956880D01*
X203633871Y-112744680D01*
X203684880Y-112492790D01*
X203684880Y-111929800D01*
X204698600Y-111929800D01*
X205132946Y-111843403D01*
X205501166Y-111597366D01*
X207574566Y-109523966D01*
X207593495Y-109495637D01*
X209528132Y-107561000D01*
X209847575Y-107561000D01*
X209869246Y-107593433D01*
X209869246Y-107593433D01*
G37*
X209869246Y-107593433D02*
X210043781Y-107710054D01*
X209816764Y-107888370D01*
X209500074Y-108451523D01*
X209468025Y-108583056D01*
X209587164Y-108839000D01*
X211201000Y-108839000D01*
X211201000Y-108819000D01*
X211455000Y-108819000D01*
X211455000Y-108839000D01*
X211475000Y-108839000D01*
X211475000Y-109093000D01*
X211455000Y-109093000D01*
X211455000Y-109113000D01*
X211201000Y-109113000D01*
X211201000Y-109093000D01*
X209587164Y-109093000D01*
X209468025Y-109348944D01*
X209500074Y-109480477D01*
X209816764Y-110043630D01*
X210043781Y-110221946D01*
X209869246Y-110338567D01*
X209511354Y-110874190D01*
X209385679Y-111506000D01*
X209511354Y-112137810D01*
X209869246Y-112673433D01*
X210404869Y-113031325D01*
X211036679Y-113157000D01*
X211619321Y-113157000D01*
X212251131Y-113031325D01*
X212786754Y-112673433D01*
X212936976Y-112448609D01*
X213146566Y-112308566D01*
X213790000Y-111665132D01*
X213790000Y-118899264D01*
X213220978Y-118894222D01*
X213411699Y-118434915D01*
X213412440Y-117585611D01*
X213088110Y-116800673D01*
X212488086Y-116199600D01*
X211703715Y-115873901D01*
X210854411Y-115873160D01*
X210069473Y-116197490D01*
X209468400Y-116797514D01*
X209142701Y-117581885D01*
X209141960Y-118431189D01*
X209318996Y-118859649D01*
X203672440Y-118809618D01*
X203672440Y-117727730D01*
X203513690Y-117568980D01*
X202565000Y-117568980D01*
X202565000Y-117588980D01*
X202311000Y-117588980D01*
X202311000Y-117568980D01*
X201362310Y-117568980D01*
X201203560Y-117727730D01*
X201203560Y-118787743D01*
X197648843Y-118756247D01*
X197552731Y-115617681D01*
X201203560Y-115617681D01*
X201203560Y-117156230D01*
X201362310Y-117314980D01*
X202311000Y-117314980D01*
X202311000Y-115267740D01*
X202565000Y-115267740D01*
X202565000Y-117314980D01*
X203513690Y-117314980D01*
X203672440Y-117156230D01*
X203672440Y-115617681D01*
X203575767Y-115384292D01*
X203397139Y-115205663D01*
X203163750Y-115108990D01*
X202723750Y-115108990D01*
X202565000Y-115267740D01*
X202311000Y-115267740D01*
X202152250Y-115108990D01*
X201712250Y-115108990D01*
X201478861Y-115205663D01*
X201300233Y-115384292D01*
X201203560Y-115617681D01*
X197552731Y-115617681D01*
X197505260Y-114067513D01*
X197493747Y-114018432D01*
X197470187Y-113986121D01*
X197591392Y-113865127D01*
X197734038Y-113521599D01*
X197734214Y-113320100D01*
X197922416Y-113320100D01*
X197950858Y-113362666D01*
X198319078Y-113608703D01*
X198753424Y-113695100D01*
X199073260Y-113695100D01*
X199507606Y-113608703D01*
X199875826Y-113362666D01*
X201191120Y-112047372D01*
X201191120Y-112492790D01*
X201235398Y-112728107D01*
X201374470Y-112944231D01*
X201586670Y-113089221D01*
X201838560Y-113140230D01*
X203037440Y-113140230D01*
X203272757Y-113095952D01*
X203488881Y-112956880D01*
X203633871Y-112744680D01*
X203684880Y-112492790D01*
X203684880Y-111929800D01*
X204698600Y-111929800D01*
X205132946Y-111843403D01*
X205501166Y-111597366D01*
X207574566Y-109523966D01*
X207593495Y-109495637D01*
X209528132Y-107561000D01*
X209847575Y-107561000D01*
X209869246Y-107593433D01*
G36*
X159214330Y-85318415D02*
X159514000Y-85518648D01*
X159514000Y-89656452D01*
X159571852Y-89947291D01*
X159736599Y-90193853D01*
X167247860Y-97705114D01*
X167207509Y-97688400D01*
X166350950Y-97688400D01*
X166192200Y-97847150D01*
X166192200Y-99060000D01*
X166212200Y-99060000D01*
X166212200Y-99314000D01*
X166192200Y-99314000D01*
X166192200Y-99334000D01*
X165938200Y-99334000D01*
X165938200Y-99314000D01*
X164572950Y-99314000D01*
X164414200Y-99472750D01*
X164414200Y-100176910D01*
X164510873Y-100410299D01*
X164689502Y-100588927D01*
X164842980Y-100652500D01*
X164820785Y-100667330D01*
X164495929Y-101153511D01*
X164381855Y-101727000D01*
X164495929Y-102300489D01*
X164820785Y-102786670D01*
X165135566Y-102997000D01*
X164820785Y-103207330D01*
X164495929Y-103693511D01*
X164381855Y-104267000D01*
X164495929Y-104840489D01*
X164820785Y-105326670D01*
X165135566Y-105537000D01*
X164820785Y-105747330D01*
X164495929Y-106233511D01*
X164381855Y-106807000D01*
X164457534Y-107187464D01*
X163597399Y-108047599D01*
X163432652Y-108294161D01*
X163374800Y-108585000D01*
X163374800Y-111760000D01*
X163432652Y-112050839D01*
X163597399Y-112297401D01*
X164397499Y-113097501D01*
X164644060Y-113262248D01*
X164934900Y-113320100D01*
X168942395Y-113320100D01*
X168953141Y-113336800D01*
X168376600Y-113336800D01*
X168085760Y-113394652D01*
X167839199Y-113559399D01*
X167660478Y-113738120D01*
X167015785Y-113738120D01*
X166924770Y-113596679D01*
X166712570Y-113451689D01*
X166460680Y-113400680D01*
X165960680Y-113400680D01*
X165725363Y-113444958D01*
X165509239Y-113584030D01*
X165461546Y-113653831D01*
X165424770Y-113596679D01*
X165212570Y-113451689D01*
X164960680Y-113400680D01*
X164460680Y-113400680D01*
X164225363Y-113444958D01*
X164009239Y-113584030D01*
X163864249Y-113796230D01*
X163864077Y-113797080D01*
X163585143Y-113797080D01*
X163559648Y-113327801D01*
X163412300Y-112972071D01*
X163176688Y-112910417D01*
X162422105Y-113665000D01*
X162436248Y-113679143D01*
X162318310Y-113797080D01*
X162166690Y-113797080D01*
X162048753Y-113679143D01*
X162062895Y-113665000D01*
X161308312Y-112910417D01*
X161072700Y-112972071D01*
X160896573Y-113472480D01*
X160914208Y-113797080D01*
X158495885Y-113797080D01*
X158496231Y-113400914D01*
X158485144Y-113374081D01*
X158563147Y-113257340D01*
X158620999Y-112966501D01*
X158620999Y-112730812D01*
X161487917Y-112730812D01*
X162242500Y-113485395D01*
X162997083Y-112730812D01*
X162935429Y-112495200D01*
X162435020Y-112319073D01*
X161905301Y-112347852D01*
X161549571Y-112495200D01*
X161487917Y-112730812D01*
X158620999Y-112730812D01*
X158620999Y-106979188D01*
X161487917Y-106979188D01*
X161549571Y-107214800D01*
X162049980Y-107390927D01*
X162579699Y-107362148D01*
X162935429Y-107214800D01*
X162997083Y-106979188D01*
X162242500Y-106224605D01*
X161487917Y-106979188D01*
X158620999Y-106979188D01*
X158620999Y-106743499D01*
X158563147Y-106452660D01*
X158485420Y-106336333D01*
X158495768Y-106311413D01*
X158496168Y-105852480D01*
X160896573Y-105852480D01*
X160925352Y-106382199D01*
X161072700Y-106737929D01*
X161308312Y-106799583D01*
X162062895Y-106045000D01*
X162422105Y-106045000D01*
X163176688Y-106799583D01*
X163412300Y-106737929D01*
X163588427Y-106237520D01*
X163559648Y-105707801D01*
X163412300Y-105352071D01*
X163176688Y-105290417D01*
X162422105Y-106045000D01*
X162062895Y-106045000D01*
X161308312Y-105290417D01*
X161072700Y-105352071D01*
X160896573Y-105852480D01*
X158496168Y-105852480D01*
X158496231Y-105780914D01*
X158293646Y-105290620D01*
X158114152Y-105110812D01*
X161487917Y-105110812D01*
X162242500Y-105865395D01*
X162997083Y-105110812D01*
X162935429Y-104875200D01*
X162435020Y-104699073D01*
X161905301Y-104727852D01*
X161549571Y-104875200D01*
X161487917Y-105110812D01*
X158114152Y-105110812D01*
X157918853Y-104915173D01*
X157892040Y-104904039D01*
X157884400Y-104865632D01*
X157884400Y-103773277D01*
X158597828Y-103773277D01*
X158729520Y-104068157D01*
X159437036Y-104339761D01*
X160194632Y-104319936D01*
X160802480Y-104068157D01*
X160934172Y-103773277D01*
X159766000Y-102605105D01*
X158597828Y-103773277D01*
X157884400Y-103773277D01*
X157884400Y-102885121D01*
X158123343Y-103461980D01*
X158418223Y-103593672D01*
X159586395Y-102425500D01*
X159945605Y-102425500D01*
X161113777Y-103593672D01*
X161408657Y-103461980D01*
X161680261Y-102754464D01*
X161660436Y-101996868D01*
X161408657Y-101389020D01*
X161113777Y-101257328D01*
X159945605Y-102425500D01*
X159586395Y-102425500D01*
X159572253Y-102411358D01*
X159751858Y-102231753D01*
X159766000Y-102245895D01*
X160934172Y-101077723D01*
X160802480Y-100782843D01*
X160094964Y-100511239D01*
X159337368Y-100531064D01*
X159060595Y-100645707D01*
X160303401Y-99402901D01*
X160396920Y-99262940D01*
X161036000Y-99262940D01*
X161271317Y-99218662D01*
X161487441Y-99079590D01*
X161632431Y-98867390D01*
X161683440Y-98615500D01*
X161683440Y-98197090D01*
X164414200Y-98197090D01*
X164414200Y-98901250D01*
X164572950Y-99060000D01*
X165938200Y-99060000D01*
X165938200Y-97847150D01*
X165779450Y-97688400D01*
X164922891Y-97688400D01*
X164689502Y-97785073D01*
X164510873Y-97963701D01*
X164414200Y-98197090D01*
X161683440Y-98197090D01*
X161683440Y-96075500D01*
X161639162Y-95840183D01*
X161500090Y-95624059D01*
X161287890Y-95479069D01*
X161036000Y-95428060D01*
X158496000Y-95428060D01*
X158260683Y-95472338D01*
X158044559Y-95611410D01*
X157899569Y-95823610D01*
X157848560Y-96075500D01*
X157848560Y-98615500D01*
X157892838Y-98850817D01*
X158031910Y-99066941D01*
X158244110Y-99211931D01*
X158327816Y-99228882D01*
X156586999Y-100969699D01*
X156422252Y-101216261D01*
X156364400Y-101507100D01*
X156364400Y-104957498D01*
X156032673Y-105288647D01*
X155829232Y-105778587D01*
X155828769Y-106309086D01*
X156031354Y-106799380D01*
X156406147Y-107174827D01*
X156896087Y-107378268D01*
X157100999Y-107378447D01*
X157100999Y-112331446D01*
X156898414Y-112331269D01*
X156408120Y-112533854D01*
X156032673Y-112908647D01*
X155829232Y-113398587D01*
X155828884Y-113797080D01*
X155210000Y-113797080D01*
X155210000Y-91393630D01*
X155324810Y-91416880D01*
X156002512Y-91416880D01*
X156397113Y-91680543D01*
X157022800Y-91805000D01*
X157648487Y-91680543D01*
X158043088Y-91416880D01*
X158720790Y-91416880D01*
X158956107Y-91372602D01*
X159172231Y-91233530D01*
X159317221Y-91021330D01*
X159368230Y-90769440D01*
X159368230Y-89570560D01*
X159323952Y-89335243D01*
X159184880Y-89119119D01*
X158972680Y-88974129D01*
X158720790Y-88923120D01*
X158657800Y-88923120D01*
X158657800Y-85726113D01*
X158832917Y-85693162D01*
X159049041Y-85554090D01*
X159194031Y-85341890D01*
X159202400Y-85300561D01*
X159214330Y-85318415D01*
X159214330Y-85318415D01*
G37*
X159214330Y-85318415D02*
X159514000Y-85518648D01*
X159514000Y-89656452D01*
X159571852Y-89947291D01*
X159736599Y-90193853D01*
X167247860Y-97705114D01*
X167207509Y-97688400D01*
X166350950Y-97688400D01*
X166192200Y-97847150D01*
X166192200Y-99060000D01*
X166212200Y-99060000D01*
X166212200Y-99314000D01*
X166192200Y-99314000D01*
X166192200Y-99334000D01*
X165938200Y-99334000D01*
X165938200Y-99314000D01*
X164572950Y-99314000D01*
X164414200Y-99472750D01*
X164414200Y-100176910D01*
X164510873Y-100410299D01*
X164689502Y-100588927D01*
X164842980Y-100652500D01*
X164820785Y-100667330D01*
X164495929Y-101153511D01*
X164381855Y-101727000D01*
X164495929Y-102300489D01*
X164820785Y-102786670D01*
X165135566Y-102997000D01*
X164820785Y-103207330D01*
X164495929Y-103693511D01*
X164381855Y-104267000D01*
X164495929Y-104840489D01*
X164820785Y-105326670D01*
X165135566Y-105537000D01*
X164820785Y-105747330D01*
X164495929Y-106233511D01*
X164381855Y-106807000D01*
X164457534Y-107187464D01*
X163597399Y-108047599D01*
X163432652Y-108294161D01*
X163374800Y-108585000D01*
X163374800Y-111760000D01*
X163432652Y-112050839D01*
X163597399Y-112297401D01*
X164397499Y-113097501D01*
X164644060Y-113262248D01*
X164934900Y-113320100D01*
X168942395Y-113320100D01*
X168953141Y-113336800D01*
X168376600Y-113336800D01*
X168085760Y-113394652D01*
X167839199Y-113559399D01*
X167660478Y-113738120D01*
X167015785Y-113738120D01*
X166924770Y-113596679D01*
X166712570Y-113451689D01*
X166460680Y-113400680D01*
X165960680Y-113400680D01*
X165725363Y-113444958D01*
X165509239Y-113584030D01*
X165461546Y-113653831D01*
X165424770Y-113596679D01*
X165212570Y-113451689D01*
X164960680Y-113400680D01*
X164460680Y-113400680D01*
X164225363Y-113444958D01*
X164009239Y-113584030D01*
X163864249Y-113796230D01*
X163864077Y-113797080D01*
X163585143Y-113797080D01*
X163559648Y-113327801D01*
X163412300Y-112972071D01*
X163176688Y-112910417D01*
X162422105Y-113665000D01*
X162436248Y-113679143D01*
X162318310Y-113797080D01*
X162166690Y-113797080D01*
X162048753Y-113679143D01*
X162062895Y-113665000D01*
X161308312Y-112910417D01*
X161072700Y-112972071D01*
X160896573Y-113472480D01*
X160914208Y-113797080D01*
X158495885Y-113797080D01*
X158496231Y-113400914D01*
X158485144Y-113374081D01*
X158563147Y-113257340D01*
X158620999Y-112966501D01*
X158620999Y-112730812D01*
X161487917Y-112730812D01*
X162242500Y-113485395D01*
X162997083Y-112730812D01*
X162935429Y-112495200D01*
X162435020Y-112319073D01*
X161905301Y-112347852D01*
X161549571Y-112495200D01*
X161487917Y-112730812D01*
X158620999Y-112730812D01*
X158620999Y-106979188D01*
X161487917Y-106979188D01*
X161549571Y-107214800D01*
X162049980Y-107390927D01*
X162579699Y-107362148D01*
X162935429Y-107214800D01*
X162997083Y-106979188D01*
X162242500Y-106224605D01*
X161487917Y-106979188D01*
X158620999Y-106979188D01*
X158620999Y-106743499D01*
X158563147Y-106452660D01*
X158485420Y-106336333D01*
X158495768Y-106311413D01*
X158496168Y-105852480D01*
X160896573Y-105852480D01*
X160925352Y-106382199D01*
X161072700Y-106737929D01*
X161308312Y-106799583D01*
X162062895Y-106045000D01*
X162422105Y-106045000D01*
X163176688Y-106799583D01*
X163412300Y-106737929D01*
X163588427Y-106237520D01*
X163559648Y-105707801D01*
X163412300Y-105352071D01*
X163176688Y-105290417D01*
X162422105Y-106045000D01*
X162062895Y-106045000D01*
X161308312Y-105290417D01*
X161072700Y-105352071D01*
X160896573Y-105852480D01*
X158496168Y-105852480D01*
X158496231Y-105780914D01*
X158293646Y-105290620D01*
X158114152Y-105110812D01*
X161487917Y-105110812D01*
X162242500Y-105865395D01*
X162997083Y-105110812D01*
X162935429Y-104875200D01*
X162435020Y-104699073D01*
X161905301Y-104727852D01*
X161549571Y-104875200D01*
X161487917Y-105110812D01*
X158114152Y-105110812D01*
X157918853Y-104915173D01*
X157892040Y-104904039D01*
X157884400Y-104865632D01*
X157884400Y-103773277D01*
X158597828Y-103773277D01*
X158729520Y-104068157D01*
X159437036Y-104339761D01*
X160194632Y-104319936D01*
X160802480Y-104068157D01*
X160934172Y-103773277D01*
X159766000Y-102605105D01*
X158597828Y-103773277D01*
X157884400Y-103773277D01*
X157884400Y-102885121D01*
X158123343Y-103461980D01*
X158418223Y-103593672D01*
X159586395Y-102425500D01*
X159945605Y-102425500D01*
X161113777Y-103593672D01*
X161408657Y-103461980D01*
X161680261Y-102754464D01*
X161660436Y-101996868D01*
X161408657Y-101389020D01*
X161113777Y-101257328D01*
X159945605Y-102425500D01*
X159586395Y-102425500D01*
X159572253Y-102411358D01*
X159751858Y-102231753D01*
X159766000Y-102245895D01*
X160934172Y-101077723D01*
X160802480Y-100782843D01*
X160094964Y-100511239D01*
X159337368Y-100531064D01*
X159060595Y-100645707D01*
X160303401Y-99402901D01*
X160396920Y-99262940D01*
X161036000Y-99262940D01*
X161271317Y-99218662D01*
X161487441Y-99079590D01*
X161632431Y-98867390D01*
X161683440Y-98615500D01*
X161683440Y-98197090D01*
X164414200Y-98197090D01*
X164414200Y-98901250D01*
X164572950Y-99060000D01*
X165938200Y-99060000D01*
X165938200Y-97847150D01*
X165779450Y-97688400D01*
X164922891Y-97688400D01*
X164689502Y-97785073D01*
X164510873Y-97963701D01*
X164414200Y-98197090D01*
X161683440Y-98197090D01*
X161683440Y-96075500D01*
X161639162Y-95840183D01*
X161500090Y-95624059D01*
X161287890Y-95479069D01*
X161036000Y-95428060D01*
X158496000Y-95428060D01*
X158260683Y-95472338D01*
X158044559Y-95611410D01*
X157899569Y-95823610D01*
X157848560Y-96075500D01*
X157848560Y-98615500D01*
X157892838Y-98850817D01*
X158031910Y-99066941D01*
X158244110Y-99211931D01*
X158327816Y-99228882D01*
X156586999Y-100969699D01*
X156422252Y-101216261D01*
X156364400Y-101507100D01*
X156364400Y-104957498D01*
X156032673Y-105288647D01*
X155829232Y-105778587D01*
X155828769Y-106309086D01*
X156031354Y-106799380D01*
X156406147Y-107174827D01*
X156896087Y-107378268D01*
X157100999Y-107378447D01*
X157100999Y-112331446D01*
X156898414Y-112331269D01*
X156408120Y-112533854D01*
X156032673Y-112908647D01*
X155829232Y-113398587D01*
X155828884Y-113797080D01*
X155210000Y-113797080D01*
X155210000Y-91393630D01*
X155324810Y-91416880D01*
X156002512Y-91416880D01*
X156397113Y-91680543D01*
X157022800Y-91805000D01*
X157648487Y-91680543D01*
X158043088Y-91416880D01*
X158720790Y-91416880D01*
X158956107Y-91372602D01*
X159172231Y-91233530D01*
X159317221Y-91021330D01*
X159368230Y-90769440D01*
X159368230Y-89570560D01*
X159323952Y-89335243D01*
X159184880Y-89119119D01*
X158972680Y-88974129D01*
X158720790Y-88923120D01*
X158657800Y-88923120D01*
X158657800Y-85726113D01*
X158832917Y-85693162D01*
X159049041Y-85554090D01*
X159194031Y-85341890D01*
X159202400Y-85300561D01*
X159214330Y-85318415D01*
G36*
X189066628Y-103357821D02*
X189309196Y-103519899D01*
X189066628Y-103681977D01*
X188809753Y-104066419D01*
X188719550Y-104519899D01*
X188765638Y-104751600D01*
X188493400Y-104751600D01*
X188202561Y-104809452D01*
X187955999Y-104974199D01*
X187143199Y-105786999D01*
X186978452Y-106033561D01*
X186920600Y-106324400D01*
X186920600Y-112039400D01*
X186978452Y-112330239D01*
X187143199Y-112576801D01*
X187439197Y-112872799D01*
X184943430Y-112872799D01*
X180259125Y-108188495D01*
X180259162Y-108145833D01*
X180117117Y-107802057D01*
X179938387Y-107623015D01*
X184281503Y-103279899D01*
X189014562Y-103279899D01*
X189066628Y-103357821D01*
X189066628Y-103357821D01*
G37*
X189066628Y-103357821D02*
X189309196Y-103519899D01*
X189066628Y-103681977D01*
X188809753Y-104066419D01*
X188719550Y-104519899D01*
X188765638Y-104751600D01*
X188493400Y-104751600D01*
X188202561Y-104809452D01*
X187955999Y-104974199D01*
X187143199Y-105786999D01*
X186978452Y-106033561D01*
X186920600Y-106324400D01*
X186920600Y-112039400D01*
X186978452Y-112330239D01*
X187143199Y-112576801D01*
X187439197Y-112872799D01*
X184943430Y-112872799D01*
X180259125Y-108188495D01*
X180259162Y-108145833D01*
X180117117Y-107802057D01*
X179938387Y-107623015D01*
X184281503Y-103279899D01*
X189014562Y-103279899D01*
X189066628Y-103357821D01*
G36*
X199681783Y-106553000D02*
X201041000Y-106553000D01*
X201041000Y-106533000D01*
X201295000Y-106533000D01*
X201295000Y-106553000D01*
X201315000Y-106553000D01*
X201315000Y-106807000D01*
X201295000Y-106807000D01*
X201295000Y-106827000D01*
X201041000Y-106827000D01*
X201041000Y-106807000D01*
X199681783Y-106807000D01*
X199586000Y-106990457D01*
X199586000Y-106951750D01*
X199427250Y-106793000D01*
X198628000Y-106793000D01*
X198628000Y-107394250D01*
X198786750Y-107553000D01*
X199077310Y-107553000D01*
X199310699Y-107456327D01*
X199489327Y-107277698D01*
X199573166Y-107075292D01*
X199817268Y-107582036D01*
X200115393Y-107848400D01*
X198882000Y-107848400D01*
X198590395Y-107906404D01*
X198359028Y-108060999D01*
X198343185Y-108071585D01*
X196315300Y-110099470D01*
X196315300Y-109342049D01*
X196413731Y-109197990D01*
X196464740Y-108946100D01*
X196464740Y-108275995D01*
X196735205Y-108222196D01*
X196982415Y-108057015D01*
X197388815Y-107650616D01*
X197553996Y-107403405D01*
X197561528Y-107365541D01*
X197567996Y-107333021D01*
X197691301Y-107456327D01*
X197924690Y-107553000D01*
X198215250Y-107553000D01*
X198374000Y-107394250D01*
X198374000Y-106793000D01*
X198354000Y-106793000D01*
X198354000Y-106543000D01*
X198374000Y-106543000D01*
X198374000Y-106521000D01*
X198628000Y-106521000D01*
X198628000Y-106543000D01*
X199427250Y-106543000D01*
X199586000Y-106384250D01*
X199586000Y-106369543D01*
X199681783Y-106553000D01*
X199681783Y-106553000D01*
G37*
X199681783Y-106553000D02*
X201041000Y-106553000D01*
X201041000Y-106533000D01*
X201295000Y-106533000D01*
X201295000Y-106553000D01*
X201315000Y-106553000D01*
X201315000Y-106807000D01*
X201295000Y-106807000D01*
X201295000Y-106827000D01*
X201041000Y-106827000D01*
X201041000Y-106807000D01*
X199681783Y-106807000D01*
X199586000Y-106990457D01*
X199586000Y-106951750D01*
X199427250Y-106793000D01*
X198628000Y-106793000D01*
X198628000Y-107394250D01*
X198786750Y-107553000D01*
X199077310Y-107553000D01*
X199310699Y-107456327D01*
X199489327Y-107277698D01*
X199573166Y-107075292D01*
X199817268Y-107582036D01*
X200115393Y-107848400D01*
X198882000Y-107848400D01*
X198590395Y-107906404D01*
X198359028Y-108060999D01*
X198343185Y-108071585D01*
X196315300Y-110099470D01*
X196315300Y-109342049D01*
X196413731Y-109197990D01*
X196464740Y-108946100D01*
X196464740Y-108275995D01*
X196735205Y-108222196D01*
X196982415Y-108057015D01*
X197388815Y-107650616D01*
X197553996Y-107403405D01*
X197561528Y-107365541D01*
X197567996Y-107333021D01*
X197691301Y-107456327D01*
X197924690Y-107553000D01*
X198215250Y-107553000D01*
X198374000Y-107394250D01*
X198374000Y-106793000D01*
X198354000Y-106793000D01*
X198354000Y-106543000D01*
X198374000Y-106543000D01*
X198374000Y-106521000D01*
X198628000Y-106521000D01*
X198628000Y-106543000D01*
X199427250Y-106543000D01*
X199586000Y-106384250D01*
X199586000Y-106369543D01*
X199681783Y-106553000D01*
G36*
X180346000Y-92920250D02*
X180504750Y-93079000D01*
X181229000Y-93079000D01*
X181229000Y-93059000D01*
X181483000Y-93059000D01*
X181483000Y-93079000D01*
X181503000Y-93079000D01*
X181503000Y-93333000D01*
X181483000Y-93333000D01*
X181483000Y-94082250D01*
X181641750Y-94241000D01*
X181857310Y-94241000D01*
X182090699Y-94144327D01*
X182269327Y-93965698D01*
X182318420Y-93847177D01*
X182340838Y-93966317D01*
X182479910Y-94182441D01*
X182692110Y-94327431D01*
X182763839Y-94341957D01*
X182771852Y-94382239D01*
X182936599Y-94628801D01*
X183206199Y-94898401D01*
X183297285Y-94959262D01*
X183147020Y-94989152D01*
X182762578Y-95246027D01*
X182600500Y-95488595D01*
X182438422Y-95246027D01*
X182053980Y-94989152D01*
X181600500Y-94898949D01*
X181147020Y-94989152D01*
X180762578Y-95246027D01*
X180600500Y-95488595D01*
X180438422Y-95246027D01*
X180053980Y-94989152D01*
X179600500Y-94898949D01*
X179147020Y-94989152D01*
X178762578Y-95246027D01*
X178600500Y-95488595D01*
X178438422Y-95246027D01*
X178053980Y-94989152D01*
X177600500Y-94898949D01*
X177147020Y-94989152D01*
X176762578Y-95246027D01*
X176505703Y-95630469D01*
X176415500Y-96083949D01*
X176415500Y-97455849D01*
X176505703Y-97909329D01*
X176762578Y-98293771D01*
X177147020Y-98550646D01*
X177600500Y-98640849D01*
X178053980Y-98550646D01*
X178438422Y-98293771D01*
X178600500Y-98051203D01*
X178762578Y-98293771D01*
X179147020Y-98550646D01*
X179600500Y-98640849D01*
X180053980Y-98550646D01*
X180438422Y-98293771D01*
X180600500Y-98051203D01*
X180762578Y-98293771D01*
X181147020Y-98550646D01*
X181600500Y-98640849D01*
X182053980Y-98550646D01*
X182438422Y-98293771D01*
X182600500Y-98051203D01*
X182762578Y-98293771D01*
X183147020Y-98550646D01*
X183600500Y-98640849D01*
X183821800Y-98596830D01*
X183821800Y-100319998D01*
X178177726Y-105964072D01*
X178025527Y-105811608D01*
X177681999Y-105668962D01*
X177310033Y-105668638D01*
X176966257Y-105810683D01*
X176935086Y-105841800D01*
X176221162Y-105841800D01*
X176114372Y-105681977D01*
X175871804Y-105519899D01*
X176114372Y-105357821D01*
X176371247Y-104973379D01*
X176461450Y-104519899D01*
X176371247Y-104066419D01*
X176114372Y-103681977D01*
X175871804Y-103519899D01*
X176114372Y-103357821D01*
X176371247Y-102973379D01*
X176461450Y-102519899D01*
X176371247Y-102066419D01*
X176114372Y-101681977D01*
X175871804Y-101519899D01*
X176114372Y-101357821D01*
X176371247Y-100973379D01*
X176461450Y-100519899D01*
X176371247Y-100066419D01*
X176114372Y-99681977D01*
X175868928Y-99517977D01*
X176168224Y-99268017D01*
X176383898Y-98856045D01*
X176384303Y-98829643D01*
X176258861Y-98646899D01*
X174717500Y-98646899D01*
X174717500Y-98666899D01*
X174463500Y-98666899D01*
X174463500Y-98646899D01*
X172922139Y-98646899D01*
X172796697Y-98829643D01*
X172797102Y-98856045D01*
X172938456Y-99126054D01*
X172284201Y-98471799D01*
X172105302Y-98352263D01*
X172099962Y-98323883D01*
X172026781Y-98210155D01*
X172796697Y-98210155D01*
X172922139Y-98392899D01*
X174463500Y-98392899D01*
X174463500Y-97334899D01*
X174717500Y-97334899D01*
X174717500Y-98392899D01*
X176258861Y-98392899D01*
X176384303Y-98210155D01*
X176383898Y-98183753D01*
X176168224Y-97771781D01*
X175811313Y-97473703D01*
X175367500Y-97334899D01*
X174717500Y-97334899D01*
X174463500Y-97334899D01*
X173813500Y-97334899D01*
X173369687Y-97473703D01*
X173012776Y-97771781D01*
X172797102Y-98183753D01*
X172796697Y-98210155D01*
X172026781Y-98210155D01*
X172006800Y-98179105D01*
X172006800Y-96784002D01*
X172780802Y-96010000D01*
X175387000Y-96010000D01*
X175677839Y-95952148D01*
X175924401Y-95787401D01*
X177042001Y-94669801D01*
X177206748Y-94423239D01*
X177264600Y-94132400D01*
X177264600Y-93985705D01*
X177406041Y-93894690D01*
X177551031Y-93682490D01*
X177602040Y-93430600D01*
X177602040Y-93337395D01*
X177983136Y-93413200D01*
X178386317Y-93333002D01*
X178472748Y-93333002D01*
X178314000Y-93491750D01*
X178314000Y-93732309D01*
X178410673Y-93965698D01*
X178589301Y-94144327D01*
X178822690Y-94241000D01*
X179038250Y-94241000D01*
X179197000Y-94082250D01*
X179197000Y-93333000D01*
X179451000Y-93333000D01*
X179451000Y-94082250D01*
X179609750Y-94241000D01*
X179825310Y-94241000D01*
X180058699Y-94144327D01*
X180237327Y-93965698D01*
X180334000Y-93732309D01*
X180334000Y-93491750D01*
X180346000Y-93491750D01*
X180346000Y-93732309D01*
X180442673Y-93965698D01*
X180621301Y-94144327D01*
X180854690Y-94241000D01*
X181070250Y-94241000D01*
X181229000Y-94082250D01*
X181229000Y-93333000D01*
X180504750Y-93333000D01*
X180346000Y-93491750D01*
X180334000Y-93491750D01*
X180175250Y-93333000D01*
X179451000Y-93333000D01*
X179197000Y-93333000D01*
X179177000Y-93333000D01*
X179177000Y-93079000D01*
X179197000Y-93079000D01*
X179197000Y-93059000D01*
X179451000Y-93059000D01*
X179451000Y-93079000D01*
X180175250Y-93079000D01*
X180334000Y-92920250D01*
X180334000Y-92841000D01*
X180346000Y-92841000D01*
X180346000Y-92920250D01*
X180346000Y-92920250D01*
G37*
X180346000Y-92920250D02*
X180504750Y-93079000D01*
X181229000Y-93079000D01*
X181229000Y-93059000D01*
X181483000Y-93059000D01*
X181483000Y-93079000D01*
X181503000Y-93079000D01*
X181503000Y-93333000D01*
X181483000Y-93333000D01*
X181483000Y-94082250D01*
X181641750Y-94241000D01*
X181857310Y-94241000D01*
X182090699Y-94144327D01*
X182269327Y-93965698D01*
X182318420Y-93847177D01*
X182340838Y-93966317D01*
X182479910Y-94182441D01*
X182692110Y-94327431D01*
X182763839Y-94341957D01*
X182771852Y-94382239D01*
X182936599Y-94628801D01*
X183206199Y-94898401D01*
X183297285Y-94959262D01*
X183147020Y-94989152D01*
X182762578Y-95246027D01*
X182600500Y-95488595D01*
X182438422Y-95246027D01*
X182053980Y-94989152D01*
X181600500Y-94898949D01*
X181147020Y-94989152D01*
X180762578Y-95246027D01*
X180600500Y-95488595D01*
X180438422Y-95246027D01*
X180053980Y-94989152D01*
X179600500Y-94898949D01*
X179147020Y-94989152D01*
X178762578Y-95246027D01*
X178600500Y-95488595D01*
X178438422Y-95246027D01*
X178053980Y-94989152D01*
X177600500Y-94898949D01*
X177147020Y-94989152D01*
X176762578Y-95246027D01*
X176505703Y-95630469D01*
X176415500Y-96083949D01*
X176415500Y-97455849D01*
X176505703Y-97909329D01*
X176762578Y-98293771D01*
X177147020Y-98550646D01*
X177600500Y-98640849D01*
X178053980Y-98550646D01*
X178438422Y-98293771D01*
X178600500Y-98051203D01*
X178762578Y-98293771D01*
X179147020Y-98550646D01*
X179600500Y-98640849D01*
X180053980Y-98550646D01*
X180438422Y-98293771D01*
X180600500Y-98051203D01*
X180762578Y-98293771D01*
X181147020Y-98550646D01*
X181600500Y-98640849D01*
X182053980Y-98550646D01*
X182438422Y-98293771D01*
X182600500Y-98051203D01*
X182762578Y-98293771D01*
X183147020Y-98550646D01*
X183600500Y-98640849D01*
X183821800Y-98596830D01*
X183821800Y-100319998D01*
X178177726Y-105964072D01*
X178025527Y-105811608D01*
X177681999Y-105668962D01*
X177310033Y-105668638D01*
X176966257Y-105810683D01*
X176935086Y-105841800D01*
X176221162Y-105841800D01*
X176114372Y-105681977D01*
X175871804Y-105519899D01*
X176114372Y-105357821D01*
X176371247Y-104973379D01*
X176461450Y-104519899D01*
X176371247Y-104066419D01*
X176114372Y-103681977D01*
X175871804Y-103519899D01*
X176114372Y-103357821D01*
X176371247Y-102973379D01*
X176461450Y-102519899D01*
X176371247Y-102066419D01*
X176114372Y-101681977D01*
X175871804Y-101519899D01*
X176114372Y-101357821D01*
X176371247Y-100973379D01*
X176461450Y-100519899D01*
X176371247Y-100066419D01*
X176114372Y-99681977D01*
X175868928Y-99517977D01*
X176168224Y-99268017D01*
X176383898Y-98856045D01*
X176384303Y-98829643D01*
X176258861Y-98646899D01*
X174717500Y-98646899D01*
X174717500Y-98666899D01*
X174463500Y-98666899D01*
X174463500Y-98646899D01*
X172922139Y-98646899D01*
X172796697Y-98829643D01*
X172797102Y-98856045D01*
X172938456Y-99126054D01*
X172284201Y-98471799D01*
X172105302Y-98352263D01*
X172099962Y-98323883D01*
X172026781Y-98210155D01*
X172796697Y-98210155D01*
X172922139Y-98392899D01*
X174463500Y-98392899D01*
X174463500Y-97334899D01*
X174717500Y-97334899D01*
X174717500Y-98392899D01*
X176258861Y-98392899D01*
X176384303Y-98210155D01*
X176383898Y-98183753D01*
X176168224Y-97771781D01*
X175811313Y-97473703D01*
X175367500Y-97334899D01*
X174717500Y-97334899D01*
X174463500Y-97334899D01*
X173813500Y-97334899D01*
X173369687Y-97473703D01*
X173012776Y-97771781D01*
X172797102Y-98183753D01*
X172796697Y-98210155D01*
X172026781Y-98210155D01*
X172006800Y-98179105D01*
X172006800Y-96784002D01*
X172780802Y-96010000D01*
X175387000Y-96010000D01*
X175677839Y-95952148D01*
X175924401Y-95787401D01*
X177042001Y-94669801D01*
X177206748Y-94423239D01*
X177264600Y-94132400D01*
X177264600Y-93985705D01*
X177406041Y-93894690D01*
X177551031Y-93682490D01*
X177602040Y-93430600D01*
X177602040Y-93337395D01*
X177983136Y-93413200D01*
X178386317Y-93333002D01*
X178472748Y-93333002D01*
X178314000Y-93491750D01*
X178314000Y-93732309D01*
X178410673Y-93965698D01*
X178589301Y-94144327D01*
X178822690Y-94241000D01*
X179038250Y-94241000D01*
X179197000Y-94082250D01*
X179197000Y-93333000D01*
X179451000Y-93333000D01*
X179451000Y-94082250D01*
X179609750Y-94241000D01*
X179825310Y-94241000D01*
X180058699Y-94144327D01*
X180237327Y-93965698D01*
X180334000Y-93732309D01*
X180334000Y-93491750D01*
X180346000Y-93491750D01*
X180346000Y-93732309D01*
X180442673Y-93965698D01*
X180621301Y-94144327D01*
X180854690Y-94241000D01*
X181070250Y-94241000D01*
X181229000Y-94082250D01*
X181229000Y-93333000D01*
X180504750Y-93333000D01*
X180346000Y-93491750D01*
X180334000Y-93491750D01*
X180175250Y-93333000D01*
X179451000Y-93333000D01*
X179197000Y-93333000D01*
X179177000Y-93333000D01*
X179177000Y-93079000D01*
X179197000Y-93079000D01*
X179197000Y-93059000D01*
X179451000Y-93059000D01*
X179451000Y-93079000D01*
X180175250Y-93079000D01*
X180334000Y-92920250D01*
X180334000Y-92841000D01*
X180346000Y-92841000D01*
X180346000Y-92920250D01*
G36*
X210733169Y-100507800D02*
X210668290Y-100507800D01*
X210434901Y-100604473D01*
X210256273Y-100783102D01*
X210159600Y-101016491D01*
X210159600Y-101365050D01*
X210318350Y-101523800D01*
X211683600Y-101523800D01*
X211683600Y-101503800D01*
X211937600Y-101503800D01*
X211937600Y-101523800D01*
X211957600Y-101523800D01*
X211957600Y-101777800D01*
X211937600Y-101777800D01*
X211937600Y-102635050D01*
X212096350Y-102793800D01*
X212631400Y-102793800D01*
X212631400Y-105154763D01*
X212251131Y-104900675D01*
X211619321Y-104775000D01*
X211282132Y-104775000D01*
X208443682Y-101936550D01*
X210159600Y-101936550D01*
X210159600Y-102285109D01*
X210256273Y-102518498D01*
X210434901Y-102697127D01*
X210668290Y-102793800D01*
X211524850Y-102793800D01*
X211683600Y-102635050D01*
X211683600Y-101777800D01*
X210318350Y-101777800D01*
X210159600Y-101936550D01*
X208443682Y-101936550D01*
X207006932Y-100499800D01*
X210693664Y-100499800D01*
X210733169Y-100507800D01*
X210733169Y-100507800D01*
G37*
X210733169Y-100507800D02*
X210668290Y-100507800D01*
X210434901Y-100604473D01*
X210256273Y-100783102D01*
X210159600Y-101016491D01*
X210159600Y-101365050D01*
X210318350Y-101523800D01*
X211683600Y-101523800D01*
X211683600Y-101503800D01*
X211937600Y-101503800D01*
X211937600Y-101523800D01*
X211957600Y-101523800D01*
X211957600Y-101777800D01*
X211937600Y-101777800D01*
X211937600Y-102635050D01*
X212096350Y-102793800D01*
X212631400Y-102793800D01*
X212631400Y-105154763D01*
X212251131Y-104900675D01*
X211619321Y-104775000D01*
X211282132Y-104775000D01*
X208443682Y-101936550D01*
X210159600Y-101936550D01*
X210159600Y-102285109D01*
X210256273Y-102518498D01*
X210434901Y-102697127D01*
X210668290Y-102793800D01*
X211524850Y-102793800D01*
X211683600Y-102635050D01*
X211683600Y-101777800D01*
X210318350Y-101777800D01*
X210159600Y-101936550D01*
X208443682Y-101936550D01*
X207006932Y-100499800D01*
X210693664Y-100499800D01*
X210733169Y-100507800D01*
G36*
X191363250Y-93079000D02*
X192087500Y-93079000D01*
X192087500Y-93059000D01*
X192341500Y-93059000D01*
X192341500Y-93079000D01*
X192361500Y-93079000D01*
X192361500Y-93333000D01*
X192341500Y-93333000D01*
X192341500Y-94082250D01*
X192500250Y-94241000D01*
X192715810Y-94241000D01*
X192949199Y-94144327D01*
X193127827Y-93965698D01*
X193218560Y-93746649D01*
X193218560Y-93794500D01*
X193262838Y-94029817D01*
X193401910Y-94245941D01*
X193614110Y-94390931D01*
X193743468Y-94417127D01*
X193792161Y-94490000D01*
X193857185Y-94587315D01*
X194575965Y-95306095D01*
X194455300Y-95281660D01*
X193655300Y-95281660D01*
X193419983Y-95325938D01*
X193203859Y-95465010D01*
X193058869Y-95677210D01*
X193007860Y-95929100D01*
X193007860Y-96679100D01*
X193052138Y-96914417D01*
X193191210Y-97130541D01*
X193294000Y-97200774D01*
X193294000Y-97416461D01*
X193205779Y-97473230D01*
X193136858Y-97574100D01*
X191952922Y-97574100D01*
X191939800Y-97565332D01*
X191939800Y-97032443D01*
X192039585Y-96792134D01*
X192040014Y-96300821D01*
X191852392Y-95846743D01*
X191505285Y-95499029D01*
X191051534Y-95310615D01*
X190560221Y-95310186D01*
X190106143Y-95497808D01*
X189758429Y-95844915D01*
X189570015Y-96298666D01*
X189569586Y-96789979D01*
X189669800Y-97032514D01*
X189669800Y-97381594D01*
X189451070Y-97425102D01*
X189066628Y-97681977D01*
X188809753Y-98066419D01*
X188719550Y-98519899D01*
X188809753Y-98973379D01*
X189066628Y-99357821D01*
X189309196Y-99519899D01*
X189066628Y-99681977D01*
X188809753Y-100066419D01*
X188719550Y-100519899D01*
X188809753Y-100973379D01*
X189066628Y-101357821D01*
X189309196Y-101519899D01*
X189066628Y-101681977D01*
X189014562Y-101759899D01*
X184531503Y-101759899D01*
X185119201Y-101172201D01*
X185283948Y-100925639D01*
X185341800Y-100634800D01*
X185341800Y-98589390D01*
X185600500Y-98640849D01*
X186053980Y-98550646D01*
X186438422Y-98293771D01*
X186600500Y-98051203D01*
X186762578Y-98293771D01*
X187147020Y-98550646D01*
X187600500Y-98640849D01*
X188053980Y-98550646D01*
X188438422Y-98293771D01*
X188695297Y-97909329D01*
X188785500Y-97455849D01*
X188785500Y-96083949D01*
X188695297Y-95630469D01*
X188438422Y-95246027D01*
X188053980Y-94989152D01*
X187600500Y-94898949D01*
X187582105Y-94902608D01*
X187588401Y-94898401D01*
X188141801Y-94345001D01*
X188261337Y-94166102D01*
X188289717Y-94160762D01*
X188505841Y-94021690D01*
X188650831Y-93809490D01*
X188701840Y-93557600D01*
X188701840Y-93360572D01*
X188966420Y-93413200D01*
X189369601Y-93333002D01*
X189394748Y-93333002D01*
X189236000Y-93491750D01*
X189236000Y-93732309D01*
X189332673Y-93965698D01*
X189511301Y-94144327D01*
X189744690Y-94241000D01*
X189960250Y-94241000D01*
X190119000Y-94082250D01*
X190119000Y-93333000D01*
X190373000Y-93333000D01*
X190373000Y-94082250D01*
X190531750Y-94241000D01*
X190747310Y-94241000D01*
X190980699Y-94144327D01*
X191159327Y-93965698D01*
X191230250Y-93794475D01*
X191301173Y-93965698D01*
X191479801Y-94144327D01*
X191713190Y-94241000D01*
X191928750Y-94241000D01*
X192087500Y-94082250D01*
X192087500Y-93333000D01*
X191363250Y-93333000D01*
X191230250Y-93466000D01*
X191097250Y-93333000D01*
X190373000Y-93333000D01*
X190119000Y-93333000D01*
X190099000Y-93333000D01*
X190099000Y-93079000D01*
X190119000Y-93079000D01*
X190119000Y-93059000D01*
X190373000Y-93059000D01*
X190373000Y-93079000D01*
X191097250Y-93079000D01*
X191230250Y-92946000D01*
X191363250Y-93079000D01*
X191363250Y-93079000D01*
G37*
X191363250Y-93079000D02*
X192087500Y-93079000D01*
X192087500Y-93059000D01*
X192341500Y-93059000D01*
X192341500Y-93079000D01*
X192361500Y-93079000D01*
X192361500Y-93333000D01*
X192341500Y-93333000D01*
X192341500Y-94082250D01*
X192500250Y-94241000D01*
X192715810Y-94241000D01*
X192949199Y-94144327D01*
X193127827Y-93965698D01*
X193218560Y-93746649D01*
X193218560Y-93794500D01*
X193262838Y-94029817D01*
X193401910Y-94245941D01*
X193614110Y-94390931D01*
X193743468Y-94417127D01*
X193792161Y-94490000D01*
X193857185Y-94587315D01*
X194575965Y-95306095D01*
X194455300Y-95281660D01*
X193655300Y-95281660D01*
X193419983Y-95325938D01*
X193203859Y-95465010D01*
X193058869Y-95677210D01*
X193007860Y-95929100D01*
X193007860Y-96679100D01*
X193052138Y-96914417D01*
X193191210Y-97130541D01*
X193294000Y-97200774D01*
X193294000Y-97416461D01*
X193205779Y-97473230D01*
X193136858Y-97574100D01*
X191952922Y-97574100D01*
X191939800Y-97565332D01*
X191939800Y-97032443D01*
X192039585Y-96792134D01*
X192040014Y-96300821D01*
X191852392Y-95846743D01*
X191505285Y-95499029D01*
X191051534Y-95310615D01*
X190560221Y-95310186D01*
X190106143Y-95497808D01*
X189758429Y-95844915D01*
X189570015Y-96298666D01*
X189569586Y-96789979D01*
X189669800Y-97032514D01*
X189669800Y-97381594D01*
X189451070Y-97425102D01*
X189066628Y-97681977D01*
X188809753Y-98066419D01*
X188719550Y-98519899D01*
X188809753Y-98973379D01*
X189066628Y-99357821D01*
X189309196Y-99519899D01*
X189066628Y-99681977D01*
X188809753Y-100066419D01*
X188719550Y-100519899D01*
X188809753Y-100973379D01*
X189066628Y-101357821D01*
X189309196Y-101519899D01*
X189066628Y-101681977D01*
X189014562Y-101759899D01*
X184531503Y-101759899D01*
X185119201Y-101172201D01*
X185283948Y-100925639D01*
X185341800Y-100634800D01*
X185341800Y-98589390D01*
X185600500Y-98640849D01*
X186053980Y-98550646D01*
X186438422Y-98293771D01*
X186600500Y-98051203D01*
X186762578Y-98293771D01*
X187147020Y-98550646D01*
X187600500Y-98640849D01*
X188053980Y-98550646D01*
X188438422Y-98293771D01*
X188695297Y-97909329D01*
X188785500Y-97455849D01*
X188785500Y-96083949D01*
X188695297Y-95630469D01*
X188438422Y-95246027D01*
X188053980Y-94989152D01*
X187600500Y-94898949D01*
X187582105Y-94902608D01*
X187588401Y-94898401D01*
X188141801Y-94345001D01*
X188261337Y-94166102D01*
X188289717Y-94160762D01*
X188505841Y-94021690D01*
X188650831Y-93809490D01*
X188701840Y-93557600D01*
X188701840Y-93360572D01*
X188966420Y-93413200D01*
X189369601Y-93333002D01*
X189394748Y-93333002D01*
X189236000Y-93491750D01*
X189236000Y-93732309D01*
X189332673Y-93965698D01*
X189511301Y-94144327D01*
X189744690Y-94241000D01*
X189960250Y-94241000D01*
X190119000Y-94082250D01*
X190119000Y-93333000D01*
X190373000Y-93333000D01*
X190373000Y-94082250D01*
X190531750Y-94241000D01*
X190747310Y-94241000D01*
X190980699Y-94144327D01*
X191159327Y-93965698D01*
X191230250Y-93794475D01*
X191301173Y-93965698D01*
X191479801Y-94144327D01*
X191713190Y-94241000D01*
X191928750Y-94241000D01*
X192087500Y-94082250D01*
X192087500Y-93333000D01*
X191363250Y-93333000D01*
X191230250Y-93466000D01*
X191097250Y-93333000D01*
X190373000Y-93333000D01*
X190119000Y-93333000D01*
X190099000Y-93333000D01*
X190099000Y-93079000D01*
X190119000Y-93079000D01*
X190119000Y-93059000D01*
X190373000Y-93059000D01*
X190373000Y-93079000D01*
X191097250Y-93079000D01*
X191230250Y-92946000D01*
X191363250Y-93079000D01*
G36*
X167549961Y-76135495D02*
X167259332Y-76835410D01*
X167258670Y-77593265D01*
X167548078Y-78293686D01*
X168083495Y-78830039D01*
X168783410Y-79120668D01*
X169464131Y-79121263D01*
X169565000Y-79222132D01*
X169565000Y-84102000D01*
X169651397Y-84536346D01*
X169882737Y-84882571D01*
X169897434Y-84904566D01*
X170315000Y-85322132D01*
X170315000Y-85641575D01*
X170282567Y-85663246D01*
X170180000Y-85816748D01*
X170077433Y-85663246D01*
X169541810Y-85305354D01*
X168910000Y-85179679D01*
X168278190Y-85305354D01*
X167742567Y-85663246D01*
X167384675Y-86198869D01*
X167259000Y-86830679D01*
X167259000Y-87413321D01*
X167384675Y-88045131D01*
X167742567Y-88580754D01*
X168197485Y-88884721D01*
X168207852Y-88936839D01*
X168372599Y-89183401D01*
X169494198Y-90305000D01*
X167538400Y-90305000D01*
X167104054Y-90391397D01*
X166735834Y-90637434D01*
X166380234Y-90993034D01*
X166134197Y-91361254D01*
X166047800Y-91795600D01*
X166047800Y-92278200D01*
X166134197Y-92712546D01*
X166380234Y-93080766D01*
X166748454Y-93326803D01*
X167182800Y-93413200D01*
X167392000Y-93371587D01*
X167392000Y-93466309D01*
X167488673Y-93699698D01*
X167667301Y-93878327D01*
X167900690Y-93975000D01*
X168116250Y-93975000D01*
X168275000Y-93816250D01*
X168275000Y-93067000D01*
X168529000Y-93067000D01*
X168529000Y-93816250D01*
X168687750Y-93975000D01*
X168903310Y-93975000D01*
X169136699Y-93878327D01*
X169315327Y-93699698D01*
X169412000Y-93466309D01*
X169412000Y-93237750D01*
X169424000Y-93237750D01*
X169424000Y-93478309D01*
X169520673Y-93711698D01*
X169699301Y-93890327D01*
X169932690Y-93987000D01*
X170148250Y-93987000D01*
X170307000Y-93828250D01*
X170307000Y-93079000D01*
X169582750Y-93079000D01*
X169424000Y-93237750D01*
X169412000Y-93237750D01*
X169412000Y-93225750D01*
X169253250Y-93067000D01*
X168529000Y-93067000D01*
X168275000Y-93067000D01*
X168255000Y-93067000D01*
X168255000Y-92813000D01*
X168275000Y-92813000D01*
X168275000Y-92793000D01*
X168529000Y-92793000D01*
X168529000Y-92813000D01*
X169253250Y-92813000D01*
X169412000Y-92654250D01*
X169412000Y-92575000D01*
X169424000Y-92575000D01*
X169424000Y-92666250D01*
X169582750Y-92825000D01*
X170307000Y-92825000D01*
X170307000Y-92805000D01*
X170561000Y-92805000D01*
X170561000Y-92825000D01*
X170581000Y-92825000D01*
X170581000Y-93079000D01*
X170561000Y-93079000D01*
X170561000Y-93828250D01*
X170719750Y-93987000D01*
X170935310Y-93987000D01*
X171168699Y-93890327D01*
X171305262Y-93753763D01*
X171332838Y-93900317D01*
X171471910Y-94116441D01*
X171684110Y-94261431D01*
X171706000Y-94265864D01*
X171706000Y-94935198D01*
X170709399Y-95931799D01*
X170544652Y-96178361D01*
X170486800Y-96469200D01*
X170486800Y-98151174D01*
X170356498Y-98020873D01*
X170123109Y-97924200D01*
X170030550Y-97924200D01*
X169871800Y-98082950D01*
X169871800Y-98882200D01*
X169893800Y-98882200D01*
X169893800Y-99136200D01*
X169871800Y-99136200D01*
X169871800Y-99156200D01*
X169621800Y-99156200D01*
X169621800Y-99136200D01*
X169599800Y-99136200D01*
X169599800Y-98882200D01*
X169621800Y-98882200D01*
X169621800Y-98082950D01*
X169463050Y-97924200D01*
X169370491Y-97924200D01*
X169137102Y-98020873D01*
X168958473Y-98199501D01*
X168892599Y-98358535D01*
X168892599Y-97515051D01*
X168856617Y-97334158D01*
X168834747Y-97224211D01*
X168670000Y-96977650D01*
X163096790Y-91404440D01*
X163384230Y-91404440D01*
X163542980Y-91245690D01*
X163542980Y-90297000D01*
X163796980Y-90297000D01*
X163796980Y-91245690D01*
X163955730Y-91404440D01*
X165494279Y-91404440D01*
X165727668Y-91307767D01*
X165906297Y-91129139D01*
X166002970Y-90895750D01*
X166002970Y-90455750D01*
X165844220Y-90297000D01*
X163796980Y-90297000D01*
X163542980Y-90297000D01*
X163522980Y-90297000D01*
X163522980Y-90043000D01*
X163542980Y-90043000D01*
X163542980Y-89094310D01*
X163796980Y-89094310D01*
X163796980Y-90043000D01*
X165844220Y-90043000D01*
X166002970Y-89884250D01*
X166002970Y-89444250D01*
X165906297Y-89210861D01*
X165727668Y-89032233D01*
X165494279Y-88935560D01*
X163955730Y-88935560D01*
X163796980Y-89094310D01*
X163542980Y-89094310D01*
X163384230Y-88935560D01*
X161845681Y-88935560D01*
X161612292Y-89032233D01*
X161433663Y-89210861D01*
X161336990Y-89444250D01*
X161336990Y-89644640D01*
X161034000Y-89341650D01*
X161034000Y-85518648D01*
X161333670Y-85318415D01*
X161540461Y-85008931D01*
X161911964Y-85424732D01*
X162439209Y-85678709D01*
X162454974Y-85681358D01*
X162687000Y-85560217D01*
X162687000Y-84201000D01*
X162941000Y-84201000D01*
X162941000Y-85560217D01*
X163173026Y-85681358D01*
X163188791Y-85678709D01*
X163716036Y-85424732D01*
X164105954Y-84988320D01*
X164299184Y-84435913D01*
X164154924Y-84201000D01*
X162941000Y-84201000D01*
X162687000Y-84201000D01*
X162667000Y-84201000D01*
X162667000Y-83947000D01*
X162687000Y-83947000D01*
X162687000Y-82587783D01*
X162941000Y-82587783D01*
X162941000Y-83947000D01*
X164154924Y-83947000D01*
X164299184Y-83712087D01*
X164105954Y-83159680D01*
X163716036Y-82723268D01*
X163188791Y-82469291D01*
X163173026Y-82466642D01*
X162941000Y-82587783D01*
X162687000Y-82587783D01*
X162454974Y-82466642D01*
X162439209Y-82469291D01*
X161911964Y-82723268D01*
X161540461Y-83139069D01*
X161333670Y-82829585D01*
X160847489Y-82504729D01*
X160274000Y-82390655D01*
X159700511Y-82504729D01*
X159369000Y-82726238D01*
X159369000Y-81766740D01*
X165142485Y-75993254D01*
X167692451Y-75993254D01*
X167549961Y-76135495D01*
X167549961Y-76135495D01*
G37*
X167549961Y-76135495D02*
X167259332Y-76835410D01*
X167258670Y-77593265D01*
X167548078Y-78293686D01*
X168083495Y-78830039D01*
X168783410Y-79120668D01*
X169464131Y-79121263D01*
X169565000Y-79222132D01*
X169565000Y-84102000D01*
X169651397Y-84536346D01*
X169882737Y-84882571D01*
X169897434Y-84904566D01*
X170315000Y-85322132D01*
X170315000Y-85641575D01*
X170282567Y-85663246D01*
X170180000Y-85816748D01*
X170077433Y-85663246D01*
X169541810Y-85305354D01*
X168910000Y-85179679D01*
X168278190Y-85305354D01*
X167742567Y-85663246D01*
X167384675Y-86198869D01*
X167259000Y-86830679D01*
X167259000Y-87413321D01*
X167384675Y-88045131D01*
X167742567Y-88580754D01*
X168197485Y-88884721D01*
X168207852Y-88936839D01*
X168372599Y-89183401D01*
X169494198Y-90305000D01*
X167538400Y-90305000D01*
X167104054Y-90391397D01*
X166735834Y-90637434D01*
X166380234Y-90993034D01*
X166134197Y-91361254D01*
X166047800Y-91795600D01*
X166047800Y-92278200D01*
X166134197Y-92712546D01*
X166380234Y-93080766D01*
X166748454Y-93326803D01*
X167182800Y-93413200D01*
X167392000Y-93371587D01*
X167392000Y-93466309D01*
X167488673Y-93699698D01*
X167667301Y-93878327D01*
X167900690Y-93975000D01*
X168116250Y-93975000D01*
X168275000Y-93816250D01*
X168275000Y-93067000D01*
X168529000Y-93067000D01*
X168529000Y-93816250D01*
X168687750Y-93975000D01*
X168903310Y-93975000D01*
X169136699Y-93878327D01*
X169315327Y-93699698D01*
X169412000Y-93466309D01*
X169412000Y-93237750D01*
X169424000Y-93237750D01*
X169424000Y-93478309D01*
X169520673Y-93711698D01*
X169699301Y-93890327D01*
X169932690Y-93987000D01*
X170148250Y-93987000D01*
X170307000Y-93828250D01*
X170307000Y-93079000D01*
X169582750Y-93079000D01*
X169424000Y-93237750D01*
X169412000Y-93237750D01*
X169412000Y-93225750D01*
X169253250Y-93067000D01*
X168529000Y-93067000D01*
X168275000Y-93067000D01*
X168255000Y-93067000D01*
X168255000Y-92813000D01*
X168275000Y-92813000D01*
X168275000Y-92793000D01*
X168529000Y-92793000D01*
X168529000Y-92813000D01*
X169253250Y-92813000D01*
X169412000Y-92654250D01*
X169412000Y-92575000D01*
X169424000Y-92575000D01*
X169424000Y-92666250D01*
X169582750Y-92825000D01*
X170307000Y-92825000D01*
X170307000Y-92805000D01*
X170561000Y-92805000D01*
X170561000Y-92825000D01*
X170581000Y-92825000D01*
X170581000Y-93079000D01*
X170561000Y-93079000D01*
X170561000Y-93828250D01*
X170719750Y-93987000D01*
X170935310Y-93987000D01*
X171168699Y-93890327D01*
X171305262Y-93753763D01*
X171332838Y-93900317D01*
X171471910Y-94116441D01*
X171684110Y-94261431D01*
X171706000Y-94265864D01*
X171706000Y-94935198D01*
X170709399Y-95931799D01*
X170544652Y-96178361D01*
X170486800Y-96469200D01*
X170486800Y-98151174D01*
X170356498Y-98020873D01*
X170123109Y-97924200D01*
X170030550Y-97924200D01*
X169871800Y-98082950D01*
X169871800Y-98882200D01*
X169893800Y-98882200D01*
X169893800Y-99136200D01*
X169871800Y-99136200D01*
X169871800Y-99156200D01*
X169621800Y-99156200D01*
X169621800Y-99136200D01*
X169599800Y-99136200D01*
X169599800Y-98882200D01*
X169621800Y-98882200D01*
X169621800Y-98082950D01*
X169463050Y-97924200D01*
X169370491Y-97924200D01*
X169137102Y-98020873D01*
X168958473Y-98199501D01*
X168892599Y-98358535D01*
X168892599Y-97515051D01*
X168856617Y-97334158D01*
X168834747Y-97224211D01*
X168670000Y-96977650D01*
X163096790Y-91404440D01*
X163384230Y-91404440D01*
X163542980Y-91245690D01*
X163542980Y-90297000D01*
X163796980Y-90297000D01*
X163796980Y-91245690D01*
X163955730Y-91404440D01*
X165494279Y-91404440D01*
X165727668Y-91307767D01*
X165906297Y-91129139D01*
X166002970Y-90895750D01*
X166002970Y-90455750D01*
X165844220Y-90297000D01*
X163796980Y-90297000D01*
X163542980Y-90297000D01*
X163522980Y-90297000D01*
X163522980Y-90043000D01*
X163542980Y-90043000D01*
X163542980Y-89094310D01*
X163796980Y-89094310D01*
X163796980Y-90043000D01*
X165844220Y-90043000D01*
X166002970Y-89884250D01*
X166002970Y-89444250D01*
X165906297Y-89210861D01*
X165727668Y-89032233D01*
X165494279Y-88935560D01*
X163955730Y-88935560D01*
X163796980Y-89094310D01*
X163542980Y-89094310D01*
X163384230Y-88935560D01*
X161845681Y-88935560D01*
X161612292Y-89032233D01*
X161433663Y-89210861D01*
X161336990Y-89444250D01*
X161336990Y-89644640D01*
X161034000Y-89341650D01*
X161034000Y-85518648D01*
X161333670Y-85318415D01*
X161540461Y-85008931D01*
X161911964Y-85424732D01*
X162439209Y-85678709D01*
X162454974Y-85681358D01*
X162687000Y-85560217D01*
X162687000Y-84201000D01*
X162941000Y-84201000D01*
X162941000Y-85560217D01*
X163173026Y-85681358D01*
X163188791Y-85678709D01*
X163716036Y-85424732D01*
X164105954Y-84988320D01*
X164299184Y-84435913D01*
X164154924Y-84201000D01*
X162941000Y-84201000D01*
X162687000Y-84201000D01*
X162667000Y-84201000D01*
X162667000Y-83947000D01*
X162687000Y-83947000D01*
X162687000Y-82587783D01*
X162941000Y-82587783D01*
X162941000Y-83947000D01*
X164154924Y-83947000D01*
X164299184Y-83712087D01*
X164105954Y-83159680D01*
X163716036Y-82723268D01*
X163188791Y-82469291D01*
X163173026Y-82466642D01*
X162941000Y-82587783D01*
X162687000Y-82587783D01*
X162454974Y-82466642D01*
X162439209Y-82469291D01*
X161911964Y-82723268D01*
X161540461Y-83139069D01*
X161333670Y-82829585D01*
X160847489Y-82504729D01*
X160274000Y-82390655D01*
X159700511Y-82504729D01*
X159369000Y-82726238D01*
X159369000Y-81766740D01*
X165142485Y-75993254D01*
X167692451Y-75993254D01*
X167549961Y-76135495D01*
G36*
X209898600Y-93935890D02*
X209898600Y-94151450D01*
X210057350Y-94310200D01*
X210806600Y-94310200D01*
X210806600Y-94290200D01*
X211060600Y-94290200D01*
X211060600Y-94310200D01*
X211080600Y-94310200D01*
X211080600Y-94564200D01*
X211060600Y-94564200D01*
X211060600Y-95288450D01*
X211219350Y-95447200D01*
X211298600Y-95447200D01*
X211298600Y-95923360D01*
X210794600Y-95923360D01*
X210559283Y-95967638D01*
X210343159Y-96106710D01*
X210198169Y-96318910D01*
X210147160Y-96570800D01*
X210147160Y-97586800D01*
X210191438Y-97822117D01*
X210330510Y-98038241D01*
X210542710Y-98183231D01*
X210730914Y-98221343D01*
X210685971Y-98229800D01*
X206870040Y-98229800D01*
X206870040Y-97536000D01*
X206825762Y-97300683D01*
X206686690Y-97084559D01*
X206474490Y-96939569D01*
X206222600Y-96888560D01*
X204190600Y-96888560D01*
X203955283Y-96932838D01*
X203739159Y-97071910D01*
X203638815Y-97218768D01*
X203519485Y-97099229D01*
X203065734Y-96910815D01*
X202763581Y-96910551D01*
X203240566Y-96433566D01*
X203326605Y-96304800D01*
X203486603Y-96065346D01*
X203573000Y-95631000D01*
X203573000Y-94722950D01*
X209898600Y-94722950D01*
X209898600Y-94938510D01*
X209995273Y-95171899D01*
X210173902Y-95350527D01*
X210407291Y-95447200D01*
X210647850Y-95447200D01*
X210806600Y-95288450D01*
X210806600Y-94564200D01*
X210057350Y-94564200D01*
X209898600Y-94722950D01*
X203573000Y-94722950D01*
X203573000Y-93828200D01*
X209943207Y-93828200D01*
X209898600Y-93935890D01*
X209898600Y-93935890D01*
G37*
X209898600Y-93935890D02*
X209898600Y-94151450D01*
X210057350Y-94310200D01*
X210806600Y-94310200D01*
X210806600Y-94290200D01*
X211060600Y-94290200D01*
X211060600Y-94310200D01*
X211080600Y-94310200D01*
X211080600Y-94564200D01*
X211060600Y-94564200D01*
X211060600Y-95288450D01*
X211219350Y-95447200D01*
X211298600Y-95447200D01*
X211298600Y-95923360D01*
X210794600Y-95923360D01*
X210559283Y-95967638D01*
X210343159Y-96106710D01*
X210198169Y-96318910D01*
X210147160Y-96570800D01*
X210147160Y-97586800D01*
X210191438Y-97822117D01*
X210330510Y-98038241D01*
X210542710Y-98183231D01*
X210730914Y-98221343D01*
X210685971Y-98229800D01*
X206870040Y-98229800D01*
X206870040Y-97536000D01*
X206825762Y-97300683D01*
X206686690Y-97084559D01*
X206474490Y-96939569D01*
X206222600Y-96888560D01*
X204190600Y-96888560D01*
X203955283Y-96932838D01*
X203739159Y-97071910D01*
X203638815Y-97218768D01*
X203519485Y-97099229D01*
X203065734Y-96910815D01*
X202763581Y-96910551D01*
X203240566Y-96433566D01*
X203326605Y-96304800D01*
X203486603Y-96065346D01*
X203573000Y-95631000D01*
X203573000Y-94722950D01*
X209898600Y-94722950D01*
X209898600Y-94938510D01*
X209995273Y-95171899D01*
X210173902Y-95350527D01*
X210407291Y-95447200D01*
X210647850Y-95447200D01*
X210806600Y-95288450D01*
X210806600Y-94564200D01*
X210057350Y-94564200D01*
X209898600Y-94722950D01*
X203573000Y-94722950D01*
X203573000Y-93828200D01*
X209943207Y-93828200D01*
X209898600Y-93935890D01*
G36*
X195682300Y-96177100D02*
X195702300Y-96177100D01*
X195702300Y-96431100D01*
X195682300Y-96431100D01*
X195682300Y-96451100D01*
X195428300Y-96451100D01*
X195428300Y-96431100D01*
X195408300Y-96431100D01*
X195408300Y-96177100D01*
X195428300Y-96177100D01*
X195428300Y-96157100D01*
X195682300Y-96157100D01*
X195682300Y-96177100D01*
X195682300Y-96177100D01*
G37*
X195682300Y-96177100D02*
X195702300Y-96177100D01*
X195702300Y-96431100D01*
X195682300Y-96431100D01*
X195682300Y-96451100D01*
X195428300Y-96451100D01*
X195428300Y-96431100D01*
X195408300Y-96431100D01*
X195408300Y-96177100D01*
X195428300Y-96177100D01*
X195428300Y-96157100D01*
X195682300Y-96157100D01*
X195682300Y-96177100D01*
G36*
X213790000Y-96213982D02*
X213568600Y-96066047D01*
X213568600Y-93062200D01*
X213482203Y-92627854D01*
X213236166Y-92259634D01*
X212867166Y-91890634D01*
X212783606Y-91834801D01*
X212498946Y-91644597D01*
X212420200Y-91628933D01*
X212420200Y-82664070D01*
X212479631Y-82577090D01*
X212530640Y-82325200D01*
X212530640Y-81735200D01*
X212486362Y-81499883D01*
X212347290Y-81283759D01*
X212135090Y-81138769D01*
X211883200Y-81087760D01*
X211433200Y-81087760D01*
X211197883Y-81132038D01*
X210981759Y-81271110D01*
X210836769Y-81483310D01*
X210785760Y-81735200D01*
X210785760Y-82325200D01*
X210830038Y-82560517D01*
X210896200Y-82663336D01*
X210896200Y-87045283D01*
X210697936Y-86915670D01*
X208713605Y-88900000D01*
X210697936Y-90884330D01*
X210896200Y-90754717D01*
X210896200Y-91558200D01*
X210050951Y-91558200D01*
X210248779Y-91476257D01*
X210518330Y-91063936D01*
X208534000Y-89079605D01*
X206549670Y-91063936D01*
X206819221Y-91476257D01*
X207018048Y-91558200D01*
X205430625Y-91558200D01*
X205434731Y-91552190D01*
X205485740Y-91300300D01*
X205485740Y-86788820D01*
X205649642Y-86856369D01*
X206309587Y-86855195D01*
X206370063Y-86915671D01*
X205957743Y-87185221D01*
X205497631Y-88301642D01*
X205499779Y-89509157D01*
X205957743Y-90614779D01*
X206370064Y-90884330D01*
X208354395Y-88900000D01*
X208340252Y-88885858D01*
X208519858Y-88706252D01*
X208534000Y-88720395D01*
X210518330Y-86736064D01*
X210248779Y-86323743D01*
X209132358Y-85863631D01*
X208472413Y-85864805D01*
X208411937Y-85804329D01*
X208824257Y-85534779D01*
X209284369Y-84418358D01*
X209282221Y-83210843D01*
X208824257Y-82105221D01*
X208411936Y-81835670D01*
X206427605Y-83820000D01*
X206441748Y-83834142D01*
X206262142Y-84013748D01*
X206248000Y-83999605D01*
X206233858Y-84013748D01*
X206054252Y-83834142D01*
X206068395Y-83820000D01*
X204084064Y-81835670D01*
X203671743Y-82105221D01*
X203303000Y-82999943D01*
X203303000Y-81656064D01*
X204263670Y-81656064D01*
X206248000Y-83640395D01*
X208232330Y-81656064D01*
X207962779Y-81243743D01*
X206846358Y-80783631D01*
X205638843Y-80785779D01*
X204533221Y-81243743D01*
X204263670Y-81656064D01*
X203303000Y-81656064D01*
X203303000Y-79255367D01*
X210723038Y-79255367D01*
X210815391Y-79478879D01*
X210785760Y-79625200D01*
X210785760Y-80215200D01*
X210830038Y-80450517D01*
X210969110Y-80666641D01*
X211181310Y-80811631D01*
X211433200Y-80862640D01*
X211883200Y-80862640D01*
X212118517Y-80818362D01*
X212334641Y-80679290D01*
X212479631Y-80467090D01*
X212530640Y-80215200D01*
X212530640Y-79625200D01*
X212502421Y-79475228D01*
X212593038Y-79256999D01*
X212593362Y-78885033D01*
X212451317Y-78541257D01*
X212188527Y-78278008D01*
X211844999Y-78135362D01*
X211473033Y-78135038D01*
X211129257Y-78277083D01*
X210866008Y-78539873D01*
X210723362Y-78883401D01*
X210723038Y-79255367D01*
X203303000Y-79255367D01*
X203303000Y-78231147D01*
X203371453Y-78128700D01*
X203496160Y-77501750D01*
X204343000Y-77501750D01*
X204343000Y-78612310D01*
X204439673Y-78845699D01*
X204618302Y-79024327D01*
X204851691Y-79121000D01*
X205962250Y-79121000D01*
X206121000Y-78962250D01*
X206121000Y-77343000D01*
X206375000Y-77343000D01*
X206375000Y-78962250D01*
X206533750Y-79121000D01*
X207644309Y-79121000D01*
X207877698Y-79024327D01*
X208056327Y-78845699D01*
X208153000Y-78612310D01*
X208153000Y-77501750D01*
X207994250Y-77343000D01*
X206375000Y-77343000D01*
X206121000Y-77343000D01*
X204501750Y-77343000D01*
X204343000Y-77501750D01*
X203496160Y-77501750D01*
X203553000Y-77216000D01*
X203371453Y-76303300D01*
X203048316Y-75819690D01*
X204343000Y-75819690D01*
X204343000Y-76930250D01*
X204501750Y-77089000D01*
X206121000Y-77089000D01*
X206121000Y-75469750D01*
X206375000Y-75469750D01*
X206375000Y-77089000D01*
X207994250Y-77089000D01*
X208153000Y-76930250D01*
X208153000Y-75819690D01*
X208064814Y-75606789D01*
X209141960Y-75606789D01*
X209466290Y-76391727D01*
X210066314Y-76992800D01*
X210850685Y-77318499D01*
X211699989Y-77319240D01*
X212484927Y-76994910D01*
X213086000Y-76394886D01*
X213411699Y-75610515D01*
X213412440Y-74761211D01*
X213088110Y-73976273D01*
X212488086Y-73375200D01*
X211703715Y-73049501D01*
X210854411Y-73048760D01*
X210069473Y-73373090D01*
X209468400Y-73973114D01*
X209142701Y-74757485D01*
X209141960Y-75606789D01*
X208064814Y-75606789D01*
X208056327Y-75586301D01*
X207877698Y-75407673D01*
X207644309Y-75311000D01*
X206533750Y-75311000D01*
X206375000Y-75469750D01*
X206121000Y-75469750D01*
X205962250Y-75311000D01*
X204851691Y-75311000D01*
X204618302Y-75407673D01*
X204439673Y-75586301D01*
X204343000Y-75819690D01*
X203048316Y-75819690D01*
X202854450Y-75529550D01*
X202080700Y-75012547D01*
X201168000Y-74831000D01*
X195580000Y-74831000D01*
X195519311Y-74843072D01*
X193891320Y-73215080D01*
X193360888Y-72860657D01*
X192735200Y-72736199D01*
X192735195Y-72736200D01*
X191362944Y-72736200D01*
X191297856Y-72723253D01*
X191297851Y-72723254D01*
X184355232Y-72723254D01*
X184355227Y-72723253D01*
X184355222Y-72723254D01*
X174233655Y-72723254D01*
X174233650Y-72723253D01*
X174233645Y-72723254D01*
X164465251Y-72723254D01*
X164465246Y-72723253D01*
X163839559Y-72847711D01*
X163309126Y-73202134D01*
X163309124Y-73202137D01*
X157117310Y-79393950D01*
X157022380Y-79457380D01*
X156577880Y-79901880D01*
X156223457Y-80432312D01*
X156098999Y-81058000D01*
X156099000Y-81058005D01*
X156099000Y-83396760D01*
X155866680Y-83629080D01*
X155512257Y-84159512D01*
X155387799Y-84785200D01*
X155387800Y-84785205D01*
X155387800Y-88923120D01*
X155324810Y-88923120D01*
X155210000Y-88944723D01*
X155210000Y-75860789D01*
X155344760Y-75860789D01*
X155669090Y-76645727D01*
X156269114Y-77246800D01*
X157053485Y-77572499D01*
X157902789Y-77573240D01*
X158687727Y-77248910D01*
X159288800Y-76648886D01*
X159614499Y-75864515D01*
X159615240Y-75015211D01*
X159290910Y-74230273D01*
X158690886Y-73629200D01*
X157906515Y-73303501D01*
X157057211Y-73302760D01*
X156272273Y-73627090D01*
X155671200Y-74227114D01*
X155345501Y-75011485D01*
X155344760Y-75860789D01*
X155210000Y-75860789D01*
X155210000Y-72710000D01*
X213790000Y-72710000D01*
X213790000Y-96213982D01*
X213790000Y-96213982D01*
G37*
X213790000Y-96213982D02*
X213568600Y-96066047D01*
X213568600Y-93062200D01*
X213482203Y-92627854D01*
X213236166Y-92259634D01*
X212867166Y-91890634D01*
X212783606Y-91834801D01*
X212498946Y-91644597D01*
X212420200Y-91628933D01*
X212420200Y-82664070D01*
X212479631Y-82577090D01*
X212530640Y-82325200D01*
X212530640Y-81735200D01*
X212486362Y-81499883D01*
X212347290Y-81283759D01*
X212135090Y-81138769D01*
X211883200Y-81087760D01*
X211433200Y-81087760D01*
X211197883Y-81132038D01*
X210981759Y-81271110D01*
X210836769Y-81483310D01*
X210785760Y-81735200D01*
X210785760Y-82325200D01*
X210830038Y-82560517D01*
X210896200Y-82663336D01*
X210896200Y-87045283D01*
X210697936Y-86915670D01*
X208713605Y-88900000D01*
X210697936Y-90884330D01*
X210896200Y-90754717D01*
X210896200Y-91558200D01*
X210050951Y-91558200D01*
X210248779Y-91476257D01*
X210518330Y-91063936D01*
X208534000Y-89079605D01*
X206549670Y-91063936D01*
X206819221Y-91476257D01*
X207018048Y-91558200D01*
X205430625Y-91558200D01*
X205434731Y-91552190D01*
X205485740Y-91300300D01*
X205485740Y-86788820D01*
X205649642Y-86856369D01*
X206309587Y-86855195D01*
X206370063Y-86915671D01*
X205957743Y-87185221D01*
X205497631Y-88301642D01*
X205499779Y-89509157D01*
X205957743Y-90614779D01*
X206370064Y-90884330D01*
X208354395Y-88900000D01*
X208340252Y-88885858D01*
X208519858Y-88706252D01*
X208534000Y-88720395D01*
X210518330Y-86736064D01*
X210248779Y-86323743D01*
X209132358Y-85863631D01*
X208472413Y-85864805D01*
X208411937Y-85804329D01*
X208824257Y-85534779D01*
X209284369Y-84418358D01*
X209282221Y-83210843D01*
X208824257Y-82105221D01*
X208411936Y-81835670D01*
X206427605Y-83820000D01*
X206441748Y-83834142D01*
X206262142Y-84013748D01*
X206248000Y-83999605D01*
X206233858Y-84013748D01*
X206054252Y-83834142D01*
X206068395Y-83820000D01*
X204084064Y-81835670D01*
X203671743Y-82105221D01*
X203303000Y-82999943D01*
X203303000Y-81656064D01*
X204263670Y-81656064D01*
X206248000Y-83640395D01*
X208232330Y-81656064D01*
X207962779Y-81243743D01*
X206846358Y-80783631D01*
X205638843Y-80785779D01*
X204533221Y-81243743D01*
X204263670Y-81656064D01*
X203303000Y-81656064D01*
X203303000Y-79255367D01*
X210723038Y-79255367D01*
X210815391Y-79478879D01*
X210785760Y-79625200D01*
X210785760Y-80215200D01*
X210830038Y-80450517D01*
X210969110Y-80666641D01*
X211181310Y-80811631D01*
X211433200Y-80862640D01*
X211883200Y-80862640D01*
X212118517Y-80818362D01*
X212334641Y-80679290D01*
X212479631Y-80467090D01*
X212530640Y-80215200D01*
X212530640Y-79625200D01*
X212502421Y-79475228D01*
X212593038Y-79256999D01*
X212593362Y-78885033D01*
X212451317Y-78541257D01*
X212188527Y-78278008D01*
X211844999Y-78135362D01*
X211473033Y-78135038D01*
X211129257Y-78277083D01*
X210866008Y-78539873D01*
X210723362Y-78883401D01*
X210723038Y-79255367D01*
X203303000Y-79255367D01*
X203303000Y-78231147D01*
X203371453Y-78128700D01*
X203496160Y-77501750D01*
X204343000Y-77501750D01*
X204343000Y-78612310D01*
X204439673Y-78845699D01*
X204618302Y-79024327D01*
X204851691Y-79121000D01*
X205962250Y-79121000D01*
X206121000Y-78962250D01*
X206121000Y-77343000D01*
X206375000Y-77343000D01*
X206375000Y-78962250D01*
X206533750Y-79121000D01*
X207644309Y-79121000D01*
X207877698Y-79024327D01*
X208056327Y-78845699D01*
X208153000Y-78612310D01*
X208153000Y-77501750D01*
X207994250Y-77343000D01*
X206375000Y-77343000D01*
X206121000Y-77343000D01*
X204501750Y-77343000D01*
X204343000Y-77501750D01*
X203496160Y-77501750D01*
X203553000Y-77216000D01*
X203371453Y-76303300D01*
X203048316Y-75819690D01*
X204343000Y-75819690D01*
X204343000Y-76930250D01*
X204501750Y-77089000D01*
X206121000Y-77089000D01*
X206121000Y-75469750D01*
X206375000Y-75469750D01*
X206375000Y-77089000D01*
X207994250Y-77089000D01*
X208153000Y-76930250D01*
X208153000Y-75819690D01*
X208064814Y-75606789D01*
X209141960Y-75606789D01*
X209466290Y-76391727D01*
X210066314Y-76992800D01*
X210850685Y-77318499D01*
X211699989Y-77319240D01*
X212484927Y-76994910D01*
X213086000Y-76394886D01*
X213411699Y-75610515D01*
X213412440Y-74761211D01*
X213088110Y-73976273D01*
X212488086Y-73375200D01*
X211703715Y-73049501D01*
X210854411Y-73048760D01*
X210069473Y-73373090D01*
X209468400Y-73973114D01*
X209142701Y-74757485D01*
X209141960Y-75606789D01*
X208064814Y-75606789D01*
X208056327Y-75586301D01*
X207877698Y-75407673D01*
X207644309Y-75311000D01*
X206533750Y-75311000D01*
X206375000Y-75469750D01*
X206121000Y-75469750D01*
X205962250Y-75311000D01*
X204851691Y-75311000D01*
X204618302Y-75407673D01*
X204439673Y-75586301D01*
X204343000Y-75819690D01*
X203048316Y-75819690D01*
X202854450Y-75529550D01*
X202080700Y-75012547D01*
X201168000Y-74831000D01*
X195580000Y-74831000D01*
X195519311Y-74843072D01*
X193891320Y-73215080D01*
X193360888Y-72860657D01*
X192735200Y-72736199D01*
X192735195Y-72736200D01*
X191362944Y-72736200D01*
X191297856Y-72723253D01*
X191297851Y-72723254D01*
X184355232Y-72723254D01*
X184355227Y-72723253D01*
X184355222Y-72723254D01*
X174233655Y-72723254D01*
X174233650Y-72723253D01*
X174233645Y-72723254D01*
X164465251Y-72723254D01*
X164465246Y-72723253D01*
X163839559Y-72847711D01*
X163309126Y-73202134D01*
X163309124Y-73202137D01*
X157117310Y-79393950D01*
X157022380Y-79457380D01*
X156577880Y-79901880D01*
X156223457Y-80432312D01*
X156098999Y-81058000D01*
X156099000Y-81058005D01*
X156099000Y-83396760D01*
X155866680Y-83629080D01*
X155512257Y-84159512D01*
X155387799Y-84785200D01*
X155387800Y-84785205D01*
X155387800Y-88923120D01*
X155324810Y-88923120D01*
X155210000Y-88944723D01*
X155210000Y-75860789D01*
X155344760Y-75860789D01*
X155669090Y-76645727D01*
X156269114Y-77246800D01*
X157053485Y-77572499D01*
X157902789Y-77573240D01*
X158687727Y-77248910D01*
X159288800Y-76648886D01*
X159614499Y-75864515D01*
X159615240Y-75015211D01*
X159290910Y-74230273D01*
X158690886Y-73629200D01*
X157906515Y-73303501D01*
X157057211Y-73302760D01*
X156272273Y-73627090D01*
X155671200Y-74227114D01*
X155345501Y-75011485D01*
X155344760Y-75860789D01*
X155210000Y-75860789D01*
X155210000Y-72710000D01*
X213790000Y-72710000D01*
X213790000Y-96213982D01*
G36*
X174793000Y-93213000D02*
X174813000Y-93213000D01*
X174813000Y-93467000D01*
X174793000Y-93467000D01*
X174793000Y-94141250D01*
X174951750Y-94300000D01*
X175262198Y-94300000D01*
X175072198Y-94490000D01*
X173226000Y-94490000D01*
X173226000Y-94269162D01*
X173231317Y-94268162D01*
X173447441Y-94129090D01*
X173567893Y-93952803D01*
X173597673Y-94024699D01*
X173776302Y-94203327D01*
X174009691Y-94300000D01*
X174380250Y-94300000D01*
X174539000Y-94141250D01*
X174539000Y-93467000D01*
X174519000Y-93467000D01*
X174519000Y-93213000D01*
X174539000Y-93213000D01*
X174539000Y-93193000D01*
X174793000Y-93193000D01*
X174793000Y-93213000D01*
X174793000Y-93213000D01*
G37*
X174793000Y-93213000D02*
X174813000Y-93213000D01*
X174813000Y-93467000D01*
X174793000Y-93467000D01*
X174793000Y-94141250D01*
X174951750Y-94300000D01*
X175262198Y-94300000D01*
X175072198Y-94490000D01*
X173226000Y-94490000D01*
X173226000Y-94269162D01*
X173231317Y-94268162D01*
X173447441Y-94129090D01*
X173567893Y-93952803D01*
X173597673Y-94024699D01*
X173776302Y-94203327D01*
X174009691Y-94300000D01*
X174380250Y-94300000D01*
X174539000Y-94141250D01*
X174539000Y-93467000D01*
X174519000Y-93467000D01*
X174519000Y-93213000D01*
X174539000Y-93213000D01*
X174539000Y-93193000D01*
X174793000Y-93193000D01*
X174793000Y-93213000D01*
G36*
X196723000Y-93342500D02*
X196743000Y-93342500D01*
X196743000Y-93596500D01*
X196723000Y-93596500D01*
X196723000Y-93616500D01*
X196469000Y-93616500D01*
X196469000Y-93596500D01*
X196449000Y-93596500D01*
X196449000Y-93342500D01*
X196469000Y-93342500D01*
X196469000Y-93322500D01*
X196723000Y-93322500D01*
X196723000Y-93342500D01*
X196723000Y-93342500D01*
G37*
X196723000Y-93342500D02*
X196743000Y-93342500D01*
X196743000Y-93596500D01*
X196723000Y-93596500D01*
X196723000Y-93616500D01*
X196469000Y-93616500D01*
X196469000Y-93596500D01*
X196449000Y-93596500D01*
X196449000Y-93342500D01*
X196469000Y-93342500D01*
X196469000Y-93322500D01*
X196723000Y-93322500D01*
X196723000Y-93342500D01*
G36*
X185801000Y-93279000D02*
X185821000Y-93279000D01*
X185821000Y-93533000D01*
X185801000Y-93533000D01*
X185801000Y-93553000D01*
X185547000Y-93553000D01*
X185547000Y-93533000D01*
X185527000Y-93533000D01*
X185527000Y-93279000D01*
X185547000Y-93279000D01*
X185547000Y-93259000D01*
X185801000Y-93259000D01*
X185801000Y-93279000D01*
X185801000Y-93279000D01*
G37*
X185801000Y-93279000D02*
X185821000Y-93279000D01*
X185821000Y-93533000D01*
X185801000Y-93533000D01*
X185801000Y-93553000D01*
X185547000Y-93553000D01*
X185547000Y-93533000D01*
X185527000Y-93533000D01*
X185527000Y-93279000D01*
X185547000Y-93279000D01*
X185547000Y-93259000D01*
X185801000Y-93259000D01*
X185801000Y-93279000D01*
G36*
X193614110Y-92490931D02*
X193751120Y-92518676D01*
X193630683Y-92541338D01*
X193467257Y-92646500D01*
X193389750Y-92646500D01*
X193231000Y-92805250D01*
X193231000Y-92970810D01*
X193246268Y-93007671D01*
X193224500Y-93115167D01*
X193224500Y-93078998D01*
X193065752Y-93078998D01*
X193224500Y-92920250D01*
X193224500Y-92679691D01*
X193136815Y-92468000D01*
X193580549Y-92468000D01*
X193614110Y-92490931D01*
X193614110Y-92490931D01*
G37*
X193614110Y-92490931D02*
X193751120Y-92518676D01*
X193630683Y-92541338D01*
X193467257Y-92646500D01*
X193389750Y-92646500D01*
X193231000Y-92805250D01*
X193231000Y-92970810D01*
X193246268Y-93007671D01*
X193224500Y-93115167D01*
X193224500Y-93078998D01*
X193065752Y-93078998D01*
X193224500Y-92920250D01*
X193224500Y-92679691D01*
X193136815Y-92468000D01*
X193580549Y-92468000D01*
X193614110Y-92490931D01*
G36*
X173671910Y-92216441D02*
X173884110Y-92361431D01*
X173998565Y-92384609D01*
X173776302Y-92476673D01*
X173604112Y-92648862D01*
X173472250Y-92517000D01*
X173391949Y-92517000D01*
X173247890Y-92418569D01*
X173110880Y-92390824D01*
X173231317Y-92368162D01*
X173394743Y-92263000D01*
X173472250Y-92263000D01*
X173611965Y-92123285D01*
X173671910Y-92216441D01*
X173671910Y-92216441D01*
G37*
X173671910Y-92216441D02*
X173884110Y-92361431D01*
X173998565Y-92384609D01*
X173776302Y-92476673D01*
X173604112Y-92648862D01*
X173472250Y-92517000D01*
X173391949Y-92517000D01*
X173247890Y-92418569D01*
X173110880Y-92390824D01*
X173231317Y-92368162D01*
X173394743Y-92263000D01*
X173472250Y-92263000D01*
X173611965Y-92123285D01*
X173671910Y-92216441D01*
G36*
X178217961Y-76135495D02*
X177927332Y-76835410D01*
X177926670Y-77593265D01*
X178216078Y-78293686D01*
X178751495Y-78830039D01*
X179451410Y-79120668D01*
X180132131Y-79121263D01*
X180729000Y-79718132D01*
X180729000Y-83525541D01*
X180815397Y-83959887D01*
X180948783Y-84159513D01*
X181061434Y-84328107D01*
X181491000Y-84757673D01*
X181491000Y-85641575D01*
X181458567Y-85663246D01*
X181356000Y-85816748D01*
X181253433Y-85663246D01*
X180717810Y-85305354D01*
X180086000Y-85179679D01*
X179454190Y-85305354D01*
X178918567Y-85663246D01*
X178560675Y-86198869D01*
X178435000Y-86830679D01*
X178435000Y-87413321D01*
X178560675Y-88045131D01*
X178918567Y-88580754D01*
X178951000Y-88602425D01*
X178951000Y-88646000D01*
X179037397Y-89080346D01*
X179229223Y-89367433D01*
X179283434Y-89448566D01*
X180299434Y-90464566D01*
X180458724Y-90571000D01*
X178555336Y-90571000D01*
X178120990Y-90657397D01*
X177788316Y-90879683D01*
X177752770Y-90903434D01*
X177519845Y-91136359D01*
X177418690Y-90979159D01*
X177206490Y-90834169D01*
X176954600Y-90783160D01*
X176054600Y-90783160D01*
X175819283Y-90827438D01*
X175781279Y-90851893D01*
X175660090Y-90663559D01*
X175447890Y-90518569D01*
X175312712Y-90491195D01*
X175203401Y-90327599D01*
X174406801Y-89530999D01*
X174160239Y-89366252D01*
X173869400Y-89308400D01*
X170647202Y-89308400D01*
X169982793Y-88643991D01*
X170077433Y-88580754D01*
X170180000Y-88427252D01*
X170282567Y-88580754D01*
X170818190Y-88938646D01*
X171450000Y-89064321D01*
X172081810Y-88938646D01*
X172617433Y-88580754D01*
X172734054Y-88406219D01*
X172912370Y-88633236D01*
X173475523Y-88949926D01*
X173607056Y-88981975D01*
X173863000Y-88862836D01*
X173863000Y-87249000D01*
X174117000Y-87249000D01*
X174117000Y-88862836D01*
X174372944Y-88981975D01*
X174504477Y-88949926D01*
X175067630Y-88633236D01*
X175466724Y-88125143D01*
X175641000Y-87503000D01*
X175641000Y-87249000D01*
X174117000Y-87249000D01*
X173863000Y-87249000D01*
X173843000Y-87249000D01*
X173843000Y-86995000D01*
X173863000Y-86995000D01*
X173863000Y-85381164D01*
X174117000Y-85381164D01*
X174117000Y-86995000D01*
X175641000Y-86995000D01*
X175641000Y-86741000D01*
X175466724Y-86118857D01*
X175067630Y-85610764D01*
X174504477Y-85294074D01*
X174372944Y-85262025D01*
X174117000Y-85381164D01*
X173863000Y-85381164D01*
X173607056Y-85262025D01*
X173475523Y-85294074D01*
X172912370Y-85610764D01*
X172734054Y-85837781D01*
X172617433Y-85663246D01*
X172585000Y-85641575D01*
X172585000Y-84852000D01*
X172498603Y-84417654D01*
X172252566Y-84049434D01*
X171835000Y-83631868D01*
X171835000Y-83612397D01*
X172200000Y-83685000D01*
X172634346Y-83598603D01*
X172702314Y-83553188D01*
X172835317Y-83528162D01*
X173051441Y-83389090D01*
X173196431Y-83176890D01*
X173229690Y-83012651D01*
X173248603Y-82984346D01*
X173335000Y-82550000D01*
X173335000Y-79730132D01*
X173931692Y-79133440D01*
X175514000Y-79133440D01*
X175749317Y-79089162D01*
X175965441Y-78950090D01*
X176110431Y-78737890D01*
X176161440Y-78486000D01*
X176161440Y-75993254D01*
X178360451Y-75993254D01*
X178217961Y-76135495D01*
X178217961Y-76135495D01*
G37*
X178217961Y-76135495D02*
X177927332Y-76835410D01*
X177926670Y-77593265D01*
X178216078Y-78293686D01*
X178751495Y-78830039D01*
X179451410Y-79120668D01*
X180132131Y-79121263D01*
X180729000Y-79718132D01*
X180729000Y-83525541D01*
X180815397Y-83959887D01*
X180948783Y-84159513D01*
X181061434Y-84328107D01*
X181491000Y-84757673D01*
X181491000Y-85641575D01*
X181458567Y-85663246D01*
X181356000Y-85816748D01*
X181253433Y-85663246D01*
X180717810Y-85305354D01*
X180086000Y-85179679D01*
X179454190Y-85305354D01*
X178918567Y-85663246D01*
X178560675Y-86198869D01*
X178435000Y-86830679D01*
X178435000Y-87413321D01*
X178560675Y-88045131D01*
X178918567Y-88580754D01*
X178951000Y-88602425D01*
X178951000Y-88646000D01*
X179037397Y-89080346D01*
X179229223Y-89367433D01*
X179283434Y-89448566D01*
X180299434Y-90464566D01*
X180458724Y-90571000D01*
X178555336Y-90571000D01*
X178120990Y-90657397D01*
X177788316Y-90879683D01*
X177752770Y-90903434D01*
X177519845Y-91136359D01*
X177418690Y-90979159D01*
X177206490Y-90834169D01*
X176954600Y-90783160D01*
X176054600Y-90783160D01*
X175819283Y-90827438D01*
X175781279Y-90851893D01*
X175660090Y-90663559D01*
X175447890Y-90518569D01*
X175312712Y-90491195D01*
X175203401Y-90327599D01*
X174406801Y-89530999D01*
X174160239Y-89366252D01*
X173869400Y-89308400D01*
X170647202Y-89308400D01*
X169982793Y-88643991D01*
X170077433Y-88580754D01*
X170180000Y-88427252D01*
X170282567Y-88580754D01*
X170818190Y-88938646D01*
X171450000Y-89064321D01*
X172081810Y-88938646D01*
X172617433Y-88580754D01*
X172734054Y-88406219D01*
X172912370Y-88633236D01*
X173475523Y-88949926D01*
X173607056Y-88981975D01*
X173863000Y-88862836D01*
X173863000Y-87249000D01*
X174117000Y-87249000D01*
X174117000Y-88862836D01*
X174372944Y-88981975D01*
X174504477Y-88949926D01*
X175067630Y-88633236D01*
X175466724Y-88125143D01*
X175641000Y-87503000D01*
X175641000Y-87249000D01*
X174117000Y-87249000D01*
X173863000Y-87249000D01*
X173843000Y-87249000D01*
X173843000Y-86995000D01*
X173863000Y-86995000D01*
X173863000Y-85381164D01*
X174117000Y-85381164D01*
X174117000Y-86995000D01*
X175641000Y-86995000D01*
X175641000Y-86741000D01*
X175466724Y-86118857D01*
X175067630Y-85610764D01*
X174504477Y-85294074D01*
X174372944Y-85262025D01*
X174117000Y-85381164D01*
X173863000Y-85381164D01*
X173607056Y-85262025D01*
X173475523Y-85294074D01*
X172912370Y-85610764D01*
X172734054Y-85837781D01*
X172617433Y-85663246D01*
X172585000Y-85641575D01*
X172585000Y-84852000D01*
X172498603Y-84417654D01*
X172252566Y-84049434D01*
X171835000Y-83631868D01*
X171835000Y-83612397D01*
X172200000Y-83685000D01*
X172634346Y-83598603D01*
X172702314Y-83553188D01*
X172835317Y-83528162D01*
X173051441Y-83389090D01*
X173196431Y-83176890D01*
X173229690Y-83012651D01*
X173248603Y-82984346D01*
X173335000Y-82550000D01*
X173335000Y-79730132D01*
X173931692Y-79133440D01*
X175514000Y-79133440D01*
X175749317Y-79089162D01*
X175965441Y-78950090D01*
X176110431Y-78737890D01*
X176161440Y-78486000D01*
X176161440Y-75993254D01*
X178360451Y-75993254D01*
X178217961Y-76135495D01*
G36*
X188885961Y-76135495D02*
X188595332Y-76835410D01*
X188594670Y-77593265D01*
X188884078Y-78293686D01*
X189419495Y-78830039D01*
X190119410Y-79120668D01*
X190800131Y-79121263D01*
X191421000Y-79742132D01*
X191421000Y-83606000D01*
X191507397Y-84040346D01*
X191587022Y-84159513D01*
X191753434Y-84408566D01*
X192667000Y-85322132D01*
X192667000Y-85641575D01*
X192634567Y-85663246D01*
X192532000Y-85816748D01*
X192429433Y-85663246D01*
X191893810Y-85305354D01*
X191262000Y-85179679D01*
X190630190Y-85305354D01*
X190094567Y-85663246D01*
X189736675Y-86198869D01*
X189611000Y-86830679D01*
X189611000Y-87413321D01*
X189736675Y-88045131D01*
X190094567Y-88580754D01*
X190547178Y-88883179D01*
X190558004Y-88937605D01*
X190679243Y-89119051D01*
X190723185Y-89184815D01*
X191840785Y-90302415D01*
X192087995Y-90467596D01*
X192379600Y-90525600D01*
X195645370Y-90525600D01*
X195788349Y-90668579D01*
X195614559Y-90780410D01*
X195494767Y-90955732D01*
X195390090Y-90793059D01*
X195177890Y-90648069D01*
X194926000Y-90597060D01*
X193866000Y-90597060D01*
X193630683Y-90641338D01*
X193414559Y-90780410D01*
X193396049Y-90807500D01*
X192984717Y-90807500D01*
X192841390Y-90709569D01*
X192589500Y-90658560D01*
X191839500Y-90658560D01*
X191604183Y-90702838D01*
X191441534Y-90807500D01*
X191016217Y-90807500D01*
X190872890Y-90709569D01*
X190708651Y-90676310D01*
X190680346Y-90657397D01*
X190246000Y-90571000D01*
X189538620Y-90571000D01*
X189104274Y-90657397D01*
X188771600Y-90879683D01*
X188736054Y-90903434D01*
X188524300Y-91115188D01*
X188518490Y-91106159D01*
X188306290Y-90961169D01*
X188054400Y-90910160D01*
X187752741Y-90910160D01*
X187593639Y-90803852D01*
X187302800Y-90746000D01*
X186809000Y-90746000D01*
X186809000Y-90170000D01*
X186722603Y-89735654D01*
X186585857Y-89530999D01*
X186476566Y-89367433D01*
X185968566Y-88859434D01*
X185910449Y-88820601D01*
X186243630Y-88633236D01*
X186642724Y-88125143D01*
X186817000Y-87503000D01*
X186817000Y-87249000D01*
X185293000Y-87249000D01*
X185293000Y-87269000D01*
X185039000Y-87269000D01*
X185039000Y-87249000D01*
X185019000Y-87249000D01*
X185019000Y-86995000D01*
X185039000Y-86995000D01*
X185039000Y-85381164D01*
X185293000Y-85381164D01*
X185293000Y-86995000D01*
X186817000Y-86995000D01*
X186817000Y-86741000D01*
X186642724Y-86118857D01*
X186243630Y-85610764D01*
X185680477Y-85294074D01*
X185548944Y-85262025D01*
X185293000Y-85381164D01*
X185039000Y-85381164D01*
X184783056Y-85262025D01*
X184651523Y-85294074D01*
X184088370Y-85610764D01*
X183910054Y-85837781D01*
X183793433Y-85663246D01*
X183761000Y-85641575D01*
X183761000Y-84287541D01*
X183674603Y-83853195D01*
X183538964Y-83650197D01*
X183798345Y-83598603D01*
X183866313Y-83553189D01*
X183999317Y-83528162D01*
X184215441Y-83389090D01*
X184360431Y-83176890D01*
X184365050Y-83154082D01*
X185714566Y-81804566D01*
X185960604Y-81436345D01*
X186047000Y-81002000D01*
X186047000Y-79133440D01*
X186182000Y-79133440D01*
X186417317Y-79089162D01*
X186633441Y-78950090D01*
X186778431Y-78737890D01*
X186829440Y-78486000D01*
X186829440Y-75993254D01*
X189028451Y-75993254D01*
X188885961Y-76135495D01*
X188885961Y-76135495D01*
G37*
X188885961Y-76135495D02*
X188595332Y-76835410D01*
X188594670Y-77593265D01*
X188884078Y-78293686D01*
X189419495Y-78830039D01*
X190119410Y-79120668D01*
X190800131Y-79121263D01*
X191421000Y-79742132D01*
X191421000Y-83606000D01*
X191507397Y-84040346D01*
X191587022Y-84159513D01*
X191753434Y-84408566D01*
X192667000Y-85322132D01*
X192667000Y-85641575D01*
X192634567Y-85663246D01*
X192532000Y-85816748D01*
X192429433Y-85663246D01*
X191893810Y-85305354D01*
X191262000Y-85179679D01*
X190630190Y-85305354D01*
X190094567Y-85663246D01*
X189736675Y-86198869D01*
X189611000Y-86830679D01*
X189611000Y-87413321D01*
X189736675Y-88045131D01*
X190094567Y-88580754D01*
X190547178Y-88883179D01*
X190558004Y-88937605D01*
X190679243Y-89119051D01*
X190723185Y-89184815D01*
X191840785Y-90302415D01*
X192087995Y-90467596D01*
X192379600Y-90525600D01*
X195645370Y-90525600D01*
X195788349Y-90668579D01*
X195614559Y-90780410D01*
X195494767Y-90955732D01*
X195390090Y-90793059D01*
X195177890Y-90648069D01*
X194926000Y-90597060D01*
X193866000Y-90597060D01*
X193630683Y-90641338D01*
X193414559Y-90780410D01*
X193396049Y-90807500D01*
X192984717Y-90807500D01*
X192841390Y-90709569D01*
X192589500Y-90658560D01*
X191839500Y-90658560D01*
X191604183Y-90702838D01*
X191441534Y-90807500D01*
X191016217Y-90807500D01*
X190872890Y-90709569D01*
X190708651Y-90676310D01*
X190680346Y-90657397D01*
X190246000Y-90571000D01*
X189538620Y-90571000D01*
X189104274Y-90657397D01*
X188771600Y-90879683D01*
X188736054Y-90903434D01*
X188524300Y-91115188D01*
X188518490Y-91106159D01*
X188306290Y-90961169D01*
X188054400Y-90910160D01*
X187752741Y-90910160D01*
X187593639Y-90803852D01*
X187302800Y-90746000D01*
X186809000Y-90746000D01*
X186809000Y-90170000D01*
X186722603Y-89735654D01*
X186585857Y-89530999D01*
X186476566Y-89367433D01*
X185968566Y-88859434D01*
X185910449Y-88820601D01*
X186243630Y-88633236D01*
X186642724Y-88125143D01*
X186817000Y-87503000D01*
X186817000Y-87249000D01*
X185293000Y-87249000D01*
X185293000Y-87269000D01*
X185039000Y-87269000D01*
X185039000Y-87249000D01*
X185019000Y-87249000D01*
X185019000Y-86995000D01*
X185039000Y-86995000D01*
X185039000Y-85381164D01*
X185293000Y-85381164D01*
X185293000Y-86995000D01*
X186817000Y-86995000D01*
X186817000Y-86741000D01*
X186642724Y-86118857D01*
X186243630Y-85610764D01*
X185680477Y-85294074D01*
X185548944Y-85262025D01*
X185293000Y-85381164D01*
X185039000Y-85381164D01*
X184783056Y-85262025D01*
X184651523Y-85294074D01*
X184088370Y-85610764D01*
X183910054Y-85837781D01*
X183793433Y-85663246D01*
X183761000Y-85641575D01*
X183761000Y-84287541D01*
X183674603Y-83853195D01*
X183538964Y-83650197D01*
X183798345Y-83598603D01*
X183866313Y-83553189D01*
X183999317Y-83528162D01*
X184215441Y-83389090D01*
X184360431Y-83176890D01*
X184365050Y-83154082D01*
X185714566Y-81804566D01*
X185960604Y-81436345D01*
X186047000Y-81002000D01*
X186047000Y-79133440D01*
X186182000Y-79133440D01*
X186417317Y-79089162D01*
X186633441Y-78950090D01*
X186778431Y-78737890D01*
X186829440Y-78486000D01*
X186829440Y-75993254D01*
X189028451Y-75993254D01*
X188885961Y-76135495D01*
G36*
X199033000Y-85699600D02*
X199195517Y-86516629D01*
X199390260Y-86808082D01*
X199390260Y-91070573D01*
X199304490Y-91011969D01*
X199052600Y-90960960D01*
X198152600Y-90960960D01*
X197917283Y-91005238D01*
X197775613Y-91096400D01*
X197745573Y-91096400D01*
X197729162Y-91009183D01*
X197590090Y-90793059D01*
X197377890Y-90648069D01*
X197358000Y-90644041D01*
X197358000Y-90398600D01*
X197299996Y-90106995D01*
X197193285Y-89947291D01*
X197134816Y-89859785D01*
X196499815Y-89224785D01*
X196439996Y-89184815D01*
X196252605Y-89059604D01*
X195961000Y-89001600D01*
X194117319Y-89001600D01*
X194433810Y-88938646D01*
X194969433Y-88580754D01*
X195086054Y-88406219D01*
X195264370Y-88633236D01*
X195827523Y-88949926D01*
X195959056Y-88981975D01*
X196215000Y-88862836D01*
X196215000Y-87249000D01*
X196469000Y-87249000D01*
X196469000Y-88862836D01*
X196724944Y-88981975D01*
X196856477Y-88949926D01*
X197419630Y-88633236D01*
X197818724Y-88125143D01*
X197993000Y-87503000D01*
X197993000Y-87249000D01*
X196469000Y-87249000D01*
X196215000Y-87249000D01*
X196195000Y-87249000D01*
X196195000Y-86995000D01*
X196215000Y-86995000D01*
X196215000Y-85381164D01*
X196469000Y-85381164D01*
X196469000Y-86995000D01*
X197993000Y-86995000D01*
X197993000Y-86741000D01*
X197818724Y-86118857D01*
X197419630Y-85610764D01*
X196856477Y-85294074D01*
X196724944Y-85262025D01*
X196469000Y-85381164D01*
X196215000Y-85381164D01*
X195959056Y-85262025D01*
X195827523Y-85294074D01*
X195264370Y-85610764D01*
X195086054Y-85837781D01*
X194969433Y-85663246D01*
X194937000Y-85641575D01*
X194937000Y-84852000D01*
X194850603Y-84417654D01*
X194604566Y-84049434D01*
X194209582Y-83654450D01*
X194490346Y-83598603D01*
X194558314Y-83553188D01*
X194691317Y-83528162D01*
X194907441Y-83389090D01*
X195052431Y-83176890D01*
X195085690Y-83012651D01*
X195104603Y-82984346D01*
X195191000Y-82550000D01*
X195191000Y-81645132D01*
X196382566Y-80453567D01*
X196628603Y-80085346D01*
X196644577Y-80005038D01*
X196715000Y-79651000D01*
X196715000Y-79601000D01*
X199033000Y-79601000D01*
X199033000Y-85699600D01*
X199033000Y-85699600D01*
G37*
X199033000Y-85699600D02*
X199195517Y-86516629D01*
X199390260Y-86808082D01*
X199390260Y-91070573D01*
X199304490Y-91011969D01*
X199052600Y-90960960D01*
X198152600Y-90960960D01*
X197917283Y-91005238D01*
X197775613Y-91096400D01*
X197745573Y-91096400D01*
X197729162Y-91009183D01*
X197590090Y-90793059D01*
X197377890Y-90648069D01*
X197358000Y-90644041D01*
X197358000Y-90398600D01*
X197299996Y-90106995D01*
X197193285Y-89947291D01*
X197134816Y-89859785D01*
X196499815Y-89224785D01*
X196439996Y-89184815D01*
X196252605Y-89059604D01*
X195961000Y-89001600D01*
X194117319Y-89001600D01*
X194433810Y-88938646D01*
X194969433Y-88580754D01*
X195086054Y-88406219D01*
X195264370Y-88633236D01*
X195827523Y-88949926D01*
X195959056Y-88981975D01*
X196215000Y-88862836D01*
X196215000Y-87249000D01*
X196469000Y-87249000D01*
X196469000Y-88862836D01*
X196724944Y-88981975D01*
X196856477Y-88949926D01*
X197419630Y-88633236D01*
X197818724Y-88125143D01*
X197993000Y-87503000D01*
X197993000Y-87249000D01*
X196469000Y-87249000D01*
X196215000Y-87249000D01*
X196195000Y-87249000D01*
X196195000Y-86995000D01*
X196215000Y-86995000D01*
X196215000Y-85381164D01*
X196469000Y-85381164D01*
X196469000Y-86995000D01*
X197993000Y-86995000D01*
X197993000Y-86741000D01*
X197818724Y-86118857D01*
X197419630Y-85610764D01*
X196856477Y-85294074D01*
X196724944Y-85262025D01*
X196469000Y-85381164D01*
X196215000Y-85381164D01*
X195959056Y-85262025D01*
X195827523Y-85294074D01*
X195264370Y-85610764D01*
X195086054Y-85837781D01*
X194969433Y-85663246D01*
X194937000Y-85641575D01*
X194937000Y-84852000D01*
X194850603Y-84417654D01*
X194604566Y-84049434D01*
X194209582Y-83654450D01*
X194490346Y-83598603D01*
X194558314Y-83553188D01*
X194691317Y-83528162D01*
X194907441Y-83389090D01*
X195052431Y-83176890D01*
X195085690Y-83012651D01*
X195104603Y-82984346D01*
X195191000Y-82550000D01*
X195191000Y-81645132D01*
X196382566Y-80453567D01*
X196628603Y-80085346D01*
X196644577Y-80005038D01*
X196715000Y-79651000D01*
X196715000Y-79601000D01*
X199033000Y-79601000D01*
X199033000Y-85699600D01*
M02*
