G04 #@! TF.FileFunction,Copper,L2,Bot,Signal*
%FSLAX46Y46*%
G04 Gerber Fmt 4.6, Leading zero omitted, Abs format (unit mm)*
G04 Created by KiCad (PCBNEW (2015-09-03 BZR 6154)-product) date 2015 September 07, Monday 13:00:52*
%MOMM*%
G01*
G04 APERTURE LIST*
%ADD10C,0.100000*%
%ADD11C,4.800600*%
%ADD12R,4.800600X4.800600*%
%ADD13R,2.540000X2.540000*%
%ADD14C,2.540000*%
%ADD15R,2.032000X1.727200*%
%ADD16O,2.032000X1.727200*%
%ADD17R,1.727200X2.032000*%
%ADD18O,1.727200X2.032000*%
%ADD19O,2.032000X2.540000*%
%ADD20C,1.397000*%
%ADD21C,2.999740*%
%ADD22O,2.540000X2.032000*%
%ADD23C,0.600000*%
%ADD24C,1.400000*%
%ADD25C,1.200000*%
%ADD26C,0.250000*%
%ADD27C,1.000000*%
%ADD28C,0.254000*%
%ADD29C,2.000000*%
%ADD30C,3.000000*%
G04 APERTURE END LIST*
D10*
D11*
X208534000Y-88900000D03*
D12*
X202438000Y-88900000D03*
D11*
X206248000Y-83820000D03*
D13*
X159766000Y-97345500D03*
D14*
X159766000Y-102425500D03*
D13*
X206248000Y-77216000D03*
D14*
X201168000Y-77216000D03*
D15*
X166065200Y-99187000D03*
D16*
X166065200Y-101727000D03*
X166065200Y-104267000D03*
X166065200Y-106807000D03*
X166065200Y-109347000D03*
D15*
X201168000Y-101600000D03*
D16*
X201168000Y-104140000D03*
X201168000Y-106680000D03*
D17*
X157734000Y-84074000D03*
D18*
X160274000Y-84074000D03*
X162814000Y-84074000D03*
D13*
X195580000Y-77216000D03*
D14*
X190500000Y-77216000D03*
D13*
X184912000Y-77216000D03*
D14*
X179832000Y-77216000D03*
D13*
X174244000Y-77216000D03*
D14*
X169164000Y-77216000D03*
D19*
X193802000Y-87122000D03*
X196342000Y-87122000D03*
X191262000Y-87122000D03*
X182626000Y-87122000D03*
X185166000Y-87122000D03*
X180086000Y-87122000D03*
X171450000Y-87122000D03*
X173990000Y-87122000D03*
X168910000Y-87122000D03*
D20*
X162242500Y-113665000D03*
X157162500Y-113665000D03*
X162242500Y-106045000D03*
X157162500Y-106045000D03*
D21*
X211277200Y-118008400D03*
X157480000Y-75438000D03*
X157480000Y-118110000D03*
X211277200Y-75184000D03*
D22*
X211328000Y-108966000D03*
X211328000Y-106426000D03*
X211328000Y-111506000D03*
D23*
X183951880Y-107640120D03*
X182976520Y-106255919D03*
X178572160Y-101851559D03*
X177878641Y-101158040D03*
X169519600Y-97790000D03*
X191262000Y-93167200D03*
X169444924Y-92940000D03*
X180319516Y-93206000D03*
X173329600Y-96443800D03*
X174269400Y-96418400D03*
D24*
X204597000Y-117475000D03*
X200703180Y-117441980D03*
X209270600Y-94488000D03*
X209270600Y-101625400D03*
D23*
X188966420Y-92278200D03*
X177983136Y-92278200D03*
X167182800Y-92278200D03*
X168757600Y-100812600D03*
D25*
X190804800Y-96545400D03*
X202819000Y-98145600D03*
D23*
X211658200Y-79070200D03*
X177495200Y-106603800D03*
X179324000Y-108331000D03*
X196799200Y-113334800D03*
X196799200Y-111887000D03*
D26*
X182976520Y-106255919D02*
X182976520Y-106664760D01*
X182976520Y-106664760D02*
X183951880Y-107640120D01*
X178572160Y-101851559D02*
X182976520Y-106255919D01*
D27*
X191262000Y-93167200D02*
X196342000Y-88087200D01*
X196342000Y-88087200D02*
X196342000Y-87122000D01*
X180319516Y-93206000D02*
X185166000Y-88359516D01*
X185166000Y-88359516D02*
X185166000Y-87122000D01*
X169444924Y-92940000D02*
X173990000Y-88394924D01*
X173990000Y-88394924D02*
X173990000Y-87122000D01*
X169444924Y-92940000D02*
X169744923Y-92640001D01*
D28*
X159766000Y-102425500D02*
X162242500Y-104902000D01*
X162242500Y-104902000D02*
X162242500Y-106045000D01*
X162242500Y-113665000D02*
X162242500Y-106045000D01*
D29*
X176085500Y-81597500D02*
X165036500Y-81597500D01*
X165036500Y-81597500D02*
X162814000Y-83820000D01*
X162814000Y-83820000D02*
X162814000Y-84074000D01*
X188277500Y-81534000D02*
X179324000Y-81534000D01*
X179260500Y-81597500D02*
X176085500Y-81597500D01*
X179324000Y-81534000D02*
X179260500Y-81597500D01*
X176085500Y-81597500D02*
X173990000Y-83693000D01*
X173990000Y-83693000D02*
X173990000Y-87122000D01*
X185166000Y-87122000D02*
X185166000Y-83852000D01*
X185166000Y-83852000D02*
X187484000Y-81534000D01*
X187484000Y-81534000D02*
X188277500Y-81534000D01*
X201422000Y-81534000D02*
X188277500Y-81534000D01*
X201536299Y-81419701D02*
X201422000Y-81534000D01*
X206248000Y-83820000D02*
X203847701Y-81419701D01*
X203847701Y-81419701D02*
X201536299Y-81419701D01*
X206248000Y-83820000D02*
X199644000Y-83820000D01*
X199644000Y-83820000D02*
X196342000Y-87122000D01*
D30*
X206248000Y-83820000D02*
X208534000Y-86106000D01*
X208534000Y-86106000D02*
X208534000Y-88900000D01*
X206248000Y-83820000D02*
X206248000Y-77216000D01*
D27*
X185412537Y-94406011D02*
X188394787Y-94406011D01*
X185412537Y-94406011D02*
X193531689Y-94406011D01*
X180408701Y-94406011D02*
X185412537Y-94406011D01*
X193531689Y-94406011D02*
X193570489Y-94367211D01*
X177590079Y-94406011D02*
X180408701Y-94406011D01*
X180408701Y-94406011D02*
X168886347Y-94406011D01*
X168886347Y-94406011D02*
X168663536Y-94183200D01*
X199037700Y-88900000D02*
X202438000Y-88900000D01*
X188801609Y-94367211D02*
X193570489Y-94367211D01*
X193570489Y-94367211D02*
X199037700Y-88900000D01*
X188617598Y-94183200D02*
X188801609Y-94367211D01*
X188394787Y-94406011D02*
X188617598Y-94183200D01*
X177367268Y-94183200D02*
X177590079Y-94406011D01*
X168663536Y-94183200D02*
X177367268Y-94183200D01*
X167182800Y-92702464D02*
X168663536Y-94183200D01*
X167182800Y-92278200D02*
X167182800Y-92702464D01*
X188966420Y-92278200D02*
X188966420Y-93834378D01*
X188966420Y-93834378D02*
X188617598Y-94183200D01*
X177683137Y-93507537D02*
X177367268Y-93823406D01*
X177367268Y-93823406D02*
X177367268Y-94183200D01*
X177983136Y-92278200D02*
X177683137Y-92578199D01*
X177683137Y-92578199D02*
X177683137Y-93507537D01*
D28*
X171653200Y-100863400D02*
X168808400Y-100863400D01*
X168808400Y-100863400D02*
X168757600Y-100812600D01*
X176571199Y-95945401D02*
X171653200Y-100863400D01*
X190804800Y-96545400D02*
X190204801Y-95945401D01*
X190204801Y-95945401D02*
X176571199Y-95945401D01*
D27*
X192405000Y-98145600D02*
X190804800Y-96545400D01*
X202819000Y-98145600D02*
X192405000Y-98145600D01*
D28*
X211658200Y-78359000D02*
X211658200Y-79070200D01*
X206656329Y-73357129D02*
X211658200Y-78359000D01*
X164363400Y-73380600D02*
X164386871Y-73357129D01*
X164386871Y-73357129D02*
X206656329Y-73357129D01*
X155930600Y-81813400D02*
X164363400Y-73380600D01*
X155930600Y-89230200D02*
X155930600Y-81813400D01*
X162864800Y-96164400D02*
X155930600Y-89230200D01*
X162864800Y-98679000D02*
X162864800Y-96164400D01*
X166065200Y-101727000D02*
X165912800Y-101727000D01*
X165912800Y-101727000D02*
X162864800Y-98679000D01*
X177673000Y-106680000D02*
X177571400Y-106680000D01*
X177571400Y-106680000D02*
X177495200Y-106603800D01*
X179324000Y-108331000D02*
X177673000Y-106680000D01*
X196799200Y-113030000D02*
X196799200Y-113334800D01*
X196799200Y-111887000D02*
X196799200Y-113030000D01*
G36*
X213790000Y-118899264D02*
X213220978Y-118894222D01*
X213411699Y-118434915D01*
X213412440Y-117585611D01*
X213088110Y-116800673D01*
X212488086Y-116199600D01*
X211703715Y-115873901D01*
X210854411Y-115873160D01*
X210069473Y-116197490D01*
X209468400Y-116797514D01*
X209142701Y-117581885D01*
X209141960Y-118431189D01*
X209318996Y-118859649D01*
X197648843Y-118756247D01*
X197505260Y-114067513D01*
X197493747Y-114018432D01*
X197470187Y-113986121D01*
X197591392Y-113865127D01*
X197734038Y-113521599D01*
X197734362Y-113149633D01*
X197592317Y-112805857D01*
X197561200Y-112774686D01*
X197561200Y-112447466D01*
X197591392Y-112417327D01*
X197734038Y-112073799D01*
X197734362Y-111701833D01*
X197653446Y-111506000D01*
X209385679Y-111506000D01*
X209511354Y-112137810D01*
X209869246Y-112673433D01*
X210404869Y-113031325D01*
X211036679Y-113157000D01*
X211619321Y-113157000D01*
X212251131Y-113031325D01*
X212786754Y-112673433D01*
X213144646Y-112137810D01*
X213270321Y-111506000D01*
X213144646Y-110874190D01*
X212786754Y-110338567D01*
X212612219Y-110221946D01*
X212839236Y-110043630D01*
X213155926Y-109480477D01*
X213187975Y-109348944D01*
X213068836Y-109093000D01*
X211455000Y-109093000D01*
X211455000Y-109113000D01*
X211201000Y-109113000D01*
X211201000Y-109093000D01*
X209587164Y-109093000D01*
X209468025Y-109348944D01*
X209500074Y-109480477D01*
X209816764Y-110043630D01*
X210043781Y-110221946D01*
X209869246Y-110338567D01*
X209511354Y-110874190D01*
X209385679Y-111506000D01*
X197653446Y-111506000D01*
X197592317Y-111358057D01*
X197329527Y-111094808D01*
X196985999Y-110952162D01*
X196614033Y-110951838D01*
X196270257Y-111093883D01*
X196007008Y-111356673D01*
X195864362Y-111700201D01*
X195864038Y-112072167D01*
X196006083Y-112415943D01*
X196037200Y-112447114D01*
X196037200Y-112774334D01*
X196007008Y-112804473D01*
X195864362Y-113148001D01*
X195864038Y-113519967D01*
X196006083Y-113863743D01*
X196039954Y-113897673D01*
X193156184Y-113797157D01*
X193151760Y-113797080D01*
X163585143Y-113797080D01*
X163559648Y-113327801D01*
X163412300Y-112972071D01*
X163176688Y-112910417D01*
X162422105Y-113665000D01*
X162436248Y-113679143D01*
X162318310Y-113797080D01*
X162166690Y-113797080D01*
X162048753Y-113679143D01*
X162062895Y-113665000D01*
X161308312Y-112910417D01*
X161072700Y-112972071D01*
X160896573Y-113472480D01*
X160914208Y-113797080D01*
X158495885Y-113797080D01*
X158496231Y-113400914D01*
X158293646Y-112910620D01*
X158114152Y-112730812D01*
X161487917Y-112730812D01*
X162242500Y-113485395D01*
X162997083Y-112730812D01*
X162935429Y-112495200D01*
X162435020Y-112319073D01*
X161905301Y-112347852D01*
X161549571Y-112495200D01*
X161487917Y-112730812D01*
X158114152Y-112730812D01*
X157918853Y-112535173D01*
X157428913Y-112331732D01*
X156898414Y-112331269D01*
X156408120Y-112533854D01*
X156032673Y-112908647D01*
X155829232Y-113398587D01*
X155828884Y-113797080D01*
X155210000Y-113797080D01*
X155210000Y-106309086D01*
X155828769Y-106309086D01*
X156031354Y-106799380D01*
X156406147Y-107174827D01*
X156896087Y-107378268D01*
X157426586Y-107378731D01*
X157916880Y-107176146D01*
X158114181Y-106979188D01*
X161487917Y-106979188D01*
X161549571Y-107214800D01*
X162049980Y-107390927D01*
X162579699Y-107362148D01*
X162935429Y-107214800D01*
X162997083Y-106979188D01*
X162242500Y-106224605D01*
X161487917Y-106979188D01*
X158114181Y-106979188D01*
X158292327Y-106801353D01*
X158495768Y-106311413D01*
X158496168Y-105852480D01*
X160896573Y-105852480D01*
X160925352Y-106382199D01*
X161072700Y-106737929D01*
X161308312Y-106799583D01*
X162062895Y-106045000D01*
X162422105Y-106045000D01*
X163176688Y-106799583D01*
X163412300Y-106737929D01*
X163588427Y-106237520D01*
X163559648Y-105707801D01*
X163412300Y-105352071D01*
X163176688Y-105290417D01*
X162422105Y-106045000D01*
X162062895Y-106045000D01*
X161308312Y-105290417D01*
X161072700Y-105352071D01*
X160896573Y-105852480D01*
X158496168Y-105852480D01*
X158496231Y-105780914D01*
X158293646Y-105290620D01*
X158114152Y-105110812D01*
X161487917Y-105110812D01*
X162242500Y-105865395D01*
X162997083Y-105110812D01*
X162935429Y-104875200D01*
X162435020Y-104699073D01*
X161905301Y-104727852D01*
X161549571Y-104875200D01*
X161487917Y-105110812D01*
X158114152Y-105110812D01*
X157918853Y-104915173D01*
X157428913Y-104711732D01*
X156898414Y-104711269D01*
X156408120Y-104913854D01*
X156032673Y-105288647D01*
X155829232Y-105778587D01*
X155828769Y-106309086D01*
X155210000Y-106309086D01*
X155210000Y-103773277D01*
X158597828Y-103773277D01*
X158729520Y-104068157D01*
X159437036Y-104339761D01*
X160194632Y-104319936D01*
X160802480Y-104068157D01*
X160934172Y-103773277D01*
X159766000Y-102605105D01*
X158597828Y-103773277D01*
X155210000Y-103773277D01*
X155210000Y-102096536D01*
X157851739Y-102096536D01*
X157871564Y-102854132D01*
X158123343Y-103461980D01*
X158418223Y-103593672D01*
X159586395Y-102425500D01*
X159945605Y-102425500D01*
X161113777Y-103593672D01*
X161408657Y-103461980D01*
X161680261Y-102754464D01*
X161660436Y-101996868D01*
X161408657Y-101389020D01*
X161113777Y-101257328D01*
X159945605Y-102425500D01*
X159586395Y-102425500D01*
X158418223Y-101257328D01*
X158123343Y-101389020D01*
X157851739Y-102096536D01*
X155210000Y-102096536D01*
X155210000Y-101077723D01*
X158597828Y-101077723D01*
X159766000Y-102245895D01*
X160934172Y-101077723D01*
X160802480Y-100782843D01*
X160094964Y-100511239D01*
X159337368Y-100531064D01*
X158729520Y-100782843D01*
X158597828Y-101077723D01*
X155210000Y-101077723D01*
X155210000Y-89438331D01*
X155226604Y-89521805D01*
X155347385Y-89702566D01*
X155391785Y-89769015D01*
X161054595Y-95431826D01*
X161036000Y-95428060D01*
X158496000Y-95428060D01*
X158260683Y-95472338D01*
X158044559Y-95611410D01*
X157899569Y-95823610D01*
X157848560Y-96075500D01*
X157848560Y-98615500D01*
X157892838Y-98850817D01*
X158031910Y-99066941D01*
X158244110Y-99211931D01*
X158496000Y-99262940D01*
X161036000Y-99262940D01*
X161271317Y-99218662D01*
X161487441Y-99079590D01*
X161632431Y-98867390D01*
X161683440Y-98615500D01*
X161683440Y-96075500D01*
X161680003Y-96057234D01*
X162102800Y-96480031D01*
X162102800Y-98679000D01*
X162160804Y-98970605D01*
X162220536Y-99060000D01*
X162325985Y-99217815D01*
X164457065Y-101348895D01*
X164381855Y-101727000D01*
X164495929Y-102300489D01*
X164820785Y-102786670D01*
X165135566Y-102997000D01*
X164820785Y-103207330D01*
X164495929Y-103693511D01*
X164381855Y-104267000D01*
X164495929Y-104840489D01*
X164820785Y-105326670D01*
X165135566Y-105537000D01*
X164820785Y-105747330D01*
X164495929Y-106233511D01*
X164381855Y-106807000D01*
X164495929Y-107380489D01*
X164820785Y-107866670D01*
X165135566Y-108077000D01*
X164820785Y-108287330D01*
X164495929Y-108773511D01*
X164381855Y-109347000D01*
X164495929Y-109920489D01*
X164820785Y-110406670D01*
X165306966Y-110731526D01*
X165880455Y-110845600D01*
X166249945Y-110845600D01*
X166823434Y-110731526D01*
X167309615Y-110406670D01*
X167634471Y-109920489D01*
X167748545Y-109347000D01*
X167634471Y-108773511D01*
X167309615Y-108287330D01*
X166994834Y-108077000D01*
X167309615Y-107866670D01*
X167634471Y-107380489D01*
X167748545Y-106807000D01*
X167744959Y-106788967D01*
X176560038Y-106788967D01*
X176702083Y-107132743D01*
X176964873Y-107395992D01*
X177308401Y-107538638D01*
X177454135Y-107538765D01*
X178388875Y-108473506D01*
X178388838Y-108516167D01*
X178530883Y-108859943D01*
X178793673Y-109123192D01*
X179137201Y-109265838D01*
X179509167Y-109266162D01*
X179852943Y-109124117D01*
X180116192Y-108861327D01*
X180258838Y-108517799D01*
X180259162Y-108145833D01*
X180117117Y-107802057D01*
X179854327Y-107538808D01*
X179510799Y-107396162D01*
X179466754Y-107396124D01*
X179109656Y-107039026D01*
X199560642Y-107039026D01*
X199563291Y-107054791D01*
X199817268Y-107582036D01*
X200253680Y-107971954D01*
X200806087Y-108165184D01*
X201041000Y-108020924D01*
X201041000Y-106807000D01*
X201295000Y-106807000D01*
X201295000Y-108020924D01*
X201529913Y-108165184D01*
X202082320Y-107971954D01*
X202518732Y-107582036D01*
X202772709Y-107054791D01*
X202775358Y-107039026D01*
X202654217Y-106807000D01*
X201295000Y-106807000D01*
X201041000Y-106807000D01*
X199681783Y-106807000D01*
X199560642Y-107039026D01*
X179109656Y-107039026D01*
X178388888Y-106318258D01*
X178288317Y-106074857D01*
X178025527Y-105811608D01*
X177681999Y-105668962D01*
X177310033Y-105668638D01*
X176966257Y-105810683D01*
X176703008Y-106073473D01*
X176560362Y-106417001D01*
X176560038Y-106788967D01*
X167744959Y-106788967D01*
X167634471Y-106233511D01*
X167309615Y-105747330D01*
X166994834Y-105537000D01*
X167309615Y-105326670D01*
X167634471Y-104840489D01*
X167748545Y-104267000D01*
X167723284Y-104140000D01*
X199484655Y-104140000D01*
X199598729Y-104713489D01*
X199923585Y-105199670D01*
X200233069Y-105406461D01*
X199817268Y-105777964D01*
X199563291Y-106305209D01*
X199560642Y-106320974D01*
X199681783Y-106553000D01*
X201041000Y-106553000D01*
X201041000Y-106533000D01*
X201295000Y-106533000D01*
X201295000Y-106553000D01*
X202654217Y-106553000D01*
X202720523Y-106426000D01*
X209385679Y-106426000D01*
X209511354Y-107057810D01*
X209869246Y-107593433D01*
X210043781Y-107710054D01*
X209816764Y-107888370D01*
X209500074Y-108451523D01*
X209468025Y-108583056D01*
X209587164Y-108839000D01*
X211201000Y-108839000D01*
X211201000Y-108819000D01*
X211455000Y-108819000D01*
X211455000Y-108839000D01*
X213068836Y-108839000D01*
X213187975Y-108583056D01*
X213155926Y-108451523D01*
X212839236Y-107888370D01*
X212612219Y-107710054D01*
X212786754Y-107593433D01*
X213144646Y-107057810D01*
X213270321Y-106426000D01*
X213144646Y-105794190D01*
X212786754Y-105258567D01*
X212251131Y-104900675D01*
X211619321Y-104775000D01*
X211036679Y-104775000D01*
X210404869Y-104900675D01*
X209869246Y-105258567D01*
X209511354Y-105794190D01*
X209385679Y-106426000D01*
X202720523Y-106426000D01*
X202775358Y-106320974D01*
X202772709Y-106305209D01*
X202518732Y-105777964D01*
X202102931Y-105406461D01*
X202412415Y-105199670D01*
X202737271Y-104713489D01*
X202851345Y-104140000D01*
X202737271Y-103566511D01*
X202412415Y-103080330D01*
X202398087Y-103070757D01*
X202419317Y-103066762D01*
X202635441Y-102927690D01*
X202780431Y-102715490D01*
X202831440Y-102463600D01*
X202831440Y-100736400D01*
X202787162Y-100501083D01*
X202648090Y-100284959D01*
X202435890Y-100139969D01*
X202184000Y-100088960D01*
X200152000Y-100088960D01*
X199916683Y-100133238D01*
X199700559Y-100272310D01*
X199555569Y-100484510D01*
X199504560Y-100736400D01*
X199504560Y-102463600D01*
X199548838Y-102698917D01*
X199687910Y-102915041D01*
X199900110Y-103060031D01*
X199941439Y-103068400D01*
X199923585Y-103080330D01*
X199598729Y-103566511D01*
X199484655Y-104140000D01*
X167723284Y-104140000D01*
X167634471Y-103693511D01*
X167309615Y-103207330D01*
X166994834Y-102997000D01*
X167309615Y-102786670D01*
X167634471Y-102300489D01*
X167748545Y-101727000D01*
X167634471Y-101153511D01*
X167309615Y-100667330D01*
X167287420Y-100652500D01*
X167440898Y-100588927D01*
X167619527Y-100410299D01*
X167716200Y-100176910D01*
X167716200Y-99472750D01*
X167557450Y-99314000D01*
X166192200Y-99314000D01*
X166192200Y-99334000D01*
X165938200Y-99334000D01*
X165938200Y-99314000D01*
X165918200Y-99314000D01*
X165918200Y-99060000D01*
X165938200Y-99060000D01*
X165938200Y-97847150D01*
X166192200Y-97847150D01*
X166192200Y-99060000D01*
X167557450Y-99060000D01*
X167716200Y-98901250D01*
X167716200Y-98197090D01*
X167619527Y-97963701D01*
X167440898Y-97785073D01*
X167207509Y-97688400D01*
X166350950Y-97688400D01*
X166192200Y-97847150D01*
X165938200Y-97847150D01*
X165779450Y-97688400D01*
X164922891Y-97688400D01*
X164689502Y-97785073D01*
X164510873Y-97963701D01*
X164414200Y-98197090D01*
X164414200Y-98901250D01*
X164572948Y-99059998D01*
X164414200Y-99059998D01*
X164414200Y-99150770D01*
X163626800Y-98363370D01*
X163626800Y-96164400D01*
X163568796Y-95872795D01*
X163481959Y-95742834D01*
X163403616Y-95625585D01*
X160056231Y-92278200D01*
X166047800Y-92278200D01*
X166047800Y-92702464D01*
X166134197Y-93136810D01*
X166255671Y-93318608D01*
X166380234Y-93505030D01*
X168083781Y-95208577D01*
X168452001Y-95454614D01*
X168886347Y-95541011D01*
X175897959Y-95541011D01*
X171337570Y-100101400D01*
X169368778Y-100101400D01*
X169287927Y-100020408D01*
X168944399Y-99877762D01*
X168572433Y-99877438D01*
X168228657Y-100019483D01*
X167965408Y-100282273D01*
X167822762Y-100625801D01*
X167822438Y-100997767D01*
X167964483Y-101341543D01*
X168227273Y-101604792D01*
X168570801Y-101747438D01*
X168942767Y-101747762D01*
X169238906Y-101625400D01*
X171653200Y-101625400D01*
X171944805Y-101567396D01*
X172192015Y-101402215D01*
X176886829Y-96707401D01*
X189569658Y-96707401D01*
X189569586Y-96789979D01*
X189757208Y-97244057D01*
X190104315Y-97591771D01*
X190346676Y-97692408D01*
X191602434Y-98948167D01*
X191970655Y-99194204D01*
X192405000Y-99280600D01*
X202331957Y-99280600D01*
X202572266Y-99380385D01*
X203063579Y-99380814D01*
X203517657Y-99193192D01*
X203865371Y-98846085D01*
X204053785Y-98392334D01*
X204054214Y-97901021D01*
X203866592Y-97446943D01*
X203519485Y-97099229D01*
X203065734Y-96910815D01*
X202574421Y-96910386D01*
X202331886Y-97010600D01*
X192875133Y-97010600D01*
X191951758Y-96087226D01*
X191852392Y-95846743D01*
X191547194Y-95541011D01*
X193531689Y-95541011D01*
X193966035Y-95454614D01*
X194334255Y-95208577D01*
X194373055Y-95169778D01*
X194373057Y-95169775D01*
X199390260Y-90152572D01*
X199390260Y-91300300D01*
X199434538Y-91535617D01*
X199573610Y-91751741D01*
X199785810Y-91896731D01*
X200037700Y-91947740D01*
X204838300Y-91947740D01*
X205073617Y-91903462D01*
X205289741Y-91764390D01*
X205434731Y-91552190D01*
X205485740Y-91300300D01*
X205485740Y-91063936D01*
X206549670Y-91063936D01*
X206819221Y-91476257D01*
X207935642Y-91936369D01*
X209143157Y-91934221D01*
X210248779Y-91476257D01*
X210518330Y-91063936D01*
X208534000Y-89079605D01*
X206549670Y-91063936D01*
X205485740Y-91063936D01*
X205485740Y-86788820D01*
X205649642Y-86856369D01*
X206309587Y-86855195D01*
X206370063Y-86915671D01*
X205957743Y-87185221D01*
X205497631Y-88301642D01*
X205499779Y-89509157D01*
X205957743Y-90614779D01*
X206370064Y-90884330D01*
X208354395Y-88900000D01*
X208713605Y-88900000D01*
X210697936Y-90884330D01*
X211110257Y-90614779D01*
X211570369Y-89498358D01*
X211568221Y-88290843D01*
X211110257Y-87185221D01*
X210697936Y-86915670D01*
X208713605Y-88900000D01*
X208354395Y-88900000D01*
X208340252Y-88885858D01*
X208519858Y-88706252D01*
X208534000Y-88720395D01*
X210518330Y-86736064D01*
X210248779Y-86323743D01*
X209132358Y-85863631D01*
X208472413Y-85864805D01*
X208411937Y-85804329D01*
X208824257Y-85534779D01*
X209284369Y-84418358D01*
X209282221Y-83210843D01*
X208824257Y-82105221D01*
X208411936Y-81835670D01*
X206427605Y-83820000D01*
X206441748Y-83834142D01*
X206262142Y-84013748D01*
X206248000Y-83999605D01*
X206233858Y-84013748D01*
X206054252Y-83834142D01*
X206068395Y-83820000D01*
X204084064Y-81835670D01*
X203671743Y-82105221D01*
X203211631Y-83221642D01*
X203213779Y-84429157D01*
X203671743Y-85534779D01*
X204084063Y-85804329D01*
X204036132Y-85852260D01*
X200037700Y-85852260D01*
X199802383Y-85896538D01*
X199586259Y-86035610D01*
X199441269Y-86247810D01*
X199390260Y-86499700D01*
X199390260Y-87765000D01*
X199037700Y-87765000D01*
X198603354Y-87851397D01*
X198313411Y-88045131D01*
X198235134Y-88097434D01*
X193100357Y-93232211D01*
X190101420Y-93232211D01*
X190101420Y-92278200D01*
X190015023Y-91843854D01*
X189768986Y-91475634D01*
X189400766Y-91229597D01*
X188966420Y-91143200D01*
X188532074Y-91229597D01*
X188163854Y-91475634D01*
X187917817Y-91843854D01*
X187831420Y-92278200D01*
X187831420Y-93271011D01*
X178818137Y-93271011D01*
X178818137Y-93032224D01*
X179031740Y-92712545D01*
X179118136Y-92278200D01*
X179031740Y-91843854D01*
X178785702Y-91475634D01*
X178417482Y-91229596D01*
X177983136Y-91143200D01*
X177548791Y-91229596D01*
X177180570Y-91475634D01*
X176880571Y-91775633D01*
X176634534Y-92143853D01*
X176548137Y-92578199D01*
X176548137Y-93045631D01*
X176546421Y-93048200D01*
X169133668Y-93048200D01*
X168306411Y-92220943D01*
X168231403Y-91843854D01*
X167985366Y-91475634D01*
X167617146Y-91229597D01*
X167182800Y-91143200D01*
X166748454Y-91229597D01*
X166380234Y-91475634D01*
X166134197Y-91843854D01*
X166047800Y-92278200D01*
X160056231Y-92278200D01*
X156692600Y-88914570D01*
X156692600Y-86830679D01*
X167259000Y-86830679D01*
X167259000Y-87413321D01*
X167384675Y-88045131D01*
X167742567Y-88580754D01*
X168278190Y-88938646D01*
X168910000Y-89064321D01*
X169541810Y-88938646D01*
X170077433Y-88580754D01*
X170180000Y-88427252D01*
X170282567Y-88580754D01*
X170818190Y-88938646D01*
X171450000Y-89064321D01*
X172081810Y-88938646D01*
X172617433Y-88580754D01*
X172734054Y-88406219D01*
X172912370Y-88633236D01*
X173475523Y-88949926D01*
X173607056Y-88981975D01*
X173863000Y-88862836D01*
X173863000Y-87249000D01*
X174117000Y-87249000D01*
X174117000Y-88862836D01*
X174372944Y-88981975D01*
X174504477Y-88949926D01*
X175067630Y-88633236D01*
X175466724Y-88125143D01*
X175641000Y-87503000D01*
X175641000Y-87249000D01*
X174117000Y-87249000D01*
X173863000Y-87249000D01*
X173843000Y-87249000D01*
X173843000Y-86995000D01*
X173863000Y-86995000D01*
X173863000Y-85381164D01*
X174117000Y-85381164D01*
X174117000Y-86995000D01*
X175641000Y-86995000D01*
X175641000Y-86830679D01*
X178435000Y-86830679D01*
X178435000Y-87413321D01*
X178560675Y-88045131D01*
X178918567Y-88580754D01*
X179454190Y-88938646D01*
X180086000Y-89064321D01*
X180717810Y-88938646D01*
X181253433Y-88580754D01*
X181356000Y-88427252D01*
X181458567Y-88580754D01*
X181994190Y-88938646D01*
X182626000Y-89064321D01*
X183257810Y-88938646D01*
X183793433Y-88580754D01*
X183910054Y-88406219D01*
X184088370Y-88633236D01*
X184651523Y-88949926D01*
X184783056Y-88981975D01*
X185039000Y-88862836D01*
X185039000Y-87249000D01*
X185293000Y-87249000D01*
X185293000Y-88862836D01*
X185548944Y-88981975D01*
X185680477Y-88949926D01*
X186243630Y-88633236D01*
X186642724Y-88125143D01*
X186817000Y-87503000D01*
X186817000Y-87249000D01*
X185293000Y-87249000D01*
X185039000Y-87249000D01*
X185019000Y-87249000D01*
X185019000Y-86995000D01*
X185039000Y-86995000D01*
X185039000Y-85381164D01*
X185293000Y-85381164D01*
X185293000Y-86995000D01*
X186817000Y-86995000D01*
X186817000Y-86830679D01*
X189611000Y-86830679D01*
X189611000Y-87413321D01*
X189736675Y-88045131D01*
X190094567Y-88580754D01*
X190630190Y-88938646D01*
X191262000Y-89064321D01*
X191893810Y-88938646D01*
X192429433Y-88580754D01*
X192532000Y-88427252D01*
X192634567Y-88580754D01*
X193170190Y-88938646D01*
X193802000Y-89064321D01*
X194433810Y-88938646D01*
X194969433Y-88580754D01*
X195086054Y-88406219D01*
X195264370Y-88633236D01*
X195827523Y-88949926D01*
X195959056Y-88981975D01*
X196215000Y-88862836D01*
X196215000Y-87249000D01*
X196469000Y-87249000D01*
X196469000Y-88862836D01*
X196724944Y-88981975D01*
X196856477Y-88949926D01*
X197419630Y-88633236D01*
X197818724Y-88125143D01*
X197993000Y-87503000D01*
X197993000Y-87249000D01*
X196469000Y-87249000D01*
X196215000Y-87249000D01*
X196195000Y-87249000D01*
X196195000Y-86995000D01*
X196215000Y-86995000D01*
X196215000Y-85381164D01*
X196469000Y-85381164D01*
X196469000Y-86995000D01*
X197993000Y-86995000D01*
X197993000Y-86741000D01*
X197818724Y-86118857D01*
X197419630Y-85610764D01*
X196856477Y-85294074D01*
X196724944Y-85262025D01*
X196469000Y-85381164D01*
X196215000Y-85381164D01*
X195959056Y-85262025D01*
X195827523Y-85294074D01*
X195264370Y-85610764D01*
X195086054Y-85837781D01*
X194969433Y-85663246D01*
X194433810Y-85305354D01*
X193802000Y-85179679D01*
X193170190Y-85305354D01*
X192634567Y-85663246D01*
X192532000Y-85816748D01*
X192429433Y-85663246D01*
X191893810Y-85305354D01*
X191262000Y-85179679D01*
X190630190Y-85305354D01*
X190094567Y-85663246D01*
X189736675Y-86198869D01*
X189611000Y-86830679D01*
X186817000Y-86830679D01*
X186817000Y-86741000D01*
X186642724Y-86118857D01*
X186243630Y-85610764D01*
X185680477Y-85294074D01*
X185548944Y-85262025D01*
X185293000Y-85381164D01*
X185039000Y-85381164D01*
X184783056Y-85262025D01*
X184651523Y-85294074D01*
X184088370Y-85610764D01*
X183910054Y-85837781D01*
X183793433Y-85663246D01*
X183257810Y-85305354D01*
X182626000Y-85179679D01*
X181994190Y-85305354D01*
X181458567Y-85663246D01*
X181356000Y-85816748D01*
X181253433Y-85663246D01*
X180717810Y-85305354D01*
X180086000Y-85179679D01*
X179454190Y-85305354D01*
X178918567Y-85663246D01*
X178560675Y-86198869D01*
X178435000Y-86830679D01*
X175641000Y-86830679D01*
X175641000Y-86741000D01*
X175466724Y-86118857D01*
X175067630Y-85610764D01*
X174504477Y-85294074D01*
X174372944Y-85262025D01*
X174117000Y-85381164D01*
X173863000Y-85381164D01*
X173607056Y-85262025D01*
X173475523Y-85294074D01*
X172912370Y-85610764D01*
X172734054Y-85837781D01*
X172617433Y-85663246D01*
X172081810Y-85305354D01*
X171450000Y-85179679D01*
X170818190Y-85305354D01*
X170282567Y-85663246D01*
X170180000Y-85816748D01*
X170077433Y-85663246D01*
X169541810Y-85305354D01*
X168910000Y-85179679D01*
X168278190Y-85305354D01*
X167742567Y-85663246D01*
X167384675Y-86198869D01*
X167259000Y-86830679D01*
X156692600Y-86830679D01*
X156692600Y-85701435D01*
X156870400Y-85737440D01*
X158597600Y-85737440D01*
X158832917Y-85693162D01*
X159049041Y-85554090D01*
X159194031Y-85341890D01*
X159202400Y-85300561D01*
X159214330Y-85318415D01*
X159700511Y-85643271D01*
X160274000Y-85757345D01*
X160847489Y-85643271D01*
X161333670Y-85318415D01*
X161540461Y-85008931D01*
X161911964Y-85424732D01*
X162439209Y-85678709D01*
X162454974Y-85681358D01*
X162687000Y-85560217D01*
X162687000Y-84201000D01*
X162941000Y-84201000D01*
X162941000Y-85560217D01*
X163173026Y-85681358D01*
X163188791Y-85678709D01*
X163716036Y-85424732D01*
X164105954Y-84988320D01*
X164299184Y-84435913D01*
X164154924Y-84201000D01*
X162941000Y-84201000D01*
X162687000Y-84201000D01*
X162667000Y-84201000D01*
X162667000Y-83947000D01*
X162687000Y-83947000D01*
X162687000Y-82587783D01*
X162941000Y-82587783D01*
X162941000Y-83947000D01*
X164154924Y-83947000D01*
X164299184Y-83712087D01*
X164105954Y-83159680D01*
X163716036Y-82723268D01*
X163188791Y-82469291D01*
X163173026Y-82466642D01*
X162941000Y-82587783D01*
X162687000Y-82587783D01*
X162454974Y-82466642D01*
X162439209Y-82469291D01*
X161911964Y-82723268D01*
X161540461Y-83139069D01*
X161333670Y-82829585D01*
X160847489Y-82504729D01*
X160274000Y-82390655D01*
X159700511Y-82504729D01*
X159214330Y-82829585D01*
X159204757Y-82843913D01*
X159200762Y-82822683D01*
X159061690Y-82606559D01*
X158849490Y-82461569D01*
X158597600Y-82410560D01*
X156870400Y-82410560D01*
X156692600Y-82444015D01*
X156692600Y-82129030D01*
X157165566Y-81656064D01*
X204263670Y-81656064D01*
X206248000Y-83640395D01*
X208232330Y-81656064D01*
X207962779Y-81243743D01*
X206846358Y-80783631D01*
X205638843Y-80785779D01*
X204533221Y-81243743D01*
X204263670Y-81656064D01*
X157165566Y-81656064D01*
X161228365Y-77593265D01*
X167258670Y-77593265D01*
X167548078Y-78293686D01*
X168083495Y-78830039D01*
X168783410Y-79120668D01*
X169541265Y-79121330D01*
X170241686Y-78831922D01*
X170778039Y-78296505D01*
X171068668Y-77596590D01*
X171069330Y-76838735D01*
X170779922Y-76138314D01*
X170587944Y-75946000D01*
X172326560Y-75946000D01*
X172326560Y-78486000D01*
X172370838Y-78721317D01*
X172509910Y-78937441D01*
X172722110Y-79082431D01*
X172974000Y-79133440D01*
X175514000Y-79133440D01*
X175749317Y-79089162D01*
X175965441Y-78950090D01*
X176110431Y-78737890D01*
X176161440Y-78486000D01*
X176161440Y-77593265D01*
X177926670Y-77593265D01*
X178216078Y-78293686D01*
X178751495Y-78830039D01*
X179451410Y-79120668D01*
X180209265Y-79121330D01*
X180909686Y-78831922D01*
X181446039Y-78296505D01*
X181736668Y-77596590D01*
X181737330Y-76838735D01*
X181447922Y-76138314D01*
X181255944Y-75946000D01*
X182994560Y-75946000D01*
X182994560Y-78486000D01*
X183038838Y-78721317D01*
X183177910Y-78937441D01*
X183390110Y-79082431D01*
X183642000Y-79133440D01*
X186182000Y-79133440D01*
X186417317Y-79089162D01*
X186633441Y-78950090D01*
X186778431Y-78737890D01*
X186829440Y-78486000D01*
X186829440Y-77593265D01*
X188594670Y-77593265D01*
X188884078Y-78293686D01*
X189419495Y-78830039D01*
X190119410Y-79120668D01*
X190877265Y-79121330D01*
X191577686Y-78831922D01*
X192114039Y-78296505D01*
X192404668Y-77596590D01*
X192405330Y-76838735D01*
X192115922Y-76138314D01*
X191923944Y-75946000D01*
X193662560Y-75946000D01*
X193662560Y-78486000D01*
X193706838Y-78721317D01*
X193845910Y-78937441D01*
X194058110Y-79082431D01*
X194310000Y-79133440D01*
X196850000Y-79133440D01*
X197085317Y-79089162D01*
X197301441Y-78950090D01*
X197446431Y-78737890D01*
X197497440Y-78486000D01*
X197497440Y-77593265D01*
X199262670Y-77593265D01*
X199552078Y-78293686D01*
X200087495Y-78830039D01*
X200787410Y-79120668D01*
X201545265Y-79121330D01*
X202245686Y-78831922D01*
X202782039Y-78296505D01*
X203072668Y-77596590D01*
X203072750Y-77501750D01*
X204343000Y-77501750D01*
X204343000Y-78612310D01*
X204439673Y-78845699D01*
X204618302Y-79024327D01*
X204851691Y-79121000D01*
X205962250Y-79121000D01*
X206121000Y-78962250D01*
X206121000Y-77343000D01*
X206375000Y-77343000D01*
X206375000Y-78962250D01*
X206533750Y-79121000D01*
X207644309Y-79121000D01*
X207877698Y-79024327D01*
X208056327Y-78845699D01*
X208153000Y-78612310D01*
X208153000Y-77501750D01*
X207994250Y-77343000D01*
X206375000Y-77343000D01*
X206121000Y-77343000D01*
X204501750Y-77343000D01*
X204343000Y-77501750D01*
X203072750Y-77501750D01*
X203073330Y-76838735D01*
X202783922Y-76138314D01*
X202465855Y-75819690D01*
X204343000Y-75819690D01*
X204343000Y-76930250D01*
X204501750Y-77089000D01*
X206121000Y-77089000D01*
X206121000Y-75469750D01*
X205962250Y-75311000D01*
X204851691Y-75311000D01*
X204618302Y-75407673D01*
X204439673Y-75586301D01*
X204343000Y-75819690D01*
X202465855Y-75819690D01*
X202248505Y-75601961D01*
X201548590Y-75311332D01*
X200790735Y-75310670D01*
X200090314Y-75600078D01*
X199553961Y-76135495D01*
X199263332Y-76835410D01*
X199262670Y-77593265D01*
X197497440Y-77593265D01*
X197497440Y-75946000D01*
X197453162Y-75710683D01*
X197314090Y-75494559D01*
X197101890Y-75349569D01*
X196850000Y-75298560D01*
X194310000Y-75298560D01*
X194074683Y-75342838D01*
X193858559Y-75481910D01*
X193713569Y-75694110D01*
X193662560Y-75946000D01*
X191923944Y-75946000D01*
X191580505Y-75601961D01*
X190880590Y-75311332D01*
X190122735Y-75310670D01*
X189422314Y-75600078D01*
X188885961Y-76135495D01*
X188595332Y-76835410D01*
X188594670Y-77593265D01*
X186829440Y-77593265D01*
X186829440Y-75946000D01*
X186785162Y-75710683D01*
X186646090Y-75494559D01*
X186433890Y-75349569D01*
X186182000Y-75298560D01*
X183642000Y-75298560D01*
X183406683Y-75342838D01*
X183190559Y-75481910D01*
X183045569Y-75694110D01*
X182994560Y-75946000D01*
X181255944Y-75946000D01*
X180912505Y-75601961D01*
X180212590Y-75311332D01*
X179454735Y-75310670D01*
X178754314Y-75600078D01*
X178217961Y-76135495D01*
X177927332Y-76835410D01*
X177926670Y-77593265D01*
X176161440Y-77593265D01*
X176161440Y-75946000D01*
X176117162Y-75710683D01*
X175978090Y-75494559D01*
X175765890Y-75349569D01*
X175514000Y-75298560D01*
X172974000Y-75298560D01*
X172738683Y-75342838D01*
X172522559Y-75481910D01*
X172377569Y-75694110D01*
X172326560Y-75946000D01*
X170587944Y-75946000D01*
X170244505Y-75601961D01*
X169544590Y-75311332D01*
X168786735Y-75310670D01*
X168086314Y-75600078D01*
X167549961Y-76135495D01*
X167259332Y-76835410D01*
X167258670Y-77593265D01*
X161228365Y-77593265D01*
X164702501Y-74119129D01*
X206340699Y-74119129D01*
X207532570Y-75311000D01*
X206533750Y-75311000D01*
X206375000Y-75469750D01*
X206375000Y-77089000D01*
X207994250Y-77089000D01*
X208153000Y-76930250D01*
X208153000Y-75931430D01*
X210835328Y-78613759D01*
X210723362Y-78883401D01*
X210723038Y-79255367D01*
X210865083Y-79599143D01*
X211127873Y-79862392D01*
X211471401Y-80005038D01*
X211843367Y-80005362D01*
X212187143Y-79863317D01*
X212450392Y-79600527D01*
X212593038Y-79256999D01*
X212593362Y-78885033D01*
X212451317Y-78541257D01*
X212420200Y-78510086D01*
X212420200Y-78359000D01*
X212362196Y-78067395D01*
X212296034Y-77968377D01*
X212197016Y-77820185D01*
X211696067Y-77319237D01*
X211699989Y-77319240D01*
X212484927Y-76994910D01*
X213086000Y-76394886D01*
X213411699Y-75610515D01*
X213412440Y-74761211D01*
X213088110Y-73976273D01*
X212488086Y-73375200D01*
X211703715Y-73049501D01*
X210854411Y-73048760D01*
X210069473Y-73373090D01*
X209468400Y-73973114D01*
X209142701Y-74757485D01*
X209142694Y-74765863D01*
X207195144Y-72818314D01*
X207033041Y-72710000D01*
X213790000Y-72710000D01*
X213790000Y-118899264D01*
X213790000Y-118899264D01*
G37*
X213790000Y-118899264D02*
X213220978Y-118894222D01*
X213411699Y-118434915D01*
X213412440Y-117585611D01*
X213088110Y-116800673D01*
X212488086Y-116199600D01*
X211703715Y-115873901D01*
X210854411Y-115873160D01*
X210069473Y-116197490D01*
X209468400Y-116797514D01*
X209142701Y-117581885D01*
X209141960Y-118431189D01*
X209318996Y-118859649D01*
X197648843Y-118756247D01*
X197505260Y-114067513D01*
X197493747Y-114018432D01*
X197470187Y-113986121D01*
X197591392Y-113865127D01*
X197734038Y-113521599D01*
X197734362Y-113149633D01*
X197592317Y-112805857D01*
X197561200Y-112774686D01*
X197561200Y-112447466D01*
X197591392Y-112417327D01*
X197734038Y-112073799D01*
X197734362Y-111701833D01*
X197653446Y-111506000D01*
X209385679Y-111506000D01*
X209511354Y-112137810D01*
X209869246Y-112673433D01*
X210404869Y-113031325D01*
X211036679Y-113157000D01*
X211619321Y-113157000D01*
X212251131Y-113031325D01*
X212786754Y-112673433D01*
X213144646Y-112137810D01*
X213270321Y-111506000D01*
X213144646Y-110874190D01*
X212786754Y-110338567D01*
X212612219Y-110221946D01*
X212839236Y-110043630D01*
X213155926Y-109480477D01*
X213187975Y-109348944D01*
X213068836Y-109093000D01*
X211455000Y-109093000D01*
X211455000Y-109113000D01*
X211201000Y-109113000D01*
X211201000Y-109093000D01*
X209587164Y-109093000D01*
X209468025Y-109348944D01*
X209500074Y-109480477D01*
X209816764Y-110043630D01*
X210043781Y-110221946D01*
X209869246Y-110338567D01*
X209511354Y-110874190D01*
X209385679Y-111506000D01*
X197653446Y-111506000D01*
X197592317Y-111358057D01*
X197329527Y-111094808D01*
X196985999Y-110952162D01*
X196614033Y-110951838D01*
X196270257Y-111093883D01*
X196007008Y-111356673D01*
X195864362Y-111700201D01*
X195864038Y-112072167D01*
X196006083Y-112415943D01*
X196037200Y-112447114D01*
X196037200Y-112774334D01*
X196007008Y-112804473D01*
X195864362Y-113148001D01*
X195864038Y-113519967D01*
X196006083Y-113863743D01*
X196039954Y-113897673D01*
X193156184Y-113797157D01*
X193151760Y-113797080D01*
X163585143Y-113797080D01*
X163559648Y-113327801D01*
X163412300Y-112972071D01*
X163176688Y-112910417D01*
X162422105Y-113665000D01*
X162436248Y-113679143D01*
X162318310Y-113797080D01*
X162166690Y-113797080D01*
X162048753Y-113679143D01*
X162062895Y-113665000D01*
X161308312Y-112910417D01*
X161072700Y-112972071D01*
X160896573Y-113472480D01*
X160914208Y-113797080D01*
X158495885Y-113797080D01*
X158496231Y-113400914D01*
X158293646Y-112910620D01*
X158114152Y-112730812D01*
X161487917Y-112730812D01*
X162242500Y-113485395D01*
X162997083Y-112730812D01*
X162935429Y-112495200D01*
X162435020Y-112319073D01*
X161905301Y-112347852D01*
X161549571Y-112495200D01*
X161487917Y-112730812D01*
X158114152Y-112730812D01*
X157918853Y-112535173D01*
X157428913Y-112331732D01*
X156898414Y-112331269D01*
X156408120Y-112533854D01*
X156032673Y-112908647D01*
X155829232Y-113398587D01*
X155828884Y-113797080D01*
X155210000Y-113797080D01*
X155210000Y-106309086D01*
X155828769Y-106309086D01*
X156031354Y-106799380D01*
X156406147Y-107174827D01*
X156896087Y-107378268D01*
X157426586Y-107378731D01*
X157916880Y-107176146D01*
X158114181Y-106979188D01*
X161487917Y-106979188D01*
X161549571Y-107214800D01*
X162049980Y-107390927D01*
X162579699Y-107362148D01*
X162935429Y-107214800D01*
X162997083Y-106979188D01*
X162242500Y-106224605D01*
X161487917Y-106979188D01*
X158114181Y-106979188D01*
X158292327Y-106801353D01*
X158495768Y-106311413D01*
X158496168Y-105852480D01*
X160896573Y-105852480D01*
X160925352Y-106382199D01*
X161072700Y-106737929D01*
X161308312Y-106799583D01*
X162062895Y-106045000D01*
X162422105Y-106045000D01*
X163176688Y-106799583D01*
X163412300Y-106737929D01*
X163588427Y-106237520D01*
X163559648Y-105707801D01*
X163412300Y-105352071D01*
X163176688Y-105290417D01*
X162422105Y-106045000D01*
X162062895Y-106045000D01*
X161308312Y-105290417D01*
X161072700Y-105352071D01*
X160896573Y-105852480D01*
X158496168Y-105852480D01*
X158496231Y-105780914D01*
X158293646Y-105290620D01*
X158114152Y-105110812D01*
X161487917Y-105110812D01*
X162242500Y-105865395D01*
X162997083Y-105110812D01*
X162935429Y-104875200D01*
X162435020Y-104699073D01*
X161905301Y-104727852D01*
X161549571Y-104875200D01*
X161487917Y-105110812D01*
X158114152Y-105110812D01*
X157918853Y-104915173D01*
X157428913Y-104711732D01*
X156898414Y-104711269D01*
X156408120Y-104913854D01*
X156032673Y-105288647D01*
X155829232Y-105778587D01*
X155828769Y-106309086D01*
X155210000Y-106309086D01*
X155210000Y-103773277D01*
X158597828Y-103773277D01*
X158729520Y-104068157D01*
X159437036Y-104339761D01*
X160194632Y-104319936D01*
X160802480Y-104068157D01*
X160934172Y-103773277D01*
X159766000Y-102605105D01*
X158597828Y-103773277D01*
X155210000Y-103773277D01*
X155210000Y-102096536D01*
X157851739Y-102096536D01*
X157871564Y-102854132D01*
X158123343Y-103461980D01*
X158418223Y-103593672D01*
X159586395Y-102425500D01*
X159945605Y-102425500D01*
X161113777Y-103593672D01*
X161408657Y-103461980D01*
X161680261Y-102754464D01*
X161660436Y-101996868D01*
X161408657Y-101389020D01*
X161113777Y-101257328D01*
X159945605Y-102425500D01*
X159586395Y-102425500D01*
X158418223Y-101257328D01*
X158123343Y-101389020D01*
X157851739Y-102096536D01*
X155210000Y-102096536D01*
X155210000Y-101077723D01*
X158597828Y-101077723D01*
X159766000Y-102245895D01*
X160934172Y-101077723D01*
X160802480Y-100782843D01*
X160094964Y-100511239D01*
X159337368Y-100531064D01*
X158729520Y-100782843D01*
X158597828Y-101077723D01*
X155210000Y-101077723D01*
X155210000Y-89438331D01*
X155226604Y-89521805D01*
X155347385Y-89702566D01*
X155391785Y-89769015D01*
X161054595Y-95431826D01*
X161036000Y-95428060D01*
X158496000Y-95428060D01*
X158260683Y-95472338D01*
X158044559Y-95611410D01*
X157899569Y-95823610D01*
X157848560Y-96075500D01*
X157848560Y-98615500D01*
X157892838Y-98850817D01*
X158031910Y-99066941D01*
X158244110Y-99211931D01*
X158496000Y-99262940D01*
X161036000Y-99262940D01*
X161271317Y-99218662D01*
X161487441Y-99079590D01*
X161632431Y-98867390D01*
X161683440Y-98615500D01*
X161683440Y-96075500D01*
X161680003Y-96057234D01*
X162102800Y-96480031D01*
X162102800Y-98679000D01*
X162160804Y-98970605D01*
X162220536Y-99060000D01*
X162325985Y-99217815D01*
X164457065Y-101348895D01*
X164381855Y-101727000D01*
X164495929Y-102300489D01*
X164820785Y-102786670D01*
X165135566Y-102997000D01*
X164820785Y-103207330D01*
X164495929Y-103693511D01*
X164381855Y-104267000D01*
X164495929Y-104840489D01*
X164820785Y-105326670D01*
X165135566Y-105537000D01*
X164820785Y-105747330D01*
X164495929Y-106233511D01*
X164381855Y-106807000D01*
X164495929Y-107380489D01*
X164820785Y-107866670D01*
X165135566Y-108077000D01*
X164820785Y-108287330D01*
X164495929Y-108773511D01*
X164381855Y-109347000D01*
X164495929Y-109920489D01*
X164820785Y-110406670D01*
X165306966Y-110731526D01*
X165880455Y-110845600D01*
X166249945Y-110845600D01*
X166823434Y-110731526D01*
X167309615Y-110406670D01*
X167634471Y-109920489D01*
X167748545Y-109347000D01*
X167634471Y-108773511D01*
X167309615Y-108287330D01*
X166994834Y-108077000D01*
X167309615Y-107866670D01*
X167634471Y-107380489D01*
X167748545Y-106807000D01*
X167744959Y-106788967D01*
X176560038Y-106788967D01*
X176702083Y-107132743D01*
X176964873Y-107395992D01*
X177308401Y-107538638D01*
X177454135Y-107538765D01*
X178388875Y-108473506D01*
X178388838Y-108516167D01*
X178530883Y-108859943D01*
X178793673Y-109123192D01*
X179137201Y-109265838D01*
X179509167Y-109266162D01*
X179852943Y-109124117D01*
X180116192Y-108861327D01*
X180258838Y-108517799D01*
X180259162Y-108145833D01*
X180117117Y-107802057D01*
X179854327Y-107538808D01*
X179510799Y-107396162D01*
X179466754Y-107396124D01*
X179109656Y-107039026D01*
X199560642Y-107039026D01*
X199563291Y-107054791D01*
X199817268Y-107582036D01*
X200253680Y-107971954D01*
X200806087Y-108165184D01*
X201041000Y-108020924D01*
X201041000Y-106807000D01*
X201295000Y-106807000D01*
X201295000Y-108020924D01*
X201529913Y-108165184D01*
X202082320Y-107971954D01*
X202518732Y-107582036D01*
X202772709Y-107054791D01*
X202775358Y-107039026D01*
X202654217Y-106807000D01*
X201295000Y-106807000D01*
X201041000Y-106807000D01*
X199681783Y-106807000D01*
X199560642Y-107039026D01*
X179109656Y-107039026D01*
X178388888Y-106318258D01*
X178288317Y-106074857D01*
X178025527Y-105811608D01*
X177681999Y-105668962D01*
X177310033Y-105668638D01*
X176966257Y-105810683D01*
X176703008Y-106073473D01*
X176560362Y-106417001D01*
X176560038Y-106788967D01*
X167744959Y-106788967D01*
X167634471Y-106233511D01*
X167309615Y-105747330D01*
X166994834Y-105537000D01*
X167309615Y-105326670D01*
X167634471Y-104840489D01*
X167748545Y-104267000D01*
X167723284Y-104140000D01*
X199484655Y-104140000D01*
X199598729Y-104713489D01*
X199923585Y-105199670D01*
X200233069Y-105406461D01*
X199817268Y-105777964D01*
X199563291Y-106305209D01*
X199560642Y-106320974D01*
X199681783Y-106553000D01*
X201041000Y-106553000D01*
X201041000Y-106533000D01*
X201295000Y-106533000D01*
X201295000Y-106553000D01*
X202654217Y-106553000D01*
X202720523Y-106426000D01*
X209385679Y-106426000D01*
X209511354Y-107057810D01*
X209869246Y-107593433D01*
X210043781Y-107710054D01*
X209816764Y-107888370D01*
X209500074Y-108451523D01*
X209468025Y-108583056D01*
X209587164Y-108839000D01*
X211201000Y-108839000D01*
X211201000Y-108819000D01*
X211455000Y-108819000D01*
X211455000Y-108839000D01*
X213068836Y-108839000D01*
X213187975Y-108583056D01*
X213155926Y-108451523D01*
X212839236Y-107888370D01*
X212612219Y-107710054D01*
X212786754Y-107593433D01*
X213144646Y-107057810D01*
X213270321Y-106426000D01*
X213144646Y-105794190D01*
X212786754Y-105258567D01*
X212251131Y-104900675D01*
X211619321Y-104775000D01*
X211036679Y-104775000D01*
X210404869Y-104900675D01*
X209869246Y-105258567D01*
X209511354Y-105794190D01*
X209385679Y-106426000D01*
X202720523Y-106426000D01*
X202775358Y-106320974D01*
X202772709Y-106305209D01*
X202518732Y-105777964D01*
X202102931Y-105406461D01*
X202412415Y-105199670D01*
X202737271Y-104713489D01*
X202851345Y-104140000D01*
X202737271Y-103566511D01*
X202412415Y-103080330D01*
X202398087Y-103070757D01*
X202419317Y-103066762D01*
X202635441Y-102927690D01*
X202780431Y-102715490D01*
X202831440Y-102463600D01*
X202831440Y-100736400D01*
X202787162Y-100501083D01*
X202648090Y-100284959D01*
X202435890Y-100139969D01*
X202184000Y-100088960D01*
X200152000Y-100088960D01*
X199916683Y-100133238D01*
X199700559Y-100272310D01*
X199555569Y-100484510D01*
X199504560Y-100736400D01*
X199504560Y-102463600D01*
X199548838Y-102698917D01*
X199687910Y-102915041D01*
X199900110Y-103060031D01*
X199941439Y-103068400D01*
X199923585Y-103080330D01*
X199598729Y-103566511D01*
X199484655Y-104140000D01*
X167723284Y-104140000D01*
X167634471Y-103693511D01*
X167309615Y-103207330D01*
X166994834Y-102997000D01*
X167309615Y-102786670D01*
X167634471Y-102300489D01*
X167748545Y-101727000D01*
X167634471Y-101153511D01*
X167309615Y-100667330D01*
X167287420Y-100652500D01*
X167440898Y-100588927D01*
X167619527Y-100410299D01*
X167716200Y-100176910D01*
X167716200Y-99472750D01*
X167557450Y-99314000D01*
X166192200Y-99314000D01*
X166192200Y-99334000D01*
X165938200Y-99334000D01*
X165938200Y-99314000D01*
X165918200Y-99314000D01*
X165918200Y-99060000D01*
X165938200Y-99060000D01*
X165938200Y-97847150D01*
X166192200Y-97847150D01*
X166192200Y-99060000D01*
X167557450Y-99060000D01*
X167716200Y-98901250D01*
X167716200Y-98197090D01*
X167619527Y-97963701D01*
X167440898Y-97785073D01*
X167207509Y-97688400D01*
X166350950Y-97688400D01*
X166192200Y-97847150D01*
X165938200Y-97847150D01*
X165779450Y-97688400D01*
X164922891Y-97688400D01*
X164689502Y-97785073D01*
X164510873Y-97963701D01*
X164414200Y-98197090D01*
X164414200Y-98901250D01*
X164572948Y-99059998D01*
X164414200Y-99059998D01*
X164414200Y-99150770D01*
X163626800Y-98363370D01*
X163626800Y-96164400D01*
X163568796Y-95872795D01*
X163481959Y-95742834D01*
X163403616Y-95625585D01*
X160056231Y-92278200D01*
X166047800Y-92278200D01*
X166047800Y-92702464D01*
X166134197Y-93136810D01*
X166255671Y-93318608D01*
X166380234Y-93505030D01*
X168083781Y-95208577D01*
X168452001Y-95454614D01*
X168886347Y-95541011D01*
X175897959Y-95541011D01*
X171337570Y-100101400D01*
X169368778Y-100101400D01*
X169287927Y-100020408D01*
X168944399Y-99877762D01*
X168572433Y-99877438D01*
X168228657Y-100019483D01*
X167965408Y-100282273D01*
X167822762Y-100625801D01*
X167822438Y-100997767D01*
X167964483Y-101341543D01*
X168227273Y-101604792D01*
X168570801Y-101747438D01*
X168942767Y-101747762D01*
X169238906Y-101625400D01*
X171653200Y-101625400D01*
X171944805Y-101567396D01*
X172192015Y-101402215D01*
X176886829Y-96707401D01*
X189569658Y-96707401D01*
X189569586Y-96789979D01*
X189757208Y-97244057D01*
X190104315Y-97591771D01*
X190346676Y-97692408D01*
X191602434Y-98948167D01*
X191970655Y-99194204D01*
X192405000Y-99280600D01*
X202331957Y-99280600D01*
X202572266Y-99380385D01*
X203063579Y-99380814D01*
X203517657Y-99193192D01*
X203865371Y-98846085D01*
X204053785Y-98392334D01*
X204054214Y-97901021D01*
X203866592Y-97446943D01*
X203519485Y-97099229D01*
X203065734Y-96910815D01*
X202574421Y-96910386D01*
X202331886Y-97010600D01*
X192875133Y-97010600D01*
X191951758Y-96087226D01*
X191852392Y-95846743D01*
X191547194Y-95541011D01*
X193531689Y-95541011D01*
X193966035Y-95454614D01*
X194334255Y-95208577D01*
X194373055Y-95169778D01*
X194373057Y-95169775D01*
X199390260Y-90152572D01*
X199390260Y-91300300D01*
X199434538Y-91535617D01*
X199573610Y-91751741D01*
X199785810Y-91896731D01*
X200037700Y-91947740D01*
X204838300Y-91947740D01*
X205073617Y-91903462D01*
X205289741Y-91764390D01*
X205434731Y-91552190D01*
X205485740Y-91300300D01*
X205485740Y-91063936D01*
X206549670Y-91063936D01*
X206819221Y-91476257D01*
X207935642Y-91936369D01*
X209143157Y-91934221D01*
X210248779Y-91476257D01*
X210518330Y-91063936D01*
X208534000Y-89079605D01*
X206549670Y-91063936D01*
X205485740Y-91063936D01*
X205485740Y-86788820D01*
X205649642Y-86856369D01*
X206309587Y-86855195D01*
X206370063Y-86915671D01*
X205957743Y-87185221D01*
X205497631Y-88301642D01*
X205499779Y-89509157D01*
X205957743Y-90614779D01*
X206370064Y-90884330D01*
X208354395Y-88900000D01*
X208713605Y-88900000D01*
X210697936Y-90884330D01*
X211110257Y-90614779D01*
X211570369Y-89498358D01*
X211568221Y-88290843D01*
X211110257Y-87185221D01*
X210697936Y-86915670D01*
X208713605Y-88900000D01*
X208354395Y-88900000D01*
X208340252Y-88885858D01*
X208519858Y-88706252D01*
X208534000Y-88720395D01*
X210518330Y-86736064D01*
X210248779Y-86323743D01*
X209132358Y-85863631D01*
X208472413Y-85864805D01*
X208411937Y-85804329D01*
X208824257Y-85534779D01*
X209284369Y-84418358D01*
X209282221Y-83210843D01*
X208824257Y-82105221D01*
X208411936Y-81835670D01*
X206427605Y-83820000D01*
X206441748Y-83834142D01*
X206262142Y-84013748D01*
X206248000Y-83999605D01*
X206233858Y-84013748D01*
X206054252Y-83834142D01*
X206068395Y-83820000D01*
X204084064Y-81835670D01*
X203671743Y-82105221D01*
X203211631Y-83221642D01*
X203213779Y-84429157D01*
X203671743Y-85534779D01*
X204084063Y-85804329D01*
X204036132Y-85852260D01*
X200037700Y-85852260D01*
X199802383Y-85896538D01*
X199586259Y-86035610D01*
X199441269Y-86247810D01*
X199390260Y-86499700D01*
X199390260Y-87765000D01*
X199037700Y-87765000D01*
X198603354Y-87851397D01*
X198313411Y-88045131D01*
X198235134Y-88097434D01*
X193100357Y-93232211D01*
X190101420Y-93232211D01*
X190101420Y-92278200D01*
X190015023Y-91843854D01*
X189768986Y-91475634D01*
X189400766Y-91229597D01*
X188966420Y-91143200D01*
X188532074Y-91229597D01*
X188163854Y-91475634D01*
X187917817Y-91843854D01*
X187831420Y-92278200D01*
X187831420Y-93271011D01*
X178818137Y-93271011D01*
X178818137Y-93032224D01*
X179031740Y-92712545D01*
X179118136Y-92278200D01*
X179031740Y-91843854D01*
X178785702Y-91475634D01*
X178417482Y-91229596D01*
X177983136Y-91143200D01*
X177548791Y-91229596D01*
X177180570Y-91475634D01*
X176880571Y-91775633D01*
X176634534Y-92143853D01*
X176548137Y-92578199D01*
X176548137Y-93045631D01*
X176546421Y-93048200D01*
X169133668Y-93048200D01*
X168306411Y-92220943D01*
X168231403Y-91843854D01*
X167985366Y-91475634D01*
X167617146Y-91229597D01*
X167182800Y-91143200D01*
X166748454Y-91229597D01*
X166380234Y-91475634D01*
X166134197Y-91843854D01*
X166047800Y-92278200D01*
X160056231Y-92278200D01*
X156692600Y-88914570D01*
X156692600Y-86830679D01*
X167259000Y-86830679D01*
X167259000Y-87413321D01*
X167384675Y-88045131D01*
X167742567Y-88580754D01*
X168278190Y-88938646D01*
X168910000Y-89064321D01*
X169541810Y-88938646D01*
X170077433Y-88580754D01*
X170180000Y-88427252D01*
X170282567Y-88580754D01*
X170818190Y-88938646D01*
X171450000Y-89064321D01*
X172081810Y-88938646D01*
X172617433Y-88580754D01*
X172734054Y-88406219D01*
X172912370Y-88633236D01*
X173475523Y-88949926D01*
X173607056Y-88981975D01*
X173863000Y-88862836D01*
X173863000Y-87249000D01*
X174117000Y-87249000D01*
X174117000Y-88862836D01*
X174372944Y-88981975D01*
X174504477Y-88949926D01*
X175067630Y-88633236D01*
X175466724Y-88125143D01*
X175641000Y-87503000D01*
X175641000Y-87249000D01*
X174117000Y-87249000D01*
X173863000Y-87249000D01*
X173843000Y-87249000D01*
X173843000Y-86995000D01*
X173863000Y-86995000D01*
X173863000Y-85381164D01*
X174117000Y-85381164D01*
X174117000Y-86995000D01*
X175641000Y-86995000D01*
X175641000Y-86830679D01*
X178435000Y-86830679D01*
X178435000Y-87413321D01*
X178560675Y-88045131D01*
X178918567Y-88580754D01*
X179454190Y-88938646D01*
X180086000Y-89064321D01*
X180717810Y-88938646D01*
X181253433Y-88580754D01*
X181356000Y-88427252D01*
X181458567Y-88580754D01*
X181994190Y-88938646D01*
X182626000Y-89064321D01*
X183257810Y-88938646D01*
X183793433Y-88580754D01*
X183910054Y-88406219D01*
X184088370Y-88633236D01*
X184651523Y-88949926D01*
X184783056Y-88981975D01*
X185039000Y-88862836D01*
X185039000Y-87249000D01*
X185293000Y-87249000D01*
X185293000Y-88862836D01*
X185548944Y-88981975D01*
X185680477Y-88949926D01*
X186243630Y-88633236D01*
X186642724Y-88125143D01*
X186817000Y-87503000D01*
X186817000Y-87249000D01*
X185293000Y-87249000D01*
X185039000Y-87249000D01*
X185019000Y-87249000D01*
X185019000Y-86995000D01*
X185039000Y-86995000D01*
X185039000Y-85381164D01*
X185293000Y-85381164D01*
X185293000Y-86995000D01*
X186817000Y-86995000D01*
X186817000Y-86830679D01*
X189611000Y-86830679D01*
X189611000Y-87413321D01*
X189736675Y-88045131D01*
X190094567Y-88580754D01*
X190630190Y-88938646D01*
X191262000Y-89064321D01*
X191893810Y-88938646D01*
X192429433Y-88580754D01*
X192532000Y-88427252D01*
X192634567Y-88580754D01*
X193170190Y-88938646D01*
X193802000Y-89064321D01*
X194433810Y-88938646D01*
X194969433Y-88580754D01*
X195086054Y-88406219D01*
X195264370Y-88633236D01*
X195827523Y-88949926D01*
X195959056Y-88981975D01*
X196215000Y-88862836D01*
X196215000Y-87249000D01*
X196469000Y-87249000D01*
X196469000Y-88862836D01*
X196724944Y-88981975D01*
X196856477Y-88949926D01*
X197419630Y-88633236D01*
X197818724Y-88125143D01*
X197993000Y-87503000D01*
X197993000Y-87249000D01*
X196469000Y-87249000D01*
X196215000Y-87249000D01*
X196195000Y-87249000D01*
X196195000Y-86995000D01*
X196215000Y-86995000D01*
X196215000Y-85381164D01*
X196469000Y-85381164D01*
X196469000Y-86995000D01*
X197993000Y-86995000D01*
X197993000Y-86741000D01*
X197818724Y-86118857D01*
X197419630Y-85610764D01*
X196856477Y-85294074D01*
X196724944Y-85262025D01*
X196469000Y-85381164D01*
X196215000Y-85381164D01*
X195959056Y-85262025D01*
X195827523Y-85294074D01*
X195264370Y-85610764D01*
X195086054Y-85837781D01*
X194969433Y-85663246D01*
X194433810Y-85305354D01*
X193802000Y-85179679D01*
X193170190Y-85305354D01*
X192634567Y-85663246D01*
X192532000Y-85816748D01*
X192429433Y-85663246D01*
X191893810Y-85305354D01*
X191262000Y-85179679D01*
X190630190Y-85305354D01*
X190094567Y-85663246D01*
X189736675Y-86198869D01*
X189611000Y-86830679D01*
X186817000Y-86830679D01*
X186817000Y-86741000D01*
X186642724Y-86118857D01*
X186243630Y-85610764D01*
X185680477Y-85294074D01*
X185548944Y-85262025D01*
X185293000Y-85381164D01*
X185039000Y-85381164D01*
X184783056Y-85262025D01*
X184651523Y-85294074D01*
X184088370Y-85610764D01*
X183910054Y-85837781D01*
X183793433Y-85663246D01*
X183257810Y-85305354D01*
X182626000Y-85179679D01*
X181994190Y-85305354D01*
X181458567Y-85663246D01*
X181356000Y-85816748D01*
X181253433Y-85663246D01*
X180717810Y-85305354D01*
X180086000Y-85179679D01*
X179454190Y-85305354D01*
X178918567Y-85663246D01*
X178560675Y-86198869D01*
X178435000Y-86830679D01*
X175641000Y-86830679D01*
X175641000Y-86741000D01*
X175466724Y-86118857D01*
X175067630Y-85610764D01*
X174504477Y-85294074D01*
X174372944Y-85262025D01*
X174117000Y-85381164D01*
X173863000Y-85381164D01*
X173607056Y-85262025D01*
X173475523Y-85294074D01*
X172912370Y-85610764D01*
X172734054Y-85837781D01*
X172617433Y-85663246D01*
X172081810Y-85305354D01*
X171450000Y-85179679D01*
X170818190Y-85305354D01*
X170282567Y-85663246D01*
X170180000Y-85816748D01*
X170077433Y-85663246D01*
X169541810Y-85305354D01*
X168910000Y-85179679D01*
X168278190Y-85305354D01*
X167742567Y-85663246D01*
X167384675Y-86198869D01*
X167259000Y-86830679D01*
X156692600Y-86830679D01*
X156692600Y-85701435D01*
X156870400Y-85737440D01*
X158597600Y-85737440D01*
X158832917Y-85693162D01*
X159049041Y-85554090D01*
X159194031Y-85341890D01*
X159202400Y-85300561D01*
X159214330Y-85318415D01*
X159700511Y-85643271D01*
X160274000Y-85757345D01*
X160847489Y-85643271D01*
X161333670Y-85318415D01*
X161540461Y-85008931D01*
X161911964Y-85424732D01*
X162439209Y-85678709D01*
X162454974Y-85681358D01*
X162687000Y-85560217D01*
X162687000Y-84201000D01*
X162941000Y-84201000D01*
X162941000Y-85560217D01*
X163173026Y-85681358D01*
X163188791Y-85678709D01*
X163716036Y-85424732D01*
X164105954Y-84988320D01*
X164299184Y-84435913D01*
X164154924Y-84201000D01*
X162941000Y-84201000D01*
X162687000Y-84201000D01*
X162667000Y-84201000D01*
X162667000Y-83947000D01*
X162687000Y-83947000D01*
X162687000Y-82587783D01*
X162941000Y-82587783D01*
X162941000Y-83947000D01*
X164154924Y-83947000D01*
X164299184Y-83712087D01*
X164105954Y-83159680D01*
X163716036Y-82723268D01*
X163188791Y-82469291D01*
X163173026Y-82466642D01*
X162941000Y-82587783D01*
X162687000Y-82587783D01*
X162454974Y-82466642D01*
X162439209Y-82469291D01*
X161911964Y-82723268D01*
X161540461Y-83139069D01*
X161333670Y-82829585D01*
X160847489Y-82504729D01*
X160274000Y-82390655D01*
X159700511Y-82504729D01*
X159214330Y-82829585D01*
X159204757Y-82843913D01*
X159200762Y-82822683D01*
X159061690Y-82606559D01*
X158849490Y-82461569D01*
X158597600Y-82410560D01*
X156870400Y-82410560D01*
X156692600Y-82444015D01*
X156692600Y-82129030D01*
X157165566Y-81656064D01*
X204263670Y-81656064D01*
X206248000Y-83640395D01*
X208232330Y-81656064D01*
X207962779Y-81243743D01*
X206846358Y-80783631D01*
X205638843Y-80785779D01*
X204533221Y-81243743D01*
X204263670Y-81656064D01*
X157165566Y-81656064D01*
X161228365Y-77593265D01*
X167258670Y-77593265D01*
X167548078Y-78293686D01*
X168083495Y-78830039D01*
X168783410Y-79120668D01*
X169541265Y-79121330D01*
X170241686Y-78831922D01*
X170778039Y-78296505D01*
X171068668Y-77596590D01*
X171069330Y-76838735D01*
X170779922Y-76138314D01*
X170587944Y-75946000D01*
X172326560Y-75946000D01*
X172326560Y-78486000D01*
X172370838Y-78721317D01*
X172509910Y-78937441D01*
X172722110Y-79082431D01*
X172974000Y-79133440D01*
X175514000Y-79133440D01*
X175749317Y-79089162D01*
X175965441Y-78950090D01*
X176110431Y-78737890D01*
X176161440Y-78486000D01*
X176161440Y-77593265D01*
X177926670Y-77593265D01*
X178216078Y-78293686D01*
X178751495Y-78830039D01*
X179451410Y-79120668D01*
X180209265Y-79121330D01*
X180909686Y-78831922D01*
X181446039Y-78296505D01*
X181736668Y-77596590D01*
X181737330Y-76838735D01*
X181447922Y-76138314D01*
X181255944Y-75946000D01*
X182994560Y-75946000D01*
X182994560Y-78486000D01*
X183038838Y-78721317D01*
X183177910Y-78937441D01*
X183390110Y-79082431D01*
X183642000Y-79133440D01*
X186182000Y-79133440D01*
X186417317Y-79089162D01*
X186633441Y-78950090D01*
X186778431Y-78737890D01*
X186829440Y-78486000D01*
X186829440Y-77593265D01*
X188594670Y-77593265D01*
X188884078Y-78293686D01*
X189419495Y-78830039D01*
X190119410Y-79120668D01*
X190877265Y-79121330D01*
X191577686Y-78831922D01*
X192114039Y-78296505D01*
X192404668Y-77596590D01*
X192405330Y-76838735D01*
X192115922Y-76138314D01*
X191923944Y-75946000D01*
X193662560Y-75946000D01*
X193662560Y-78486000D01*
X193706838Y-78721317D01*
X193845910Y-78937441D01*
X194058110Y-79082431D01*
X194310000Y-79133440D01*
X196850000Y-79133440D01*
X197085317Y-79089162D01*
X197301441Y-78950090D01*
X197446431Y-78737890D01*
X197497440Y-78486000D01*
X197497440Y-77593265D01*
X199262670Y-77593265D01*
X199552078Y-78293686D01*
X200087495Y-78830039D01*
X200787410Y-79120668D01*
X201545265Y-79121330D01*
X202245686Y-78831922D01*
X202782039Y-78296505D01*
X203072668Y-77596590D01*
X203072750Y-77501750D01*
X204343000Y-77501750D01*
X204343000Y-78612310D01*
X204439673Y-78845699D01*
X204618302Y-79024327D01*
X204851691Y-79121000D01*
X205962250Y-79121000D01*
X206121000Y-78962250D01*
X206121000Y-77343000D01*
X206375000Y-77343000D01*
X206375000Y-78962250D01*
X206533750Y-79121000D01*
X207644309Y-79121000D01*
X207877698Y-79024327D01*
X208056327Y-78845699D01*
X208153000Y-78612310D01*
X208153000Y-77501750D01*
X207994250Y-77343000D01*
X206375000Y-77343000D01*
X206121000Y-77343000D01*
X204501750Y-77343000D01*
X204343000Y-77501750D01*
X203072750Y-77501750D01*
X203073330Y-76838735D01*
X202783922Y-76138314D01*
X202465855Y-75819690D01*
X204343000Y-75819690D01*
X204343000Y-76930250D01*
X204501750Y-77089000D01*
X206121000Y-77089000D01*
X206121000Y-75469750D01*
X205962250Y-75311000D01*
X204851691Y-75311000D01*
X204618302Y-75407673D01*
X204439673Y-75586301D01*
X204343000Y-75819690D01*
X202465855Y-75819690D01*
X202248505Y-75601961D01*
X201548590Y-75311332D01*
X200790735Y-75310670D01*
X200090314Y-75600078D01*
X199553961Y-76135495D01*
X199263332Y-76835410D01*
X199262670Y-77593265D01*
X197497440Y-77593265D01*
X197497440Y-75946000D01*
X197453162Y-75710683D01*
X197314090Y-75494559D01*
X197101890Y-75349569D01*
X196850000Y-75298560D01*
X194310000Y-75298560D01*
X194074683Y-75342838D01*
X193858559Y-75481910D01*
X193713569Y-75694110D01*
X193662560Y-75946000D01*
X191923944Y-75946000D01*
X191580505Y-75601961D01*
X190880590Y-75311332D01*
X190122735Y-75310670D01*
X189422314Y-75600078D01*
X188885961Y-76135495D01*
X188595332Y-76835410D01*
X188594670Y-77593265D01*
X186829440Y-77593265D01*
X186829440Y-75946000D01*
X186785162Y-75710683D01*
X186646090Y-75494559D01*
X186433890Y-75349569D01*
X186182000Y-75298560D01*
X183642000Y-75298560D01*
X183406683Y-75342838D01*
X183190559Y-75481910D01*
X183045569Y-75694110D01*
X182994560Y-75946000D01*
X181255944Y-75946000D01*
X180912505Y-75601961D01*
X180212590Y-75311332D01*
X179454735Y-75310670D01*
X178754314Y-75600078D01*
X178217961Y-76135495D01*
X177927332Y-76835410D01*
X177926670Y-77593265D01*
X176161440Y-77593265D01*
X176161440Y-75946000D01*
X176117162Y-75710683D01*
X175978090Y-75494559D01*
X175765890Y-75349569D01*
X175514000Y-75298560D01*
X172974000Y-75298560D01*
X172738683Y-75342838D01*
X172522559Y-75481910D01*
X172377569Y-75694110D01*
X172326560Y-75946000D01*
X170587944Y-75946000D01*
X170244505Y-75601961D01*
X169544590Y-75311332D01*
X168786735Y-75310670D01*
X168086314Y-75600078D01*
X167549961Y-76135495D01*
X167259332Y-76835410D01*
X167258670Y-77593265D01*
X161228365Y-77593265D01*
X164702501Y-74119129D01*
X206340699Y-74119129D01*
X207532570Y-75311000D01*
X206533750Y-75311000D01*
X206375000Y-75469750D01*
X206375000Y-77089000D01*
X207994250Y-77089000D01*
X208153000Y-76930250D01*
X208153000Y-75931430D01*
X210835328Y-78613759D01*
X210723362Y-78883401D01*
X210723038Y-79255367D01*
X210865083Y-79599143D01*
X211127873Y-79862392D01*
X211471401Y-80005038D01*
X211843367Y-80005362D01*
X212187143Y-79863317D01*
X212450392Y-79600527D01*
X212593038Y-79256999D01*
X212593362Y-78885033D01*
X212451317Y-78541257D01*
X212420200Y-78510086D01*
X212420200Y-78359000D01*
X212362196Y-78067395D01*
X212296034Y-77968377D01*
X212197016Y-77820185D01*
X211696067Y-77319237D01*
X211699989Y-77319240D01*
X212484927Y-76994910D01*
X213086000Y-76394886D01*
X213411699Y-75610515D01*
X213412440Y-74761211D01*
X213088110Y-73976273D01*
X212488086Y-73375200D01*
X211703715Y-73049501D01*
X210854411Y-73048760D01*
X210069473Y-73373090D01*
X209468400Y-73973114D01*
X209142701Y-74757485D01*
X209142694Y-74765863D01*
X207195144Y-72818314D01*
X207033041Y-72710000D01*
X213790000Y-72710000D01*
X213790000Y-118899264D01*
M02*
