G04 #@! TF.FileFunction,Legend,Top*
%FSLAX46Y46*%
G04 Gerber Fmt 4.6, Leading zero omitted, Abs format (unit mm)*
G04 Created by KiCad (PCBNEW (2015-09-03 BZR 6154)-product) date 2015 September 07, Monday 13:00:52*
%MOMM*%
G01*
G04 APERTURE LIST*
%ADD10C,0.100000*%
%ADD11C,0.200000*%
%ADD12C,0.150000*%
%ADD13C,0.381000*%
%ADD14C,1.198880*%
%ADD15C,0.112500*%
%ADD16C,0.127000*%
G04 APERTURE END LIST*
D10*
D11*
X160657120Y-117936377D02*
X160657120Y-116736377D01*
X161342835Y-117936377D01*
X161342835Y-116736377D01*
X161914263Y-117307806D02*
X162314263Y-117307806D01*
X162485692Y-117936377D02*
X161914263Y-117936377D01*
X161914263Y-116736377D01*
X162485692Y-116736377D01*
X162828549Y-116736377D02*
X163514263Y-116736377D01*
X163171406Y-117936377D02*
X163171406Y-116736377D01*
X164485692Y-117936377D02*
X163914263Y-117936377D01*
X163914263Y-116736377D01*
X164885692Y-117307806D02*
X165285692Y-117307806D01*
X165457121Y-117936377D02*
X164885692Y-117936377D01*
X164885692Y-116736377D01*
X165457121Y-116736377D01*
X165971406Y-117936377D02*
X165971406Y-116736377D01*
X166257121Y-116736377D01*
X166428549Y-116793520D01*
X166542835Y-116907806D01*
X166599978Y-117022091D01*
X166657121Y-117250663D01*
X166657121Y-117422091D01*
X166599978Y-117650663D01*
X166542835Y-117764949D01*
X166428549Y-117879234D01*
X166257121Y-117936377D01*
X165971406Y-117936377D01*
X167114263Y-117879234D02*
X167285692Y-117936377D01*
X167571406Y-117936377D01*
X167685692Y-117879234D01*
X167742835Y-117822091D01*
X167799978Y-117707806D01*
X167799978Y-117593520D01*
X167742835Y-117479234D01*
X167685692Y-117422091D01*
X167571406Y-117364949D01*
X167342835Y-117307806D01*
X167228549Y-117250663D01*
X167171406Y-117193520D01*
X167114263Y-117079234D01*
X167114263Y-116964949D01*
X167171406Y-116850663D01*
X167228549Y-116793520D01*
X167342835Y-116736377D01*
X167628549Y-116736377D01*
X167799978Y-116793520D01*
X168314263Y-117479234D02*
X169228549Y-117479234D01*
X170028549Y-116736377D02*
X170142834Y-116736377D01*
X170257120Y-116793520D01*
X170314263Y-116850663D01*
X170371406Y-116964949D01*
X170428549Y-117193520D01*
X170428549Y-117479234D01*
X170371406Y-117707806D01*
X170314263Y-117822091D01*
X170257120Y-117879234D01*
X170142834Y-117936377D01*
X170028549Y-117936377D01*
X169914263Y-117879234D01*
X169857120Y-117822091D01*
X169799977Y-117707806D01*
X169742834Y-117479234D01*
X169742834Y-117193520D01*
X169799977Y-116964949D01*
X169857120Y-116850663D01*
X169914263Y-116793520D01*
X170028549Y-116736377D01*
X170942834Y-117822091D02*
X170999977Y-117879234D01*
X170942834Y-117936377D01*
X170885691Y-117879234D01*
X170942834Y-117822091D01*
X170942834Y-117936377D01*
X171571406Y-117936377D02*
X171799978Y-117936377D01*
X171914263Y-117879234D01*
X171971406Y-117822091D01*
X172085692Y-117650663D01*
X172142835Y-117422091D01*
X172142835Y-116964949D01*
X172085692Y-116850663D01*
X172028549Y-116793520D01*
X171914263Y-116736377D01*
X171685692Y-116736377D01*
X171571406Y-116793520D01*
X171514263Y-116850663D01*
X171457120Y-116964949D01*
X171457120Y-117250663D01*
X171514263Y-117364949D01*
X171571406Y-117422091D01*
X171685692Y-117479234D01*
X171914263Y-117479234D01*
X172028549Y-117422091D01*
X172085692Y-117364949D01*
X172142835Y-117250663D01*
X172714263Y-117936377D02*
X172942835Y-117936377D01*
X173057120Y-117879234D01*
X173114263Y-117822091D01*
X173228549Y-117650663D01*
X173285692Y-117422091D01*
X173285692Y-116964949D01*
X173228549Y-116850663D01*
X173171406Y-116793520D01*
X173057120Y-116736377D01*
X172828549Y-116736377D01*
X172714263Y-116793520D01*
X172657120Y-116850663D01*
X172599977Y-116964949D01*
X172599977Y-117250663D01*
X172657120Y-117364949D01*
X172714263Y-117422091D01*
X172828549Y-117479234D01*
X173057120Y-117479234D01*
X173171406Y-117422091D01*
X173228549Y-117364949D01*
X173285692Y-117250663D01*
X173742834Y-117593520D02*
X174314263Y-117593520D01*
X173628549Y-117936377D02*
X174028549Y-116736377D01*
X174428549Y-117936377D01*
X162685691Y-118673520D02*
X162571405Y-118616377D01*
X162399976Y-118616377D01*
X162228548Y-118673520D01*
X162114262Y-118787806D01*
X162057119Y-118902091D01*
X161999976Y-119130663D01*
X161999976Y-119302091D01*
X162057119Y-119530663D01*
X162114262Y-119644949D01*
X162228548Y-119759234D01*
X162399976Y-119816377D01*
X162514262Y-119816377D01*
X162685691Y-119759234D01*
X162742834Y-119702091D01*
X162742834Y-119302091D01*
X162514262Y-119302091D01*
X163257119Y-119816377D02*
X163257119Y-118616377D01*
X163714262Y-118616377D01*
X163828548Y-118673520D01*
X163885691Y-118730663D01*
X163942834Y-118844949D01*
X163942834Y-119016377D01*
X163885691Y-119130663D01*
X163828548Y-119187806D01*
X163714262Y-119244949D01*
X163257119Y-119244949D01*
X165028548Y-119816377D02*
X164457119Y-119816377D01*
X164457119Y-118616377D01*
X165314263Y-119016377D02*
X165599977Y-119816377D01*
X165885691Y-119016377D01*
X166228549Y-118616377D02*
X166971406Y-118616377D01*
X166571406Y-119073520D01*
X166742834Y-119073520D01*
X166857120Y-119130663D01*
X166914263Y-119187806D01*
X166971406Y-119302091D01*
X166971406Y-119587806D01*
X166914263Y-119702091D01*
X166857120Y-119759234D01*
X166742834Y-119816377D01*
X166399977Y-119816377D01*
X166285691Y-119759234D01*
X166228549Y-119702091D01*
X168628549Y-118616377D02*
X168857120Y-118616377D01*
X168971406Y-118673520D01*
X169085692Y-118787806D01*
X169142834Y-119016377D01*
X169142834Y-119416377D01*
X169085692Y-119644949D01*
X168971406Y-119759234D01*
X168857120Y-119816377D01*
X168628549Y-119816377D01*
X168514263Y-119759234D01*
X168399977Y-119644949D01*
X168342834Y-119416377D01*
X168342834Y-119016377D01*
X168399977Y-118787806D01*
X168514263Y-118673520D01*
X168628549Y-118616377D01*
X169599977Y-119759234D02*
X169771406Y-119816377D01*
X170057120Y-119816377D01*
X170171406Y-119759234D01*
X170228549Y-119702091D01*
X170285692Y-119587806D01*
X170285692Y-119473520D01*
X170228549Y-119359234D01*
X170171406Y-119302091D01*
X170057120Y-119244949D01*
X169828549Y-119187806D01*
X169714263Y-119130663D01*
X169657120Y-119073520D01*
X169599977Y-118959234D01*
X169599977Y-118844949D01*
X169657120Y-118730663D01*
X169714263Y-118673520D01*
X169828549Y-118616377D01*
X170114263Y-118616377D01*
X170285692Y-118673520D01*
X170799977Y-119816377D02*
X170799977Y-118616377D01*
X170799977Y-119187806D02*
X171485692Y-119187806D01*
X171485692Y-119816377D02*
X171485692Y-118616377D01*
X171942835Y-118616377D02*
X172228549Y-119816377D01*
X172457120Y-118959234D01*
X172685692Y-119816377D01*
X172971406Y-118616377D01*
D12*
X209697578Y-84212385D02*
X209240435Y-84212385D01*
X209469006Y-84212385D02*
X209469006Y-83412385D01*
X209392816Y-83526670D01*
X209316625Y-83602861D01*
X209240435Y-83640956D01*
X210383292Y-83679051D02*
X210383292Y-84212385D01*
X210192816Y-83374290D02*
X210002340Y-83945718D01*
X210497578Y-83945718D01*
X210802340Y-84136194D02*
X210840435Y-84174290D01*
X210802340Y-84212385D01*
X210764245Y-84174290D01*
X210802340Y-84136194D01*
X210802340Y-84212385D01*
X211183292Y-84136194D02*
X211221387Y-84174290D01*
X211183292Y-84212385D01*
X211145197Y-84174290D01*
X211183292Y-84136194D01*
X211183292Y-84212385D01*
X211945197Y-83412385D02*
X211564244Y-83412385D01*
X211526149Y-83793337D01*
X211564244Y-83755242D01*
X211640435Y-83717147D01*
X211830911Y-83717147D01*
X211907101Y-83755242D01*
X211945197Y-83793337D01*
X211983292Y-83869528D01*
X211983292Y-84060004D01*
X211945197Y-84136194D01*
X211907101Y-84174290D01*
X211830911Y-84212385D01*
X211640435Y-84212385D01*
X211564244Y-84174290D01*
X211526149Y-84136194D01*
X212211863Y-83412385D02*
X212478530Y-84212385D01*
X212745197Y-83412385D01*
X213011863Y-84212385D02*
X213011863Y-83412385D01*
X213202339Y-83412385D01*
X213316625Y-83450480D01*
X213392816Y-83526670D01*
X213430911Y-83602861D01*
X213469006Y-83755242D01*
X213469006Y-83869528D01*
X213430911Y-84021909D01*
X213392816Y-84098099D01*
X213316625Y-84174290D01*
X213202339Y-84212385D01*
X213011863Y-84212385D01*
X214269006Y-84136194D02*
X214230911Y-84174290D01*
X214116625Y-84212385D01*
X214040435Y-84212385D01*
X213926149Y-84174290D01*
X213849958Y-84098099D01*
X213811863Y-84021909D01*
X213773768Y-83869528D01*
X213773768Y-83755242D01*
X213811863Y-83602861D01*
X213849958Y-83526670D01*
X213926149Y-83450480D01*
X214040435Y-83412385D01*
X214116625Y-83412385D01*
X214230911Y-83450480D01*
X214269006Y-83488575D01*
X199273067Y-72892929D02*
X200034972Y-72892929D01*
X199654020Y-73273881D02*
X199654020Y-72511976D01*
X201034972Y-73273881D02*
X200463543Y-73273881D01*
X200749257Y-73273881D02*
X200749257Y-72273881D01*
X200654019Y-72416738D01*
X200558781Y-72511976D01*
X200463543Y-72559595D01*
X201892115Y-72607214D02*
X201892115Y-73273881D01*
X201654019Y-72226262D02*
X201415924Y-72940548D01*
X202034972Y-72940548D01*
X202415924Y-73178643D02*
X202463543Y-73226262D01*
X202415924Y-73273881D01*
X202368305Y-73226262D01*
X202415924Y-73178643D01*
X202415924Y-73273881D01*
X202892114Y-73178643D02*
X202939733Y-73226262D01*
X202892114Y-73273881D01*
X202844495Y-73226262D01*
X202892114Y-73178643D01*
X202892114Y-73273881D01*
X203844495Y-72273881D02*
X203368304Y-72273881D01*
X203320685Y-72750071D01*
X203368304Y-72702452D01*
X203463542Y-72654833D01*
X203701638Y-72654833D01*
X203796876Y-72702452D01*
X203844495Y-72750071D01*
X203892114Y-72845310D01*
X203892114Y-73083405D01*
X203844495Y-73178643D01*
X203796876Y-73226262D01*
X203701638Y-73273881D01*
X203463542Y-73273881D01*
X203368304Y-73226262D01*
X203320685Y-73178643D01*
X204177828Y-72273881D02*
X204511161Y-73273881D01*
X204844495Y-72273881D01*
X205177828Y-73273881D02*
X205177828Y-72273881D01*
X205415923Y-72273881D01*
X205558781Y-72321500D01*
X205654019Y-72416738D01*
X205701638Y-72511976D01*
X205749257Y-72702452D01*
X205749257Y-72845310D01*
X205701638Y-73035786D01*
X205654019Y-73131024D01*
X205558781Y-73226262D01*
X205415923Y-73273881D01*
X205177828Y-73273881D01*
X206749257Y-73178643D02*
X206701638Y-73226262D01*
X206558781Y-73273881D01*
X206463543Y-73273881D01*
X206320685Y-73226262D01*
X206225447Y-73131024D01*
X206177828Y-73035786D01*
X206130209Y-72845310D01*
X206130209Y-72702452D01*
X206177828Y-72511976D01*
X206225447Y-72416738D01*
X206320685Y-72321500D01*
X206463543Y-72273881D01*
X206558781Y-72273881D01*
X206701638Y-72321500D01*
X206749257Y-72369119D01*
X207177828Y-72892929D02*
X207939733Y-72892929D01*
X189801881Y-73197981D02*
X189325690Y-73197981D01*
X189325690Y-72197981D01*
X190659024Y-73197981D02*
X190087595Y-73197981D01*
X190373309Y-73197981D02*
X190373309Y-72197981D01*
X190278071Y-72340838D01*
X190182833Y-72436076D01*
X190087595Y-72483695D01*
X191087595Y-72817029D02*
X191849500Y-72817029D01*
X194325691Y-73197981D02*
X193849500Y-73197981D01*
X193849500Y-72197981D01*
X195182834Y-73197981D02*
X194611405Y-73197981D01*
X194897119Y-73197981D02*
X194897119Y-72197981D01*
X194801881Y-72340838D01*
X194706643Y-72436076D01*
X194611405Y-72483695D01*
X195611405Y-72817029D02*
X196373310Y-72817029D01*
X195992358Y-73197981D02*
X195992358Y-72436076D01*
X179552981Y-73197981D02*
X179076790Y-73197981D01*
X179076790Y-72197981D01*
X179838695Y-72293219D02*
X179886314Y-72245600D01*
X179981552Y-72197981D01*
X180219648Y-72197981D01*
X180314886Y-72245600D01*
X180362505Y-72293219D01*
X180410124Y-72388457D01*
X180410124Y-72483695D01*
X180362505Y-72626552D01*
X179791076Y-73197981D01*
X180410124Y-73197981D01*
X180838695Y-72817029D02*
X181600600Y-72817029D01*
X184076791Y-73197981D02*
X183600600Y-73197981D01*
X183600600Y-72197981D01*
X184362505Y-72293219D02*
X184410124Y-72245600D01*
X184505362Y-72197981D01*
X184743458Y-72197981D01*
X184838696Y-72245600D01*
X184886315Y-72293219D01*
X184933934Y-72388457D01*
X184933934Y-72483695D01*
X184886315Y-72626552D01*
X184314886Y-73197981D01*
X184933934Y-73197981D01*
X185362505Y-72817029D02*
X186124410Y-72817029D01*
X185743458Y-73197981D02*
X185743458Y-72436076D01*
X168681781Y-73248781D02*
X168205590Y-73248781D01*
X168205590Y-72248781D01*
X168919876Y-72248781D02*
X169538924Y-72248781D01*
X169205590Y-72629733D01*
X169348448Y-72629733D01*
X169443686Y-72677352D01*
X169491305Y-72724971D01*
X169538924Y-72820210D01*
X169538924Y-73058305D01*
X169491305Y-73153543D01*
X169443686Y-73201162D01*
X169348448Y-73248781D01*
X169062733Y-73248781D01*
X168967495Y-73201162D01*
X168919876Y-73153543D01*
X169967495Y-72867829D02*
X170729400Y-72867829D01*
X173205591Y-73248781D02*
X172729400Y-73248781D01*
X172729400Y-72248781D01*
X173443686Y-72248781D02*
X174062734Y-72248781D01*
X173729400Y-72629733D01*
X173872258Y-72629733D01*
X173967496Y-72677352D01*
X174015115Y-72724971D01*
X174062734Y-72820210D01*
X174062734Y-73058305D01*
X174015115Y-73153543D01*
X173967496Y-73201162D01*
X173872258Y-73248781D01*
X173586543Y-73248781D01*
X173491305Y-73201162D01*
X173443686Y-73153543D01*
X174491305Y-72867829D02*
X175253210Y-72867829D01*
X174872258Y-73248781D02*
X174872258Y-72486876D01*
D13*
X198236840Y-110746540D02*
X199138540Y-109844840D01*
X205638400Y-109844840D02*
X206537560Y-110746540D01*
X206537560Y-118145560D02*
X198239380Y-118145560D01*
X206540100Y-110746540D02*
X206540100Y-118145560D01*
X205638400Y-109844840D02*
X199143620Y-109844840D01*
X198241920Y-110744000D02*
X198241920Y-118145560D01*
X206438823Y-114046000D02*
G75*
G03X206438823Y-114046000I-4000823J0D01*
G01*
D12*
X211333600Y-93837200D02*
X212033600Y-93837200D01*
X212033600Y-95037200D02*
X211333600Y-95037200D01*
X195155300Y-96904100D02*
X194455300Y-96904100D01*
X194455300Y-95704100D02*
X195155300Y-95704100D01*
X191614500Y-92806000D02*
X191614500Y-92106000D01*
X192814500Y-92106000D02*
X192814500Y-92806000D01*
X180756000Y-92806000D02*
X180756000Y-92106000D01*
X181956000Y-92106000D02*
X181956000Y-92806000D01*
X167802000Y-92540000D02*
X167802000Y-91840000D01*
X169002000Y-91840000D02*
X169002000Y-92540000D01*
X189646000Y-92806000D02*
X189646000Y-92106000D01*
X190846000Y-92106000D02*
X190846000Y-92806000D01*
X178724000Y-92806000D02*
X178724000Y-92106000D01*
X179924000Y-92106000D02*
X179924000Y-92806000D01*
X169834000Y-92552000D02*
X169834000Y-91852000D01*
X171034000Y-91852000D02*
X171034000Y-92552000D01*
X192956000Y-81950000D02*
X193656000Y-81950000D01*
X193656000Y-83150000D02*
X192956000Y-83150000D01*
X182264000Y-81950000D02*
X182964000Y-81950000D01*
X182964000Y-83150000D02*
X182264000Y-83150000D01*
X171100000Y-81950000D02*
X171800000Y-81950000D01*
X171800000Y-83150000D02*
X171100000Y-83150000D01*
D13*
X156974540Y-94371160D02*
X156072840Y-93469460D01*
X156072840Y-86969600D02*
X156974540Y-86070440D01*
X164373560Y-86070440D02*
X164373560Y-94368620D01*
X156974540Y-86067900D02*
X164373560Y-86067900D01*
X156072840Y-86969600D02*
X156072840Y-93464380D01*
X156972000Y-94366080D02*
X164373560Y-94366080D01*
X164274823Y-90170000D02*
G75*
G03X164274823Y-90170000I-4000823J0D01*
G01*
D12*
X215646000Y-93218000D02*
X216408000Y-93218000D01*
X216408000Y-93218000D02*
X216408000Y-84582000D01*
X216408000Y-84582000D02*
X215646000Y-84582000D01*
X212598000Y-93218000D02*
X212598000Y-84582000D01*
X202946000Y-93218000D02*
X202946000Y-84582000D01*
X215646000Y-84582000D02*
X202946000Y-84582000D01*
X215646000Y-93218000D02*
X202946000Y-93218000D01*
X195905300Y-97786100D02*
X194005300Y-97786100D01*
X195905300Y-98886100D02*
X194005300Y-98886100D01*
X195005300Y-98336100D02*
X194555300Y-98336100D01*
X195055300Y-98586100D02*
X195055300Y-98086100D01*
X195055300Y-98336100D02*
X194805300Y-98586100D01*
X194805300Y-98586100D02*
X194805300Y-98086100D01*
X194805300Y-98086100D02*
X195055300Y-98336100D01*
X157226000Y-104965500D02*
X157226000Y-94805500D01*
X155956000Y-104965500D02*
X163576000Y-104965500D01*
X163576000Y-104965500D02*
X163576000Y-94805500D01*
X163576000Y-94805500D02*
X155956000Y-94805500D01*
X155956000Y-94805500D02*
X155956000Y-104965500D01*
X198628000Y-74676000D02*
X208788000Y-74676000D01*
X198628000Y-73406000D02*
X198628000Y-81026000D01*
X198628000Y-81026000D02*
X208788000Y-81026000D01*
X208788000Y-81026000D02*
X208788000Y-73406000D01*
X208788000Y-73406000D02*
X198628000Y-73406000D01*
X164515200Y-99187000D02*
X164515200Y-97637000D01*
X164515200Y-97637000D02*
X167615200Y-97637000D01*
X167615200Y-97637000D02*
X167615200Y-99187000D01*
X167335200Y-100457000D02*
X167335200Y-110617000D01*
X167335200Y-110617000D02*
X164795200Y-110617000D01*
X164795200Y-110617000D02*
X164795200Y-100457000D01*
X167335200Y-100457000D02*
X164795200Y-100457000D01*
X199898000Y-102870000D02*
X199898000Y-107950000D01*
X199898000Y-107950000D02*
X202438000Y-107950000D01*
X202438000Y-107950000D02*
X202438000Y-102870000D01*
X202718000Y-100050000D02*
X202718000Y-101600000D01*
X202438000Y-102870000D02*
X199898000Y-102870000D01*
X199618000Y-101600000D02*
X199618000Y-100050000D01*
X199618000Y-100050000D02*
X202718000Y-100050000D01*
X156184000Y-85374000D02*
X157734000Y-85374000D01*
X156184000Y-84074000D02*
X156184000Y-85374000D01*
X157607000Y-79883000D02*
X157607000Y-74041000D01*
X157607000Y-74041000D02*
X157861000Y-74041000D01*
X157861000Y-74041000D02*
X157861000Y-79883000D01*
X157861000Y-79883000D02*
X157734000Y-79883000D01*
X157734000Y-79883000D02*
X157734000Y-74041000D01*
X157480000Y-82550000D02*
X157480000Y-82931000D01*
X157988000Y-82550000D02*
X157988000Y-82931000D01*
X160020000Y-82550000D02*
X160020000Y-82931000D01*
X160528000Y-82550000D02*
X160528000Y-82931000D01*
X162560000Y-82550000D02*
X162560000Y-82931000D01*
X163068000Y-82550000D02*
X163068000Y-82931000D01*
X159004000Y-80010000D02*
X156464000Y-80010000D01*
X157988000Y-73914000D02*
X157988000Y-80010000D01*
X157480000Y-73914000D02*
X157988000Y-73914000D01*
X157480000Y-80010000D02*
X157480000Y-73914000D01*
X159004000Y-82550000D02*
X159004000Y-80010000D01*
X156464000Y-82550000D02*
X159004000Y-82550000D01*
X156464000Y-82550000D02*
X156464000Y-80010000D01*
X161544000Y-82550000D02*
X161544000Y-80010000D01*
X161544000Y-82550000D02*
X164084000Y-82550000D01*
X162560000Y-80010000D02*
X162560000Y-73914000D01*
X162560000Y-73914000D02*
X163068000Y-73914000D01*
X163068000Y-73914000D02*
X163068000Y-80010000D01*
X164084000Y-80010000D02*
X161544000Y-80010000D01*
X161544000Y-80010000D02*
X159004000Y-80010000D01*
X160528000Y-73914000D02*
X160528000Y-80010000D01*
X160020000Y-73914000D02*
X160528000Y-73914000D01*
X160020000Y-80010000D02*
X160020000Y-73914000D01*
X161544000Y-82550000D02*
X161544000Y-80010000D01*
X159004000Y-82550000D02*
X161544000Y-82550000D01*
X159004000Y-82550000D02*
X159004000Y-80010000D01*
X164084000Y-82550000D02*
X164084000Y-80010000D01*
X187960000Y-74676000D02*
X198120000Y-74676000D01*
X187960000Y-73406000D02*
X187960000Y-81026000D01*
X187960000Y-81026000D02*
X198120000Y-81026000D01*
X198120000Y-81026000D02*
X198120000Y-73406000D01*
X198120000Y-73406000D02*
X187960000Y-73406000D01*
X177292000Y-74676000D02*
X187452000Y-74676000D01*
X177292000Y-73406000D02*
X177292000Y-81026000D01*
X177292000Y-81026000D02*
X187452000Y-81026000D01*
X187452000Y-81026000D02*
X187452000Y-73406000D01*
X187452000Y-73406000D02*
X177292000Y-73406000D01*
X166624000Y-74676000D02*
X176784000Y-74676000D01*
X166624000Y-73406000D02*
X166624000Y-81026000D01*
X166624000Y-81026000D02*
X176784000Y-81026000D01*
X176784000Y-81026000D02*
X176784000Y-73406000D01*
X176784000Y-73406000D02*
X166624000Y-73406000D01*
X198628000Y-85471000D02*
X198628000Y-88900000D01*
X188976000Y-85471000D02*
X188976000Y-88900000D01*
X199136000Y-84328000D02*
X188468000Y-84328000D01*
X195580000Y-85344000D02*
X195580000Y-84074000D01*
X192024000Y-85344000D02*
X192024000Y-84074000D01*
X188468000Y-85471000D02*
X199136000Y-85471000D01*
X199136000Y-88900000D02*
X188468000Y-88900000D01*
X188468000Y-84074000D02*
X188468000Y-88900000D01*
X199136000Y-84074000D02*
X199136000Y-88900000D01*
X199136000Y-84074000D02*
X188468000Y-84074000D01*
X187452000Y-85471000D02*
X187452000Y-88900000D01*
X177800000Y-85471000D02*
X177800000Y-88900000D01*
X187960000Y-84328000D02*
X177292000Y-84328000D01*
X184404000Y-85344000D02*
X184404000Y-84074000D01*
X180848000Y-85344000D02*
X180848000Y-84074000D01*
X177292000Y-85471000D02*
X187960000Y-85471000D01*
X187960000Y-88900000D02*
X177292000Y-88900000D01*
X177292000Y-84074000D02*
X177292000Y-88900000D01*
X187960000Y-84074000D02*
X187960000Y-88900000D01*
X187960000Y-84074000D02*
X177292000Y-84074000D01*
X176276000Y-85471000D02*
X176276000Y-88900000D01*
X166624000Y-85471000D02*
X166624000Y-88900000D01*
X176784000Y-84328000D02*
X166116000Y-84328000D01*
X173228000Y-85344000D02*
X173228000Y-84074000D01*
X169672000Y-85344000D02*
X169672000Y-84074000D01*
X166116000Y-85471000D02*
X176784000Y-85471000D01*
X176784000Y-88900000D02*
X166116000Y-88900000D01*
X166116000Y-84074000D02*
X166116000Y-88900000D01*
X176784000Y-84074000D02*
X176784000Y-88900000D01*
X176784000Y-84074000D02*
X166116000Y-84074000D01*
X171035600Y-101513000D02*
X170035600Y-101513000D01*
X170035600Y-100163000D02*
X171035600Y-100163000D01*
X170996800Y-99684200D02*
X169996800Y-99684200D01*
X169996800Y-98334200D02*
X170996800Y-98334200D01*
X170997500Y-105361100D02*
X169997500Y-105361100D01*
X169997500Y-104011100D02*
X170997500Y-104011100D01*
X170997500Y-111203100D02*
X169997500Y-111203100D01*
X169997500Y-109853100D02*
X170997500Y-109853100D01*
X170997500Y-113235100D02*
X169997500Y-113235100D01*
X169997500Y-111885100D02*
X170997500Y-111885100D01*
X165960680Y-115173120D02*
X164960680Y-115173120D01*
X164960680Y-113823120D02*
X165960680Y-113823120D01*
X194305300Y-105789100D02*
X195305300Y-105789100D01*
X195305300Y-107139100D02*
X194305300Y-107139100D01*
X195305300Y-113235100D02*
X194305300Y-113235100D01*
X194305300Y-111885100D02*
X195305300Y-111885100D01*
X194293300Y-99693100D02*
X195293300Y-99693100D01*
X195293300Y-101043100D02*
X194293300Y-101043100D01*
X194305300Y-101725100D02*
X195305300Y-101725100D01*
X195305300Y-103075100D02*
X194305300Y-103075100D01*
X194317300Y-107821100D02*
X195317300Y-107821100D01*
X195317300Y-109171100D02*
X194317300Y-109171100D01*
X203287000Y-105402000D02*
X203287000Y-104402000D01*
X204637000Y-104402000D02*
X204637000Y-105402000D01*
X197927600Y-93108400D02*
X197927600Y-92108400D01*
X199277600Y-92108400D02*
X199277600Y-93108400D01*
X186929400Y-93057600D02*
X186929400Y-92057600D01*
X188279400Y-92057600D02*
X188279400Y-93057600D01*
X175829600Y-92930600D02*
X175829600Y-91930600D01*
X177179600Y-91930600D02*
X177179600Y-92930600D01*
X162242500Y-109855000D02*
G75*
G03X162242500Y-109855000I-2540000J0D01*
G01*
X163512500Y-106045000D02*
X163512500Y-113665000D01*
X163512500Y-113665000D02*
X155892500Y-113665000D01*
X155892500Y-113665000D02*
X155892500Y-106045000D01*
X163512500Y-106045000D02*
X155892500Y-106045000D01*
X195296000Y-90819500D02*
G75*
G03X195296000Y-90819500I-100000J0D01*
G01*
X195746000Y-91069500D02*
X195246000Y-91069500D01*
X195746000Y-93969500D02*
X195746000Y-91069500D01*
X195246000Y-93969500D02*
X195746000Y-93969500D01*
X195246000Y-91069500D02*
X195246000Y-93969500D01*
X184374000Y-90756000D02*
G75*
G03X184374000Y-90756000I-100000J0D01*
G01*
X184824000Y-91006000D02*
X184324000Y-91006000D01*
X184824000Y-93906000D02*
X184824000Y-91006000D01*
X184324000Y-93906000D02*
X184824000Y-93906000D01*
X184324000Y-91006000D02*
X184324000Y-93906000D01*
X173366000Y-90690000D02*
G75*
G03X173366000Y-90690000I-100000J0D01*
G01*
X173816000Y-90940000D02*
X173316000Y-90940000D01*
X173816000Y-93840000D02*
X173816000Y-90940000D01*
X173316000Y-93840000D02*
X173816000Y-93840000D01*
X173316000Y-90940000D02*
X173316000Y-93840000D01*
D14*
X213464004Y-118008400D02*
G75*
G03X213464004Y-118008400I-2186804J0D01*
G01*
X159666804Y-75438000D02*
G75*
G03X159666804Y-75438000I-2186804J0D01*
G01*
X159666804Y-118110000D02*
G75*
G03X159666804Y-118110000I-2186804J0D01*
G01*
X213464004Y-75184000D02*
G75*
G03X213464004Y-75184000I-2186804J0D01*
G01*
D12*
X210032600Y-102920800D02*
X213080600Y-102920800D01*
X213080600Y-102920800D02*
X213080600Y-95808800D01*
X213080600Y-95808800D02*
X210032600Y-95808800D01*
X206984600Y-102920800D02*
X206222600Y-102920800D01*
X206222600Y-102920800D02*
X203936600Y-101396800D01*
X203936600Y-101396800D02*
X203936600Y-97332800D01*
X203936600Y-97332800D02*
X206222600Y-95808800D01*
X206222600Y-95808800D02*
X206984600Y-95808800D01*
X209677000Y-104140000D02*
X213106000Y-104140000D01*
X209677000Y-113792000D02*
X213106000Y-113792000D01*
X208534000Y-103632000D02*
X208534000Y-114300000D01*
X209550000Y-107188000D02*
X208280000Y-107188000D01*
X209550000Y-110744000D02*
X208280000Y-110744000D01*
X209677000Y-114300000D02*
X209677000Y-103632000D01*
X213106000Y-103632000D02*
X213106000Y-114300000D01*
X208280000Y-114300000D02*
X213106000Y-114300000D01*
X208280000Y-103632000D02*
X213106000Y-103632000D01*
X208280000Y-103632000D02*
X208280000Y-114300000D01*
X170984800Y-107228000D02*
X169984800Y-107228000D01*
X169984800Y-105878000D02*
X170984800Y-105878000D01*
X171035600Y-103392600D02*
X170035600Y-103392600D01*
X170035600Y-102042600D02*
X171035600Y-102042600D01*
X211658200Y-80725200D02*
X211658200Y-80475200D01*
X211658200Y-81225200D02*
X211658200Y-81475200D01*
X211658200Y-81225200D02*
X211308200Y-80725200D01*
X211308200Y-80725200D02*
X212008200Y-80725200D01*
X212008200Y-80725200D02*
X211658200Y-81225200D01*
X211308200Y-81225200D02*
X212008200Y-81225200D01*
X212458200Y-82275200D02*
X212458200Y-79875200D01*
X210858200Y-82275200D02*
X210858200Y-79875200D01*
X197851400Y-102862000D02*
X197851400Y-101862000D01*
X199201400Y-101862000D02*
X199201400Y-102862000D01*
X197826000Y-106418000D02*
X197826000Y-105418000D01*
X199176000Y-105418000D02*
X199176000Y-106418000D01*
D15*
X197994201Y-109969586D02*
X197972772Y-110003490D01*
X197908486Y-110037395D01*
X197865629Y-110037395D01*
X197801344Y-110003490D01*
X197758486Y-109935681D01*
X197737058Y-109867871D01*
X197715629Y-109732252D01*
X197715629Y-109630538D01*
X197737058Y-109494919D01*
X197758486Y-109427110D01*
X197801344Y-109359300D01*
X197865629Y-109325395D01*
X197908486Y-109325395D01*
X197972772Y-109359300D01*
X197994201Y-109393205D01*
X198422772Y-110037395D02*
X198165629Y-110037395D01*
X198294201Y-110037395D02*
X198294201Y-109325395D01*
X198251344Y-109427110D01*
X198208486Y-109494919D01*
X198165629Y-109528824D01*
D16*
D15*
X209640101Y-94666086D02*
X209618672Y-94699990D01*
X209554386Y-94733895D01*
X209511529Y-94733895D01*
X209447244Y-94699990D01*
X209404386Y-94632181D01*
X209382958Y-94564371D01*
X209361529Y-94428752D01*
X209361529Y-94327038D01*
X209382958Y-94191419D01*
X209404386Y-94123610D01*
X209447244Y-94055800D01*
X209511529Y-94021895D01*
X209554386Y-94021895D01*
X209618672Y-94055800D01*
X209640101Y-94089705D01*
X209811529Y-94089705D02*
X209832958Y-94055800D01*
X209875815Y-94021895D01*
X209982958Y-94021895D01*
X210025815Y-94055800D01*
X210047244Y-94089705D01*
X210068672Y-94157514D01*
X210068672Y-94225324D01*
X210047244Y-94327038D01*
X209790101Y-94733895D01*
X210068672Y-94733895D01*
D16*
D15*
X196686101Y-96583786D02*
X196664672Y-96617690D01*
X196600386Y-96651595D01*
X196557529Y-96651595D01*
X196493244Y-96617690D01*
X196450386Y-96549881D01*
X196428958Y-96482071D01*
X196407529Y-96346452D01*
X196407529Y-96244738D01*
X196428958Y-96109119D01*
X196450386Y-96041310D01*
X196493244Y-95973500D01*
X196557529Y-95939595D01*
X196600386Y-95939595D01*
X196664672Y-95973500D01*
X196686101Y-96007405D01*
X197071815Y-95939595D02*
X196986101Y-95939595D01*
X196943244Y-95973500D01*
X196921815Y-96007405D01*
X196878958Y-96109119D01*
X196857529Y-96244738D01*
X196857529Y-96515976D01*
X196878958Y-96583786D01*
X196900386Y-96617690D01*
X196943244Y-96651595D01*
X197028958Y-96651595D01*
X197071815Y-96617690D01*
X197093244Y-96583786D01*
X197114672Y-96515976D01*
X197114672Y-96346452D01*
X197093244Y-96278643D01*
X197071815Y-96244738D01*
X197028958Y-96210833D01*
X196943244Y-96210833D01*
X196900386Y-96244738D01*
X196878958Y-96278643D01*
X196857529Y-96346452D01*
D16*
D15*
X192126801Y-90703686D02*
X192105372Y-90737590D01*
X192041086Y-90771495D01*
X191998229Y-90771495D01*
X191933944Y-90737590D01*
X191891086Y-90669781D01*
X191869658Y-90601971D01*
X191848229Y-90466352D01*
X191848229Y-90364638D01*
X191869658Y-90229019D01*
X191891086Y-90161210D01*
X191933944Y-90093400D01*
X191998229Y-90059495D01*
X192041086Y-90059495D01*
X192105372Y-90093400D01*
X192126801Y-90127305D01*
X192276801Y-90059495D02*
X192576801Y-90059495D01*
X192383944Y-90771495D01*
D16*
D15*
X181281001Y-90602086D02*
X181259572Y-90635990D01*
X181195286Y-90669895D01*
X181152429Y-90669895D01*
X181088144Y-90635990D01*
X181045286Y-90568181D01*
X181023858Y-90500371D01*
X181002429Y-90364752D01*
X181002429Y-90263038D01*
X181023858Y-90127419D01*
X181045286Y-90059610D01*
X181088144Y-89991800D01*
X181152429Y-89957895D01*
X181195286Y-89957895D01*
X181259572Y-89991800D01*
X181281001Y-90025705D01*
X181538144Y-90263038D02*
X181495286Y-90229133D01*
X181473858Y-90195229D01*
X181452429Y-90127419D01*
X181452429Y-90093514D01*
X181473858Y-90025705D01*
X181495286Y-89991800D01*
X181538144Y-89957895D01*
X181623858Y-89957895D01*
X181666715Y-89991800D01*
X181688144Y-90025705D01*
X181709572Y-90093514D01*
X181709572Y-90127419D01*
X181688144Y-90195229D01*
X181666715Y-90229133D01*
X181623858Y-90263038D01*
X181538144Y-90263038D01*
X181495286Y-90296943D01*
X181473858Y-90330848D01*
X181452429Y-90398657D01*
X181452429Y-90534276D01*
X181473858Y-90602086D01*
X181495286Y-90635990D01*
X181538144Y-90669895D01*
X181623858Y-90669895D01*
X181666715Y-90635990D01*
X181688144Y-90602086D01*
X181709572Y-90534276D01*
X181709572Y-90398657D01*
X181688144Y-90330848D01*
X181666715Y-90296943D01*
X181623858Y-90263038D01*
D16*
D15*
X168352401Y-90525886D02*
X168330972Y-90559790D01*
X168266686Y-90593695D01*
X168223829Y-90593695D01*
X168159544Y-90559790D01*
X168116686Y-90491981D01*
X168095258Y-90424171D01*
X168073829Y-90288552D01*
X168073829Y-90186838D01*
X168095258Y-90051219D01*
X168116686Y-89983410D01*
X168159544Y-89915600D01*
X168223829Y-89881695D01*
X168266686Y-89881695D01*
X168330972Y-89915600D01*
X168352401Y-89949505D01*
X168566686Y-90593695D02*
X168652401Y-90593695D01*
X168695258Y-90559790D01*
X168716686Y-90525886D01*
X168759544Y-90424171D01*
X168780972Y-90288552D01*
X168780972Y-90017314D01*
X168759544Y-89949505D01*
X168738115Y-89915600D01*
X168695258Y-89881695D01*
X168609544Y-89881695D01*
X168566686Y-89915600D01*
X168545258Y-89949505D01*
X168523829Y-90017314D01*
X168523829Y-90186838D01*
X168545258Y-90254648D01*
X168566686Y-90288552D01*
X168609544Y-90322457D01*
X168695258Y-90322457D01*
X168738115Y-90288552D01*
X168759544Y-90254648D01*
X168780972Y-90186838D01*
D16*
D15*
X189880515Y-90703686D02*
X189859086Y-90737590D01*
X189794800Y-90771495D01*
X189751943Y-90771495D01*
X189687658Y-90737590D01*
X189644800Y-90669781D01*
X189623372Y-90601971D01*
X189601943Y-90466352D01*
X189601943Y-90364638D01*
X189623372Y-90229019D01*
X189644800Y-90161210D01*
X189687658Y-90093400D01*
X189751943Y-90059495D01*
X189794800Y-90059495D01*
X189859086Y-90093400D01*
X189880515Y-90127305D01*
X190309086Y-90771495D02*
X190051943Y-90771495D01*
X190180515Y-90771495D02*
X190180515Y-90059495D01*
X190137658Y-90161210D01*
X190094800Y-90229019D01*
X190051943Y-90262924D01*
X190587657Y-90059495D02*
X190630514Y-90059495D01*
X190673371Y-90093400D01*
X190694800Y-90127305D01*
X190716229Y-90195114D01*
X190737657Y-90330733D01*
X190737657Y-90500257D01*
X190716229Y-90635876D01*
X190694800Y-90703686D01*
X190673371Y-90737590D01*
X190630514Y-90771495D01*
X190587657Y-90771495D01*
X190544800Y-90737590D01*
X190523371Y-90703686D01*
X190501943Y-90635876D01*
X190480514Y-90500257D01*
X190480514Y-90330733D01*
X190501943Y-90195114D01*
X190523371Y-90127305D01*
X190544800Y-90093400D01*
X190587657Y-90059495D01*
D16*
D15*
X179085515Y-90652886D02*
X179064086Y-90686790D01*
X178999800Y-90720695D01*
X178956943Y-90720695D01*
X178892658Y-90686790D01*
X178849800Y-90618981D01*
X178828372Y-90551171D01*
X178806943Y-90415552D01*
X178806943Y-90313838D01*
X178828372Y-90178219D01*
X178849800Y-90110410D01*
X178892658Y-90042600D01*
X178956943Y-90008695D01*
X178999800Y-90008695D01*
X179064086Y-90042600D01*
X179085515Y-90076505D01*
X179514086Y-90720695D02*
X179256943Y-90720695D01*
X179385515Y-90720695D02*
X179385515Y-90008695D01*
X179342658Y-90110410D01*
X179299800Y-90178219D01*
X179256943Y-90212124D01*
X179942657Y-90720695D02*
X179685514Y-90720695D01*
X179814086Y-90720695D02*
X179814086Y-90008695D01*
X179771229Y-90110410D01*
X179728371Y-90178219D01*
X179685514Y-90212124D01*
D16*
D15*
X170068515Y-90475086D02*
X170047086Y-90508990D01*
X169982800Y-90542895D01*
X169939943Y-90542895D01*
X169875658Y-90508990D01*
X169832800Y-90441181D01*
X169811372Y-90373371D01*
X169789943Y-90237752D01*
X169789943Y-90136038D01*
X169811372Y-90000419D01*
X169832800Y-89932610D01*
X169875658Y-89864800D01*
X169939943Y-89830895D01*
X169982800Y-89830895D01*
X170047086Y-89864800D01*
X170068515Y-89898705D01*
X170497086Y-90542895D02*
X170239943Y-90542895D01*
X170368515Y-90542895D02*
X170368515Y-89830895D01*
X170325658Y-89932610D01*
X170282800Y-90000419D01*
X170239943Y-90034324D01*
X170668514Y-89898705D02*
X170689943Y-89864800D01*
X170732800Y-89830895D01*
X170839943Y-89830895D01*
X170882800Y-89864800D01*
X170904229Y-89898705D01*
X170925657Y-89966514D01*
X170925657Y-90034324D01*
X170904229Y-90136038D01*
X170647086Y-90542895D01*
X170925657Y-90542895D01*
D16*
D15*
X195214515Y-82829686D02*
X195193086Y-82863590D01*
X195128800Y-82897495D01*
X195085943Y-82897495D01*
X195021658Y-82863590D01*
X194978800Y-82795781D01*
X194957372Y-82727971D01*
X194935943Y-82592352D01*
X194935943Y-82490638D01*
X194957372Y-82355019D01*
X194978800Y-82287210D01*
X195021658Y-82219400D01*
X195085943Y-82185495D01*
X195128800Y-82185495D01*
X195193086Y-82219400D01*
X195214515Y-82253305D01*
X195643086Y-82897495D02*
X195385943Y-82897495D01*
X195514515Y-82897495D02*
X195514515Y-82185495D01*
X195471658Y-82287210D01*
X195428800Y-82355019D01*
X195385943Y-82388924D01*
X195793086Y-82185495D02*
X196071657Y-82185495D01*
X195921657Y-82456733D01*
X195985943Y-82456733D01*
X196028800Y-82490638D01*
X196050229Y-82524543D01*
X196071657Y-82592352D01*
X196071657Y-82761876D01*
X196050229Y-82829686D01*
X196028800Y-82863590D01*
X195985943Y-82897495D01*
X195857371Y-82897495D01*
X195814514Y-82863590D01*
X195793086Y-82829686D01*
D16*
D15*
X184724315Y-82880486D02*
X184702886Y-82914390D01*
X184638600Y-82948295D01*
X184595743Y-82948295D01*
X184531458Y-82914390D01*
X184488600Y-82846581D01*
X184467172Y-82778771D01*
X184445743Y-82643152D01*
X184445743Y-82541438D01*
X184467172Y-82405819D01*
X184488600Y-82338010D01*
X184531458Y-82270200D01*
X184595743Y-82236295D01*
X184638600Y-82236295D01*
X184702886Y-82270200D01*
X184724315Y-82304105D01*
X185152886Y-82948295D02*
X184895743Y-82948295D01*
X185024315Y-82948295D02*
X185024315Y-82236295D01*
X184981458Y-82338010D01*
X184938600Y-82405819D01*
X184895743Y-82439724D01*
X185538600Y-82473629D02*
X185538600Y-82948295D01*
X185431457Y-82202390D02*
X185324314Y-82710962D01*
X185602886Y-82710962D01*
D16*
D15*
X173395915Y-82829686D02*
X173374486Y-82863590D01*
X173310200Y-82897495D01*
X173267343Y-82897495D01*
X173203058Y-82863590D01*
X173160200Y-82795781D01*
X173138772Y-82727971D01*
X173117343Y-82592352D01*
X173117343Y-82490638D01*
X173138772Y-82355019D01*
X173160200Y-82287210D01*
X173203058Y-82219400D01*
X173267343Y-82185495D01*
X173310200Y-82185495D01*
X173374486Y-82219400D01*
X173395915Y-82253305D01*
X173824486Y-82897495D02*
X173567343Y-82897495D01*
X173695915Y-82897495D02*
X173695915Y-82185495D01*
X173653058Y-82287210D01*
X173610200Y-82355019D01*
X173567343Y-82388924D01*
X174231629Y-82185495D02*
X174017343Y-82185495D01*
X173995914Y-82524543D01*
X174017343Y-82490638D01*
X174060200Y-82456733D01*
X174167343Y-82456733D01*
X174210200Y-82490638D01*
X174231629Y-82524543D01*
X174253057Y-82592352D01*
X174253057Y-82761876D01*
X174231629Y-82829686D01*
X174210200Y-82863590D01*
X174167343Y-82897495D01*
X174060200Y-82897495D01*
X174017343Y-82863590D01*
X173995914Y-82829686D01*
D16*
D15*
X165039315Y-94208886D02*
X165017886Y-94242790D01*
X164953600Y-94276695D01*
X164910743Y-94276695D01*
X164846458Y-94242790D01*
X164803600Y-94174981D01*
X164782172Y-94107171D01*
X164760743Y-93971552D01*
X164760743Y-93869838D01*
X164782172Y-93734219D01*
X164803600Y-93666410D01*
X164846458Y-93598600D01*
X164910743Y-93564695D01*
X164953600Y-93564695D01*
X165017886Y-93598600D01*
X165039315Y-93632505D01*
X165467886Y-94276695D02*
X165210743Y-94276695D01*
X165339315Y-94276695D02*
X165339315Y-93564695D01*
X165296458Y-93666410D01*
X165253600Y-93734219D01*
X165210743Y-93768124D01*
X165853600Y-93564695D02*
X165767886Y-93564695D01*
X165725029Y-93598600D01*
X165703600Y-93632505D01*
X165660743Y-93734219D01*
X165639314Y-93869838D01*
X165639314Y-94141076D01*
X165660743Y-94208886D01*
X165682171Y-94242790D01*
X165725029Y-94276695D01*
X165810743Y-94276695D01*
X165853600Y-94242790D01*
X165875029Y-94208886D01*
X165896457Y-94141076D01*
X165896457Y-93971552D01*
X165875029Y-93903743D01*
X165853600Y-93869838D01*
X165810743Y-93835933D01*
X165725029Y-93835933D01*
X165682171Y-93869838D01*
X165660743Y-93903743D01*
X165639314Y-93971552D01*
D16*
D15*
X203253012Y-94168246D02*
X203231583Y-94202150D01*
X203167297Y-94236055D01*
X203124440Y-94236055D01*
X203060155Y-94202150D01*
X203017297Y-94134341D01*
X202995869Y-94066531D01*
X202974440Y-93930912D01*
X202974440Y-93829198D01*
X202995869Y-93693579D01*
X203017297Y-93625770D01*
X203060155Y-93557960D01*
X203124440Y-93524055D01*
X203167297Y-93524055D01*
X203231583Y-93557960D01*
X203253012Y-93591865D01*
X203531583Y-93524055D02*
X203617297Y-93524055D01*
X203660155Y-93557960D01*
X203703012Y-93625770D01*
X203724440Y-93761389D01*
X203724440Y-93998722D01*
X203703012Y-94134341D01*
X203660155Y-94202150D01*
X203617297Y-94236055D01*
X203531583Y-94236055D01*
X203488726Y-94202150D01*
X203445869Y-94134341D01*
X203424440Y-93998722D01*
X203424440Y-93761389D01*
X203445869Y-93625770D01*
X203488726Y-93557960D01*
X203531583Y-93524055D01*
X203917298Y-94236055D02*
X203917298Y-93524055D01*
X204174441Y-94236055D01*
X204174441Y-93524055D01*
X204624441Y-94236055D02*
X204367298Y-94236055D01*
X204495870Y-94236055D02*
X204495870Y-93524055D01*
X204453013Y-93625770D01*
X204410155Y-93693579D01*
X204367298Y-93727484D01*
D16*
D15*
X196352758Y-98632795D02*
X196352758Y-97920795D01*
X196459901Y-97920795D01*
X196524186Y-97954700D01*
X196567044Y-98022510D01*
X196588472Y-98090319D01*
X196609901Y-98225938D01*
X196609901Y-98327652D01*
X196588472Y-98463271D01*
X196567044Y-98531081D01*
X196524186Y-98598890D01*
X196459901Y-98632795D01*
X196352758Y-98632795D01*
X196995615Y-98158129D02*
X196995615Y-98632795D01*
X196888472Y-97886890D02*
X196781329Y-98395462D01*
X197059901Y-98395462D01*
D16*
D15*
X155719295Y-96039342D02*
X155007295Y-96039342D01*
X155007295Y-95867914D01*
X155041200Y-95825056D01*
X155075105Y-95803628D01*
X155142914Y-95782199D01*
X155244629Y-95782199D01*
X155312438Y-95803628D01*
X155346343Y-95825056D01*
X155380248Y-95867914D01*
X155380248Y-96039342D01*
X155719295Y-95353628D02*
X155719295Y-95610771D01*
X155719295Y-95482199D02*
X155007295Y-95482199D01*
X155109010Y-95525056D01*
X155176819Y-95567914D01*
X155210724Y-95610771D01*
D16*
D15*
X208163758Y-81970395D02*
X208163758Y-81258395D01*
X208335186Y-81258395D01*
X208378044Y-81292300D01*
X208399472Y-81326205D01*
X208420901Y-81394014D01*
X208420901Y-81495729D01*
X208399472Y-81563538D01*
X208378044Y-81597443D01*
X208335186Y-81631348D01*
X208163758Y-81631348D01*
X208592329Y-81326205D02*
X208613758Y-81292300D01*
X208656615Y-81258395D01*
X208763758Y-81258395D01*
X208806615Y-81292300D01*
X208828044Y-81326205D01*
X208849472Y-81394014D01*
X208849472Y-81461824D01*
X208828044Y-81563538D01*
X208570901Y-81970395D01*
X208849472Y-81970395D01*
D16*
D15*
X165733058Y-96905595D02*
X165733058Y-96193595D01*
X165904486Y-96193595D01*
X165947344Y-96227500D01*
X165968772Y-96261405D01*
X165990201Y-96329214D01*
X165990201Y-96430929D01*
X165968772Y-96498738D01*
X165947344Y-96532643D01*
X165904486Y-96566548D01*
X165733058Y-96566548D01*
X166140201Y-96193595D02*
X166418772Y-96193595D01*
X166268772Y-96464833D01*
X166333058Y-96464833D01*
X166375915Y-96498738D01*
X166397344Y-96532643D01*
X166418772Y-96600452D01*
X166418772Y-96769976D01*
X166397344Y-96837786D01*
X166375915Y-96871690D01*
X166333058Y-96905595D01*
X166204486Y-96905595D01*
X166161629Y-96871690D01*
X166140201Y-96837786D01*
D16*
D15*
X200873958Y-99788495D02*
X200873958Y-99076495D01*
X201045386Y-99076495D01*
X201088244Y-99110400D01*
X201109672Y-99144305D01*
X201131101Y-99212114D01*
X201131101Y-99313829D01*
X201109672Y-99381638D01*
X201088244Y-99415543D01*
X201045386Y-99449448D01*
X200873958Y-99449448D01*
X201516815Y-99313829D02*
X201516815Y-99788495D01*
X201409672Y-99042590D02*
X201302529Y-99551162D01*
X201581101Y-99551162D01*
D16*
D15*
X155820895Y-84279142D02*
X155108895Y-84279142D01*
X155108895Y-84107714D01*
X155142800Y-84064856D01*
X155176705Y-84043428D01*
X155244514Y-84021999D01*
X155346229Y-84021999D01*
X155414038Y-84043428D01*
X155447943Y-84064856D01*
X155481848Y-84107714D01*
X155481848Y-84279142D01*
X155108895Y-83614856D02*
X155108895Y-83829142D01*
X155447943Y-83850571D01*
X155414038Y-83829142D01*
X155380133Y-83786285D01*
X155380133Y-83679142D01*
X155414038Y-83636285D01*
X155447943Y-83614856D01*
X155515752Y-83593428D01*
X155685276Y-83593428D01*
X155753086Y-83614856D01*
X155786990Y-83636285D01*
X155820895Y-83679142D01*
X155820895Y-83786285D01*
X155786990Y-83829142D01*
X155753086Y-83850571D01*
D16*
D15*
X197356058Y-81919595D02*
X197356058Y-81207595D01*
X197527486Y-81207595D01*
X197570344Y-81241500D01*
X197591772Y-81275405D01*
X197613201Y-81343214D01*
X197613201Y-81444929D01*
X197591772Y-81512738D01*
X197570344Y-81546643D01*
X197527486Y-81580548D01*
X197356058Y-81580548D01*
X197998915Y-81207595D02*
X197913201Y-81207595D01*
X197870344Y-81241500D01*
X197848915Y-81275405D01*
X197806058Y-81377119D01*
X197784629Y-81512738D01*
X197784629Y-81783976D01*
X197806058Y-81851786D01*
X197827486Y-81885690D01*
X197870344Y-81919595D01*
X197956058Y-81919595D01*
X197998915Y-81885690D01*
X198020344Y-81851786D01*
X198041772Y-81783976D01*
X198041772Y-81614452D01*
X198020344Y-81546643D01*
X197998915Y-81512738D01*
X197956058Y-81478833D01*
X197870344Y-81478833D01*
X197827486Y-81512738D01*
X197806058Y-81546643D01*
X197784629Y-81614452D01*
D16*
D15*
X186484858Y-81970395D02*
X186484858Y-81258395D01*
X186656286Y-81258395D01*
X186699144Y-81292300D01*
X186720572Y-81326205D01*
X186742001Y-81394014D01*
X186742001Y-81495729D01*
X186720572Y-81563538D01*
X186699144Y-81597443D01*
X186656286Y-81631348D01*
X186484858Y-81631348D01*
X186892001Y-81258395D02*
X187192001Y-81258395D01*
X186999144Y-81970395D01*
D16*
D15*
X175613658Y-82033895D02*
X175613658Y-81321895D01*
X175785086Y-81321895D01*
X175827944Y-81355800D01*
X175849372Y-81389705D01*
X175870801Y-81457514D01*
X175870801Y-81559229D01*
X175849372Y-81627038D01*
X175827944Y-81660943D01*
X175785086Y-81694848D01*
X175613658Y-81694848D01*
X176127944Y-81627038D02*
X176085086Y-81593133D01*
X176063658Y-81559229D01*
X176042229Y-81491419D01*
X176042229Y-81457514D01*
X176063658Y-81389705D01*
X176085086Y-81355800D01*
X176127944Y-81321895D01*
X176213658Y-81321895D01*
X176256515Y-81355800D01*
X176277944Y-81389705D01*
X176299372Y-81457514D01*
X176299372Y-81491419D01*
X176277944Y-81559229D01*
X176256515Y-81593133D01*
X176213658Y-81627038D01*
X176127944Y-81627038D01*
X176085086Y-81660943D01*
X176063658Y-81694848D01*
X176042229Y-81762657D01*
X176042229Y-81898276D01*
X176063658Y-81966086D01*
X176085086Y-81999990D01*
X176127944Y-82033895D01*
X176213658Y-82033895D01*
X176256515Y-81999990D01*
X176277944Y-81966086D01*
X176299372Y-81898276D01*
X176299372Y-81762657D01*
X176277944Y-81694848D01*
X176256515Y-81660943D01*
X176213658Y-81627038D01*
D16*
D15*
X188806143Y-83854305D02*
X188763286Y-83820400D01*
X188720429Y-83752590D01*
X188656143Y-83650876D01*
X188613286Y-83616971D01*
X188570429Y-83616971D01*
X188591857Y-83786495D02*
X188549000Y-83752590D01*
X188506143Y-83684781D01*
X188484714Y-83549162D01*
X188484714Y-83311829D01*
X188506143Y-83176210D01*
X188549000Y-83108400D01*
X188591857Y-83074495D01*
X188677571Y-83074495D01*
X188720429Y-83108400D01*
X188763286Y-83176210D01*
X188784714Y-83311829D01*
X188784714Y-83549162D01*
X188763286Y-83684781D01*
X188720429Y-83752590D01*
X188677571Y-83786495D01*
X188591857Y-83786495D01*
X189213286Y-83786495D02*
X188956143Y-83786495D01*
X189084715Y-83786495D02*
X189084715Y-83074495D01*
X189041858Y-83176210D01*
X188999000Y-83244019D01*
X188956143Y-83277924D01*
D16*
D15*
X177680943Y-83778105D02*
X177638086Y-83744200D01*
X177595229Y-83676390D01*
X177530943Y-83574676D01*
X177488086Y-83540771D01*
X177445229Y-83540771D01*
X177466657Y-83710295D02*
X177423800Y-83676390D01*
X177380943Y-83608581D01*
X177359514Y-83472962D01*
X177359514Y-83235629D01*
X177380943Y-83100010D01*
X177423800Y-83032200D01*
X177466657Y-82998295D01*
X177552371Y-82998295D01*
X177595229Y-83032200D01*
X177638086Y-83100010D01*
X177659514Y-83235629D01*
X177659514Y-83472962D01*
X177638086Y-83608581D01*
X177595229Y-83676390D01*
X177552371Y-83710295D01*
X177466657Y-83710295D01*
X177830943Y-83066105D02*
X177852372Y-83032200D01*
X177895229Y-82998295D01*
X178002372Y-82998295D01*
X178045229Y-83032200D01*
X178066658Y-83066105D01*
X178088086Y-83133914D01*
X178088086Y-83201724D01*
X178066658Y-83303438D01*
X177809515Y-83710295D01*
X178088086Y-83710295D01*
D16*
D15*
X166708143Y-83828905D02*
X166665286Y-83795000D01*
X166622429Y-83727190D01*
X166558143Y-83625476D01*
X166515286Y-83591571D01*
X166472429Y-83591571D01*
X166493857Y-83761095D02*
X166451000Y-83727190D01*
X166408143Y-83659381D01*
X166386714Y-83523762D01*
X166386714Y-83286429D01*
X166408143Y-83150810D01*
X166451000Y-83083000D01*
X166493857Y-83049095D01*
X166579571Y-83049095D01*
X166622429Y-83083000D01*
X166665286Y-83150810D01*
X166686714Y-83286429D01*
X166686714Y-83523762D01*
X166665286Y-83659381D01*
X166622429Y-83727190D01*
X166579571Y-83761095D01*
X166493857Y-83761095D01*
X166836715Y-83049095D02*
X167115286Y-83049095D01*
X166965286Y-83320333D01*
X167029572Y-83320333D01*
X167072429Y-83354238D01*
X167093858Y-83388143D01*
X167115286Y-83455952D01*
X167115286Y-83625476D01*
X167093858Y-83693286D01*
X167072429Y-83727190D01*
X167029572Y-83761095D01*
X166901000Y-83761095D01*
X166858143Y-83727190D01*
X166836715Y-83693286D01*
D16*
D15*
X172813495Y-100976499D02*
X172474448Y-101126499D01*
X172813495Y-101233642D02*
X172101495Y-101233642D01*
X172101495Y-101062214D01*
X172135400Y-101019356D01*
X172169305Y-100997928D01*
X172237114Y-100976499D01*
X172338829Y-100976499D01*
X172406638Y-100997928D01*
X172440543Y-101019356D01*
X172474448Y-101062214D01*
X172474448Y-101233642D01*
X172338829Y-100590785D02*
X172813495Y-100590785D01*
X172067590Y-100697928D02*
X172576162Y-100805071D01*
X172576162Y-100526499D01*
D16*
D15*
X172813495Y-99084199D02*
X172474448Y-99234199D01*
X172813495Y-99341342D02*
X172101495Y-99341342D01*
X172101495Y-99169914D01*
X172135400Y-99127056D01*
X172169305Y-99105628D01*
X172237114Y-99084199D01*
X172338829Y-99084199D01*
X172406638Y-99105628D01*
X172440543Y-99127056D01*
X172474448Y-99169914D01*
X172474448Y-99341342D01*
X172101495Y-98677056D02*
X172101495Y-98891342D01*
X172440543Y-98912771D01*
X172406638Y-98891342D01*
X172372733Y-98848485D01*
X172372733Y-98741342D01*
X172406638Y-98698485D01*
X172440543Y-98677056D01*
X172508352Y-98655628D01*
X172677876Y-98655628D01*
X172745686Y-98677056D01*
X172779590Y-98698485D01*
X172813495Y-98741342D01*
X172813495Y-98848485D01*
X172779590Y-98891342D01*
X172745686Y-98912771D01*
D16*
D15*
X172788095Y-104773799D02*
X172449048Y-104923799D01*
X172788095Y-105030942D02*
X172076095Y-105030942D01*
X172076095Y-104859514D01*
X172110000Y-104816656D01*
X172143905Y-104795228D01*
X172211714Y-104773799D01*
X172313429Y-104773799D01*
X172381238Y-104795228D01*
X172415143Y-104816656D01*
X172449048Y-104859514D01*
X172449048Y-105030942D01*
X172076095Y-104388085D02*
X172076095Y-104473799D01*
X172110000Y-104516656D01*
X172143905Y-104538085D01*
X172245619Y-104580942D01*
X172381238Y-104602371D01*
X172652476Y-104602371D01*
X172720286Y-104580942D01*
X172754190Y-104559514D01*
X172788095Y-104516656D01*
X172788095Y-104430942D01*
X172754190Y-104388085D01*
X172720286Y-104366656D01*
X172652476Y-104345228D01*
X172482952Y-104345228D01*
X172415143Y-104366656D01*
X172381238Y-104388085D01*
X172347333Y-104430942D01*
X172347333Y-104516656D01*
X172381238Y-104559514D01*
X172415143Y-104580942D01*
X172482952Y-104602371D01*
D16*
D15*
X168978095Y-110564999D02*
X168639048Y-110714999D01*
X168978095Y-110822142D02*
X168266095Y-110822142D01*
X168266095Y-110650714D01*
X168300000Y-110607856D01*
X168333905Y-110586428D01*
X168401714Y-110564999D01*
X168503429Y-110564999D01*
X168571238Y-110586428D01*
X168605143Y-110607856D01*
X168639048Y-110650714D01*
X168639048Y-110822142D01*
X168266095Y-110414999D02*
X168266095Y-110114999D01*
X168978095Y-110307856D01*
D16*
D15*
X168901895Y-112622399D02*
X168562848Y-112772399D01*
X168901895Y-112879542D02*
X168189895Y-112879542D01*
X168189895Y-112708114D01*
X168223800Y-112665256D01*
X168257705Y-112643828D01*
X168325514Y-112622399D01*
X168427229Y-112622399D01*
X168495038Y-112643828D01*
X168528943Y-112665256D01*
X168562848Y-112708114D01*
X168562848Y-112879542D01*
X168495038Y-112365256D02*
X168461133Y-112408114D01*
X168427229Y-112429542D01*
X168359419Y-112450971D01*
X168325514Y-112450971D01*
X168257705Y-112429542D01*
X168223800Y-112408114D01*
X168189895Y-112365256D01*
X168189895Y-112279542D01*
X168223800Y-112236685D01*
X168257705Y-112215256D01*
X168325514Y-112193828D01*
X168359419Y-112193828D01*
X168427229Y-112215256D01*
X168461133Y-112236685D01*
X168495038Y-112279542D01*
X168495038Y-112365256D01*
X168528943Y-112408114D01*
X168562848Y-112429542D01*
X168630657Y-112450971D01*
X168766276Y-112450971D01*
X168834086Y-112429542D01*
X168867990Y-112408114D01*
X168901895Y-112365256D01*
X168901895Y-112279542D01*
X168867990Y-112236685D01*
X168834086Y-112215256D01*
X168766276Y-112193828D01*
X168630657Y-112193828D01*
X168562848Y-112215256D01*
X168528943Y-112236685D01*
X168495038Y-112279542D01*
D16*
D15*
X163417181Y-114972615D02*
X163267181Y-114633568D01*
X163160038Y-114972615D02*
X163160038Y-114260615D01*
X163331466Y-114260615D01*
X163374324Y-114294520D01*
X163395752Y-114328425D01*
X163417181Y-114396234D01*
X163417181Y-114497949D01*
X163395752Y-114565758D01*
X163374324Y-114599663D01*
X163331466Y-114633568D01*
X163160038Y-114633568D01*
X163631466Y-114972615D02*
X163717181Y-114972615D01*
X163760038Y-114938710D01*
X163781466Y-114904806D01*
X163824324Y-114803091D01*
X163845752Y-114667472D01*
X163845752Y-114396234D01*
X163824324Y-114328425D01*
X163802895Y-114294520D01*
X163760038Y-114260615D01*
X163674324Y-114260615D01*
X163631466Y-114294520D01*
X163610038Y-114328425D01*
X163588609Y-114396234D01*
X163588609Y-114565758D01*
X163610038Y-114633568D01*
X163631466Y-114667472D01*
X163674324Y-114701377D01*
X163760038Y-114701377D01*
X163802895Y-114667472D01*
X163824324Y-114633568D01*
X163845752Y-114565758D01*
D16*
D15*
X194554115Y-105503495D02*
X194404115Y-105164448D01*
X194296972Y-105503495D02*
X194296972Y-104791495D01*
X194468400Y-104791495D01*
X194511258Y-104825400D01*
X194532686Y-104859305D01*
X194554115Y-104927114D01*
X194554115Y-105028829D01*
X194532686Y-105096638D01*
X194511258Y-105130543D01*
X194468400Y-105164448D01*
X194296972Y-105164448D01*
X194982686Y-105503495D02*
X194725543Y-105503495D01*
X194854115Y-105503495D02*
X194854115Y-104791495D01*
X194811258Y-104893210D01*
X194768400Y-104961019D01*
X194725543Y-104994924D01*
X195261257Y-104791495D02*
X195304114Y-104791495D01*
X195346971Y-104825400D01*
X195368400Y-104859305D01*
X195389829Y-104927114D01*
X195411257Y-105062733D01*
X195411257Y-105232257D01*
X195389829Y-105367876D01*
X195368400Y-105435686D01*
X195346971Y-105469590D01*
X195304114Y-105503495D01*
X195261257Y-105503495D01*
X195218400Y-105469590D01*
X195196971Y-105435686D01*
X195175543Y-105367876D01*
X195154114Y-105232257D01*
X195154114Y-105062733D01*
X195175543Y-104927114D01*
X195196971Y-104859305D01*
X195218400Y-104825400D01*
X195261257Y-104791495D01*
D16*
D15*
X194516015Y-114660195D02*
X194366015Y-114321148D01*
X194258872Y-114660195D02*
X194258872Y-113948195D01*
X194430300Y-113948195D01*
X194473158Y-113982100D01*
X194494586Y-114016005D01*
X194516015Y-114083814D01*
X194516015Y-114185529D01*
X194494586Y-114253338D01*
X194473158Y-114287243D01*
X194430300Y-114321148D01*
X194258872Y-114321148D01*
X194944586Y-114660195D02*
X194687443Y-114660195D01*
X194816015Y-114660195D02*
X194816015Y-113948195D01*
X194773158Y-114049910D01*
X194730300Y-114117719D01*
X194687443Y-114151624D01*
X195373157Y-114660195D02*
X195116014Y-114660195D01*
X195244586Y-114660195D02*
X195244586Y-113948195D01*
X195201729Y-114049910D01*
X195158871Y-114117719D01*
X195116014Y-114151624D01*
D16*
D15*
X196497215Y-100728295D02*
X196347215Y-100389248D01*
X196240072Y-100728295D02*
X196240072Y-100016295D01*
X196411500Y-100016295D01*
X196454358Y-100050200D01*
X196475786Y-100084105D01*
X196497215Y-100151914D01*
X196497215Y-100253629D01*
X196475786Y-100321438D01*
X196454358Y-100355343D01*
X196411500Y-100389248D01*
X196240072Y-100389248D01*
X196925786Y-100728295D02*
X196668643Y-100728295D01*
X196797215Y-100728295D02*
X196797215Y-100016295D01*
X196754358Y-100118010D01*
X196711500Y-100185819D01*
X196668643Y-100219724D01*
X197097214Y-100084105D02*
X197118643Y-100050200D01*
X197161500Y-100016295D01*
X197268643Y-100016295D01*
X197311500Y-100050200D01*
X197332929Y-100084105D01*
X197354357Y-100151914D01*
X197354357Y-100219724D01*
X197332929Y-100321438D01*
X197075786Y-100728295D01*
X197354357Y-100728295D01*
D16*
D15*
X196497215Y-102722195D02*
X196347215Y-102383148D01*
X196240072Y-102722195D02*
X196240072Y-102010195D01*
X196411500Y-102010195D01*
X196454358Y-102044100D01*
X196475786Y-102078005D01*
X196497215Y-102145814D01*
X196497215Y-102247529D01*
X196475786Y-102315338D01*
X196454358Y-102349243D01*
X196411500Y-102383148D01*
X196240072Y-102383148D01*
X196925786Y-102722195D02*
X196668643Y-102722195D01*
X196797215Y-102722195D02*
X196797215Y-102010195D01*
X196754358Y-102111910D01*
X196711500Y-102179719D01*
X196668643Y-102213624D01*
X197075786Y-102010195D02*
X197354357Y-102010195D01*
X197204357Y-102281433D01*
X197268643Y-102281433D01*
X197311500Y-102315338D01*
X197332929Y-102349243D01*
X197354357Y-102417052D01*
X197354357Y-102586576D01*
X197332929Y-102654386D01*
X197311500Y-102688290D01*
X197268643Y-102722195D01*
X197140071Y-102722195D01*
X197097214Y-102688290D01*
X197075786Y-102654386D01*
D16*
D15*
X194516015Y-110596195D02*
X194366015Y-110257148D01*
X194258872Y-110596195D02*
X194258872Y-109884195D01*
X194430300Y-109884195D01*
X194473158Y-109918100D01*
X194494586Y-109952005D01*
X194516015Y-110019814D01*
X194516015Y-110121529D01*
X194494586Y-110189338D01*
X194473158Y-110223243D01*
X194430300Y-110257148D01*
X194258872Y-110257148D01*
X194944586Y-110596195D02*
X194687443Y-110596195D01*
X194816015Y-110596195D02*
X194816015Y-109884195D01*
X194773158Y-109985910D01*
X194730300Y-110053719D01*
X194687443Y-110087624D01*
X195330300Y-110121529D02*
X195330300Y-110596195D01*
X195223157Y-109850290D02*
X195116014Y-110358862D01*
X195394586Y-110358862D01*
D16*
D15*
X203774315Y-107103695D02*
X203624315Y-106764648D01*
X203517172Y-107103695D02*
X203517172Y-106391695D01*
X203688600Y-106391695D01*
X203731458Y-106425600D01*
X203752886Y-106459505D01*
X203774315Y-106527314D01*
X203774315Y-106629029D01*
X203752886Y-106696838D01*
X203731458Y-106730743D01*
X203688600Y-106764648D01*
X203517172Y-106764648D01*
X204202886Y-107103695D02*
X203945743Y-107103695D01*
X204074315Y-107103695D02*
X204074315Y-106391695D01*
X204031458Y-106493410D01*
X203988600Y-106561219D01*
X203945743Y-106595124D01*
X204610029Y-106391695D02*
X204395743Y-106391695D01*
X204374314Y-106730743D01*
X204395743Y-106696838D01*
X204438600Y-106662933D01*
X204545743Y-106662933D01*
X204588600Y-106696838D01*
X204610029Y-106730743D01*
X204631457Y-106798552D01*
X204631457Y-106968076D01*
X204610029Y-107035886D01*
X204588600Y-107069790D01*
X204545743Y-107103695D01*
X204438600Y-107103695D01*
X204395743Y-107069790D01*
X204374314Y-107035886D01*
D16*
D15*
X198262515Y-91076295D02*
X198112515Y-90737248D01*
X198005372Y-91076295D02*
X198005372Y-90364295D01*
X198176800Y-90364295D01*
X198219658Y-90398200D01*
X198241086Y-90432105D01*
X198262515Y-90499914D01*
X198262515Y-90601629D01*
X198241086Y-90669438D01*
X198219658Y-90703343D01*
X198176800Y-90737248D01*
X198005372Y-90737248D01*
X198691086Y-91076295D02*
X198433943Y-91076295D01*
X198562515Y-91076295D02*
X198562515Y-90364295D01*
X198519658Y-90466010D01*
X198476800Y-90533819D01*
X198433943Y-90567724D01*
X199076800Y-90364295D02*
X198991086Y-90364295D01*
X198948229Y-90398200D01*
X198926800Y-90432105D01*
X198883943Y-90533819D01*
X198862514Y-90669438D01*
X198862514Y-90940676D01*
X198883943Y-91008486D01*
X198905371Y-91042390D01*
X198948229Y-91076295D01*
X199033943Y-91076295D01*
X199076800Y-91042390D01*
X199098229Y-91008486D01*
X199119657Y-90940676D01*
X199119657Y-90771152D01*
X199098229Y-90703343D01*
X199076800Y-90669438D01*
X199033943Y-90635533D01*
X198948229Y-90635533D01*
X198905371Y-90669438D01*
X198883943Y-90703343D01*
X198862514Y-90771152D01*
D16*
D15*
X187327815Y-90885795D02*
X187177815Y-90546748D01*
X187070672Y-90885795D02*
X187070672Y-90173795D01*
X187242100Y-90173795D01*
X187284958Y-90207700D01*
X187306386Y-90241605D01*
X187327815Y-90309414D01*
X187327815Y-90411129D01*
X187306386Y-90478938D01*
X187284958Y-90512843D01*
X187242100Y-90546748D01*
X187070672Y-90546748D01*
X187756386Y-90885795D02*
X187499243Y-90885795D01*
X187627815Y-90885795D02*
X187627815Y-90173795D01*
X187584958Y-90275510D01*
X187542100Y-90343319D01*
X187499243Y-90377224D01*
X187906386Y-90173795D02*
X188206386Y-90173795D01*
X188013529Y-90885795D01*
D16*
D15*
X176342315Y-90847695D02*
X176192315Y-90508648D01*
X176085172Y-90847695D02*
X176085172Y-90135695D01*
X176256600Y-90135695D01*
X176299458Y-90169600D01*
X176320886Y-90203505D01*
X176342315Y-90271314D01*
X176342315Y-90373029D01*
X176320886Y-90440838D01*
X176299458Y-90474743D01*
X176256600Y-90508648D01*
X176085172Y-90508648D01*
X176770886Y-90847695D02*
X176513743Y-90847695D01*
X176642315Y-90847695D02*
X176642315Y-90135695D01*
X176599458Y-90237410D01*
X176556600Y-90305219D01*
X176513743Y-90339124D01*
X177028029Y-90440838D02*
X176985171Y-90406933D01*
X176963743Y-90373029D01*
X176942314Y-90305219D01*
X176942314Y-90271314D01*
X176963743Y-90203505D01*
X176985171Y-90169600D01*
X177028029Y-90135695D01*
X177113743Y-90135695D01*
X177156600Y-90169600D01*
X177178029Y-90203505D01*
X177199457Y-90271314D01*
X177199457Y-90305219D01*
X177178029Y-90373029D01*
X177156600Y-90406933D01*
X177113743Y-90440838D01*
X177028029Y-90440838D01*
X176985171Y-90474743D01*
X176963743Y-90508648D01*
X176942314Y-90576457D01*
X176942314Y-90712076D01*
X176963743Y-90779886D01*
X176985171Y-90813790D01*
X177028029Y-90847695D01*
X177113743Y-90847695D01*
X177156600Y-90813790D01*
X177178029Y-90779886D01*
X177199457Y-90712076D01*
X177199457Y-90576457D01*
X177178029Y-90508648D01*
X177156600Y-90474743D01*
X177113743Y-90440838D01*
D16*
D15*
X155710790Y-110632800D02*
X155744695Y-110568514D01*
X155744695Y-110461371D01*
X155710790Y-110418514D01*
X155676886Y-110397085D01*
X155609076Y-110375657D01*
X155541267Y-110375657D01*
X155473457Y-110397085D01*
X155439552Y-110418514D01*
X155405648Y-110461371D01*
X155371743Y-110547085D01*
X155337838Y-110589943D01*
X155303933Y-110611371D01*
X155236124Y-110632800D01*
X155168314Y-110632800D01*
X155100505Y-110611371D01*
X155066600Y-110589943D01*
X155032695Y-110547085D01*
X155032695Y-110439943D01*
X155066600Y-110375657D01*
X155032695Y-110225657D02*
X155744695Y-110118514D01*
X155236124Y-110032800D01*
X155744695Y-109947086D01*
X155032695Y-109839943D01*
X155744695Y-109432800D02*
X155744695Y-109689943D01*
X155744695Y-109561371D02*
X155032695Y-109561371D01*
X155134410Y-109604228D01*
X155202219Y-109647086D01*
X155236124Y-109689943D01*
D16*
D15*
X191477943Y-114392695D02*
X191477943Y-114969076D01*
X191499371Y-115036886D01*
X191520800Y-115070790D01*
X191563657Y-115104695D01*
X191649371Y-115104695D01*
X191692229Y-115070790D01*
X191713657Y-115036886D01*
X191735086Y-114969076D01*
X191735086Y-114392695D01*
X191927943Y-114460505D02*
X191949372Y-114426600D01*
X191992229Y-114392695D01*
X192099372Y-114392695D01*
X192142229Y-114426600D01*
X192163658Y-114460505D01*
X192185086Y-114528314D01*
X192185086Y-114596124D01*
X192163658Y-114697838D01*
X191906515Y-115104695D01*
X192185086Y-115104695D01*
D16*
D15*
X195110143Y-94542595D02*
X195110143Y-95118976D01*
X195131571Y-95186786D01*
X195153000Y-95220690D01*
X195195857Y-95254595D01*
X195281571Y-95254595D01*
X195324429Y-95220690D01*
X195345857Y-95186786D01*
X195367286Y-95118976D01*
X195367286Y-94542595D01*
X195538715Y-94542595D02*
X195817286Y-94542595D01*
X195667286Y-94813833D01*
X195731572Y-94813833D01*
X195774429Y-94847738D01*
X195795858Y-94881643D01*
X195817286Y-94949452D01*
X195817286Y-95118976D01*
X195795858Y-95186786D01*
X195774429Y-95220690D01*
X195731572Y-95254595D01*
X195603000Y-95254595D01*
X195560143Y-95220690D01*
X195538715Y-95186786D01*
D16*
D15*
X184181143Y-94250495D02*
X184181143Y-94826876D01*
X184202571Y-94894686D01*
X184224000Y-94928590D01*
X184266857Y-94962495D01*
X184352571Y-94962495D01*
X184395429Y-94928590D01*
X184416857Y-94894686D01*
X184438286Y-94826876D01*
X184438286Y-94250495D01*
X184845429Y-94487829D02*
X184845429Y-94962495D01*
X184738286Y-94216590D02*
X184631143Y-94725162D01*
X184909715Y-94725162D01*
D16*
D15*
X173266143Y-94301295D02*
X173266143Y-94877676D01*
X173287571Y-94945486D01*
X173309000Y-94979390D01*
X173351857Y-95013295D01*
X173437571Y-95013295D01*
X173480429Y-94979390D01*
X173501857Y-94945486D01*
X173523286Y-94877676D01*
X173523286Y-94301295D01*
X173951858Y-94301295D02*
X173737572Y-94301295D01*
X173716143Y-94640343D01*
X173737572Y-94606438D01*
X173780429Y-94572533D01*
X173887572Y-94572533D01*
X173930429Y-94606438D01*
X173951858Y-94640343D01*
X173973286Y-94708152D01*
X173973286Y-94877676D01*
X173951858Y-94945486D01*
X173930429Y-94979390D01*
X173887572Y-95013295D01*
X173780429Y-95013295D01*
X173737572Y-94979390D01*
X173716143Y-94945486D01*
D16*
D15*
X205908895Y-102552457D02*
X206485276Y-102552457D01*
X206553086Y-102531029D01*
X206586990Y-102509600D01*
X206620895Y-102466743D01*
X206620895Y-102381029D01*
X206586990Y-102338171D01*
X206553086Y-102316743D01*
X206485276Y-102295314D01*
X205908895Y-102295314D01*
X206620895Y-101845314D02*
X206620895Y-102102457D01*
X206620895Y-101973885D02*
X205908895Y-101973885D01*
X206010610Y-102016742D01*
X206078419Y-102059600D01*
X206112324Y-102102457D01*
D16*
D15*
X207305895Y-114033257D02*
X207882276Y-114033257D01*
X207950086Y-114011829D01*
X207983990Y-113990400D01*
X208017895Y-113947543D01*
X208017895Y-113861829D01*
X207983990Y-113818971D01*
X207950086Y-113797543D01*
X207882276Y-113776114D01*
X207305895Y-113776114D01*
X207305895Y-113368971D02*
X207305895Y-113454685D01*
X207339800Y-113497542D01*
X207373705Y-113518971D01*
X207475419Y-113561828D01*
X207611038Y-113583257D01*
X207882276Y-113583257D01*
X207950086Y-113561828D01*
X207983990Y-113540400D01*
X208017895Y-113497542D01*
X208017895Y-113411828D01*
X207983990Y-113368971D01*
X207950086Y-113347542D01*
X207882276Y-113326114D01*
X207712752Y-113326114D01*
X207644943Y-113347542D01*
X207611038Y-113368971D01*
X207577133Y-113411828D01*
X207577133Y-113497542D01*
X207611038Y-113540400D01*
X207644943Y-113561828D01*
X207712752Y-113583257D01*
D16*
D15*
X172788095Y-106577199D02*
X172449048Y-106727199D01*
X172788095Y-106834342D02*
X172076095Y-106834342D01*
X172076095Y-106662914D01*
X172110000Y-106620056D01*
X172143905Y-106598628D01*
X172211714Y-106577199D01*
X172313429Y-106577199D01*
X172381238Y-106598628D01*
X172415143Y-106620056D01*
X172449048Y-106662914D01*
X172449048Y-106834342D01*
X172788095Y-106148628D02*
X172788095Y-106405771D01*
X172788095Y-106277199D02*
X172076095Y-106277199D01*
X172177810Y-106320056D01*
X172245619Y-106362914D01*
X172279524Y-106405771D01*
D16*
D15*
X172813495Y-102729099D02*
X172474448Y-102879099D01*
X172813495Y-102986242D02*
X172101495Y-102986242D01*
X172101495Y-102814814D01*
X172135400Y-102771956D01*
X172169305Y-102750528D01*
X172237114Y-102729099D01*
X172338829Y-102729099D01*
X172406638Y-102750528D01*
X172440543Y-102771956D01*
X172474448Y-102814814D01*
X172474448Y-102986242D01*
X172169305Y-102557671D02*
X172135400Y-102536242D01*
X172101495Y-102493385D01*
X172101495Y-102386242D01*
X172135400Y-102343385D01*
X172169305Y-102321956D01*
X172237114Y-102300528D01*
X172304924Y-102300528D01*
X172406638Y-102321956D01*
X172813495Y-102579099D01*
X172813495Y-102300528D01*
D16*
D15*
X210380095Y-81332742D02*
X209668095Y-81332742D01*
X209668095Y-81225599D01*
X209702000Y-81161314D01*
X209769810Y-81118456D01*
X209837619Y-81097028D01*
X209973238Y-81075599D01*
X210074952Y-81075599D01*
X210210571Y-81097028D01*
X210278381Y-81118456D01*
X210346190Y-81161314D01*
X210380095Y-81225599D01*
X210380095Y-81332742D01*
X210380095Y-80647028D02*
X210380095Y-80904171D01*
X210380095Y-80775599D02*
X209668095Y-80775599D01*
X209769810Y-80818456D01*
X209837619Y-80861314D01*
X209871524Y-80904171D01*
X198464101Y-100893395D02*
X198314101Y-100554348D01*
X198206958Y-100893395D02*
X198206958Y-100181395D01*
X198378386Y-100181395D01*
X198421244Y-100215300D01*
X198442672Y-100249205D01*
X198464101Y-100317014D01*
X198464101Y-100418729D01*
X198442672Y-100486538D01*
X198421244Y-100520443D01*
X198378386Y-100554348D01*
X198206958Y-100554348D01*
X198614101Y-100181395D02*
X198892672Y-100181395D01*
X198742672Y-100452633D01*
X198806958Y-100452633D01*
X198849815Y-100486538D01*
X198871244Y-100520443D01*
X198892672Y-100588252D01*
X198892672Y-100757776D01*
X198871244Y-100825586D01*
X198849815Y-100859490D01*
X198806958Y-100893395D01*
X198678386Y-100893395D01*
X198635529Y-100859490D01*
X198614101Y-100825586D01*
X198224415Y-108068895D02*
X198074415Y-107729848D01*
X197967272Y-108068895D02*
X197967272Y-107356895D01*
X198138700Y-107356895D01*
X198181558Y-107390800D01*
X198202986Y-107424705D01*
X198224415Y-107492514D01*
X198224415Y-107594229D01*
X198202986Y-107662038D01*
X198181558Y-107695943D01*
X198138700Y-107729848D01*
X197967272Y-107729848D01*
X198652986Y-108068895D02*
X198395843Y-108068895D01*
X198524415Y-108068895D02*
X198524415Y-107356895D01*
X198481558Y-107458610D01*
X198438700Y-107526419D01*
X198395843Y-107560324D01*
X198867271Y-108068895D02*
X198952986Y-108068895D01*
X198995843Y-108034990D01*
X199017271Y-108001086D01*
X199060129Y-107899371D01*
X199081557Y-107763752D01*
X199081557Y-107492514D01*
X199060129Y-107424705D01*
X199038700Y-107390800D01*
X198995843Y-107356895D01*
X198910129Y-107356895D01*
X198867271Y-107390800D01*
X198845843Y-107424705D01*
X198824414Y-107492514D01*
X198824414Y-107662038D01*
X198845843Y-107729848D01*
X198867271Y-107763752D01*
X198910129Y-107797657D01*
X198995843Y-107797657D01*
X199038700Y-107763752D01*
X199060129Y-107729848D01*
X199081557Y-107662038D01*
M02*
