<?xml version="1.0" standalone="no"?>
 <!DOCTYPE svg PUBLIC "-//W3C//DTD SVG 1.1//EN" 
 "http://www.w3.org/Graphics/SVG/1.1/DTD/svg11.dtd"> 
<svg xmlns="http://www.w3.org/2000/svg" version="1.1" 
    width="29.7002cm" height="21.0007cm" viewBox="0 0 116930 82680 ">
<title>SVG Picture created as ledboard-F.SilkS.svg date 2015/12/03 10:34:36 </title>
  <desc>Picture generated by PCBNEW </desc>
<g style="fill:#000000; fill-opacity:1;stroke:#000000; stroke-opacity:1;
stroke-linecap:round; stroke-linejoin:round; "
 transform="translate(0 0) scale(1 1)">
</g>
<g style="fill:#000000; fill-opacity:0.0; 
stroke:#000000; stroke-width:-0.000393701; stroke-opacity:1; 
stroke-linecap:round; stroke-linejoin:round;">
</g>
<g style="fill:#000000; fill-opacity:0.0; 
stroke:#000000; stroke-width:39.3701; stroke-opacity:1; 
stroke-linecap:round; stroke-linejoin:round;">
</g>
<g style="fill:#000000; fill-opacity:0.0; 
stroke:#000000; stroke-width:59.0551; stroke-opacity:1; 
stroke-linecap:round; stroke-linejoin:round;">
<rect x="69685.9" y="65357.2" width="42519.7" height="12598.4" rx="0" />
</g>
<g style="fill:#000000; fill-opacity:0.0; 
stroke:#000000; stroke-width:39.3701; stroke-opacity:1; 
stroke-linecap:round; stroke-linejoin:round;">
</g>
<g style="fill:#000000; fill-opacity:0.0; 
stroke:#000000; stroke-width:59.0551; stroke-opacity:1; 
stroke-linecap:round; stroke-linejoin:round;">
<rect x="3937.01" y="3937.01" width="109056" height="74806" rx="0" />
</g>
<g style="fill:#000000; fill-opacity:0.0; 
stroke:#000000; stroke-width:39.3701; stroke-opacity:1; 
stroke-linecap:round; stroke-linejoin:round;">
</g>
<g style="fill:#000000; fill-opacity:0.0; 
stroke:#000000; stroke-width:59.0551; stroke-opacity:1; 
stroke-linecap:round; stroke-linejoin:round;">
<rect x="4724.41" y="4724.41" width="107481" height="73231.2" rx="0" />
</g>
<g style="fill:#000000; fill-opacity:0.0; 
stroke:#000000; stroke-width:39.3701; stroke-opacity:1; 
stroke-linecap:round; stroke-linejoin:round;">
</g>
<g style="fill:#000000; fill-opacity:0.0; 
stroke:#000000; stroke-width:59.0551; stroke-opacity:1; 
stroke-linecap:round; stroke-linejoin:round;">
<path d="M23622 4724
L23622 3937
" />
</g>
<g style="fill:#000000; fill-opacity:0.0; 
stroke:#000000; stroke-width:39.3701; stroke-opacity:1; 
stroke-linecap:round; stroke-linejoin:round;">
</g>
<g style="fill:#000000; fill-opacity:0.0; 
stroke:#000000; stroke-width:59.0551; stroke-opacity:1; 
stroke-linecap:round; stroke-linejoin:round;">
<path d="M43307 4724
L43307 3937
" />
</g>
<g style="fill:#000000; fill-opacity:0.0; 
stroke:#000000; stroke-width:39.3701; stroke-opacity:1; 
stroke-linecap:round; stroke-linejoin:round;">
</g>
<g style="fill:#000000; fill-opacity:0.0; 
stroke:#000000; stroke-width:59.0551; stroke-opacity:1; 
stroke-linecap:round; stroke-linejoin:round;">
<path d="M62992 4724
L62992 3937
" />
</g>
<g style="fill:#000000; fill-opacity:0.0; 
stroke:#000000; stroke-width:39.3701; stroke-opacity:1; 
stroke-linecap:round; stroke-linejoin:round;">
</g>
<g style="fill:#000000; fill-opacity:0.0; 
stroke:#000000; stroke-width:59.0551; stroke-opacity:1; 
stroke-linecap:round; stroke-linejoin:round;">
<path d="M82677 4724
L82677 3937
" />
</g>
<g style="fill:#000000; fill-opacity:0.0; 
stroke:#000000; stroke-width:39.3701; stroke-opacity:1; 
stroke-linecap:round; stroke-linejoin:round;">
</g>
<g style="fill:#000000; fill-opacity:0.0; 
stroke:#000000; stroke-width:59.0551; stroke-opacity:1; 
stroke-linecap:round; stroke-linejoin:round;">
<path d="M102362 4724
L102362 3937
" />
</g>
<g style="fill:#000000; fill-opacity:0.0; 
stroke:#000000; stroke-width:39.3701; stroke-opacity:1; 
stroke-linecap:round; stroke-linejoin:round;">
</g>
<g style="fill:#000000; fill-opacity:0.0; 
stroke:#000000; stroke-width:59.0551; stroke-opacity:1; 
stroke-linecap:round; stroke-linejoin:round;">
<path d="M14169 4562
L13877 4562
" />
<path d="M14023 4562
L14023 4050
L13974 4123
L13925 4172
L13877 4196
" />
</g>
<g style="fill:#000000; fill-opacity:0.0; 
stroke:#000000; stroke-width:39.3701; stroke-opacity:1; 
stroke-linecap:round; stroke-linejoin:round;">
</g>
<g style="fill:#000000; fill-opacity:0.0; 
stroke:#000000; stroke-width:59.0551; stroke-opacity:1; 
stroke-linecap:round; stroke-linejoin:round;">
<path d="M33562 4099
L33586 4074
L33635 4050
L33757 4050
L33805 4074
L33830 4099
L33854 4147
L33854 4196
L33830 4269
L33537 4562
L33854 4562
" />
</g>
<g style="fill:#000000; fill-opacity:0.0; 
stroke:#000000; stroke-width:39.3701; stroke-opacity:1; 
stroke-linecap:round; stroke-linejoin:round;">
</g>
<g style="fill:#000000; fill-opacity:0.0; 
stroke:#000000; stroke-width:59.0551; stroke-opacity:1; 
stroke-linecap:round; stroke-linejoin:round;">
<path d="M53222 4050
L53539 4050
L53368 4245
L53442 4245
L53490 4269
L53515 4294
L53539 4342
L53539 4464
L53515 4513
L53490 4537
L53442 4562
L53295 4562
L53247 4537
L53222 4513
" />
</g>
<g style="fill:#000000; fill-opacity:0.0; 
stroke:#000000; stroke-width:39.3701; stroke-opacity:1; 
stroke-linecap:round; stroke-linejoin:round;">
</g>
<g style="fill:#000000; fill-opacity:0.0; 
stroke:#000000; stroke-width:59.0551; stroke-opacity:1; 
stroke-linecap:round; stroke-linejoin:round;">
<path d="M73175 4221
L73175 4562
" />
<path d="M73053 4026
L72932 4391
L73248 4391
" />
</g>
<g style="fill:#000000; fill-opacity:0.0; 
stroke:#000000; stroke-width:39.3701; stroke-opacity:1; 
stroke-linecap:round; stroke-linejoin:round;">
</g>
<g style="fill:#000000; fill-opacity:0.0; 
stroke:#000000; stroke-width:59.0551; stroke-opacity:1; 
stroke-linecap:round; stroke-linejoin:round;">
<path d="M92885 4050
L92641 4050
L92617 4294
L92641 4269
L92690 4245
L92812 4245
L92860 4269
L92885 4294
L92909 4342
L92909 4464
L92885 4513
L92860 4537
L92812 4562
L92690 4562
L92641 4537
L92617 4513
" />
</g>
<g style="fill:#000000; fill-opacity:0.0; 
stroke:#000000; stroke-width:39.3701; stroke-opacity:1; 
stroke-linecap:round; stroke-linejoin:round;">
</g>
<g style="fill:#000000; fill-opacity:0.0; 
stroke:#000000; stroke-width:59.0551; stroke-opacity:1; 
stroke-linecap:round; stroke-linejoin:round;">
<path d="M112545 4050
L112448 4050
L112399 4074
L112375 4099
L112326 4172
L112302 4269
L112302 4464
L112326 4513
L112350 4537
L112399 4562
L112497 4562
L112545 4537
L112570 4513
L112594 4464
L112594 4342
L112570 4294
L112545 4269
L112497 4245
L112399 4245
L112350 4269
L112326 4294
L112302 4342
" />
</g>
<g style="fill:#000000; fill-opacity:0.0; 
stroke:#000000; stroke-width:39.3701; stroke-opacity:1; 
stroke-linecap:round; stroke-linejoin:round;">
</g>
<g style="fill:#000000; fill-opacity:0.0; 
stroke:#000000; stroke-width:59.0551; stroke-opacity:1; 
stroke-linecap:round; stroke-linejoin:round;">
<path d="M23622 77955
L23622 78742
" />
</g>
<g style="fill:#000000; fill-opacity:0.0; 
stroke:#000000; stroke-width:39.3701; stroke-opacity:1; 
stroke-linecap:round; stroke-linejoin:round;">
</g>
<g style="fill:#000000; fill-opacity:0.0; 
stroke:#000000; stroke-width:59.0551; stroke-opacity:1; 
stroke-linecap:round; stroke-linejoin:round;">
<path d="M43307 77955
L43307 78742
" />
</g>
<g style="fill:#000000; fill-opacity:0.0; 
stroke:#000000; stroke-width:39.3701; stroke-opacity:1; 
stroke-linecap:round; stroke-linejoin:round;">
</g>
<g style="fill:#000000; fill-opacity:0.0; 
stroke:#000000; stroke-width:59.0551; stroke-opacity:1; 
stroke-linecap:round; stroke-linejoin:round;">
<path d="M62992 77955
L62992 78742
" />
</g>
<g style="fill:#000000; fill-opacity:0.0; 
stroke:#000000; stroke-width:39.3701; stroke-opacity:1; 
stroke-linecap:round; stroke-linejoin:round;">
</g>
<g style="fill:#000000; fill-opacity:0.0; 
stroke:#000000; stroke-width:59.0551; stroke-opacity:1; 
stroke-linecap:round; stroke-linejoin:round;">
<path d="M82677 77955
L82677 78742
" />
</g>
<g style="fill:#000000; fill-opacity:0.0; 
stroke:#000000; stroke-width:39.3701; stroke-opacity:1; 
stroke-linecap:round; stroke-linejoin:round;">
</g>
<g style="fill:#000000; fill-opacity:0.0; 
stroke:#000000; stroke-width:59.0551; stroke-opacity:1; 
stroke-linecap:round; stroke-linejoin:round;">
<path d="M102362 77955
L102362 78742
" />
</g>
<g style="fill:#000000; fill-opacity:0.0; 
stroke:#000000; stroke-width:39.3701; stroke-opacity:1; 
stroke-linecap:round; stroke-linejoin:round;">
</g>
<g style="fill:#000000; fill-opacity:0.0; 
stroke:#000000; stroke-width:59.0551; stroke-opacity:1; 
stroke-linecap:round; stroke-linejoin:round;">
<path d="M14169 78580
L13877 78580
" />
<path d="M14023 78580
L14023 78069
L13974 78142
L13925 78190
L13877 78215
" />
</g>
<g style="fill:#000000; fill-opacity:0.0; 
stroke:#000000; stroke-width:39.3701; stroke-opacity:1; 
stroke-linecap:round; stroke-linejoin:round;">
</g>
<g style="fill:#000000; fill-opacity:0.0; 
stroke:#000000; stroke-width:59.0551; stroke-opacity:1; 
stroke-linecap:round; stroke-linejoin:round;">
<path d="M33562 78117
L33586 78093
L33635 78069
L33757 78069
L33805 78093
L33830 78117
L33854 78166
L33854 78215
L33830 78288
L33537 78580
L33854 78580
" />
</g>
<g style="fill:#000000; fill-opacity:0.0; 
stroke:#000000; stroke-width:39.3701; stroke-opacity:1; 
stroke-linecap:round; stroke-linejoin:round;">
</g>
<g style="fill:#000000; fill-opacity:0.0; 
stroke:#000000; stroke-width:59.0551; stroke-opacity:1; 
stroke-linecap:round; stroke-linejoin:round;">
<path d="M53222 78069
L53539 78069
L53368 78263
L53442 78263
L53490 78288
L53515 78312
L53539 78361
L53539 78483
L53515 78532
L53490 78556
L53442 78580
L53295 78580
L53247 78556
L53222 78532
" />
</g>
<g style="fill:#000000; fill-opacity:0.0; 
stroke:#000000; stroke-width:39.3701; stroke-opacity:1; 
stroke-linecap:round; stroke-linejoin:round;">
</g>
<g style="fill:#000000; fill-opacity:0.0; 
stroke:#000000; stroke-width:59.0551; stroke-opacity:1; 
stroke-linecap:round; stroke-linejoin:round;">
<path d="M73175 78239
L73175 78580
" />
<path d="M73053 78044
L72932 78410
L73248 78410
" />
</g>
<g style="fill:#000000; fill-opacity:0.0; 
stroke:#000000; stroke-width:39.3701; stroke-opacity:1; 
stroke-linecap:round; stroke-linejoin:round;">
</g>
<g style="fill:#000000; fill-opacity:0.0; 
stroke:#000000; stroke-width:59.0551; stroke-opacity:1; 
stroke-linecap:round; stroke-linejoin:round;">
<path d="M92885 78069
L92641 78069
L92617 78312
L92641 78288
L92690 78263
L92812 78263
L92860 78288
L92885 78312
L92909 78361
L92909 78483
L92885 78532
L92860 78556
L92812 78580
L92690 78580
L92641 78556
L92617 78532
" />
</g>
<g style="fill:#000000; fill-opacity:0.0; 
stroke:#000000; stroke-width:39.3701; stroke-opacity:1; 
stroke-linecap:round; stroke-linejoin:round;">
</g>
<g style="fill:#000000; fill-opacity:0.0; 
stroke:#000000; stroke-width:59.0551; stroke-opacity:1; 
stroke-linecap:round; stroke-linejoin:round;">
<path d="M112545 78069
L112448 78069
L112399 78093
L112375 78117
L112326 78190
L112302 78288
L112302 78483
L112326 78532
L112350 78556
L112399 78580
L112497 78580
L112545 78556
L112570 78532
L112594 78483
L112594 78361
L112570 78312
L112545 78288
L112497 78263
L112399 78263
L112350 78288
L112326 78312
L112302 78361
" />
</g>
<g style="fill:#000000; fill-opacity:0.0; 
stroke:#000000; stroke-width:39.3701; stroke-opacity:1; 
stroke-linecap:round; stroke-linejoin:round;">
</g>
<g style="fill:#000000; fill-opacity:0.0; 
stroke:#000000; stroke-width:59.0551; stroke-opacity:1; 
stroke-linecap:round; stroke-linejoin:round;">
<path d="M3937 23622
L4724 23622
" />
</g>
<g style="fill:#000000; fill-opacity:0.0; 
stroke:#000000; stroke-width:39.3701; stroke-opacity:1; 
stroke-linecap:round; stroke-linejoin:round;">
</g>
<g style="fill:#000000; fill-opacity:0.0; 
stroke:#000000; stroke-width:59.0551; stroke-opacity:1; 
stroke-linecap:round; stroke-linejoin:round;">
<path d="M3937 43307
L4724 43307
" />
</g>
<g style="fill:#000000; fill-opacity:0.0; 
stroke:#000000; stroke-width:39.3701; stroke-opacity:1; 
stroke-linecap:round; stroke-linejoin:round;">
</g>
<g style="fill:#000000; fill-opacity:0.0; 
stroke:#000000; stroke-width:59.0551; stroke-opacity:1; 
stroke-linecap:round; stroke-linejoin:round;">
<path d="M3937 62992
L4724 62992
" />
</g>
<g style="fill:#000000; fill-opacity:0.0; 
stroke:#000000; stroke-width:39.3701; stroke-opacity:1; 
stroke-linecap:round; stroke-linejoin:round;">
</g>
<g style="fill:#000000; fill-opacity:0.0; 
stroke:#000000; stroke-width:59.0551; stroke-opacity:1; 
stroke-linecap:round; stroke-linejoin:round;">
<path d="M4208 13864
L4452 13864
" />
<path d="M4160 14011
L4330 13499
L4501 14011
" />
</g>
<g style="fill:#000000; fill-opacity:0.0; 
stroke:#000000; stroke-width:39.3701; stroke-opacity:1; 
stroke-linecap:round; stroke-linejoin:round;">
</g>
<g style="fill:#000000; fill-opacity:0.0; 
stroke:#000000; stroke-width:59.0551; stroke-opacity:1; 
stroke-linecap:round; stroke-linejoin:round;">
<path d="M4367 33428
L4440 33452
L4464 33476
L4489 33525
L4489 33598
L4464 33647
L4440 33671
L4391 33696
L4196 33696
L4196 33184
L4367 33184
L4416 33208
L4440 33233
L4464 33281
L4464 33330
L4440 33379
L4416 33403
L4367 33428
L4196 33428
" />
</g>
<g style="fill:#000000; fill-opacity:0.0; 
stroke:#000000; stroke-width:39.3701; stroke-opacity:1; 
stroke-linecap:round; stroke-linejoin:round;">
</g>
<g style="fill:#000000; fill-opacity:0.0; 
stroke:#000000; stroke-width:59.0551; stroke-opacity:1; 
stroke-linecap:round; stroke-linejoin:round;">
<path d="M4489 53332
L4464 53356
L4391 53381
L4342 53381
L4269 53356
L4221 53308
L4196 53259
L4172 53161
L4172 53088
L4196 52991
L4221 52942
L4269 52893
L4342 52869
L4391 52869
L4464 52893
L4489 52918
" />
</g>
<g style="fill:#000000; fill-opacity:0.0; 
stroke:#000000; stroke-width:39.3701; stroke-opacity:1; 
stroke-linecap:round; stroke-linejoin:round;">
</g>
<g style="fill:#000000; fill-opacity:0.0; 
stroke:#000000; stroke-width:59.0551; stroke-opacity:1; 
stroke-linecap:round; stroke-linejoin:round;">
<path d="M4196 73066
L4196 72554
L4318 72554
L4391 72578
L4440 72627
L4464 72676
L4489 72773
L4489 72846
L4464 72944
L4440 72993
L4391 73041
L4318 73066
L4196 73066
" />
</g>
<g style="fill:#000000; fill-opacity:0.0; 
stroke:#000000; stroke-width:39.3701; stroke-opacity:1; 
stroke-linecap:round; stroke-linejoin:round;">
</g>
<g style="fill:#000000; fill-opacity:0.0; 
stroke:#000000; stroke-width:59.0551; stroke-opacity:1; 
stroke-linecap:round; stroke-linejoin:round;">
<path d="M112992 23622
L112205 23622
" />
</g>
<g style="fill:#000000; fill-opacity:0.0; 
stroke:#000000; stroke-width:39.3701; stroke-opacity:1; 
stroke-linecap:round; stroke-linejoin:round;">
</g>
<g style="fill:#000000; fill-opacity:0.0; 
stroke:#000000; stroke-width:59.0551; stroke-opacity:1; 
stroke-linecap:round; stroke-linejoin:round;">
<path d="M112992 43307
L112205 43307
" />
</g>
<g style="fill:#000000; fill-opacity:0.0; 
stroke:#000000; stroke-width:39.3701; stroke-opacity:1; 
stroke-linecap:round; stroke-linejoin:round;">
</g>
<g style="fill:#000000; fill-opacity:0.0; 
stroke:#000000; stroke-width:59.0551; stroke-opacity:1; 
stroke-linecap:round; stroke-linejoin:round;">
<path d="M112992 62992
L112205 62992
" />
</g>
<g style="fill:#000000; fill-opacity:0.0; 
stroke:#000000; stroke-width:39.3701; stroke-opacity:1; 
stroke-linecap:round; stroke-linejoin:round;">
</g>
<g style="fill:#000000; fill-opacity:0.0; 
stroke:#000000; stroke-width:59.0551; stroke-opacity:1; 
stroke-linecap:round; stroke-linejoin:round;">
<path d="M112477 13864
L112721 13864
" />
<path d="M112428 14011
L112599 13499
L112769 14011
" />
</g>
<g style="fill:#000000; fill-opacity:0.0; 
stroke:#000000; stroke-width:39.3701; stroke-opacity:1; 
stroke-linecap:round; stroke-linejoin:round;">
</g>
<g style="fill:#000000; fill-opacity:0.0; 
stroke:#000000; stroke-width:59.0551; stroke-opacity:1; 
stroke-linecap:round; stroke-linejoin:round;">
<path d="M112635 33428
L112708 33452
L112733 33476
L112757 33525
L112757 33598
L112733 33647
L112708 33671
L112660 33696
L112465 33696
L112465 33184
L112635 33184
L112684 33208
L112708 33233
L112733 33281
L112733 33330
L112708 33379
L112684 33403
L112635 33428
L112465 33428
" />
</g>
<g style="fill:#000000; fill-opacity:0.0; 
stroke:#000000; stroke-width:39.3701; stroke-opacity:1; 
stroke-linecap:round; stroke-linejoin:round;">
</g>
<g style="fill:#000000; fill-opacity:0.0; 
stroke:#000000; stroke-width:59.0551; stroke-opacity:1; 
stroke-linecap:round; stroke-linejoin:round;">
<path d="M112757 53332
L112733 53356
L112660 53381
L112611 53381
L112538 53356
L112489 53308
L112465 53259
L112440 53161
L112440 53088
L112465 52991
L112489 52942
L112538 52893
L112611 52869
L112660 52869
L112733 52893
L112757 52918
" />
</g>
<g style="fill:#000000; fill-opacity:0.0; 
stroke:#000000; stroke-width:39.3701; stroke-opacity:1; 
stroke-linecap:round; stroke-linejoin:round;">
</g>
<g style="fill:#000000; fill-opacity:0.0; 
stroke:#000000; stroke-width:59.0551; stroke-opacity:1; 
stroke-linecap:round; stroke-linejoin:round;">
<path d="M112465 73066
L112465 72554
L112587 72554
L112660 72578
L112708 72627
L112733 72676
L112757 72773
L112757 72846
L112733 72944
L112708 72993
L112660 73041
L112587 73066
L112465 73066
" />
</g>
<g style="fill:#000000; fill-opacity:0.0; 
stroke:#000000; stroke-width:39.3701; stroke-opacity:1; 
stroke-linecap:round; stroke-linejoin:round;">
</g>
<g style="fill:#000000; fill-opacity:0.0; 
stroke:#000000; stroke-width:59.0551; stroke-opacity:1; 
stroke-linecap:round; stroke-linejoin:round;">
<path d="M78881 76293
L78881 75703
L79022 75703
L79106 75731
L79162 75787
L79190 75843
L79219 75956
L79219 76040
L79190 76153
L79162 76209
L79106 76265
L79022 76293
L78881 76293
" />
<path d="M79725 76293
L79725 75984
L79697 75928
L79640 75899
L79528 75899
L79472 75928
" />
<path d="M79725 76265
L79669 76293
L79528 76293
L79472 76265
L79444 76209
L79444 76153
L79472 76096
L79528 76068
L79669 76068
L79725 76040
" />
<path d="M79922 75899
L80147 75899
" />
<path d="M80006 75703
L80006 76209
L80034 76265
L80090 76293
L80147 76293
" />
<path d="M80568 76265
L80512 76293
L80400 76293
L80343 76265
L80315 76209
L80315 75984
L80343 75928
L80400 75899
L80512 75899
L80568 75928
L80597 75984
L80597 76040
L80315 76096
" />
<path d="M80850 76237
L80878 76265
L80850 76293
L80822 76265
L80850 76237
L80850 76293
" />
<path d="M80850 75928
L80878 75956
L80850 75984
L80822 75956
L80850 75928
L80850 75984
" />
</g>
<g style="fill:#000000; fill-opacity:0.0; 
stroke:#000000; stroke-width:39.3701; stroke-opacity:1; 
stroke-linecap:round; stroke-linejoin:round;">
</g>
<g style="fill:#000000; fill-opacity:0.0; 
stroke:#000000; stroke-width:59.0551; stroke-opacity:1; 
stroke-linecap:round; stroke-linejoin:round;">
<path d="M69685 76577
L112205 76577
" />
</g>
<g style="fill:#000000; fill-opacity:0.0; 
stroke:#000000; stroke-width:39.3701; stroke-opacity:1; 
stroke-linecap:round; stroke-linejoin:round;">
</g>
<g style="fill:#000000; fill-opacity:0.0; 
stroke:#000000; stroke-width:59.0551; stroke-opacity:1; 
stroke-linecap:round; stroke-linejoin:round;">
<path d="M70220 77395
L70220 76805
" />
<path d="M70557 77395
L70304 77058
" />
<path d="M70557 76805
L70220 77142
" />
<path d="M70810 77395
L70810 77002
" />
<path d="M70810 76805
L70782 76833
L70810 76861
L70838 76833
L70810 76805
L70810 76861
" />
<path d="M71429 77339
L71401 77367
L71316 77395
L71260 77395
L71176 77367
L71120 77311
L71091 77255
L71063 77142
L71063 77058
L71091 76946
L71120 76889
L71176 76833
L71260 76805
L71316 76805
L71401 76833
L71429 76861
" />
<path d="M71935 77395
L71935 77086
L71907 77030
L71851 77002
L71738 77002
L71682 77030
" />
<path d="M71935 77367
L71879 77395
L71738 77395
L71682 77367
L71654 77311
L71654 77255
L71682 77199
L71738 77171
L71879 77171
L71935 77142
" />
<path d="M72469 77395
L72469 76805
" />
<path d="M72469 77367
L72413 77395
L72301 77395
L72244 77367
L72216 77339
L72188 77283
L72188 77114
L72216 77058
L72244 77030
L72301 77002
L72413 77002
L72469 77030
" />
<path d="M73201 77086
L73397 77086
" />
<path d="M73482 77395
L73201 77395
L73201 76805
L73482 76805
" />
<path d="M73735 77339
L73763 77367
L73735 77395
L73707 77367
L73735 77339
L73735 77395
" />
<path d="M74016 77395
L74016 76805
L74157 76805
L74241 76833
L74297 76889
L74325 76946
L74354 77058
L74354 77142
L74325 77255
L74297 77311
L74241 77367
L74157 77395
L74016 77395
" />
<path d="M74607 77339
L74635 77367
L74607 77395
L74579 77367
L74607 77339
L74607 77395
" />
<path d="M74860 77227
L75141 77227
" />
<path d="M74804 77395
L75000 76805
L75197 77395
" />
<path d="M75394 77339
L75422 77367
L75394 77395
L75366 77367
L75394 77339
L75394 77395
" />
<path d="M76575 77002
L76575 77592
" />
<path d="M76575 77030
L76631 77002
L76744 77002
L76800 77030
L76828 77058
L76856 77114
L76856 77283
L76828 77339
L76800 77367
L76744 77395
L76631 77395
L76575 77367
" />
<path d="M77363 77367
L77306 77395
L77194 77395
L77138 77367
L77109 77339
L77081 77283
L77081 77114
L77109 77058
L77138 77030
L77194 77002
L77306 77002
L77363 77030
" />
<path d="M77616 77395
L77616 76805
" />
<path d="M77616 77030
L77672 77002
L77784 77002
L77841 77030
L77869 77058
L77897 77114
L77897 77283
L77869 77339
L77841 77367
L77784 77395
L77672 77395
L77616 77367
" />
<path d="M78150 77002
L78150 77395
" />
<path d="M78150 77058
L78178 77030
L78234 77002
L78319 77002
L78375 77030
L78403 77086
L78403 77395
" />
<path d="M78909 77367
L78853 77395
L78741 77395
L78684 77367
L78656 77311
L78656 77086
L78684 77030
L78741 77002
L78853 77002
L78909 77030
L78937 77086
L78937 77142
L78656 77199
" />
<path d="M79134 77002
L79247 77395
L79359 77114
L79472 77395
L79584 77002
" />
<path d="M80428 77620
L80400 77592
L80343 77508
L80315 77452
L80287 77367
L80259 77227
L80259 77114
L80287 76974
L80315 76889
L80343 76833
L80400 76749
L80428 76721
" />
<path d="M80625 76861
L80653 76833
L80709 76805
L80850 76805
L80906 76833
L80934 76861
L80962 76917
L80962 76974
L80934 77058
L80597 77395
L80962 77395
" />
<path d="M81328 76805
L81384 76805
L81440 76833
L81468 76861
L81496 76917
L81525 77030
L81525 77171
L81496 77283
L81468 77339
L81440 77367
L81384 77395
L81328 77395
L81271 77367
L81243 77339
L81215 77283
L81187 77171
L81187 77030
L81215 76917
L81243 76861
L81271 76833
L81328 76805
" />
<path d="M82087 77395
L81750 77395
" />
<path d="M81918 77395
L81918 76805
L81862 76889
L81806 76946
L81750 76974
" />
<path d="M82621 76805
L82340 76805
L82312 77086
L82340 77058
L82396 77030
L82537 77030
L82593 77058
L82621 77086
L82649 77142
L82649 77283
L82621 77339
L82593 77367
L82537 77395
L82396 77395
L82340 77367
L82312 77339
" />
<path d="M82903 77171
L83352 77171
" />
<path d="M83943 77395
L83606 77395
" />
<path d="M83774 77395
L83774 76805
L83718 76889
L83662 76946
L83606 76974
" />
<path d="M84309 76805
L84365 76805
L84421 76833
L84449 76861
L84477 76917
L84505 77030
L84505 77171
L84477 77283
L84449 77339
L84421 77367
L84365 77395
L84309 77395
L84252 77367
L84224 77339
L84196 77283
L84168 77171
L84168 77030
L84196 76917
L84224 76861
L84252 76833
L84309 76805
" />
<path d="M84759 77171
L85208 77171
" />
<path d="M85462 76861
L85490 76833
L85546 76805
L85687 76805
L85743 76833
L85771 76861
L85799 76917
L85799 76974
L85771 77058
L85433 77395
L85799 77395
" />
<path d="M86333 76805
L86052 76805
L86024 77086
L86052 77058
L86108 77030
L86249 77030
L86305 77058
L86333 77086
L86361 77142
L86361 77283
L86333 77339
L86305 77367
L86249 77395
L86108 77395
L86052 77367
L86024 77339
" />
<path d="M87261 77086
L87346 77114
L87374 77142
L87402 77199
L87402 77283
L87374 77339
L87346 77367
L87289 77395
L87064 77395
L87064 76805
L87261 76805
L87318 76833
L87346 76861
L87374 76917
L87374 76974
L87346 77030
L87318 77058
L87261 77086
L87064 77086
" />
<path d="M87599 76805
L87992 76805
L87599 77395
L87992 77395
" />
<path d="M88555 77395
L88358 77114
" />
<path d="M88217 77395
L88217 76805
L88442 76805
L88499 76833
L88527 76861
L88555 76917
L88555 77002
L88527 77058
L88499 77086
L88442 77114
L88217 77114
" />
<path d="M89511 76805
L89399 76805
L89342 76833
L89314 76861
L89258 76946
L89230 77058
L89230 77283
L89258 77339
L89286 77367
L89342 77395
L89455 77395
L89511 77367
L89539 77339
L89567 77283
L89567 77142
L89539 77086
L89511 77058
L89455 77030
L89342 77030
L89286 77058
L89258 77086
L89230 77142
" />
<path d="M89792 76861
L89820 76833
L89877 76805
L90017 76805
L90073 76833
L90102 76861
L90130 76917
L90130 76974
L90102 77058
L89764 77395
L90130 77395
" />
<path d="M90327 76805
L90720 76805
L90467 77395
" />
<path d="M90973 77395
L91086 77395
L91142 77367
L91170 77339
L91226 77255
L91255 77142
L91255 76917
L91226 76861
L91198 76833
L91142 76805
L91030 76805
L90973 76833
L90945 76861
L90917 76917
L90917 77058
L90945 77114
L90973 77142
L91030 77171
L91142 77171
L91198 77142
L91226 77114
L91255 77058
" />
<path d="M91451 77620
L91480 77592
L91536 77508
L91564 77452
L91592 77367
L91620 77227
L91620 77114
L91592 76974
L91564 76889
L91536 76833
L91480 76749
L91451 76721
" />
<path d="M91901 77171
L92351 77171
" />
<path d="M92633 77002
L92633 77592
" />
<path d="M92633 77030
L92689 77002
L92801 77002
L92858 77030
L92886 77058
L92914 77114
L92914 77283
L92886 77339
L92858 77367
L92801 77395
L92689 77395
L92633 77367
" />
<path d="M93167 77395
L93167 77002
" />
<path d="M93167 77114
L93195 77058
L93223 77030
L93279 77002
L93336 77002
" />
<path d="M93617 77395
L93561 77367
L93532 77339
L93504 77283
L93504 77114
L93532 77058
L93561 77030
L93617 77002
L93701 77002
L93757 77030
L93786 77058
L93814 77114
L93814 77283
L93786 77339
L93757 77367
L93701 77395
L93617 77395
" />
<path d="M94320 77395
L94320 76805
" />
<path d="M94320 77367
L94264 77395
L94151 77395
L94095 77367
L94067 77339
L94039 77283
L94039 77114
L94067 77058
L94095 77030
L94151 77002
L94264 77002
L94320 77030
" />
<path d="M94854 77002
L94854 77395
" />
<path d="M94601 77002
L94601 77311
L94629 77367
L94685 77395
L94770 77395
L94826 77367
L94854 77339
" />
<path d="M95388 77367
L95332 77395
L95220 77395
L95163 77367
L95135 77339
L95107 77283
L95107 77114
L95135 77058
L95163 77030
L95220 77002
L95332 77002
L95388 77030
" />
<path d="M95557 77002
L95782 77002
" />
<path d="M95642 76805
L95642 77311
L95670 77367
L95726 77395
L95782 77395
" />
</g>
<g style="fill:#000000; fill-opacity:0.0; 
stroke:#000000; stroke-width:39.3701; stroke-opacity:1; 
stroke-linecap:round; stroke-linejoin:round;">
</g>
<g style="fill:#000000; fill-opacity:0.0; 
stroke:#000000; stroke-width:59.0551; stroke-opacity:1; 
stroke-linecap:round; stroke-linejoin:round;">
<path d="M69685 75396
L112205 75396
" />
</g>
<g style="fill:#000000; fill-opacity:0.0; 
stroke:#000000; stroke-width:39.3701; stroke-opacity:1; 
stroke-linecap:round; stroke-linejoin:round;">
</g>
<g style="fill:#000000; fill-opacity:0.0; 
stroke:#000000; stroke-width:118.11; stroke-opacity:1; 
stroke-linecap:round; stroke-linejoin:round;">
<path d="M104022 76293
L103825 76012
" />
<path d="M103684 76293
L103684 75703
L103909 75703
L103965 75731
L103994 75759
L104022 75815
L104022 75899
L103994 75956
L103965 75984
L103909 76012
L103684 76012
" />
<path d="M104500 76265
L104444 76293
L104331 76293
L104275 76265
L104247 76209
L104247 75984
L104275 75928
L104331 75899
L104444 75899
L104500 75928
L104528 75984
L104528 76040
L104247 76096
" />
<path d="M104725 75899
L104865 76293
L105006 75899
" />
<path d="M105231 76237
L105259 76265
L105231 76293
L105203 76265
L105231 76237
L105231 76293
" />
<path d="M105231 75928
L105259 75956
L105231 75984
L105203 75956
L105231 75928
L105231 75984
" />
</g>
<g style="fill:#000000; fill-opacity:0.0; 
stroke:#000000; stroke-width:39.3701; stroke-opacity:1; 
stroke-linecap:round; stroke-linejoin:round;">
</g>
<g style="fill:#000000; fill-opacity:0.0; 
stroke:#000000; stroke-width:59.0551; stroke-opacity:1; 
stroke-linecap:round; stroke-linejoin:round;">
<path d="M70192 76265
L70276 76293
L70417 76293
L70473 76265
L70501 76237
L70529 76181
L70529 76124
L70501 76068
L70473 76040
L70417 76012
L70304 75984
L70248 75956
L70220 75928
L70192 75871
L70192 75815
L70220 75759
L70248 75731
L70304 75703
L70445 75703
L70529 75731
" />
<path d="M70782 76293
L70782 75899
" />
<path d="M70782 75703
L70754 75731
L70782 75759
L70810 75731
L70782 75703
L70782 75759
" />
<path d="M71007 75899
L71316 75899
L71007 76293
L71316 76293
" />
<path d="M71766 76265
L71710 76293
L71598 76293
L71541 76265
L71513 76209
L71513 75984
L71541 75928
L71598 75899
L71710 75899
L71766 75928
L71795 75984
L71795 76040
L71513 76096
" />
<path d="M72048 76237
L72076 76265
L72048 76293
L72019 76265
L72048 76237
L72048 76293
" />
<path d="M72048 75928
L72076 75956
L72048 75984
L72019 75956
L72048 75928
L72048 75984
" />
<path d="M72751 76124
L73032 76124
" />
<path d="M72694 76293
L72891 75703
L73088 76293
" />
<path d="M73538 75899
L73538 76293
" />
<path d="M73397 75674
L73257 76096
L73622 76096
" />
</g>
<g style="fill:#000000; fill-opacity:0.0; 
stroke:#000000; stroke-width:39.3701; stroke-opacity:1; 
stroke-linecap:round; stroke-linejoin:round;">
</g>
<g style="fill:#000000; fill-opacity:0.0; 
stroke:#000000; stroke-width:59.0551; stroke-opacity:1; 
stroke-linecap:round; stroke-linejoin:round;">
<path d="M103684 77395
L103684 76805
" />
<path d="M104219 77395
L104219 76805
" />
<path d="M104219 77367
L104162 77395
L104050 77395
L103994 77367
L103965 77339
L103937 77283
L103937 77114
L103965 77058
L103994 77030
L104050 77002
L104162 77002
L104219 77030
" />
<path d="M104500 77339
L104528 77367
L104500 77395
L104472 77367
L104500 77339
L104500 77395
" />
<path d="M104500 77030
L104528 77058
L104500 77086
L104472 77058
L104500 77030
L104500 77086
" />
<path d="M105540 77395
L105203 77395
" />
<path d="M105372 77395
L105372 76805
L105315 76889
L105259 76946
L105203 76974
" />
<path d="M106215 76777
L105709 77536
" />
<path d="M106721 77395
L106384 77395
" />
<path d="M106553 77395
L106553 76805
L106496 76889
L106440 76946
L106384 76974
" />
</g>
<g style="fill:#000000; fill-opacity:0.0; 
stroke:#000000; stroke-width:39.3701; stroke-opacity:1; 
stroke-linecap:round; stroke-linejoin:round;">
</g>
<g style="fill:#000000; fill-opacity:0.0; 
stroke:#000000; stroke-width:59.0551; stroke-opacity:1; 
stroke-linecap:round; stroke-linejoin:round;">
<path d="M69685 73821
L112205 73821
" />
</g>
<g style="fill:#000000; fill-opacity:0.0; 
stroke:#000000; stroke-width:39.3701; stroke-opacity:1; 
stroke-linecap:round; stroke-linejoin:round;">
</g>
<g style="fill:#000000; fill-opacity:0.0; 
stroke:#000000; stroke-width:157.48; stroke-opacity:1; 
stroke-linecap:round; stroke-linejoin:round;">
<path d="M70257 74099
L70707 74099
" />
<path d="M70384 74886
L70482 74099
" />
<path d="M70871 74886
L70937 74361
" />
<path d="M70970 74099
L70927 74136
L70960 74174
L71002 74136
L70970 74099
L70960 74174
" />
<path d="M71199 74361
L71499 74361
" />
<path d="M71345 74099
L71260 74774
L71288 74849
L71359 74886
L71434 74886
" />
<path d="M71809 74886
L71738 74849
L71710 74774
L71795 74099
" />
<path d="M72413 74849
L72334 74886
L72184 74886
L72113 74849
L72085 74774
L72123 74474
L72169 74399
L72249 74361
L72399 74361
L72469 74399
L72498 74474
L72488 74549
L72104 74624
" />
<path d="M72793 74811
L72826 74849
L72783 74886
L72751 74849
L72793 74811
L72783 74886
" />
<path d="M72844 74399
L72877 74436
L72835 74474
L72802 74436
L72844 74399
L72835 74474
" />
</g>
<g style="fill:#000000; fill-opacity:0.0; 
stroke:#000000; stroke-width:39.3701; stroke-opacity:1; 
stroke-linecap:round; stroke-linejoin:round;">
</g>
<g style="fill:#000000; fill-opacity:0.0; 
stroke:#000000; stroke-width:59.0551; stroke-opacity:1; 
stroke-linecap:round; stroke-linejoin:round;">
<path d="M70417 73070
L70220 73070
" />
<path d="M70220 73380
L70220 72789
L70501 72789
" />
<path d="M70726 73380
L70726 72986
" />
<path d="M70726 72789
L70698 72817
L70726 72845
L70754 72817
L70726 72789
L70726 72845
" />
<path d="M71091 73380
L71035 73352
L71007 73295
L71007 72789
" />
<path d="M71541 73352
L71485 73380
L71373 73380
L71316 73352
L71288 73295
L71288 73070
L71316 73014
L71373 72986
L71485 72986
L71541 73014
L71570 73070
L71570 73127
L71288 73183
" />
<path d="M71823 73323
L71851 73352
L71823 73380
L71795 73352
L71823 73323
L71823 73380
" />
<path d="M71823 73014
L71851 73042
L71823 73070
L71795 73042
L71823 73014
L71823 73070
" />
<path d="M72638 73380
L72582 73352
L72554 73295
L72554 72789
" />
<path d="M73088 73352
L73032 73380
L72919 73380
L72863 73352
L72835 73295
L72835 73070
L72863 73014
L72919 72986
L73032 72986
L73088 73014
L73116 73070
L73116 73127
L72835 73183
" />
<path d="M73622 73380
L73622 72789
" />
<path d="M73622 73352
L73566 73380
L73454 73380
L73397 73352
L73369 73323
L73341 73267
L73341 73099
L73369 73042
L73397 73014
L73454 72986
L73566 72986
L73622 73014
" />
<path d="M73904 73380
L73904 72789
" />
<path d="M73904 73014
L73960 72986
L74072 72986
L74129 73014
L74157 73042
L74185 73099
L74185 73267
L74157 73323
L74129 73352
L74072 73380
L73960 73380
L73904 73352
" />
<path d="M74522 73380
L74466 73352
L74438 73323
L74410 73267
L74410 73099
L74438 73042
L74466 73014
L74522 72986
L74607 72986
L74663 73014
L74691 73042
L74719 73099
L74719 73267
L74691 73323
L74663 73352
L74607 73380
L74522 73380
" />
<path d="M75225 73380
L75225 73070
L75197 73014
L75141 72986
L75028 72986
L74972 73014
" />
<path d="M75225 73352
L75169 73380
L75028 73380
L74972 73352
L74944 73295
L74944 73239
L74972 73183
L75028 73155
L75169 73155
L75225 73127
" />
<path d="M75507 73380
L75507 72986
" />
<path d="M75507 73099
L75535 73042
L75563 73014
L75619 72986
L75675 72986
" />
<path d="M76125 73380
L76125 72789
" />
<path d="M76125 73352
L76069 73380
L75956 73380
L75900 73352
L75872 73323
L75844 73267
L75844 73099
L75872 73042
L75900 73014
L75956 72986
L76069 72986
L76125 73014
" />
<path d="M76406 73323
L76435 73352
L76406 73380
L76378 73352
L76406 73323
L76406 73380
" />
<path d="M76688 73380
L76688 72789
" />
<path d="M76744 73155
L76913 73380
" />
<path d="M76913 72986
L76688 73211
" />
<path d="M77166 73380
L77166 72986
" />
<path d="M77166 72789
L77138 72817
L77166 72845
L77194 72817
L77166 72789
L77166 72845
" />
<path d="M77700 73352
L77644 73380
L77531 73380
L77475 73352
L77447 73323
L77419 73267
L77419 73099
L77447 73042
L77475 73014
L77531 72986
L77644 72986
L77700 73014
" />
<path d="M78206 73380
L78206 73070
L78178 73014
L78122 72986
L78009 72986
L77953 73014
" />
<path d="M78206 73352
L78150 73380
L78009 73380
L77953 73352
L77925 73295
L77925 73239
L77953 73183
L78009 73155
L78150 73155
L78206 73127
" />
<path d="M78741 73380
L78741 72789
" />
<path d="M78741 73352
L78684 73380
L78572 73380
L78516 73352
L78487 73323
L78459 73267
L78459 73099
L78487 73042
L78516 73014
L78572 72986
L78684 72986
L78741 73014
" />
<path d="M78881 73436
L79331 73436
" />
<path d="M79472 72986
L79472 73577
" />
<path d="M79472 73014
L79528 72986
L79640 72986
L79697 73014
L79725 73042
L79753 73099
L79753 73267
L79725 73323
L79697 73352
L79640 73380
L79528 73380
L79472 73352
" />
<path d="M80259 73352
L80203 73380
L80090 73380
L80034 73352
L80006 73323
L79978 73267
L79978 73099
L80006 73042
L80034 73014
L80090 72986
L80203 72986
L80259 73014
" />
<path d="M80512 73380
L80512 72789
" />
<path d="M80512 73014
L80568 72986
L80681 72986
L80737 73014
L80765 73042
L80793 73099
L80793 73267
L80765 73323
L80737 73352
L80681 73380
L80568 73380
L80512 73352
" />
</g>
<g style="fill:#000000; fill-opacity:0.0; 
stroke:#000000; stroke-width:39.3701; stroke-opacity:1; 
stroke-linecap:round; stroke-linejoin:round;">
</g>
<g style="fill:#000000; fill-opacity:0.0; 
stroke:#000000; stroke-width:59.0551; stroke-opacity:1; 
stroke-linecap:round; stroke-linejoin:round;">
<path d="M69685 71459
L112205 71459
" />
</g>
<g style="fill:#000000; fill-opacity:0.0; 
stroke:#000000; stroke-width:39.3701; stroke-opacity:1; 
stroke-linecap:round; stroke-linejoin:round;">
</g>
<g style="fill:#000000; fill-opacity:0.0; 
stroke:#000000; stroke-width:59.0551; stroke-opacity:1; 
stroke-linecap:round; stroke-linejoin:round;">
<path d="M70192 72289
L70276 72317
L70417 72317
L70473 72289
L70501 72260
L70529 72204
L70529 72148
L70501 72092
L70473 72064
L70417 72036
L70304 72007
L70248 71979
L70220 71951
L70192 71895
L70192 71839
L70220 71782
L70248 71754
L70304 71726
L70445 71726
L70529 71754
" />
<path d="M70782 72317
L70782 71726
" />
<path d="M71035 72317
L71035 72007
L71007 71951
L70951 71923
L70867 71923
L70810 71951
L70782 71979
" />
<path d="M71541 72289
L71485 72317
L71373 72317
L71316 72289
L71288 72232
L71288 72007
L71316 71951
L71373 71923
L71485 71923
L71541 71951
L71570 72007
L71570 72064
L71288 72120
" />
<path d="M72048 72289
L71991 72317
L71879 72317
L71823 72289
L71795 72232
L71795 72007
L71823 71951
L71879 71923
L71991 71923
L72048 71951
L72076 72007
L72076 72064
L71795 72120
" />
<path d="M72244 71923
L72469 71923
" />
<path d="M72329 71726
L72329 72232
L72357 72289
L72413 72317
L72469 72317
" />
<path d="M72666 72260
L72694 72289
L72666 72317
L72638 72289
L72666 72260
L72666 72317
" />
<path d="M72666 71951
L72694 71979
L72666 72007
L72638 71979
L72666 71951
L72666 72007
" />
</g>
<g style="fill:#000000; fill-opacity:0.0; 
stroke:#000000; stroke-width:39.3701; stroke-opacity:1; 
stroke-linecap:round; stroke-linejoin:round;">
</g>
<g style="fill:#000000; fill-opacity:0.0; 
stroke:#000000; stroke-width:59.0551; stroke-opacity:1; 
stroke-linecap:round; stroke-linejoin:round;">
<path d="M77559 75396
L77559 76577
" />
</g>
<g style="fill:#000000; fill-opacity:0.0; 
stroke:#000000; stroke-width:39.3701; stroke-opacity:1; 
stroke-linecap:round; stroke-linejoin:round;">
</g>
<g style="fill:#000000; fill-opacity:0.0; 
stroke:#000000; stroke-width:59.0551; stroke-opacity:1; 
stroke-linecap:round; stroke-linejoin:round;">
<path d="M102756 75396
L102756 77955
" />
</g>
<g style="fill:#008484; fill-opacity:0.0; 
stroke:#008484; stroke-width:59.0551; stroke-opacity:1; 
stroke-linecap:round; stroke-linejoin:round;">
</g>
<g style="fill:#008484; fill-opacity:0.0; 
stroke:#008484; stroke-width:47.2441; stroke-opacity:1; 
stroke-linecap:round; stroke-linejoin:round;">
<path d="M77293 36509
L77293 36824
" />
<path d="M77293 36524
L77323 36509
L77383 36509
L77413 36524
L77428 36539
L77443 36569
L77443 36659
L77428 36689
L77413 36704
L77383 36719
L77323 36719
L77293 36704
" />
<path d="M77577 36719
L77577 36404
" />
<path d="M77577 36524
L77607 36509
L77667 36509
L77697 36524
L77712 36539
L77727 36569
L77727 36659
L77712 36689
L77697 36704
L77667 36719
L77607 36719
L77577 36704
" />
<path d="M75923 35747
L76028 36062
L76133 35747
" />
<path d="M76238 36062
L76238 35747
" />
<path d="M76387 36062
L76387 35747
L76567 36062
L76567 35747
" />
</g>
<g style="fill:#008484; fill-opacity:0.0; 
stroke:#008484; stroke-width:78.7402; stroke-opacity:1; 
stroke-linecap:round; stroke-linejoin:round;">
<path d="M76383 35413
L76607 35413
" />
<path d="M74676 35413
L75606 35413
" />
<path d="M76607 35413
L76595 33659
" />
<path d="M76373 33659
L76597 33659
" />
<path d="M74666 33659
L75596 33659
" />
<path d="M76597 33659
L76585 31905
" />
<path d="M76585 31906
L76573 30152
" />
<path d="M76361 31906
L76585 31906
" />
<path d="M74654 31906
L75584 31906
" />
<path d="M74560 30152
L76573 30152
" />
</g>
<g style="fill:#008484; fill-opacity:0.0; 
stroke:#008484; stroke-width:47.2441; stroke-opacity:1; 
stroke-linecap:round; stroke-linejoin:round;">
<path d="M75067 35126
L75306 35126
" />
<path d="M75086 33299
L75325 33299
" />
<path d="M75048 31477
L75287 31477
" />
<path d="M75718 34223
L75958 34223
" />
<path d="M75838 34343
L75838 34103
" />
<path d="M76258 34343
L76108 34343
L76108 34028
" />
<path d="M76333 34028
L76528 34028
L76423 34148
L76468 34148
L76498 34163
L76513 34178
L76528 34208
L76528 34283
L76513 34313
L76498 34328
L76468 34343
L76378 34343
L76348 34328
L76333 34313
" />
<path d="M75744 32397
L75984 32397
" />
<path d="M75864 32517
L75864 32277
" />
<path d="M76284 32517
L76134 32517
L76134 32202
" />
<path d="M76374 32232
L76389 32217
L76419 32202
L76494 32202
L76524 32217
L76539 32232
L76554 32262
L76554 32292
L76539 32337
L76359 32517
L76554 32517
" />
<path d="M75728 30633
L75968 30633
" />
<path d="M75848 30753
L75848 30513
" />
<path d="M76268 30753
L76118 30753
L76118 30438
" />
<path d="M76538 30753
L76358 30753
" />
<path d="M76448 30753
L76448 30438
L76418 30483
L76388 30513
L76358 30528
" />
<path d="M74782 29106
L74752 29091
L74707 29091
L74662 29106
L74632 29136
L74617 29166
L74602 29226
L74602 29271
L74617 29331
L74632 29361
L74662 29391
L74707 29406
L74737 29406
L74782 29391
L74797 29376
L74797 29271
L74737 29271
" />
<path d="M74932 29406
L74932 29091
L75111 29406
L75111 29091
" />
<path d="M75261 29406
L75261 29091
L75336 29091
L75381 29106
L75411 29136
L75426 29166
L75441 29226
L75441 29271
L75426 29331
L75411 29361
L75381 29391
L75336 29406
L75261 29406
" />
</g>
<g style="fill:#C2C200; fill-opacity:0.0; 
stroke:#C2C200; stroke-width:47.2441; stroke-opacity:1; 
stroke-linecap:round; stroke-linejoin:round;">
</g>
<g style="fill:#C2C200; fill-opacity:0.0; 
stroke:#C2C200; stroke-width:59.0551; stroke-opacity:1; 
stroke-linecap:round; stroke-linejoin:round;">
<path d="M74400 37400
L84448 37400
" />
<path d="M74400 28346
L74400 37400
" />
<path d="M84448 28346
L74400 28346
" />
<path d="M84448 37400
L84448 28346
" />
</g>
<g style="fill:#C2C200; fill-opacity:0.0; 
stroke:#C2C200; stroke-width:27.5591; stroke-opacity:1; 
stroke-linecap:round; stroke-linejoin:round;">
<path d="M79240 34031
L79249 34041
L79259 34069
L79259 34088
L79249 34116
L79230 34134
L79212 34144
L79174 34153
L79146 34153
L79109 34144
L79090 34134
L79071 34116
L79062 34088
L79062 34069
L79071 34041
L79080 34031
" />
<path d="M79259 33844
L79259 33956
" />
<path d="M79259 33900
L79062 33900
L79090 33919
L79109 33938
L79118 33956
" />
<path d="M81557 34902
L81547 34911
L81519 34921
L81500 34921
L81472 34911
L81454 34892
L81444 34874
L81435 34836
L81435 34808
L81444 34771
L81454 34752
L81472 34733
L81500 34724
L81519 34724
L81547 34733
L81557 34742
" />
<path d="M81632 34742
L81641 34733
L81660 34724
L81707 34724
L81725 34733
L81735 34742
L81744 34761
L81744 34780
L81735 34808
L81622 34921
L81744 34921
" />
<path d="M81985 32650
L81975 32659
L81947 32669
L81928 32669
L81900 32659
L81882 32640
L81872 32622
L81863 32584
L81863 32556
L81872 32519
L81882 32500
L81900 32481
L81928 32472
L81947 32472
L81975 32481
L81985 32490
" />
<path d="M82050 32472
L82172 32472
L82107 32547
L82135 32547
L82153 32556
L82163 32565
L82172 32584
L82172 32631
L82163 32650
L82153 32659
L82135 32669
L82078 32669
L82060 32659
L82050 32650
" />
<path d="M82727 32660
L82717 32669
L82689 32679
L82670 32679
L82642 32669
L82624 32650
L82614 32632
L82605 32594
L82605 32566
L82614 32529
L82624 32510
L82642 32491
L82670 32482
L82689 32482
L82717 32491
L82727 32500
" />
<path d="M82895 32547
L82895 32679
" />
<path d="M82849 32472
L82802 32613
L82924 32613
" />
<path d="M76921 33788
L76911 33797
L76883 33807
L76864 33807
L76836 33797
L76818 33778
L76808 33760
L76799 33722
L76799 33694
L76808 33657
L76818 33638
L76836 33619
L76864 33610
L76883 33610
L76911 33619
L76921 33628
" />
<path d="M77099 33610
L77005 33610
L76996 33703
L77005 33694
L77024 33685
L77071 33685
L77089 33694
L77099 33703
L77108 33722
L77108 33769
L77099 33788
L77089 33797
L77071 33807
L77024 33807
L77005 33797
L76996 33788
" />
<path d="M79034 35518
L79043 35528
L79053 35556
L79053 35575
L79043 35603
L79024 35621
L79006 35631
L78968 35640
L78940 35640
L78903 35631
L78884 35621
L78865 35603
L78856 35575
L78856 35556
L78865 35528
L78874 35518
" />
<path d="M78856 35350
L78856 35387
L78865 35406
L78874 35415
L78903 35434
L78940 35443
L79015 35443
L79034 35434
L79043 35425
L79053 35406
L79053 35368
L79043 35350
L79034 35340
L79015 35331
L78968 35331
L78949 35340
L78940 35350
L78931 35368
L78931 35406
L78940 35425
L78949 35434
L78968 35443
" />
<path d="M76999 35648
L76989 35657
L76961 35667
L76942 35667
L76914 35657
L76896 35638
L76886 35620
L76877 35582
L76877 35554
L76886 35517
L76896 35498
L76914 35479
L76942 35470
L76961 35470
L76989 35479
L76999 35488
" />
<path d="M77064 35470
L77196 35470
L77111 35667
" />
<path d="M76755 31790
L76746 31799
L76717 31809
L76699 31809
L76671 31799
L76652 31780
L76642 31762
L76633 31724
L76633 31696
L76642 31659
L76652 31640
L76671 31621
L76699 31612
L76717 31612
L76746 31621
L76755 31630
" />
<path d="M76942 31809
L76830 31809
" />
<path d="M76886 31809
L76886 31612
L76867 31640
L76849 31659
L76830 31668
" />
<path d="M77008 31612
L77130 31612
L77064 31687
L77092 31687
L77111 31696
L77121 31705
L77130 31724
L77130 31771
L77121 31790
L77111 31799
L77092 31809
L77036 31809
L77017 31799
L77008 31790
" />
<path d="M78258 37137
L78258 36940
L78305 36940
L78333 36949
L78352 36968
L78361 36987
L78371 37024
L78371 37052
L78361 37090
L78352 37108
L78333 37127
L78305 37137
L78258 37137
" />
<path d="M78539 37005
L78539 37137
" />
<path d="M78493 36930
L78446 37071
L78568 37071
" />
</g>
<g style="fill:#008484; fill-opacity:0.0; 
stroke:#008484; stroke-width:27.5591; stroke-opacity:1; 
stroke-linecap:round; stroke-linejoin:round;">
</g>
<g style="fill:#008484; fill-opacity:0.0; 
stroke:#008484; stroke-width:60; stroke-opacity:1; 
stroke-linecap:round; stroke-linejoin:round;">
<path d="M83655 32606
L83464 32606
L83464 32206
" />
<path d="M83998 32606
L83769 32606
" />
<path d="M83883 32606
L83883 32206
L83845 32264
L83807 32302
L83769 32321
" />
</g>
<g style="fill:#C2C200; fill-opacity:0.0; 
stroke:#C2C200; stroke-width:60; stroke-opacity:1; 
stroke-linecap:round; stroke-linejoin:round;">
</g>
<g style="fill:#C2C200; fill-opacity:0.0; 
stroke:#C2C200; stroke-width:27.5591; stroke-opacity:1; 
stroke-linecap:round; stroke-linejoin:round;">
<path d="M79049 29167
L78852 29167
L78852 29092
L78861 29073
L78870 29064
L78889 29054
L78917 29054
L78936 29064
L78945 29073
L78955 29092
L78955 29167
" />
<path d="M78852 28989
L78852 28867
L78927 28932
L78927 28904
L78936 28886
L78945 28876
L78964 28867
L79011 28867
L79030 28876
L79039 28886
L79049 28904
L79049 28961
L79039 28979
L79030 28989
" />
<path d="M77907 32243
L77888 32234
L77869 32215
L77841 32187
L77822 32178
L77804 32178
" />
<path d="M77813 32225
L77794 32215
L77776 32196
L77766 32159
L77766 32093
L77776 32056
L77794 32037
L77813 32028
L77851 32028
L77869 32037
L77888 32056
L77897 32093
L77897 32159
L77888 32196
L77869 32215
L77851 32225
L77813 32225
" />
<path d="M78085 32225
L77972 32225
" />
<path d="M78029 32225
L78029 32028
L78010 32056
L77991 32075
L77972 32084
" />
<path d="M77908 34195
L77889 34186
L77870 34167
L77842 34139
L77823 34130
L77805 34130
" />
<path d="M77814 34177
L77795 34167
L77777 34148
L77767 34111
L77767 34045
L77777 34008
L77795 33989
L77814 33980
L77852 33980
L77870 33989
L77889 34008
L77898 34045
L77898 34111
L77889 34148
L77870 34167
L77852 34177
L77814 34177
" />
<path d="M77973 33998
L77983 33989
L78001 33980
L78048 33980
L78067 33989
L78076 33998
L78086 34017
L78086 34036
L78076 34064
L77964 34177
L78086 34177
" />
<path d="M77879 36011
L77860 36002
L77841 35983
L77813 35955
L77794 35946
L77776 35946
" />
<path d="M77785 35993
L77766 35983
L77748 35964
L77738 35927
L77738 35861
L77748 35824
L77766 35805
L77785 35796
L77823 35796
L77841 35805
L77860 35824
L77869 35861
L77869 35927
L77860 35964
L77841 35983
L77823 35993
L77785 35993
" />
<path d="M77935 35796
L78057 35796
L77991 35871
L78019 35871
L78038 35880
L78047 35889
L78057 35908
L78057 35955
L78047 35974
L78038 35983
L78019 35993
L77963 35993
L77944 35983
L77935 35974
" />
<path d="M80097 32034
L80003 32100
" />
<path d="M80097 32147
L79900 32147
L79900 32072
L79909 32053
L79918 32044
L79937 32034
L79965 32034
L79984 32044
L79993 32053
L80003 32072
L80003 32147
" />
<path d="M80097 31847
L80097 31959
" />
<path d="M80097 31903
L79900 31903
L79928 31922
L79947 31941
L79956 31959
" />
<path d="M79579 32977
L79513 32883
" />
<path d="M79466 32977
L79466 32780
L79541 32780
L79560 32789
L79569 32798
L79579 32817
L79579 32845
L79569 32864
L79560 32873
L79541 32883
L79466 32883
" />
<path d="M79654 32798
L79663 32789
L79682 32780
L79729 32780
L79747 32789
L79757 32798
L79766 32817
L79766 32836
L79757 32864
L79644 32977
L79766 32977
" />
<path d="M79829 31217
L79763 31123
" />
<path d="M79716 31217
L79716 31020
L79791 31020
L79810 31029
L79819 31038
L79829 31057
L79829 31085
L79819 31104
L79810 31113
L79791 31123
L79716 31123
" />
<path d="M79997 31085
L79997 31217
" />
<path d="M79951 31010
L79904 31151
L80026 31151
" />
<path d="M79011 31207
L78945 31113
" />
<path d="M78898 31207
L78898 31010
L78973 31010
L78992 31019
L79001 31028
L79011 31047
L79011 31075
L79001 31094
L78992 31103
L78973 31113
L78898 31113
" />
<path d="M79189 31010
L79095 31010
L79086 31103
L79095 31094
L79114 31085
L79161 31085
L79179 31094
L79189 31103
L79198 31122
L79198 31169
L79189 31188
L79179 31197
L79161 31207
L79114 31207
L79095 31197
L79086 31188
" />
<path d="M80617 31205
L80551 31111
" />
<path d="M80504 31205
L80504 31008
L80579 31008
L80598 31017
L80607 31026
L80617 31045
L80617 31073
L80607 31092
L80598 31101
L80579 31111
L80504 31111
" />
<path d="M80785 31008
L80748 31008
L80729 31017
L80720 31026
L80701 31055
L80692 31092
L80692 31167
L80701 31186
L80710 31195
L80729 31205
L80767 31205
L80785 31195
L80795 31186
L80804 31167
L80804 31120
L80795 31101
L80785 31092
L80767 31083
L80729 31083
L80710 31092
L80701 31101
L80692 31120
" />
<path d="M83755 31229
L83689 31135
" />
<path d="M83642 31229
L83642 31032
L83717 31032
L83736 31041
L83745 31050
L83755 31069
L83755 31097
L83745 31116
L83736 31125
L83717 31135
L83642 31135
" />
<path d="M83820 31032
L83952 31032
L83867 31229
" />
<path d="M82945 31203
L82879 31109
" />
<path d="M82832 31203
L82832 31006
L82907 31006
L82926 31015
L82935 31024
L82945 31043
L82945 31071
L82935 31090
L82926 31099
L82907 31109
L82832 31109
" />
<path d="M83057 31090
L83038 31081
L83029 31071
L83020 31053
L83020 31043
L83029 31024
L83038 31015
L83057 31006
L83095 31006
L83113 31015
L83123 31024
L83132 31043
L83132 31053
L83123 31071
L83113 31081
L83095 31090
L83057 31090
L83038 31099
L83029 31109
L83020 31128
L83020 31165
L83029 31184
L83038 31193
L83057 31203
L83095 31203
L83113 31193
L83123 31184
L83132 31165
L83132 31128
L83123 31109
L83113 31099
L83095 31090
" />
<path d="M82954 35730
L82888 35636
" />
<path d="M82841 35730
L82841 35533
L82916 35533
L82935 35542
L82945 35551
L82954 35570
L82954 35598
L82945 35617
L82935 35626
L82916 35636
L82841 35636
" />
<path d="M83141 35730
L83029 35730
" />
<path d="M83085 35730
L83085 35533
L83066 35561
L83048 35580
L83029 35589
" />
<path d="M83329 35730
L83216 35730
" />
<path d="M83273 35730
L83273 35533
L83254 35561
L83235 35580
L83216 35589
" />
<path d="M78987 37129
L78921 37035
" />
<path d="M78874 37129
L78874 36932
L78949 36932
L78968 36941
L78978 36950
L78987 36969
L78987 36997
L78978 37016
L78968 37025
L78949 37035
L78874 37035
" />
<path d="M79174 37129
L79062 37129
" />
<path d="M79118 37129
L79118 36932
L79099 36960
L79081 36979
L79062 36988
" />
<path d="M79249 36950
L79259 36941
L79278 36932
L79324 36932
L79343 36941
L79353 36950
L79362 36969
L79362 36988
L79353 37016
L79240 37129
L79362 37129
" />
<path d="M79781 37124
L79715 37030
" />
<path d="M79668 37124
L79668 36927
L79743 36927
L79762 36936
L79772 36945
L79781 36964
L79781 36992
L79772 37011
L79762 37020
L79743 37030
L79668 37030
" />
<path d="M79968 37124
L79856 37124
" />
<path d="M79912 37124
L79912 36927
L79893 36955
L79875 36974
L79856 36983
" />
<path d="M80034 36927
L80156 36927
L80090 37002
L80118 37002
L80137 37011
L80147 37020
L80156 37039
L80156 37086
L80147 37105
L80137 37114
L80118 37124
L80062 37124
L80043 37114
L80034 37105
" />
<path d="M83653 35718
L83587 35624
" />
<path d="M83540 35718
L83540 35521
L83615 35521
L83634 35530
L83644 35539
L83653 35558
L83653 35586
L83644 35605
L83634 35614
L83615 35624
L83540 35624
" />
<path d="M83840 35718
L83728 35718
" />
<path d="M83784 35718
L83784 35521
L83765 35549
L83747 35568
L83728 35577
" />
<path d="M84009 35586
L84009 35718
" />
<path d="M83962 35511
L83915 35652
L84037 35652
" />
<path d="M81222 33246
L81222 33405
L81231 33424
L81240 33433
L81259 33443
L81297 33443
L81315 33433
L81325 33424
L81334 33405
L81334 33246
" />
<path d="M81531 33443
L81418 33443
" />
<path d="M81475 33443
L81475 33246
L81456 33274
L81437 33293
L81418 33302
" />
</g>
<g style="fill:#C2C200; fill-opacity:0.0; 
stroke:#C2C200; stroke-width:59.0551; stroke-opacity:1; 
stroke-linecap:round; stroke-linejoin:round;">
<path d="M80640 32540
L80247 32540
L80247 32446
L80265 32390
L80303 32353
L80340 32334
L80415 32315
L80471 32315
L80546 32334
L80584 32353
L80621 32390
L80640 32446
L80640 32540
" />
<path d="M80640 31940
L80640 32165
" />
<path d="M80640 32053
L80247 32053
L80303 32090
L80340 32128
L80359 32165
" />
</g>
<g style="fill:#C2C200; fill-opacity:0.0; 
stroke:#C2C200; stroke-width:27.5591; stroke-opacity:1; 
stroke-linecap:round; stroke-linejoin:round;">
<path d="M81405 37111
L81405 36914
L81452 36914
L81480 36923
L81499 36942
L81509 36961
L81518 36998
L81518 37026
L81509 37064
L81499 37083
L81480 37101
L81452 37111
L81405 37111
" />
<path d="M81593 36933
L81602 36923
L81621 36914
L81668 36914
L81687 36923
L81696 36933
L81705 36951
L81705 36970
L81696 36998
L81584 37111
L81705 37111
" />
</g>
<g style="fill:#008484; fill-opacity:0.0; 
stroke:#008484; stroke-width:27.5591; stroke-opacity:1; 
stroke-linecap:round; stroke-linejoin:round;">
</g>
<g style="fill:#008484; fill-opacity:0.0; 
stroke:#008484; stroke-width:59.0551; stroke-opacity:1; 
stroke-linecap:round; stroke-linejoin:round;">
<path d="M79363 34387
L79363 34112
" />
<path d="M79836 34112
L79836 34387
" />
<path d="M81836 33962
L81836 34237
" />
<path d="M81363 34237
L81363 33962
" />
<path d="M81763 32037
L81763 31762
" />
<path d="M82236 31762
L82236 32037
" />
<path d="M82513 32037
L82513 31762
" />
<path d="M82986 31762
L82986 32037
" />
<path d="M77186 32862
L77186 33137
" />
<path d="M76713 33137
L76713 32862
" />
<path d="M79837 35736
L79562 35736
" />
<path d="M79562 35263
L79837 35263
" />
<path d="M77236 34662
L77236 34937
" />
<path d="M76763 34937
L76763 34662
" />
<path d="M77136 30862
L77136 31137
" />
<path d="M76663 31137
L76663 30862
" />
<path d="M78183 35916
L78183 36664
" />
<path d="M78616 35916
L78616 36664
" />
<path d="M78400 36271
L78400 36448
" />
<path d="M78498 36251
L78301 36251
" />
<path d="M78400 36251
L78498 36350
" />
<path d="M78498 36350
L78301 36350
" />
<path d="M78301 36350
L78400 36251
" />
</g>
<g style="fill:#008484; fill-opacity:0.0; 
stroke:#008484; stroke-width:60; stroke-opacity:1; 
stroke-linecap:round; stroke-linejoin:round;">
<path d="M84044 34794
L82155 34794
" />
<path d="M82155 34794
L82155 32905
" />
<path d="M82155 32905
L84044 32905
" />
<path d="M84044 32905
L84044 34794
" />
</g>
<g style="fill:#008484; fill-opacity:0.0; 
stroke:#008484; stroke-width:59.0551; stroke-opacity:1; 
stroke-linecap:round; stroke-linejoin:round;">
<path d="M79800 29610
L79189 29610
" />
<path d="M79189 29610
L79189 28389
" />
<path d="M79189 28389
L79800 28389
" />
<path d="M80300 28500
L84300 28500
" />
<path d="M84300 28500
L84300 29500
" />
<path d="M84300 29500
L80300 29500
" />
<path d="M80300 28500
L80300 29500
" />
<path d="M77700 30812
L77700 30831
" />
<path d="M77976 31914
L77700 31914
" />
<path d="M77700 31914
L77700 31816
" />
<path d="M77700 30812
L77700 30733
" />
<path d="M77700 30733
L77976 30733
" />
<path d="M77744 32788
L77744 32807
" />
<path d="M78020 33890
L77744 33890
" />
<path d="M77744 33890
L77744 33792
" />
<path d="M77744 32788
L77744 32709
" />
<path d="M77744 32709
L78020 32709
" />
<path d="M77844 34588
L77844 34607
" />
<path d="M78120 35690
L77844 35690
" />
<path d="M77844 35690
L77844 35592
" />
<path d="M77844 34588
L77844 34509
" />
<path d="M77844 34509
L78120 34509
" />
<path d="M80715 31803
L80715 32196
" />
<path d="M80184 32196
L80184 31803
" />
<path d="M80153 32634
L80546 32634
" />
<path d="M80546 33165
L80153 33165
" />
<path d="M80115 30253
L80115 30646
" />
<path d="M79584 30646
L79584 30253
" />
<path d="M79315 30253
L79315 30646
" />
<path d="M78784 30646
L78784 30253
" />
<path d="M80384 30651
L80384 30257
" />
<path d="M80915 30257
L80915 30651
" />
<path d="M83534 30646
L83534 30253
" />
<path d="M84065 30253
L84065 30646
" />
<path d="M82684 30642
L82684 30248
" />
<path d="M83215 30248
L83215 30642
" />
<path d="M84065 36103
L84065 36496
" />
<path d="M83534 36496
L83534 36103
" />
<path d="M78884 36551
L78884 36157
" />
<path d="M79415 36157
L79415 36551
" />
<path d="M79634 36546
L79634 36153
" />
<path d="M80165 36153
L80165 36546
" />
<path d="M82834 36496
L82834 36103
" />
<path d="M83365 36103
L83365 36496
" />
<circle cx="81269.3" cy="33942.5" r="39.3701" /> 
<path d="M81170 34198
L81170 34001
" />
<path d="M80029 34198
L81170 34198
" />
<path d="M80029 34001
L80029 34198
" />
<path d="M81170 34001
L80029 34001
" />
<path d="M81250 32125
L81250 31975
" />
<path d="M81250 32525
L81250 32375
" />
<path d="M81250 32375
L81100 32125
" />
<path d="M81100 32125
L81400 32125
" />
<path d="M81400 32125
L81250 32375
" />
<path d="M81050 32375
L81450 32375
" />
<path d="M81604 33037
L81604 31643
" />
<path d="M80895 33037
L80895 31643
" />
<path d="M82437 36608
L82437 36451
" />
<path d="M82437 35073
L82437 35230
" />
<path d="M80665 35073
L80665 35230
" />
<path d="M80665 36608
L80665 36451
" />
<path d="M82082 35073
L82082 35230
" />
<path d="M82082 35230
L82023 35230
" />
<path d="M82023 35230
L82023 35073
" />
<path d="M82082 36608
L82082 36451
" />
<path d="M82082 36451
L82023 36451
" />
<path d="M82023 36451
L82023 36608
" />
<path d="M82437 36608
L80665 36608
" />
<path d="M80665 35073
L82437 35073
" />
</g>
<g style="fill:#840000; fill-opacity:0.0; 
stroke:#840000; stroke-width:59.0551; stroke-opacity:1; 
stroke-linecap:round; stroke-linejoin:round;">
</g>
<g style="fill:#840000; fill-opacity:0.0; 
stroke:#840000; stroke-width:0; stroke-opacity:1; 
stroke-linecap:round; stroke-linejoin:round;">
</g>
<g style="fill:#840000; fill-opacity:1.0; 
stroke:#840000; stroke-width:0; stroke-opacity:1; 
stroke-linecap:round; stroke-linejoin:round;">
<polyline style="fill-rule:evenodd;"
points="80140,29400
79460,29400
79460,28600
80140,28600
80140,29400
" /> 
</g>
<g style="fill:#840000; fill-opacity:1.0; 
stroke:#840000; stroke-width:680; stroke-opacity:1; 
stroke-linecap:round; stroke-linejoin:round;">
</g>
<g style="fill:#840000; fill-opacity:0.0; 
stroke:#840000; stroke-width:680; stroke-opacity:1; 
stroke-linecap:round; stroke-linejoin:round;">
<path d="M80800 29060
L80800 28940
" />
<path d="M81800 29060
L81800 28940
" />
<path d="M82800 29060
L82800 28940
" />
<path d="M83800 29060
L83800 28940
" />
</g>
<g style="fill:#840000; fill-opacity:1.0; 
stroke:#840000; stroke-width:0; stroke-opacity:1; 
stroke-linecap:round; stroke-linejoin:round;">
<circle cx="75250" cy="36400" r="689" /> 
</g>
<g style="fill:#840000; fill-opacity:1.0; 
stroke:#840000; stroke-width:39.3701; stroke-opacity:1; 
stroke-linecap:round; stroke-linejoin:round;">
</g>
<g style="fill:#840000; fill-opacity:1.0; 
stroke:#840000; stroke-width:0; stroke-opacity:1; 
stroke-linecap:round; stroke-linejoin:round;">
<circle cx="76350" cy="29400" r="689" /> 
</g>
<g style="fill:#840000; fill-opacity:1.0; 
stroke:#840000; stroke-width:39.3701; stroke-opacity:1; 
stroke-linecap:round; stroke-linejoin:round;">
</g>
<g style="fill:#840000; fill-opacity:1.0; 
stroke:#840000; stroke-width:0; stroke-opacity:1; 
stroke-linecap:round; stroke-linejoin:round;">
<circle cx="75250" cy="32400" r="393.5" /> 
</g>
<g style="fill:#840000; fill-opacity:1.0; 
stroke:#840000; stroke-width:39.3701; stroke-opacity:1; 
stroke-linecap:round; stroke-linejoin:round;">
</g>
<g style="fill:#840000; fill-opacity:1.0; 
stroke:#840000; stroke-width:0; stroke-opacity:1; 
stroke-linecap:round; stroke-linejoin:round;">
<circle cx="75950" cy="31500" r="393.5" /> 
</g>
<g style="fill:#840000; fill-opacity:1.0; 
stroke:#840000; stroke-width:39.3701; stroke-opacity:1; 
stroke-linecap:round; stroke-linejoin:round;">
</g>
<g style="fill:#840000; fill-opacity:1.0; 
stroke:#840000; stroke-width:0; stroke-opacity:1; 
stroke-linecap:round; stroke-linejoin:round;">
<circle cx="75250" cy="34200" r="393.5" /> 
</g>
<g style="fill:#840000; fill-opacity:1.0; 
stroke:#840000; stroke-width:39.3701; stroke-opacity:1; 
stroke-linecap:round; stroke-linejoin:round;">
</g>
<g style="fill:#840000; fill-opacity:1.0; 
stroke:#840000; stroke-width:0; stroke-opacity:1; 
stroke-linecap:round; stroke-linejoin:round;">
<circle cx="75950" cy="33300" r="393.5" /> 
</g>
<g style="fill:#840000; fill-opacity:1.0; 
stroke:#840000; stroke-width:39.3701; stroke-opacity:1; 
stroke-linecap:round; stroke-linejoin:round;">
</g>
<g style="fill:#840000; fill-opacity:1.0; 
stroke:#840000; stroke-width:0; stroke-opacity:1; 
stroke-linecap:round; stroke-linejoin:round;">
<circle cx="75950" cy="35100" r="393.5" /> 
</g>
<g style="fill:#840000; fill-opacity:1.0; 
stroke:#840000; stroke-width:39.3701; stroke-opacity:1; 
stroke-linecap:round; stroke-linejoin:round;">
</g>
<g style="fill:#840000; fill-opacity:1.0; 
stroke:#840000; stroke-width:0; stroke-opacity:1; 
stroke-linecap:round; stroke-linejoin:round;">
<circle cx="76750" cy="36650" r="393.5" /> 
</g>
<g style="fill:#840000; fill-opacity:1.0; 
stroke:#840000; stroke-width:39.3701; stroke-opacity:1; 
stroke-linecap:round; stroke-linejoin:round;">
</g>
<g style="fill:#840000; fill-opacity:1.0; 
stroke:#840000; stroke-width:0; stroke-opacity:1; 
stroke-linecap:round; stroke-linejoin:round;">
<circle cx="75250" cy="30650" r="393.5" /> 
</g>
<g style="fill:#840000; fill-opacity:1.0; 
stroke:#840000; stroke-width:39.3701; stroke-opacity:1; 
stroke-linecap:round; stroke-linejoin:round;">
</g> 
</svg>
